<svg width="157" height="90" viewBox="0 0 157 90" fill="none" xmlns="http://www.w3.org/2000/svg">
<path d="M27.5292 16.91L29.0688 14.8867L49.1457 15.2371L51.6312 15.0977L57.3964 15.6573L61.4877 15.2352H91.7402L112.177 14.8848L130.979 15.2352L132.735 15.5586L133.696 16.0852L134.193 16.91L134.623 18.3273L134.339 21.9847L133.346 36.4847L132.351 47.854L130.878 49.9625C130.878 49.9625 130.547 51.6101 130.547 51.7747C130.547 51.9393 130.238 58.8495 130.238 58.8495L129.023 84.103L127.283 84.7613H123.316L50.6386 83.8204L31.204 83.7991L30.5617 81.7467L29.9525 61.4943V55.7381L30.5383 53.1668L29.9525 51.3371L28.2027 48.6923L27.5312 30.7479L27.0835 20.6139L27.5312 16.9061L27.5292 16.91Z" fill="#C1E4FC"/>
<path d="M66.6379 11.3073L67.6325 7.0961L68.1289 6.03314L69.3668 5.64784L70.5638 6.57721L82.3919 6.4165L88.6281 5.84727L90.1638 6.18029L91.1389 5.31482L92.2328 5.47746C92.2328 5.47746 93.4999 5.92278 93.5252 6.02152C93.5505 6.12027 94.3583 7.52981 94.3699 7.67695C94.3816 7.8241 94.3505 9.35756 94.2668 9.52987C94.1831 9.70219 94.2668 11.3073 94.2668 11.3073L93.2508 11.9017L92.1335 13.0905L91.2635 14.2793L91.3141 14.8853H99.339V13.9889L98.3211 12.6587C98.3211 12.6587 97.3382 11.7681 97.2759 11.6945C97.2136 11.6209 96.8788 11.2008 96.8788 11.2008L97.5737 7.02446L97.4238 5.31676L97.1143 3.96724L95.709 2.77262L93.8892 2.45122L91.5594 2.03107L90.5901 1.35147L90.193 0.61766L86.3664 0.336914H76.9499L72.9247 0.61766L70.5774 0.739639L70.0305 1.79098L69.6548 2.18015L68.3508 2.31569L66.8871 2.64096L65.1081 3.84333L64.4054 5.50844V7.79893L64.1797 10.7806L64.2634 11.3905L62.5817 12.2812L61.7039 14.1844L61.6377 14.8234L64.8843 15.3636H69.4816L69.6801 14.1864L68.3877 11.681L66.6399 11.3112L66.6379 11.3073Z" fill="#C1E4FC"/>
<path d="M31.2021 83.8041C30.4352 83.7905 30.6182 83.1051 30.3749 82.683C30.3165 82.745 30.2484 82.8166 30.0771 82.9986C29.9292 82.2493 29.7988 81.5833 29.6586 80.8669C29.3452 80.803 28.9482 80.6578 28.5472 80.652C27.3093 80.6346 26.0695 80.6462 24.8335 80.6907C23.2648 80.7488 21.6979 80.896 20.1291 80.9269C18.5117 80.9598 16.8943 80.9037 15.2749 80.8727C15.1309 80.8708 14.9888 80.7604 14.8467 80.7023C14.8545 80.6404 14.8623 80.5765 14.87 80.5145C15.4228 80.4874 15.9756 80.439 16.5303 80.439C18.1108 80.439 19.6912 80.4932 21.2717 80.4603C22.9923 80.4235 24.7109 80.2667 26.4315 80.2473C27.4942 80.2357 28.5609 80.3809 29.5457 80.4506C29.5457 79.2967 29.5457 77.9781 29.5457 76.6577C29.5457 75.2423 29.6859 73.8095 29.5087 72.4155C29.3569 71.217 29.5146 70.0321 29.39 68.8355C29.2246 67.242 29.3511 65.6176 29.355 64.0086C29.3569 62.9263 29.4075 61.8401 29.3414 60.7617C29.318 60.3899 29.0105 60.0375 28.8197 59.6503C29.4328 59.6774 29.3725 59.2301 29.3783 58.7345C29.3939 57.3385 29.4601 55.9425 29.5282 54.5465C29.5593 53.8882 29.7443 53.2183 29.6586 52.5794C29.6022 52.1573 29.2129 51.7662 28.9326 51.3886C28.302 50.5387 27.6169 49.7197 27.648 48.5734C27.648 48.5328 27.6246 48.4902 27.6052 48.4515C27.0038 47.2007 27.2471 45.8512 27.1342 44.5423C27.0738 43.8492 27.1517 43.1463 26.9259 42.4512C26.8305 42.1569 27.1127 41.7639 27.1166 41.4135C27.1381 39.9284 27.1166 38.4434 27.1166 36.9564C27.1166 34.662 27.0641 32.3638 27.1381 30.0713C27.2179 27.5717 27.0329 25.0934 26.8286 22.6093C26.7527 21.6954 26.7994 20.768 26.8578 19.8503C26.9317 18.677 27.0524 17.5036 27.2042 16.3381C27.2315 16.1289 27.4903 15.9411 27.6616 15.7611C27.9458 15.461 28.2981 15.2093 28.5239 14.8724C28.8314 14.4154 29.281 14.518 29.6761 14.5122C31.0133 14.4929 32.3524 14.5122 33.6896 14.5393C35.0014 14.5665 36.3113 14.6342 37.6232 14.6536C38.3005 14.6633 38.9779 14.5916 39.6552 14.5858C40.5681 14.5781 41.479 14.5974 42.3918 14.611C43.9548 14.6323 45.5158 14.6575 47.0787 14.6768C47.429 14.6807 47.7813 14.6652 48.1317 14.6691C48.8577 14.6787 49.5856 14.6633 50.3097 14.7136C51.933 14.8278 53.5523 15.0021 55.1776 15.097C56.2578 15.1589 57.3439 15.1279 58.428 15.1337C59.2105 15.1376 59.991 15.1337 60.7617 15.1337C60.9719 14.5819 61.0965 14.094 61.334 13.67C61.8789 12.7 62.4103 11.6951 63.621 11.364C63.7144 11.3388 63.8545 11.2401 63.8565 11.1704C63.8857 10.5973 63.9577 10.0145 63.8876 9.45108C63.6696 7.73563 63.839 6.11698 64.5552 4.50028C65.0827 3.31146 65.871 2.56216 67.0076 2.01616C67.6889 1.68895 68.2864 1.76446 68.9385 1.98712C69.5379 2.19235 70.2386 1.55342 70.2056 0.898989C70.1997 0.77701 70.4411 0.546605 70.589 0.531116C71.3091 0.449797 72.0371 0.418818 72.7611 0.376222C73.9951 0.304584 75.2291 0.229073 76.4632 0.169051C76.796 0.153562 77.1327 0.209711 77.4655 0.190349C78.357 0.140009 79.2445 0.0296467 80.136 0.0102849C81.261 -0.0148854 82.386 0.0102849 83.511 0.0412637C85.5274 0.0974128 87.5439 0.184541 89.5623 0.236817C90.1579 0.252307 90.5432 0.52918 90.7788 1.03259C91.0026 1.51082 91.2615 1.77801 91.8804 1.82448C93.0521 1.91355 94.2102 2.18267 95.3761 2.37242C96.0963 2.49053 97.2057 3.70063 97.521 4.35506C98.0368 5.42383 97.8285 6.52164 97.8091 7.59235C97.7877 8.79665 97.5191 9.99514 97.3439 11.2924C98.4825 12.0765 99.8742 12.8394 99.5394 14.6865C100.367 14.6865 101.112 14.671 101.858 14.6904C102.549 14.7078 103.239 14.7697 103.93 14.7969C104.111 14.8046 104.294 14.7272 104.475 14.7291C105.702 14.7388 106.928 14.7852 108.154 14.7697C109.355 14.7543 110.554 14.6633 111.755 14.6362C113.104 14.6052 114.453 14.6226 115.801 14.5916C116.736 14.5703 117.666 14.4851 118.6 14.46C118.949 14.4503 119.299 14.5548 119.651 14.5742C120.603 14.6245 121.559 14.6981 122.511 14.6846C123.809 14.6652 125.107 14.5355 126.405 14.5297C127.244 14.5258 128.081 14.6749 128.922 14.7349C129.512 14.7775 130.105 14.7852 130.697 14.8123C131.409 14.8433 132.128 14.8375 132.832 14.9305C133.114 14.9672 133.402 15.1918 133.622 15.399C134.012 15.7649 134.374 16.1657 134.703 16.5859C134.804 16.7156 134.757 16.9596 134.777 17.1512C134.8 17.3778 134.839 17.6043 134.843 17.8328C134.849 18.3207 134.823 18.8086 134.829 19.2965C134.839 20.3924 134.901 21.4902 134.862 22.5842C134.833 23.4283 134.658 24.2648 134.59 25.1089C134.496 26.2571 134.436 27.4091 134.372 28.5592C134.302 29.7925 134.249 31.0259 134.177 32.2592C134.097 33.6455 134.021 35.0318 133.914 36.4162C133.833 37.452 133.694 38.484 133.599 39.5199C133.548 40.0717 133.541 40.6274 133.498 41.1811C133.43 42.0563 133.358 42.9314 133.268 43.8046C133.155 44.916 133.039 46.0274 132.894 47.1349C132.762 48.1591 132.262 49.013 131.458 49.6461C131.106 49.9249 131.115 50.1727 131.191 50.5425C131.261 50.8775 131.223 51.2357 131.228 51.5842C131.236 51.9792 131.238 52.3761 131.246 52.7711C131.246 52.833 131.287 52.9008 131.269 52.9531C130.676 54.7673 131.001 56.6608 130.798 58.5099C130.658 59.7858 130.623 61.0734 130.555 62.3571C130.516 63.0851 130.532 63.8169 130.467 64.5411C130.343 65.9719 130.158 67.3969 130.041 68.8278C129.99 69.4473 130.066 70.0766 130.057 70.702C130.049 71.2732 129.989 71.8424 129.975 72.4136C129.944 73.6721 129.911 74.9306 129.913 76.1891C129.913 77.4302 130.002 78.6713 129.967 79.9104C129.936 81.0838 129.784 82.2551 129.716 83.4285C129.704 83.6298 129.841 83.8409 129.936 84.1332C129.876 84.2126 129.708 84.4353 129.539 84.6579C129.885 84.7973 130.23 84.9368 130.609 85.0897C130.683 84.8322 130.73 84.6715 130.75 84.6018C132.754 84.4624 134.718 84.3249 136.684 84.1874C135.076 83.7809 133.445 84.0364 131.731 83.8641C131.878 83.7537 132.021 83.5601 132.176 83.5485C133.346 83.4711 134.518 83.4168 135.691 83.3801C136.404 83.3568 137.118 83.3762 137.869 83.3762C137.832 83.4498 137.776 83.5563 137.673 83.7537C138.716 83.8312 139.722 83.9106 140.727 83.9764C141.612 84.0345 142.502 84.0538 143.385 84.1371C143.849 84.1816 144.296 84.3617 144.76 84.4217C145.048 84.4585 145.349 84.3849 145.836 84.3462C145.552 84.2165 145.452 84.172 145.353 84.1255C145.357 84.0732 145.363 84.0209 145.367 83.9687C147.01 84.05 148.652 84.1294 150.295 84.2107C150.311 84.2649 150.324 84.3191 150.34 84.3753C150.147 84.445 149.958 84.5573 149.762 84.5766C148 84.7393 146.237 84.8787 144.473 85.0394C143.097 85.1633 141.727 85.3395 140.349 85.4266C139.253 85.4963 138.148 85.4305 137.05 85.4886C135.719 85.5602 134.391 85.7093 133.062 85.8061C132.184 85.87 131.302 85.9261 130.423 85.9261C130.156 85.9261 129.891 85.8835 129.644 85.5428C129.259 85.0123 129.12 85.6667 128.86 85.99C128.77 85.7286 128.733 85.5312 128.636 85.3685C128.544 85.2156 128.391 85.0994 128.266 84.9658C128.161 85.1362 128.009 85.293 127.96 85.4789C127.908 85.6783 127.949 85.9029 127.832 86.1662C127.962 85.2814 127.421 85.3066 126.876 85.3646C126.32 85.4247 125.767 85.3782 125.23 85.717C124.959 85.8874 124.402 85.8022 124.066 85.6434C123.12 85.1981 122.127 85.3879 121.16 85.3201C120.187 85.2523 119.208 85.2949 118.23 85.2949C117.477 85.2949 116.722 85.3143 115.969 85.3066C114.727 85.2911 113.487 85.2582 112.245 85.2349C110.963 85.2097 109.68 85.1807 108.399 85.1691C107.467 85.1594 106.537 85.1807 105.604 85.1749C104.908 85.171 104.211 85.1265 103.514 85.1381C102.823 85.1478 102.134 85.2291 101.443 85.2349C100.625 85.2407 99.808 85.202 98.9905 85.1749C97.8986 85.1381 96.7989 85.1633 95.7187 85.0336C94.7571 84.9193 93.8132 85.1691 92.8439 85.0026C92.149 84.8825 91.4055 85.0549 90.6834 85.0665C90.1929 85.0742 89.7005 85.0161 89.208 85.0084C88.1531 84.991 87.0982 84.9852 86.0432 84.9774C84.5542 84.9658 83.0653 84.9639 81.5763 84.9445C80.0133 84.9232 78.4504 84.8729 76.8875 84.8593C76.0058 84.8516 75.1221 84.9193 74.2404 84.9096C73.3723 84.9019 72.5062 84.8206 71.6381 84.807C70.914 84.7954 70.19 84.8419 69.464 84.8496C68.7516 84.8554 68.0412 84.8554 67.3288 84.838C66.9317 84.8283 66.5347 84.7412 66.1396 84.7528C64.7576 84.7993 63.3777 84.9116 61.9977 84.9232C61.2289 84.929 60.4581 84.776 59.6873 84.7141C59.3467 84.687 59.0022 84.7141 58.6577 84.6986C58.0718 84.6754 57.4879 84.627 56.9021 84.6095C56.3298 84.5921 55.7556 84.594 55.1834 84.5999C54.4574 84.6076 53.7275 84.6657 53.0035 84.6328C51.6936 84.5708 50.3875 84.4179 49.0776 84.3772C48.3477 84.354 47.6159 84.5185 46.8821 84.5282C46.415 84.534 45.9498 84.3733 45.4807 84.3598C44.2019 84.323 42.9212 84.3385 41.6405 84.3114C40.0153 84.2765 38.3881 84.1642 36.7629 84.1836C34.5868 84.2087 32.4108 84.3269 30.1627 84.4062C30.1627 84.3946 30.1413 84.2571 30.1238 84.1313C30.4897 84.0093 30.8323 83.897 31.1729 83.7828C31.6692 83.8486 31.9612 83.382 32.5392 83.411C34.2015 83.4962 35.8753 83.3355 37.5434 83.291C39.5112 83.2407 41.479 83.2097 43.4468 83.1729C44.0852 83.1613 44.7236 83.169 45.36 83.1497C46.1775 83.1264 46.993 83.0645 47.8105 83.0528C48.9667 83.0354 50.1248 83.0606 51.2829 83.047C52.8147 83.0296 54.3465 82.9754 55.8783 82.9735C57.3244 82.9715 58.7725 83.0393 60.2187 83.0316C61.7719 83.0257 63.3251 82.9522 64.8783 82.9386C65.8846 82.9289 66.8909 82.987 67.8991 82.9909C69.2966 82.9967 70.6941 82.9638 72.0896 82.9773C73.5747 82.9928 75.0579 83.0528 76.541 83.078C77.4461 83.0935 78.3531 83.0567 79.2581 83.0877C80.3559 83.1264 81.4498 83.2368 82.5475 83.2697C84.3596 83.322 86.1736 83.32 87.9857 83.3684C89.6265 83.413 91.2634 83.5059 92.9042 83.5582C94.4146 83.6066 95.925 83.6453 97.4354 83.6589C98.5078 83.6686 99.5822 83.6066 100.655 83.6143C102.584 83.6279 104.514 83.6724 106.443 83.7015C107.296 83.7131 108.148 83.7015 108.999 83.7228C109.986 83.746 110.986 83.9086 111.957 83.8021C113.363 83.6473 114.743 83.3704 116.175 83.5504C117.135 83.6705 118.116 83.624 119.085 83.6957C120.301 83.7828 121.514 83.9319 122.732 84.019C123.402 84.0655 124.075 84.0442 124.749 84.0442C125.522 84.0442 126.298 84.0713 127.067 84.0093C127.262 83.9938 127.517 83.715 127.596 83.502C127.703 83.2194 127.659 82.8825 127.69 82.5688C127.869 80.7895 128.048 79.0121 128.231 77.2346C128.363 75.9529 128.575 74.675 128.626 73.3913C128.712 71.1667 128.675 68.9401 128.733 66.7135C128.766 65.4511 128.899 64.1906 128.957 62.9282C128.971 62.6398 128.727 62.1712 128.834 62.0879C129.216 61.7975 129.015 61.4122 129.124 61.0928C129.3 60.5758 129.449 60.0433 129.547 59.5051C129.697 58.6706 129.802 57.8284 129.893 56.9861C129.905 56.8719 129.732 56.6337 129.636 56.6299C129.021 56.6008 128.4 56.5892 127.787 56.6337C126.306 56.7364 124.825 56.8545 123.347 57.0035C122.392 57.1004 121.405 57.1275 120.418 57.8342C123.233 58.053 125.87 57.5534 128.525 57.6425C124.891 58.1246 121.214 58.144 117.582 58.6106L117.596 58.8816H122.73C122.73 58.9552 122.727 59.0268 122.725 59.1004C118.711 59.1837 114.69 58.7558 110.682 59.2224C111.214 59.2979 111.747 59.2573 112.273 59.3057C113.647 59.4315 115.015 59.6213 116.389 59.7355C117.374 59.8168 118.365 59.8207 119.354 59.8575L119.336 59.8284C119.278 59.8885 119.217 60.0027 119.159 60.0027C117.946 60.0104 116.734 59.9775 115.523 60.0124C114.752 60.0356 113.983 60.1537 113.215 60.2428C113.152 60.2505 113.11 60.3764 113.043 60.4267C112.847 60.57 112.658 60.781 112.44 60.8217C111.57 60.9843 110.694 61.1586 109.812 61.207C108.144 61.296 106.47 61.2883 104.799 61.3541C104.575 61.3619 104.359 61.5574 104.139 61.6659C104.162 61.7065 104.185 61.7452 104.209 61.7859H103.306C103.3 61.842 103.294 61.9001 103.288 61.9563C103.551 62.0086 103.825 62.1325 104.074 62.0957C104.508 62.0318 104.923 61.8072 105.355 61.7704C105.704 61.7394 106.07 61.9505 106.426 61.9427C107.545 61.9176 108.662 61.8382 109.779 61.7801C111.377 61.6988 112.975 61.6078 114.573 61.54C115.105 61.5187 115.638 61.5594 116.169 61.5768C116.195 61.5768 116.22 61.6291 116.274 61.6891C116.123 61.7414 115.986 61.7898 115.825 61.8459C116.035 61.9079 116.198 61.9563 116.362 62.0047C115.389 62.1983 114.435 62.2351 113.487 62.3319C113.18 62.3629 112.87 62.632 112.716 62.1344C112.712 62.1228 112.642 62.1344 112.568 62.1344C112.578 62.2583 112.588 62.3745 112.603 62.5701C107.381 62.7966 102.163 63.0251 96.9429 63.2516C96.9352 63.1548 96.9254 63.0599 96.9176 62.9631C97.5989 62.9186 98.2781 62.876 98.9594 62.8314C98.9594 62.7753 98.9594 62.7211 98.9613 62.6649C98.7725 62.6146 98.5818 62.5216 98.393 62.5236C97.3556 62.5352 96.3181 62.6088 95.2807 62.5894C93.1358 62.5507 90.9909 62.4752 88.848 62.3958C88.5774 62.3861 88.3107 62.2525 87.8825 62.1305C93.1008 62.1867 98.1088 62.1693 103.117 61.9466C98.2373 61.4529 93.3402 61.7201 88.4548 61.6155C88.4528 61.5516 88.4489 61.4858 88.447 61.4219C88.9453 61.3948 89.4435 61.3677 90.0255 61.3348C89.4805 60.7191 88.519 61.6387 88.2407 60.6784C87.8436 60.5855 87.4524 60.4809 87.0573 60.4035C86.4539 60.2873 85.8311 60.7152 85.8116 61.267C85.7921 61.8149 85.8077 62.3629 85.8077 62.9302C86.0841 62.9631 86.3313 62.9921 86.5765 63.0212C85.7921 63.1102 85.58 63.5052 85.7415 64.1964C85.7688 64.3126 85.7026 64.4501 85.6929 64.5779C85.6267 65.3465 85.5625 66.1171 85.4924 66.9613C81.3602 66.7425 77.1269 67.6564 72.7981 66.787C72.7923 66.7503 72.7281 66.5431 72.7397 66.3417C72.7767 65.7415 72.874 65.1452 72.8857 64.5469C72.8896 64.3591 72.695 64.1693 72.6152 64.0261C72.6599 63.9447 72.8176 63.7802 72.8371 63.604C72.8624 63.3561 72.7358 63.0948 72.7592 62.8469C72.7845 62.5972 72.9577 62.3609 72.9889 62.1092C73.1154 61.1044 73.1018 61.1218 72.0663 61.0405C71.7179 61.0134 71.3792 60.8701 70.9958 60.7713C71.206 60.75 71.3714 60.7326 71.4649 60.7229V59.447C70.6007 59.447 69.7851 59.3405 69.0124 59.476C68.2417 59.6116 67.4028 59.0114 66.7021 59.7084C66.6846 59.7258 66.6203 59.691 66.5756 59.689C65.0866 59.6522 63.5956 59.6174 62.1067 59.5787C60.6313 59.5419 59.1579 59.4935 57.6826 59.4722C57.5619 59.4722 57.4393 59.6387 57.3166 59.7297C57.4354 59.7878 57.5541 59.8904 57.6748 59.8943C58.7317 59.9252 59.7905 59.9214 60.8454 59.962C62.7762 60.0395 64.7051 60.1266 66.6339 60.237C67.975 60.3144 69.3141 60.4403 70.6532 60.5448C70.6474 60.6164 70.6435 60.69 70.6376 60.7617C68.5531 60.6397 66.4685 60.4228 64.3839 60.419C61.8498 60.4151 59.3156 60.113 56.7736 60.5526C55.4267 60.7849 54.0175 60.7016 52.6375 60.6997C50.7826 60.6978 48.9277 60.6126 47.0709 60.6068C45.652 60.6029 44.2331 60.7074 42.8161 60.6842C41.2688 60.659 39.7233 60.5293 38.176 60.4693C37.3137 60.4364 36.4456 60.4906 35.5853 60.4422C34.1314 60.3589 32.6833 60.2118 31.2293 60.1363C31.0814 60.1285 30.8342 60.4015 30.7817 60.5855C30.7135 60.8294 30.8187 61.116 30.8031 61.3812C30.7642 62.0008 30.6493 62.6204 30.6532 63.24C30.661 64.7347 30.7311 66.2294 30.7525 67.7242C30.7797 69.4686 30.7622 71.2131 30.8031 72.9576C30.8459 74.7447 30.9452 76.5318 30.9997 78.3189C31.0152 78.8455 30.9471 79.3741 30.9471 79.9027C30.9471 80.6442 30.9549 81.3858 30.9977 82.1274C31.0289 82.6889 31.1203 83.2465 31.1846 83.806L31.2021 83.8041ZM87.2169 58.0917C87.8572 58.0917 88.4295 58.0878 89.0017 58.0917C90.9831 58.1033 92.9645 58.1285 94.9479 58.1285C97.5483 58.1285 100.151 58.111 102.751 58.0955C103.8 58.0897 104.849 58.0781 105.898 58.0471C106.947 58.0142 107.996 57.9484 109.046 57.9058C110.069 57.8651 111.095 57.8322 112.119 57.8013C112.81 57.78 113.503 57.7935 114.192 57.749C115.223 57.6812 116.255 57.596 117.283 57.4818C118.217 57.3792 119.196 57.3675 120.062 57.0558C120.844 56.7751 121.51 56.1594 122.207 55.6618C122.943 55.1351 123.651 54.5736 124.369 54.0218C125.167 53.4081 125.911 52.7033 126.775 52.1999C127.571 51.7352 128.309 51.1911 129.192 50.8117C130.339 50.3199 131.162 49.1833 131.787 48.0371C131.913 47.8067 131.84 47.4737 131.888 47.1929C132.015 46.4553 132.2 45.7234 132.281 44.9818C132.412 43.8066 132.474 42.6236 132.571 41.4444C132.599 41.1153 132.667 40.79 132.68 40.4628C132.715 39.5896 132.69 38.7106 132.764 37.8412C132.867 36.6156 133.05 35.3978 133.177 34.1722C133.288 33.086 133.367 31.9978 133.457 30.9097C133.558 29.6667 133.661 28.4256 133.749 27.1826C133.881 25.3277 134.002 23.4729 134.128 21.618C134.195 20.6422 134.253 19.6663 134.333 18.6905C134.424 17.5617 133.86 16.5878 132.945 16.1986C131.69 15.6643 130.349 15.8346 129.068 15.8346C128.258 15.8346 127.476 15.5345 126.602 15.7746C125.747 16.0089 124.77 15.8095 123.848 15.7921C123.47 15.7843 123.094 15.7611 122.719 15.7301C122.275 15.6933 121.831 15.5984 121.389 15.6042C120.741 15.612 120.095 15.7282 119.447 15.7223C117.977 15.7088 116.51 15.641 115.042 15.6139C114.77 15.6081 114.493 15.7262 114.221 15.7223C113.499 15.7127 112.775 15.6294 112.053 15.641C110.513 15.6681 108.948 15.9276 107.442 15.7262C106.393 15.5868 105.384 15.7417 104.359 15.672C102.986 15.5791 101.599 15.763 100.219 15.7533C99.0878 15.7456 97.957 15.6101 96.8261 15.5733C96.3707 15.5578 95.9114 15.701 95.4559 15.6933C94.2745 15.6701 93.058 15.4087 91.9193 15.6062C90.6172 15.8308 89.3735 15.3855 88.0811 15.6139C87.1877 15.7727 86.2301 15.55 85.2997 15.5403C84.5114 15.5307 83.7212 15.5984 82.9329 15.6004C81.9364 15.6023 80.9418 15.5462 79.9452 15.5636C79.1355 15.5771 78.3297 15.6623 77.52 15.7146C77.0763 15.7436 76.6325 15.7959 76.1887 15.7882C75.6846 15.7785 75.1785 15.6643 74.6764 15.6778C72.6483 15.7359 70.6221 15.854 68.5939 15.8927C67.0096 15.9218 65.4233 15.8366 63.8389 15.8521C61.6084 15.8753 59.3778 15.9528 57.1454 15.9876C56.2928 16.0012 55.4384 16.0012 54.5898 15.9431C53.5893 15.8753 52.5947 15.6759 51.5943 15.6468C50.224 15.6081 48.8518 15.7088 47.4816 15.6933C46.5785 15.6836 45.6773 15.5384 44.7722 15.521C43.4 15.4939 42.0278 15.5287 40.6576 15.5268C40.1204 15.5268 39.5812 15.5036 39.044 15.4842C38.7618 15.4745 38.4815 15.4319 38.2013 15.4358C36.8213 15.4513 35.4394 15.5229 34.0613 15.4861C32.8117 15.4532 31.5661 15.2693 30.3165 15.2364C29.9175 15.2267 29.4445 15.3971 29.1214 15.6372C28.3954 16.1773 27.7492 16.7195 27.8504 17.8599C27.9945 19.4824 27.8621 21.1281 27.8855 22.7642C27.8991 23.682 28.0159 24.5978 28.0412 25.5155C28.1015 27.7402 28.1268 29.9649 28.1813 32.1876C28.2047 33.1595 28.2806 34.1315 28.302 35.1054C28.3215 35.9573 28.2786 36.8092 28.3 37.6592C28.3215 38.486 28.4168 39.3108 28.4285 40.1375C28.4441 41.1753 28.3974 42.2131 28.3935 43.249C28.3857 44.6314 28.4772 46.0216 28.3604 47.3943C28.2961 48.163 28.409 48.7632 28.8917 49.3421C29.137 49.6383 29.3569 49.9675 29.5165 50.316C29.7598 50.8465 29.9856 50.6645 30.1257 50.4883C30.4177 51.044 30.6571 51.7217 31.0814 52.2522C31.6751 52.9976 32.438 53.6036 33.0706 54.3219C34.4214 55.8573 35.9941 57.1352 37.666 58.295C37.9677 58.5041 38.429 58.5447 38.8202 58.5544C39.3788 58.566 39.9374 58.4595 40.498 58.4324C41.3914 58.3898 42.2867 58.3666 43.182 58.3434C44.9085 58.2988 46.6349 58.2059 48.3594 58.2311C49.9905 58.2543 51.6176 58.4034 53.2468 58.5021C54.4321 58.5738 55.6175 58.6977 56.8047 58.7171C58.8231 58.75 60.8415 58.719 62.8599 58.7171C63.5509 58.7171 64.2418 58.75 64.9309 58.7267C66.0442 58.69 67.1556 58.5602 68.267 58.5777C69.3375 58.5951 70.4041 58.748 71.4181 58.8352C71.5135 58.0336 71.6322 57.0965 71.7354 56.1574C71.7821 55.7276 71.8094 55.2939 71.8308 54.8602C71.8463 54.5349 71.8347 54.2058 71.8424 53.8805C71.86 53.1951 71.9534 52.5019 71.8872 51.8262C71.7938 50.8755 71.8697 50.0004 72.3446 49.3421C72.7144 49.4757 73.0064 49.6945 73.2594 49.6538C74.5168 49.4583 75.7586 49.1736 77.012 48.9587C77.993 48.7922 78.9798 48.6548 79.9705 48.5599C80.3948 48.5192 80.8367 48.5967 81.2629 48.6702C81.5957 48.7283 81.915 48.9549 82.2381 48.9529C83.7484 48.9394 85.2588 48.8561 86.7692 48.8329C87.069 48.829 87.4991 48.7264 87.5614 49.255C87.6529 50.0333 87.8689 50.8155 87.8397 51.5881C87.7911 52.8369 87.5731 54.0799 87.4466 55.3288C87.357 56.2175 87.3045 57.1081 87.2286 58.0878L87.2169 58.0917ZM90.37 6.30479C90.333 6.28156 90.2454 6.177 90.1637 6.18088C89.3326 6.21766 88.4957 6.23122 87.6704 6.33577C86.779 6.44807 85.905 6.70945 85.0136 6.80045C83.3767 6.9689 81.7359 7.11218 80.0912 7.17026C78.7054 7.2206 77.3137 7.13541 75.924 7.1083C74.1878 7.07345 72.4517 7.0599 70.7174 6.98245C70.3496 6.96696 69.8124 6.81594 69.6664 6.55262C69.3258 5.94466 68.8606 6.15377 68.5025 6.30092C68.2261 6.41515 67.9497 6.79077 67.8835 7.09475C67.6013 8.4249 67.395 9.77055 67.1536 11.1665C67.6246 11.2963 68.0217 11.426 68.4285 11.5131C68.8762 11.608 69.2051 11.7938 69.3472 12.2682C69.5477 12.9304 69.9058 13.5674 69.9817 14.2392C70.0557 14.8975 70.4041 14.8937 70.8556 14.8782C71.7373 14.8453 72.621 14.7814 73.5027 14.7678C74.2813 14.7562 75.0598 14.822 75.8384 14.8027C76.9342 14.7736 78.028 14.6768 79.1238 14.6478C80.0406 14.6245 80.9573 14.6768 81.8741 14.6555C82.275 14.6458 82.674 14.4832 83.0731 14.4851C83.8127 14.489 84.5523 14.5548 85.29 14.609C85.7357 14.642 86.1795 14.7175 86.6252 14.7523C86.9911 14.7814 87.505 14.9305 87.6976 14.7523C88.0616 14.4154 88.3477 14.5452 88.6942 14.6303C88.9472 14.6923 89.2041 14.7465 89.463 14.7852C90.333 14.9188 90.5082 14.7388 90.9228 13.9469C91.2654 13.2944 91.8026 12.7445 92.2385 12.1385C92.6667 11.5441 93.2078 11.1859 93.891 11.3253C93.7509 10.7909 93.5485 10.3049 93.5076 9.80346C93.4589 9.18969 93.5874 8.56237 93.5601 7.94473C93.5387 7.44326 93.527 6.87015 93.2818 6.46549C92.8692 5.7859 92.0556 5.64649 91.3257 5.64262C91.0143 5.64262 90.7028 6.05696 90.37 6.29898V6.30479ZM81.9811 56.4672C82.7519 56.4672 83.4526 56.4788 84.1533 56.4634C84.9688 56.4479 85.7318 56.4498 85.7396 57.5921C85.7396 57.7625 86.0821 57.929 86.2651 58.0994C86.3683 57.869 86.5473 57.6425 86.561 57.4082C86.5999 56.686 86.5396 55.9599 86.5843 55.2378C86.6739 53.7895 86.8451 52.3451 86.9113 50.8949C86.96 49.8339 86.886 49.9055 85.9128 49.6015C84.5698 49.1814 83.258 49.5028 81.9383 49.6015C80.7977 49.6867 79.6669 49.892 78.5302 50.0314C77.6504 50.1398 76.7687 50.2521 75.8851 50.316C75.4141 50.3489 74.9002 50.3818 74.4662 50.2327C73.9231 50.0469 73.4794 50.2018 73.0181 50.3857C72.9013 50.4322 72.767 50.62 72.767 50.742C72.767 51.6752 72.8624 52.6123 72.8117 53.5417C72.7008 55.5727 72.5412 57.6038 72.3524 59.629C72.294 60.2524 72.5373 60.3318 73.0609 60.2273C73.0823 60.0666 73.1154 59.9194 73.1212 59.7703C73.1426 59.1953 73.1212 58.6183 73.1796 58.0471C73.2614 57.2611 73.4638 57.1449 74.2657 57.1759C74.653 57.1894 75.0559 57.1488 75.4277 57.05C75.8014 56.9493 76.3678 56.8293 76.4651 56.5737C76.7979 55.6947 77.2787 55.2571 78.2441 55.5108C78.2791 55.5204 78.3297 55.4972 78.3667 55.4759C79.3088 54.9551 80.3617 55.0751 81.3758 54.9744C81.732 54.9396 81.9403 55.0945 81.9188 55.5069C81.9013 55.8399 81.9578 56.1749 81.9772 56.4653L81.9811 56.4672ZM70.6318 0.916415C69.7618 2.60476 69.8163 4.31634 70.2639 6.21379C70.733 5.97177 71.0834 5.67166 71.4668 5.61938C72.4711 5.48192 73.491 5.43545 74.5051 5.38898C75.5522 5.34058 76.6052 5.37736 77.6524 5.30379C79.2971 5.18762 80.9379 5.01917 82.5787 4.85847C83.4759 4.7694 84.3693 4.61451 85.2686 4.55449C86.0432 4.50221 86.8237 4.54287 87.6023 4.54287C87.6081 4.56417 87.614 4.58547 87.6198 4.60677C87.1624 4.74036 86.703 4.87589 86.2456 5.00949C86.2612 5.05596 86.2768 5.10243 86.2943 5.14889H89.062C88.7117 5.3367 88.5385 5.42964 88.3322 5.54C88.4139 5.58841 88.4314 5.60583 88.4509 5.60583C88.7973 5.61358 89.1652 5.54968 89.4864 5.64068C90.1832 5.84011 90.6425 5.78783 90.7243 4.93011C90.7573 4.58353 91.0902 4.21759 91.0221 3.91942C90.7924 2.91648 90.4751 1.92903 90.1112 0.964819C90.0411 0.780883 89.6207 0.709244 89.3501 0.625989C89.2255 0.587265 89.0698 0.66084 88.9277 0.66084C87.0261 0.668585 85.1245 0.653095 83.2229 0.682138C81.2765 0.71118 79.3321 0.77701 77.3857 0.837032C77.084 0.846713 76.7843 0.94933 76.4826 0.951266C75.5892 0.955139 74.6939 0.922224 73.8005 0.916415C72.765 0.90867 71.7315 0.916415 70.6357 0.916415H70.6318ZM81.9013 57.0713C81.9403 58.7364 81.9539 60.4228 82.0278 62.1073C82.0921 63.5594 81.5121 64.3978 80.3092 64.3455C79.0947 64.2932 77.884 64.1616 76.6753 64.0435C76.4826 64.0241 76.3036 63.8925 76.2315 63.8634C76.4067 63.511 76.6189 63.2826 76.6228 63.0502C76.6442 61.3464 76.6364 59.6445 76.5975 57.9407C76.5936 57.7625 76.3211 57.4334 76.1829 57.4392C75.5211 57.4624 74.8593 57.5592 74.2054 57.6773C74.0847 57.6986 73.966 57.9348 73.9212 58.0917C73.8803 58.2388 73.9601 58.4131 73.9543 58.5738C73.9134 60.1053 73.892 61.6388 73.8083 63.1683C73.7538 64.15 73.9504 65.1936 73.2322 66.0668C73.3451 66.1636 73.4385 66.3127 73.5397 66.3165C74.0438 66.3359 74.5499 66.3437 75.052 66.3049C75.5133 66.2701 75.9707 66.1055 76.4262 66.1171C77.7653 66.1539 79.1024 66.2759 80.4435 66.3165C81.1851 66.3398 81.9286 66.2449 82.6701 66.2391C83.2541 66.2352 83.8399 66.2856 84.49 66.3127C84.4647 66.3533 84.5212 66.303 84.527 66.2468C84.6029 65.3155 84.6846 64.3823 84.7411 63.4491C84.7878 62.6959 84.8404 61.9389 84.8189 61.1857C84.7839 59.9252 84.6944 58.6687 84.6204 57.3095C83.8789 57.2436 82.9952 57.1642 81.8994 57.0674L81.9013 57.0713ZM77.0159 63.4665C78.0494 63.3987 79.192 63.329 80.3345 63.2496C81.3369 63.1799 81.4186 63.056 81.3291 62.0647C81.2026 60.6803 81.0722 59.2921 81.0138 57.9039C80.9904 57.323 80.6985 56.6957 81.1773 56.14C81.2843 56.0161 81.296 55.8089 81.3505 55.6405C81.1753 55.5882 80.9943 55.4798 80.823 55.4914C79.6474 55.5746 78.4738 55.6831 77.3176 55.7799C77.2203 58.2795 77.1191 60.841 77.0159 63.4665ZM91.4152 4.7907C91.8356 4.88364 92.2055 4.96302 92.5753 5.04434C93.7178 5.29604 94.909 6.62232 94.9693 7.81307C95.0199 8.82763 95.2009 9.86929 94.6345 10.8277C94.5645 10.9477 94.6248 11.1433 94.6248 11.3059H96.5614C96.5614 10.8509 96.5498 10.3708 96.5634 9.89059C96.6159 8.22161 97.4315 6.61071 96.978 4.90687C96.8651 4.48091 96.7191 3.94847 96.4018 3.71032C94.9985 2.65704 93.3032 2.48859 91.6254 2.32014C91.5534 3.16625 91.4833 3.96783 91.4133 4.78877L91.4152 4.7907ZM69.3667 2.41308C68.483 2.70157 67.6461 3.05782 66.7741 3.23983C65.4934 3.50702 65.1586 4.44606 64.9951 5.50321C64.9017 6.10149 65.0223 6.72881 64.9523 7.3329C64.8063 8.57205 64.5941 9.80346 64.4034 11.0833C64.9815 11.0833 65.5673 11.0407 66.1454 11.0988C66.4958 11.1336 66.6009 11.0504 66.632 10.7231C66.739 9.61178 66.8052 8.49073 67.0096 7.39679C67.0972 6.92824 67.3989 6.42096 67.757 6.10149C68.1852 5.71813 68.775 5.51677 69.3647 5.19923V2.41308H69.3667ZM57.0617 59.7897C57.0636 59.7103 57.0675 59.6309 57.0694 59.5516C56.7191 59.5186 56.3688 59.4664 56.0184 59.4547C55.0647 59.4218 54.111 59.4373 53.1592 59.3773C51.9738 59.3037 50.7943 59.0927 49.6109 59.0849C47.3745 59.0714 45.1362 59.1546 42.8998 59.2147C42.5105 59.2243 42.1232 59.3831 41.7378 59.3734C39.9433 59.325 38.1507 59.2263 36.3561 59.1759C35.4744 59.1508 34.5907 59.1992 33.7071 59.1934C33.5494 59.1934 33.3937 59.0927 33.2361 59.0385C33.2516 58.9823 33.2672 58.9281 33.2828 58.872C33.6779 58.8429 34.0769 58.8255 34.4701 58.781C34.8048 58.7422 35.2428 59.0559 35.5269 58.4847C33.927 58.3899 32.4069 58.2524 30.9023 58.5312C30.9023 58.628 30.9023 58.7248 30.9023 58.8236H33.1485C33.1485 58.9184 33.1524 59.0114 33.1524 59.1062H30.9238C30.9199 59.234 30.9179 59.3618 30.914 59.4915C35.5581 59.5535 40.2002 59.691 44.8423 59.7781C48.9122 59.8555 52.984 59.7936 57.0539 59.7936L57.0617 59.7897ZM69.3199 14.7446C69.0864 14.2354 68.8353 13.8443 68.7302 13.4202C68.5219 12.5857 68.1852 12.0107 67.1867 11.9875C66.0695 11.9604 64.9328 11.4686 63.8701 12.2276C63.7008 12.3476 63.4536 12.3689 63.3076 12.5064C62.821 12.9614 62.3149 13.4106 61.914 13.9353C61.6668 14.2567 62.0016 14.791 62.4453 14.7775C62.9689 14.762 63.4944 14.5045 64.0083 14.5374C65.614 14.6381 67.2587 14.0921 68.8314 14.8085C68.9229 14.8511 69.0669 14.7814 69.3219 14.7446H69.3199ZM91.9369 13.8152H98.2353C98.2626 13.7397 98.2918 13.6661 98.319 13.5906C98.0173 13.3254 97.6358 13.1124 97.4256 12.7871C96.8378 11.8771 96.0184 11.7706 95.0841 12.0165C94.5547 12.1559 94.0545 12.487 93.5251 12.5277C92.6804 12.5935 92.2716 13.0717 91.9349 13.8133L91.9369 13.8152ZM89.1165 60.5603C89.1127 60.6048 89.1107 60.6494 89.1068 60.6939C89.3015 60.7539 89.4941 60.8604 89.6907 60.8643C91.4717 60.903 93.2545 60.9379 95.0355 60.9417C95.6525 60.9417 96.2695 60.8004 96.8845 60.8178C97.7838 60.843 98.6791 61.0037 99.5764 61.0172C100.937 61.0385 102.297 60.994 103.658 60.9572C104.141 60.9437 104.621 60.8759 105.104 60.8314C105.098 60.7404 105.092 60.6494 105.089 60.5564H89.1165V60.5603ZM125.469 55.7838C125.465 55.8147 125.463 55.8457 125.459 55.8786C126.425 55.8205 127.39 55.7218 128.356 55.7334C128.581 55.7353 129.064 55.5979 129.15 56.1187C129.163 56.2078 129.426 56.3162 129.566 56.3065C129.699 56.2968 129.915 56.1574 129.934 56.049C130.061 55.3326 130.142 54.6104 130.238 53.8902C129.981 54.0877 129.907 54.471 129.728 54.5291C128.32 54.9841 126.892 55.3752 125.469 55.7876V55.7838ZM91.7442 14.3167C91.7442 14.3999 91.7403 14.4851 91.7403 14.5684H99.0917C98.8115 14.2218 98.5896 13.8501 98.0193 14.0379C97.6884 14.1463 97.3264 14.1831 96.976 14.1986C95.5338 14.2644 94.0915 14.3128 92.6473 14.3573C92.3475 14.367 92.0458 14.3322 91.7442 14.3167ZM122.707 56.7925C124.387 56.6124 126.069 56.4343 127.748 56.2542C127.739 56.1749 127.731 56.0955 127.721 56.0161C126.049 56.2775 124.28 55.6579 122.707 56.7925ZM30.8031 57.4121C32.7553 57.6696 34.6005 57.3095 36.288 58.1614C35.5873 57.3501 32.0254 56.8603 30.8031 57.4121ZM81.7067 5.41028C81.7067 5.45481 81.7028 5.49741 81.7009 5.54194C81.8313 5.57679 81.9636 5.64843 82.0921 5.64068C83.1373 5.57292 84.1825 5.4916 85.2277 5.41415C85.4184 5.4006 85.6228 5.42577 85.7999 5.36962C85.9225 5.33089 86.0101 5.17987 86.2067 4.98819C84.5854 5.14115 83.147 5.27668 81.7086 5.41028H81.7067ZM90.3934 59.2844C88.8908 59.0249 87.2714 59.1372 86.995 59.6019C88.1297 59.4954 89.1886 59.3967 90.3934 59.2844ZM129.545 53.2338C128.669 52.9027 127.863 53.0828 127.318 53.6908C128.165 53.5165 128.854 53.3752 129.545 53.2338ZM65.6335 83.5311C65.6335 83.593 65.6316 83.655 65.6296 83.715H68.5317C68.5317 83.6531 68.5317 83.5911 68.5317 83.5311H65.6355H65.6335ZM73.7577 83.8254C73.7538 83.7712 73.7518 83.717 73.748 83.6608H70.8673C70.8673 83.715 70.8693 83.7692 70.8712 83.8254H73.7577ZM101.435 62.7385C101.429 62.7075 101.424 62.6765 101.418 62.6456H99.189L99.1929 62.8643C99.9404 62.8218 100.686 62.7792 101.433 62.7366L101.435 62.7385ZM58.8076 83.5834C59.3817 83.7189 59.9657 83.9783 60.4853 83.4827C59.9267 83.5156 59.3662 83.5504 58.8076 83.5834ZM30.8284 56.2523C30.8926 56.262 30.9568 56.2697 31.0211 56.2794C31.1048 55.9445 31.1865 55.6114 31.2877 55.2068C31.1671 55.2068 30.8498 55.1952 30.8498 55.2068C30.8225 55.5533 30.8284 55.9019 30.8284 56.2504V56.2523Z" fill="#323AA4"/>
<path d="M29.7518 84.0008C29.2769 84.1111 28.726 84.1053 28.3407 84.3551C27.5096 84.8953 26.6142 84.6068 25.7578 84.6978C24.7126 84.8082 23.6499 84.7481 22.5969 84.8043C21.5575 84.8585 20.5221 84.9882 19.4827 85.0347C18.9202 85.0599 18.3557 84.9669 17.7913 84.9611C17.5597 84.9611 17.33 85.0754 17.0964 85.0947C16.3704 85.1567 15.6444 85.2264 14.9165 85.2438C13.4801 85.2787 12.0436 85.2593 10.6072 85.3077C9.5912 85.3425 8.57909 85.4587 7.56502 85.5245C7.43462 85.5323 7.30032 85.4587 7.16602 85.4239L7.16991 85.2167C8.40586 85.1412 9.64181 85.0657 10.9284 84.9882C10.7006 84.7869 10.5527 84.6552 10.4048 84.5235C10.578 84.4809 10.7902 84.4887 10.9206 84.3899C11.4578 83.9892 12.0339 84.1189 12.6217 84.1867C12.8027 84.2079 13.0791 84.1789 13.1706 84.0627C13.7798 83.2883 14.6868 83.4083 15.4634 83.3909C18.0891 83.3289 20.7167 83.3812 23.3443 83.3967C24.8333 83.4044 26.3242 83.3889 27.8112 83.4586C28.4574 83.4896 29.0939 83.7065 29.7343 83.8381C29.7382 83.8923 29.744 83.9485 29.7479 84.0027L29.7518 84.0008Z" fill="#323AA4"/>
<path d="M23.7399 81.4447C19.4034 81.7002 15.0649 81.9558 10.5552 82.2211C10.7615 82.01 10.8588 81.8203 10.9717 81.8106C12.3166 81.6983 13.6616 81.6092 15.0085 81.5221C16.2522 81.4408 17.494 81.3304 18.7377 81.3014C20.3961 81.2627 22.0544 81.2917 23.7127 81.2917C23.7224 81.342 23.7302 81.3943 23.7399 81.4447Z" fill="#323AA4"/>
<path d="M28.2862 87.3745C23.9672 87.845 19.6424 88.2419 15.2941 88.3426C15.2669 88.2807 15.2377 88.2187 15.2104 88.1568C15.3915 88.0754 15.5705 87.936 15.7554 87.9244C17.9685 87.7773 20.1834 87.6514 22.3965 87.5139C24.2669 87.3958 26.1355 87.2661 28.0059 87.148C28.0974 87.1422 28.1928 87.1848 28.2862 87.2061C28.2862 87.2642 28.2862 87.3203 28.2862 87.3784V87.3745Z" fill="#323AA4"/>
<path d="M38.4169 86.735C37.9381 87.2926 32.8386 87.6605 29.9502 87.312C30.2091 87.1668 30.3239 87.0506 30.4446 87.0467C31.5715 87.0041 32.7004 86.9983 33.8274 86.948C34.8959 86.8996 35.9645 86.7989 37.0331 86.7408C37.4924 86.7156 37.9518 86.7369 38.4189 86.7369L38.4169 86.735Z" fill="#323AA4"/>
<path d="M130.105 87.7987C127.281 87.9207 124.468 88.1724 121.66 87.8645C124.48 87.6671 127.3 87.4057 130.105 87.7987Z" fill="#323AA4"/>
<path d="M142.683 82.567C142.017 82.4837 141.347 82.4276 140.688 82.3095C140.294 82.2398 139.925 81.9977 139.533 81.9687C138.239 81.87 136.941 81.779 135.645 81.7867C134.134 81.7945 132.624 81.9068 131.111 81.9726C130.932 81.9803 130.753 81.9726 130.572 81.9726C130.57 81.9029 130.568 81.8351 130.566 81.7654C131.304 81.717 132.042 81.6241 132.779 81.626C134.767 81.6338 136.752 81.6802 138.739 81.7131C139.195 81.7209 139.654 81.6996 140.102 81.7635C140.44 81.8119 140.76 81.9784 141.092 82.0791C141.355 82.1585 141.622 82.2417 141.892 82.2746C142.157 82.3075 142.432 82.2824 142.7 82.2824C142.694 82.3772 142.687 82.4721 142.681 82.567H142.683Z" fill="#323AA4"/>
<path d="M139.415 82.9604C138.936 82.9236 138.535 82.8926 138.136 82.8617C138.142 82.7997 138.148 82.7377 138.154 82.6758C139.933 82.8249 141.712 82.972 143.489 83.1211C143.489 83.2198 143.487 83.3167 143.485 83.4154H139.36C139.374 83.2973 139.394 83.1443 139.415 82.9604Z" fill="#323AA4"/>
<path d="M143.551 86.646C144.982 86.4601 146.407 86.7815 147.831 86.8493C149.289 86.919 150.739 87.0991 152.193 87.2307C152.189 87.2907 152.187 87.3508 152.183 87.4108C149.313 87.2172 146.44 87.0216 143.569 86.828L143.551 86.646Z" fill="#323AA4"/>
<path d="M0.346191 84.2957C0.560293 83.8252 5.21019 83.0817 6.00626 83.4225C4.15136 83.8407 2.28673 84.1854 0.346191 84.2957Z" fill="#323AA4"/>
<path d="M18.8657 79.9295C20.6856 79.5384 22.5035 79.1957 24.3506 79.428C24.3545 79.5074 24.3584 79.5887 24.3642 79.6681C22.5327 79.7553 20.6992 79.8424 18.8677 79.9295H18.8657Z" fill="#323AA4"/>
<path d="M150.704 88.5655C150.85 87.9421 150.82 88.0389 151.227 88.1628C151.809 88.3429 152.438 88.401 153.053 88.4474C154.174 88.5326 155.299 88.5713 156.422 88.6352C156.469 88.6372 156.51 88.7127 156.656 88.8482C154.616 88.7514 152.691 88.6604 150.706 88.5655H150.704Z" fill="#323AA4"/>
<path d="M28.0178 81.1436C26.5346 81.2559 25.2014 81.3585 23.8662 81.4592C23.8603 81.3546 23.8545 81.2481 23.8506 81.1436H28.0178Z" fill="#323AA4"/>
<path d="M141.056 86.4161C140.933 86.5032 140.807 86.6697 140.69 86.6639C140.114 86.6368 139.54 86.5652 138.963 86.509C138.963 86.4432 138.963 86.3774 138.963 86.3115C139.66 86.3483 140.359 86.3832 141.056 86.4199V86.4161Z" fill="#323AA4"/>
<path d="M141.056 86.4209C141.791 86.4654 142.525 86.5099 143.261 86.5564C143.257 86.6145 143.251 86.6745 143.247 86.7326C142.502 86.8004 141.754 86.8894 141.058 86.4189V86.4209H141.056Z" fill="#323AA4"/>
<path d="M138.629 89.9997C138.185 89.9474 137.741 89.8932 137.297 89.841L137.317 89.6338C137.763 89.6725 138.206 89.7132 138.652 89.7519C138.644 89.8351 138.636 89.9165 138.629 89.9997Z" fill="#323AA4"/>
<path d="M119.365 59.8645C120.033 59.7987 120.7 59.6903 121.37 59.6767C123.114 59.6419 124.858 59.6457 126.602 59.6477C126.828 59.6477 127.051 59.7174 127.281 59.8761C126.703 59.911 126.125 59.9788 125.547 59.9768C123.513 59.9691 121.481 59.9381 119.447 59.9129C119.414 59.9129 119.381 59.8626 119.348 59.8355L119.365 59.8645Z" fill="#323AA4"/>
<path d="M69.7069 62.9496C57.6179 62.7637 45.5504 62.0241 33.477 61.4626C33.4751 61.4045 33.4731 61.3445 33.4712 61.2864C33.7885 61.2651 34.1096 61.2109 34.4249 61.2264C35.8886 61.3038 37.3503 61.4258 38.8159 61.4839C39.9974 61.5304 41.1827 61.5071 42.3661 61.5187C43.9388 61.5342 45.5134 61.4994 47.0803 61.6039C47.7109 61.6465 48.3123 61.8673 48.9332 61.5536C49.0169 61.511 49.194 61.6756 49.3342 61.7182C49.5541 61.784 49.7779 61.8634 50.0037 61.8711C51.8859 61.9311 53.77 61.9757 55.6521 62.026C57.1041 62.0647 58.5561 62.0783 60.0042 62.148C61.754 62.2332 63.4999 62.392 65.2497 62.4752C66.6336 62.5391 68.0194 62.5333 69.4033 62.5681C69.5162 62.5701 69.629 62.6553 69.7419 62.7017C69.7303 62.785 69.7186 62.8663 69.7088 62.9496H69.7069Z" fill="#323AA4"/>
<path d="M42.3042 63.209C48.3827 63.3368 54.4613 63.4626 60.5417 63.5904C60.5417 63.6717 60.5378 63.755 60.5378 63.8363C54.4593 63.7124 48.3808 63.5865 42.3003 63.4626C42.3003 63.3794 42.3042 63.2942 42.3042 63.2109V63.209Z" fill="#323AA4"/>
<path d="M67.5022 61.7085C66.2235 61.7337 64.9447 61.7763 63.6659 61.7821C61.6106 61.7918 59.5552 61.7898 57.4998 61.7666C56.2074 61.753 54.915 61.695 53.6226 61.6504C53.4864 61.6466 53.3521 61.604 53.2178 61.5788C53.2178 61.5013 53.2217 61.4239 53.2236 61.3464C53.9379 61.3464 54.6522 61.3426 55.3666 61.3464C56.6998 61.3561 58.0331 61.3677 59.3683 61.3871C61.0286 61.4123 62.6869 61.4471 64.3472 61.4742C65.1666 61.4878 65.988 61.4742 66.8074 61.5091C67.0429 61.5188 67.2726 61.6504 67.5061 61.7259V61.7066L67.5022 61.7085Z" fill="#323AA4"/>
<path d="M67.5024 61.7092V61.7285C67.5647 61.6472 67.627 61.4942 67.6854 61.4981C68.9155 61.5407 70.1456 61.5988 71.3757 61.6549C71.3757 61.713 71.3757 61.7692 71.3738 61.8273C70.4609 61.8273 69.55 61.8389 68.6391 61.8215C68.2596 61.8137 67.882 61.7479 67.5044 61.7072L67.5024 61.7092Z" fill="#323AA4"/>
<path d="M91.5166 63.0146H95.5339C95.2147 63.3748 93.2002 63.4309 91.5166 63.0146Z" fill="#323AA4"/>
<path d="M124.761 61.1844H120.265C120.265 61.1418 120.265 61.0973 120.263 61.0547H124.751C124.755 61.0973 124.757 61.1418 124.761 61.1844Z" fill="#323AA4"/>
<path d="M125.155 58.996H122.956C122.958 58.9554 122.962 58.9147 122.964 58.876H125.167C125.163 58.9166 125.159 58.9573 125.155 58.996Z" fill="#323AA4"/>
<path d="M64.2012 63.8652H61.9531C61.9551 63.7877 61.957 63.7103 61.9609 63.6328L64.1876 63.7838C64.1915 63.8109 64.1973 63.838 64.2012 63.8671V63.8652Z" fill="#323AA4"/>
<path d="M39.3613 63.3721H41.9967C41.9967 63.4089 42.0006 63.4476 42.0026 63.4844H39.3691C39.3691 63.4476 39.3652 63.4089 39.3633 63.3721H39.3613Z" fill="#323AA4"/>
<path d="M125.598 58.8516H127.307C127.307 58.9077 127.307 58.9639 127.307 59.0181H125.598C125.598 58.9619 125.598 58.9058 125.598 58.8516Z" fill="#323AA4"/>
<path d="M76.5698 4.56797C79.6685 4.36661 82.7651 4.16718 85.8638 3.96582C82.7866 4.46342 79.7074 4.95908 76.5776 4.82742C76.5757 4.74029 76.5718 4.6551 76.5698 4.56797Z" fill="#323AA4"/>
<path d="M62.4355 13.9776C63.87 13.5381 65.3337 13.4761 66.811 13.5478C66.8168 13.6116 66.8227 13.6755 66.8285 13.7394C65.3765 13.8866 63.9265 14.0337 62.4745 14.1809C62.4609 14.1131 62.4492 14.0453 62.4355 13.9776Z" fill="#323AA4"/>
<path d="M93.7437 13.1982H95.254C95.2579 13.2486 95.2618 13.2989 95.2638 13.3493C94.7597 13.3938 94.2556 13.4383 93.7514 13.4829C93.7495 13.388 93.7456 13.2931 93.7437 13.2002V13.1982Z" fill="#323AA4"/>
</svg>
