<svg width="110" height="113" viewBox="0 0 110 113" fill="none" xmlns="http://www.w3.org/2000/svg">
<path d="M28.5665 18.955L4.24284 19.8735L4.63183 14.1288L8.26618 7.61822L10.6261 5.39012L16.9125 4.38295L20.4364 2.34665L46.8272 3.97633L67.3476 3.69913L83.1984 3.44246L88.5977 5.65535L92.2078 9.56359L94.6657 15.0211L95.814 21.893L95.6481 27.6472L94.5761 34.2689L92.8834 41.1147L89.6735 50.7653L85.8596 66.3033L83.4532 75.7381L82.1221 83.3856L81.8794 89.0041L82.8853 94.035L92.8177 95.2585L98.78 94.8377L103.05 95.1191L106.373 95.2149L105.602 98.5996L102.525 105.027L99.0859 107.578L91.8532 108.483L76.3878 109.036L66.3268 109.907L51.0646 109.762L33.628 109.498L29.6077 109.382L24.4823 105.846L18.5777 96.4071L17.8154 86.8003L20.2329 73.3227L23.768 52.3932L27.5877 35.0402L29.3532 23.5173L28.5665 18.955Z" fill="#C1E4FC"/>
<path d="M28.2451 20.1904C28.0238 20.2274 27.8046 20.2956 27.5844 20.2954C26.7466 20.3023 25.9057 20.306 25.0692 20.2695C24.7377 20.2537 24.4112 20.0643 24.0853 20.0704C22.3378 20.1007 20.5894 20.1651 18.8442 20.2234C17.8785 20.2545 16.913 20.2763 15.9494 20.3448C14.7307 20.4337 13.5166 20.5787 12.3005 20.6864C11.2213 20.7825 10.1378 20.9157 9.05778 20.9311C7.38808 20.9543 5.71485 20.8844 4.0464 20.8642C3.36721 20.857 2.91024 20.7818 3.0521 19.8426C3.37451 17.6985 3.52387 15.5308 3.84938 13.3867C3.9373 12.8121 4.39903 12.2917 4.68471 11.7445C5.04906 11.0507 5.34046 10.3051 5.78389 9.66626C7.25338 7.54901 8.80193 5.48679 11.2682 4.41292C12.2013 4.00542 13.1478 3.56417 14.1343 3.35059C15.4361 3.06852 16.7899 3.02687 18.1142 2.82613C18.8962 2.70905 19.6556 2.40824 20.4394 2.34085C21.192 2.27567 21.9596 2.44364 22.7228 2.44392C23.8302 2.44792 24.9365 2.38363 26.0443 2.37212C27.7603 2.35644 29.4769 2.32215 31.1913 2.36227C36.1857 2.47834 41.1814 2.6596 46.1766 2.75087C49.1253 2.80485 52.0777 2.73172 55.0279 2.733C56.8707 2.73338 58.7145 2.80516 60.5555 2.75894C62.6263 2.70384 64.6943 2.53074 66.7658 2.45084C67.8435 2.41054 68.9219 2.45094 70.0008 2.47584C73.166 2.55468 76.3311 2.63353 79.4958 2.73097C81.4639 2.79392 83.4714 2.67493 85.3878 3.02806C87.98 3.50307 90.193 4.86389 91.698 7.11344C92.6467 8.53089 93.6354 9.96191 94.3135 11.5143C95.201 13.5506 96.0753 15.6144 96.0733 17.9446C96.0724 19.9118 96.3693 21.8783 96.4521 23.851C96.48 24.4972 96.2377 25.1543 96.1536 25.8097C95.8299 28.323 95.5895 30.8511 95.1916 33.353C94.6692 36.6239 94.3162 39.9369 92.8997 43.0114C92.473 43.9331 92.3831 45.0072 92.0664 45.9848C91.6439 47.2944 91.0986 48.5633 90.6946 49.8766C89.8799 52.5247 89.0528 55.1725 88.3704 57.8585C87.8352 59.9593 87.568 62.1267 87.0759 64.238C86.6547 66.0411 86.0395 67.7982 85.5906 69.5942C85.2892 70.7957 85.151 72.0359 84.8866 73.2447C84.7684 73.7936 84.4374 74.2991 84.3439 74.8518C83.8823 77.5194 83.4732 80.1947 83.0333 82.8661C82.9169 83.5671 82.655 84.2577 82.6348 84.9583C82.5786 87.014 82.516 89.0787 82.6555 91.1244C82.7167 92.0167 83.2249 92.8971 83.6353 93.7281C83.7409 93.939 84.2472 94.025 84.5756 94.0406C85.7653 94.0936 86.9563 94.1031 88.1477 94.1002C88.7558 94.0991 89.3661 94.0205 89.9744 94.0101C92.3429 93.9605 94.7162 93.8521 97.0846 93.911C98.5417 93.9468 99.9901 94.2803 101.448 94.4092C102.908 94.5382 104.374 94.5897 105.839 94.6599C106.546 94.6927 107.118 94.7526 106.65 95.7196C106.495 96.0379 106.519 96.4668 106.537 96.8427C106.633 99.2937 105.984 101.49 104.436 103.419C103.599 104.459 102.823 105.551 102.011 106.611C100.892 108.068 99.1615 108.496 97.5883 109.151C96.7342 109.509 95.6914 109.953 94.8686 109.765C92.1472 109.14 89.5 110.035 86.814 109.908C85.1781 109.833 83.5287 110.121 81.8828 110.179C80.3549 110.234 78.8242 110.171 77.2995 110.223C75.0976 110.303 72.8941 110.55 70.6954 110.52C68.903 110.496 67.1179 110.864 65.3046 110.486C64.4104 110.299 63.421 110.612 62.4712 110.631C59.1497 110.699 55.8288 110.749 52.5054 110.781C50.4945 110.8 48.4832 110.836 46.4751 110.759C44.3184 110.675 42.1687 110.343 40.0157 110.346C37.0653 110.348 34.1378 109.668 31.152 110.252C30.2004 110.439 29.089 109.929 28.0765 109.645C27.2887 109.424 26.5093 109.125 25.7916 108.735C25.4464 108.549 25.2776 108.053 24.9922 107.732C23.7396 106.306 22.3478 104.975 21.2473 103.441C20.2752 102.082 19.5223 100.54 18.8469 99.003C18.2268 97.592 17.6738 96.1115 17.3946 94.6047C17.0838 92.9047 16.9642 91.1357 17.0295 89.4061C17.1252 86.9483 17.4224 84.4962 17.7194 82.0504C17.8825 80.696 18.38 79.3668 18.4251 78.0153C18.4617 76.9613 18.5747 75.9468 18.7872 74.9259C19.1358 73.2728 19.5493 71.6278 19.7897 69.9591C20.0581 68.0772 20.1657 66.172 20.3444 64.2782C20.3527 64.2071 20.3827 64.1335 20.4188 64.0663C21.624 61.7521 21.4358 59.134 22.006 56.6806C22.6403 53.9404 23.1299 51.165 23.7427 48.418C24.2341 46.2198 24.8089 44.0395 25.3558 41.8553C25.9906 39.3137 26.6808 36.7861 27.2509 34.2303C27.6249 32.5562 27.9004 30.8544 28.1016 29.1474C28.3438 27.0972 28.5242 25.0358 28.6116 22.9749C28.6499 22.0762 28.3815 21.1624 28.2394 20.1716L28.2451 20.1904ZM27.0921 106.021C26.7673 105.99 26.4393 105.958 26.0434 105.919C27.4524 107.837 29.3684 108.416 31.2647 107.419C29.7776 106.92 28.4257 106.466 27.0587 105.998C27.2192 105.916 27.3853 105.753 27.5337 105.77C28.6747 105.899 29.8116 106.062 30.952 106.216C30.964 106.12 30.9761 106.024 30.9881 105.931C29.4611 105.738 27.9373 105.542 26.1631 105.317C26.6337 105.672 26.8645 105.846 27.0921 106.021ZM82.885 94.0353C81.1765 91.42 80.6857 88.8615 80.9564 86.1449C81.1308 84.3968 81.3672 82.6536 81.5819 80.9097C81.6622 80.276 81.7458 79.6392 81.8632 79.0096C82.1482 77.516 82.4425 76.0258 82.7552 74.5392C82.8381 74.1413 83.0349 73.7684 83.1178 73.3705C83.324 72.3494 83.2883 71.222 83.7178 70.3129C84.8478 67.919 84.687 65.2117 85.7181 62.8026C86.0076 62.1252 85.9843 61.3177 86.1483 60.5809C86.298 59.9087 86.5217 59.2512 86.6899 58.5827C87.1656 56.7161 87.5275 54.8151 88.1261 52.9923C88.8848 50.6715 89.9232 48.4425 90.6664 46.1213C91.3072 44.126 91.6958 42.052 92.2135 40.019C92.2662 39.8065 92.4389 39.6284 92.5255 39.4199C92.7089 38.9783 92.9324 38.5411 93.0295 38.0815C93.2018 37.2673 93.2849 36.432 93.4203 35.6074C93.4838 35.2369 93.6214 34.8747 93.6662 34.5036C93.8797 32.8001 93.9084 31.054 94.3067 29.3961C95.171 25.7813 94.8676 22.2073 94.2293 18.6299C94.0639 17.6974 93.6613 16.8108 93.4773 15.8777C93.0116 13.5216 92.5077 11.3071 90.875 9.29587C88.655 6.56337 85.9017 5.00081 82.588 4.48017C80.179 4.10353 77.6934 4.12806 75.2423 4.13807C72.0683 4.15206 68.8976 4.37093 65.7255 4.42532C62.4665 4.4803 59.2078 4.41737 55.9461 4.45986C53.6898 4.491 51.4359 4.65564 49.1797 4.68367C46.8894 4.71073 44.5985 4.65399 42.3105 4.60044C40.4039 4.55788 38.4982 4.47812 36.5928 4.39215C34.5231 4.30145 32.4544 4.17665 30.3879 4.07983C27.897 3.96458 25.4062 3.84622 22.9111 3.76808C22.1145 3.74511 21.3147 3.83066 20.2027 3.87927C20.7422 4.42542 21.0758 4.80118 21.4509 5.1316C22.2313 5.82432 23.1171 6.41459 23.8021 7.18834C24.7607 8.26476 25.7022 9.39654 26.4172 10.6366C27.3892 12.3247 28.4 14.0635 28.9268 15.9156C29.5858 18.237 29.8906 20.6846 30.125 23.0992C30.2876 24.7764 30.2312 26.5186 29.9814 28.187C29.6739 30.2446 29.0236 32.249 28.5954 34.2938C28.2066 36.1599 28.2469 38.2059 27.4666 39.8745C26.9112 41.0624 26.6908 42.2506 26.4708 43.4265C25.9873 45.9911 25.646 48.5752 24.8202 51.071C24.5516 51.8886 24.7227 52.8399 24.5367 53.6941C24.087 55.7352 23.477 57.7407 23.0611 59.7891C22.6421 61.8404 22.3774 63.921 22.0478 65.9905C21.8584 67.1796 21.6721 68.3689 21.4982 69.5616C21.3515 70.5596 21.4528 71.6734 21.0369 72.5395C20.3142 74.0422 21.0662 75.7208 20.1732 77.2093C19.7627 77.8925 19.9958 78.9511 19.8898 79.8324C19.734 81.1466 19.5473 82.4568 19.3544 83.7669C19.1961 84.8453 18.9636 85.9153 18.8487 86.998C18.7635 87.7992 19.0324 88.6943 18.7667 89.4097C17.9598 91.5739 18.9752 93.586 19.3655 95.5427C19.7589 97.4996 21.0748 99.3093 22.153 101.081C23.1037 102.644 24.2851 104.066 25.3653 105.549C25.4468 105.415 25.5251 105.28 25.6065 105.146C26.0248 105.056 26.4431 104.966 26.8646 104.875C27.0706 104.832 27.3124 104.835 27.4769 104.725C28.0996 104.324 28.6473 103.729 29.3209 103.5C30.1009 103.237 30.9284 103.59 31.8584 103.182C32.7068 102.81 33.9841 103.377 35.0673 103.576C36.3541 103.812 37.6848 104.247 38.576 102.821C38.7939 102.473 38.6648 101.784 38.9303 101.614C40.0996 100.872 40.2892 99.5654 40.8813 98.5057C41.6011 97.214 42.2475 95.8829 42.8455 94.7241C43.4656 94.8444 43.7851 94.9529 44.1016 94.9527C44.2908 94.9519 44.4776 94.7153 44.667 94.7083C45.2818 94.6888 45.8969 94.7686 46.512 94.7398C49.9382 94.5873 53.3596 94.388 56.7884 94.2542C58.6208 94.1829 60.4558 94.2358 62.2905 94.1925C64.1625 94.1472 66.0314 93.9932 67.9022 93.9912C70.3811 93.9851 72.8601 94.0814 75.3406 94.1281C77.0118 94.1608 78.6827 94.2028 80.3549 94.2013C81.1119 94.2014 81.8684 94.1084 82.8817 94.0414L82.885 94.0353ZM105.919 95.6675C104.214 95.6184 102.862 95.5018 101.517 95.5592C99.206 95.654 96.9016 95.9568 94.5896 95.9832C91.7562 96.0163 88.9195 95.8446 86.0828 95.7783C83.8972 95.7277 81.7114 95.6802 79.5246 95.6699C77.2696 95.6576 75.0124 95.7198 72.7577 95.6982C70.6579 95.6811 68.5611 95.5617 66.4611 95.5539C64.1718 95.5468 61.8797 95.6359 59.5896 95.6568C57.7122 95.674 55.8342 95.6074 53.9588 95.662C50.801 95.7571 47.6447 95.9112 44.4853 96.0622C44.2181 96.0762 43.8204 96.2044 43.7248 96.4002C43.4446 96.9724 43.3266 97.6206 43.0739 98.209C42.5781 99.3707 42.073 100.535 41.4917 101.654C41.1007 102.409 40.5783 103.099 40.0988 103.805C39.7522 104.313 39.3812 104.805 39.0224 105.306C38.8737 105.516 38.7339 105.736 38.5815 105.964C39.0369 106.204 39.3517 106.368 39.7979 106.601C39.0385 106.579 38.3102 106.338 38.0299 106.59C37.1636 107.369 36.5375 108.428 35.1844 108.55C35.2004 108.64 35.2195 108.734 35.2355 108.825C36.0211 108.906 36.8037 108.985 37.6636 109.075C37.5691 108.693 37.5104 108.468 37.4576 108.256C39.0503 108.215 40.5622 108.174 42.074 108.141C42.6794 108.127 43.6786 107.901 43.8263 108.157C44.4172 109.182 45.021 108.579 45.6187 108.398C45.4507 108.306 45.2675 108.205 44.846 107.975C46.7637 107.854 48.3829 107.751 50.0052 107.649C50.001 107.581 49.9999 107.513 49.9956 107.444L45.8668 107.325C45.8717 107.155 45.8766 106.984 45.8816 106.811C58.6826 107.102 71.4884 107.766 84.2715 106.738C84.276 106.583 84.2805 106.425 84.285 106.27L76.9263 106.058C77.3038 105.659 77.4485 105.375 77.588 105.379C78.67 105.404 79.7534 105.488 80.8343 105.55C82.5532 105.649 84.2685 105.767 85.9881 105.841C88.2066 105.936 90.426 106 92.6451 106.077C94.7308 106.149 96.8175 106.296 98.9006 106.248C99.5835 106.233 100.355 105.84 100.908 105.393C101.517 104.899 101.982 104.189 102.386 103.5C102.755 102.874 102.799 101.997 103.272 101.505C104.1 100.645 104.378 99.6289 104.657 98.551C104.797 98.012 105.078 97.5112 105.304 96.9964C105.456 96.6502 105.618 96.3105 105.919 95.6613L105.919 95.6675ZM15.3584 9.52962C18.3014 9.78203 21.0155 10.0123 23.7295 10.2457C23.7419 10.1375 23.7544 10.0261 23.7699 9.91797C21.8104 9.66289 19.7169 9.75147 17.9251 9.06061C16.0965 8.35628 14.1303 8.33373 12.3749 7.56324L19.7987 7.77728C19.3479 7.48812 18.8818 7.40642 18.4079 7.38035C15.9394 7.24091 13.4446 7.36757 11.0594 6.48895C10.8537 6.41476 10.4856 6.48482 10.3294 6.63236C9.81582 7.12022 9.28634 7.62314 8.90634 8.21415C7.90622 9.76159 7.00049 11.3707 6.01861 12.9311C4.7633 14.9366 4.93667 17.1012 5.13439 19.282C12.83 18.8926 20.423 18.5096 28.0782 18.1252C27.8422 17.594 27.6409 17.1507 27.4633 16.7484C26.2345 16.4368 25.0425 16.1356 23.6443 15.7819C24.1071 15.4415 24.4049 15.2267 24.725 14.9908C23.396 14.6029 22.7391 14.2509 22.7545 13.9349C23.862 14.0413 24.9696 14.1477 26.3433 14.2773C26.103 14.0035 25.9778 13.7175 25.8141 13.6942C24.3469 13.4719 22.8715 13.3177 21.4043 13.0954C21.0645 13.0453 20.7514 12.8221 20.4237 12.6762C20.4708 12.5503 20.5209 12.4245 20.5681 12.2956C21.22 12.2802 21.875 12.265 22.527 12.2465C22.2392 11.9 21.877 11.66 21.535 11.6842C20.1796 11.7817 19.0587 11.4918 17.9979 10.518C17.4086 9.97349 16.3934 9.89147 15.3616 9.52661L15.3584 9.52962ZM69.3481 108.294C61.6142 108.183 54.0628 107.98 46.5133 108.467C49.0433 109.164 68.5873 109.072 69.3481 108.294ZM98.0477 107.098C98.0297 106.97 98.0148 106.843 97.9967 106.715C93.0687 106.986 88.1438 107.253 83.2158 107.524C84.4516 108.562 96.992 107.992 98.0446 107.098L98.0477 107.098ZM33.8074 103.909C33.7968 104.06 33.7894 104.212 33.7787 104.367L36.9714 104.459C36.9736 104.385 36.9819 104.311 36.984 104.236C35.9231 104.128 34.8653 104.017 33.8043 103.909L33.8074 103.909Z" fill="#323AA4"/>
<path d="M79.6049 54.0315C78.651 54.0815 77.6878 54.243 76.7472 54.157C74.7886 53.9764 72.8469 53.5356 70.8859 53.4388C68.4107 53.3178 65.9186 53.3514 63.4395 53.4692C61.6191 53.5564 59.8154 53.9233 57.9982 54.1129C55.3596 54.3843 52.6116 54.6837 50.2392 53.3648C48.343 52.311 46.5133 52.1838 44.5308 52.5083C43.7515 52.6378 42.998 52.9481 42.2346 53.1744C40.6074 53.658 38.9545 54.0665 37.3647 54.6537C36.1764 55.091 35.0012 55.1782 33.7748 55.1056C33.7097 55.1037 33.6336 55.2691 33.5273 55.4025C33.3452 55.1553 33.1032 54.9404 33.0177 54.6773C32.9155 54.3485 32.7943 53.8206 32.957 53.664C33.1803 53.4501 33.6569 53.4918 34.0304 53.4498C35.2536 53.3113 36.4819 53.2102 37.6999 53.0343C38.08 52.9801 38.4201 52.6951 38.7961 52.5663C40.7825 51.8882 42.7398 51.0386 44.7834 50.6352C45.9316 50.4077 47.1669 50.0647 48.5167 50.6994C49.5819 51.1986 50.683 51.6369 51.753 52.1859C53.3672 53.0113 55.1546 52.5632 56.8728 52.3645C57.6541 52.2723 58.4315 52.1023 59.2149 52.0473C60.3277 51.9708 61.4494 52.0186 62.5597 51.9203C63.4399 51.8433 64.302 51.53 65.1811 51.4932C66.7402 51.4296 68.308 51.4996 69.8714 51.5043C71.5992 51.5107 73.286 51.7548 74.9335 52.2864C75.29 52.4022 75.7045 52.6623 76.008 52.5718C77.5101 52.1217 78.404 53.398 79.6609 53.5956C79.6412 53.7408 79.6214 53.8892 79.6048 54.0346L79.6049 54.0315Z" fill="#323AA4"/>
<path d="M33.6871 37.4879C34.2893 37.5828 34.8435 37.7291 35.4015 37.7421C36.0215 37.76 36.65 37.6943 37.2611 37.5909C38.4457 37.3893 39.628 37.1627 40.8023 36.8925C41.9641 36.625 43.0966 36.1891 44.2683 36.0057C45.8763 35.7573 47.5151 35.2988 49.1317 35.9318C49.6287 36.1261 50.0585 36.4984 50.5088 36.8062C52.4984 38.1668 54.6458 38.3621 56.9679 37.8767C58.6502 37.525 60.3793 37.3762 62.0938 37.1992C63.6216 37.0415 65.1737 36.7915 66.6873 36.9096C68.0338 37.0136 69.4023 37.4316 70.6624 37.9489C72.9711 38.8998 75.3802 38.9475 77.7941 39.0419C79.4457 39.1081 81.1014 39.1404 82.7536 39.188C82.7613 39.3496 82.7722 39.5112 82.7799 39.6728C81.4355 39.8202 80.092 40.0421 78.7442 40.0902C77.0983 40.1482 75.4277 40.2055 73.802 39.9911C72.5504 39.8247 71.3728 39.136 70.1243 38.8611C68.7001 38.547 67.2286 38.2595 65.7823 38.2798C63.8705 38.3085 61.9597 38.6226 60.0542 38.8625C58.8243 39.0163 57.6107 39.3629 56.3769 39.436C53.9934 39.5783 51.5762 39.7041 49.6209 37.9038C48.6235 36.9877 47.2815 36.9459 46.1498 37.0312C44.5953 37.1477 43.0866 37.8241 41.546 38.2141C40.8616 38.3867 40.1522 38.4593 39.4513 38.557C37.7726 38.7879 36.1502 39.4269 34.3779 38.9196C33.5626 38.6851 33.3501 38.4153 33.6841 37.4847L33.6871 37.4879Z" fill="#323AA4"/>
<path d="M60.0022 68.0033C59.1484 68.0253 58.2821 68.1585 57.4445 68.0506C54.7062 67.6924 52.009 67.8474 49.3093 68.4087C47.2838 68.8282 45.2831 68.3888 43.2858 68.0458C42.687 67.9416 42.0604 67.9391 41.4512 67.9774C39.0177 68.1306 36.7402 69.0051 34.3831 69.5205C33.381 69.7399 32.2805 69.4971 31.224 69.4481C30.939 69.4336 30.659 69.3542 30.2978 69.291C30.0221 68.526 30.3652 68.1387 31.2668 68.0716C34.3166 67.8461 37.2899 67.2648 40.2426 66.4283C41.4374 66.0904 42.9507 66.2178 44.1359 66.6461C46.3281 67.4384 48.4529 67.1243 50.5908 66.7856C52.5293 66.4785 54.4311 66.5829 56.3545 66.7997C56.9544 66.8667 57.5879 66.736 58.1737 66.8615C58.8213 66.9981 59.4262 67.3227 60.0489 67.5672C60.0354 67.7126 60.0187 67.8611 60.0052 68.0065L60.0022 68.0033Z" fill="#323AA4"/>
<path d="M56.797 102.452L72.7389 102.912C72.7366 102.992 72.7342 103.073 72.7288 103.154L56.787 102.694C56.7893 102.613 56.7916 102.533 56.7939 102.452L56.797 102.452Z" fill="#323AA4"/>
<path d="M88.2994 103.795L76.9978 103.469C77.0008 103.364 77.0039 103.259 77.0068 103.156L88.3115 103.482C88.3085 103.588 88.3054 103.693 88.3025 103.795L88.2994 103.795Z" fill="#323AA4"/>
<path d="M75.8251 105.613L67.4311 105.371L67.4434 104.946L75.7971 105.187C75.8054 105.33 75.8168 105.473 75.8251 105.613Z" fill="#323AA4"/>
<path d="M60.9748 104.518C60.9547 104.679 60.918 104.982 60.9119 104.979C59.309 104.836 57.7099 104.672 56.1107 104.508C56.1204 104.387 56.127 104.267 56.1366 104.149C57.7521 104.282 59.3709 104.413 60.9864 104.546L60.9717 104.518L60.9748 104.518Z" fill="#323AA4"/>
<path d="M53.1383 104.311L47.6549 104.152C47.6573 104.069 47.6597 103.985 47.6621 103.901L53.1393 104.059C53.1369 104.143 53.1407 104.227 53.1383 104.311Z" fill="#323AA4"/>
<path d="M60.9903 104.544L64.2667 104.638C64.2566 104.772 64.2467 104.902 64.2366 105.035C63.1496 104.864 62.0086 105.271 60.9756 104.516L60.9903 104.544Z" fill="#323AA4"/>
<path d="M42.7573 106.834L45.3673 106.909C45.3573 107.043 45.3472 107.176 45.3402 107.312L42.7401 107.11C42.7459 107.017 42.7516 106.927 42.7573 106.834Z" fill="#323AA4"/>
<path d="M76.5203 103.558C75.5502 103.419 74.5801 103.279 73.6068 103.142C73.6013 103.117 73.5958 103.092 73.5903 103.067L76.5537 103.153C76.5435 103.289 76.5304 103.422 76.5203 103.558Z" fill="#323AA4"/>
</svg>
