<svg width="45" height="35" viewBox="0 0 45 35" fill="none" xmlns="http://www.w3.org/2000/svg">
<path d="M14.7553 10.0479H2C1.44771 10.0479 1 10.4956 1 11.0479V28.0472C1 28.5995 1.44772 29.0472 2 29.0472H5.0317C5.58398 29.0472 6.0317 29.4949 6.0317 30.0472V32.2639C6.0317 33.1548 7.10884 33.601 7.7388 32.971L11.3697 29.3401C11.5573 29.1526 11.8116 29.0472 12.0768 29.0472H22.4876C23.0399 29.0472 23.4876 28.5995 23.4876 28.0472V25.0032" stroke="#F5F3F1" stroke-width="2" stroke-linecap="round" stroke-linejoin="round"/>
<path d="M15.7579 23.7753L14.9977 21.3011M8.54004 23.7753L9.35979 21.3011M9.35979 21.3011L11.1284 15.9632C11.264 15.5539 11.6465 15.2777 12.0776 15.2777H12.4083C12.8474 15.2777 13.2352 15.5642 13.3642 15.984L14.9977 21.3011M9.35979 21.3011H14.9977M28.1459 7.08722H32.2412M32.2412 7.08722H34.3356C34.9709 7.08722 35.4411 7.67189 35.245 8.27618C34.456 10.7065 32.5434 14.4196 29.1185 16.0455M32.2412 7.08722V5.39794M38.5376 25.9764V21.755C38.5376 21.2027 38.9853 20.755 39.5376 20.755H42.6054C43.1577 20.755 43.6054 20.3073 43.6054 19.755V2.91699C43.6054 2.36471 43.1577 1.91699 42.6054 1.91699H22.184C21.6318 1.91699 21.184 2.36471 21.184 2.91699V19.755C21.184 20.3073 21.6318 20.755 22.184 20.755H32.5436C32.8088 20.755 33.0632 20.8604 33.2507 21.0479L38.2842 26.0814C38.3777 26.1749 38.5376 26.1087 38.5376 25.9764V25.9764Z" stroke="#F5F3F1" stroke-width="2" stroke-linejoin="round"/>
<path d="M30.3979 9.69824C31.217 12.0018 32.4456 14.9196 35.8241 16.8649" stroke="#F5F3F1" stroke-width="2" stroke-linejoin="round"/>
</svg>
