<?xml version="1.0" encoding="UTF-8"?><svg id="Layer_2" xmlns="http://www.w3.org/2000/svg" viewBox="0 0 676.09 475.91"><defs><style>.cls-1{fill:#323aa4;}.cls-2{fill:#c1e4fc;}</style></defs><g><path class="cls-2" d="M101.89,92.93l-2.98,102.12,1.49,38.1,.24,117s88.03,49.42,164.74,43.74c76.71-5.68,153.68-17.22,191.64-57.45v-60.57s6.12-64.52,5.06-82.89c-1.06-18.37-1.94-92.42-3.14-96.43-1.19-4.01-3.04-55.44-178.39-46.98-121.76,5.87-178.67,43.35-178.67,43.35Z"/><path class="cls-1" d="M461.83,100.27c.18-1.48,.36-2.96,.54-4.45l1.2,.07c-.39,27.64-.79,55.27-1.19,83.83,.9-2.42,1.49-4.01,2.43-6.52,.71,6.36,1.03,11.57-.78,17.08-1.18,3.57-.28,7.81-.39,11.75-.14,5.27-.37,10.53-.53,15.8-.21,6.95-.28,13.91-.65,20.86-.2,3.69-1.47,7.38-1.29,11.02,.25,5.16-.58,10.24-.38,15.34,.12,2.89-.01,5.42-2.07,7.5-3.52,3.57-.2,7.46-.54,11.19-.24,2.72,.82,5.53,.94,8.32,.4,9.58,.66,19.18,.93,28.77,.08,2.88-.07,5.76,.07,8.64,.09,1.93,.51,3.85,.88,6.43,1.04-.77,1.5-1.3,1.69-1.21,4.76,2.07,9.3-.53,13.94-.69,9.91-.35,19.81-1.24,29.71-1.85,.95-.06,1.95,.27,2.89,.54,1.06,.31,2.08,.76,3.11,1.16-.78,.99-1.38,2.5-2.38,2.86-2.28,.82-4.77,1.03-7.16,1.57-.72,.16-1.38,.6-2.07,.91,.35,.72,.7,1.44,1.46,3.02-3.18,.83-6.37,1.67-9.56,2.5-.12-.3-.24-.6-.36-.9,1.33-.53,2.66-1.05,3.99-1.58-9.63-2.06-19.08-.03-28.5,1.18-3.07-4.64-8.96-3.8-12.19,.8-2.04,2.91-5.48,4.9-8.48,7.05-2.28,1.63-4.86,2.86-7.04,5.12,2.1-.59,4.29-.97,6.27-1.83,2.34-1.02,4.41-2.7,6.77-3.66,3.44-1.41,6.65-1.5,10.7-.58,5.17,1.17,11.01-.76,16.58-1.21,1.41-.12,2.97,0,4.25,.53,.73,.3,1.46,1.68,1.39,2.52-.05,.66-1.22,1.58-2.05,1.78-2.39,.57-4.85,.99-7.3,1.2-9.92,.86-19.84,1.65-29.77,2.4-2.51,.19-5.05,.07-7.57,.22-1.18,.07-2.45,.21-3.5,.69-3.75,1.71-7.43,3.59-11.17,5.42,.37,1.43,2.83,2.44,4.49,1.61,.64-.32,1.25-.82,1.92-.92,6.03-.88,12.06-1.75,18.11-2.49,1.83-.22,3.71-.03,5.57-.03,.04,.52,.08,1.05,.12,1.57-2.65,.71-5.25,1.65-7.94,2.09-6.93,1.13-13.9,2.02-20.85,3.03-3.52,.51-7.04,1.07-10.55,1.61-.37,.06-1,.05-1.06,.22-1.62,4.78-5.89,4.04-9.57,4.94-5.57,1.35-10.95,3.48-16.5,4.98-2.77,.75-5.75,.65-8.58,1.24-8.07,1.69-16.24,3.1-24.12,5.44-6.19,1.84-12.51,2.5-18.78,3.65-.42,.08-.79,.43-1.18,.65,.04,.35,.09,.7,.13,1.05,4.12-.29,8.25-.58,12.37-.88,.02,.39,.05,.78,.07,1.17-5.28,.76-10.56,1.5-15.84,2.27-4.1,.6-8.23,1.07-12.3,1.86-7.26,1.4-14.47,3.06-21.74,4.4-.99,.18-2.2-.87-3.04-2.12-3.1,.29-6.2,.59-9.29,.88-.02-.33-.03-.66-.05-.98,1.47-.45,2.95-.89,4.42-1.34-.01-.47-.03-.94-.04-1.41-2.55-.23-5.1-.68-7.65-.67-9.08,.04-18.24-.18-27.23,.2-6.76,.28-13.34-2.17-20.15-.36-2.47,.66-5.51-1.1-8.33-1.41-5.51-.62-11.05-1.01-16.58-1.48-.95-.08-1.94,.05-2.85-.17-6.95-1.63-13.84-3.56-20.85-4.89-2.82-.54-5.71-2.42-8.79-.71-.22,.12-.82-.08-.99-.32-3.1-4.29-8.31-3.14-12.42-4.8-4.4-1.78-8.9-3.32-13.37-4.95-.56-.21-1.18-.54-1.73-.47-3.92,.49-6.67-2.15-9.87-3.58-1.68-.75-3.29-1.65-4.99-2.35-3.89-1.61-7.84-3.1-11.73-4.72-1.74-.73-3.35-1.97-4.87-2.86-5.32-3.12-10.64-1.21-15.92-1.51-.69-.04-1.39,.8-2.14,1.11-1.68,.69-3.35,1.69-5.1,1.87-4.4,.46-8.84,.56-13.27,.77-1.79,.08-3.63-.16-5.37,.15-3.44,.6-6.8,1.7-10.25,2.2-9.43,1.36-18.89,2.46-28.32,3.77-4.56,.63-9.08,1.58-13.65,2.23-4.22,.6-4.23,.51-6.53-4.48,7.47-1.24,14.65-2.47,21.84-3.62,2.71-.43,5.45-.65,8.16-1.02,.61-.08,1.6-.23,1.73-.59,1.96-5.48,7.22-4.87,11.34-5.94,9.55-2.49,19.18-4.65,28.85-6.63,3.74-.77,7.65-.67,11.24-.95-3.04-28.6-5.26-57.05-5.41-86.41,.98,.82,1.35,1.14,2.09,1.76-.04-.99,.17-1.94-.17-2.61-.73-1.44-1.75-2.73-2.66-4.08h1.65c.76-1.47,2.21-2.97,2.15-4.4-.2-4.68-1.22-9.33-1.43-14.01-.21-4.73,.74-9.56,.1-14.19-.45-3.24-.91-6.32-.5-9.58,.22-1.8,.06-3.69-.2-5.5-.32-2.24-.92-4.43-1.5-7.16,.91-.22,2.75-.67,5.23-1.28-1.53-1.87-3.09-3.46-4.26-5.31-.7-1.11-1.31-2.73-1.03-3.91,.74-3.21,.85-6.17-.52-9.29-.5-1.13,.21-2.79,.41-4.21,.6-4.29,.55-8.43-.32-12.83-.87-4.44,.2-9.24,.32-13.88,.09-3.59-.12-7.19,.08-10.77,.12-2.24,.96-4.44,1.1-6.68,.52-8.45,1.01-16.9,1.28-25.36,.25-7.76,.11-7.76,3.65-11.13,.83,4.5,1.71,8.38,2.2,12.31,.3,2.41-.78,5.26,.17,7.24,1.1,2.28,.24,4.46,.99,6.55,.16,.45,.25,1.16,.55,1.27,2.62,.96,5.27,1.8,7.72,2.61,.83-1.31,1.54-2.43,2.25-3.55l1.11,.02c-1.24,4.85,1.63,6.05,5.16,6.92,5.54,1.37,11.16,4.37,16.51,3.91,3.73-.32,6.5,5.04,10.15,1.1,.08-.08,1.08,.97,1.72,1.09,3.45,.64,6.92,1.21,10.4,1.68,2.93,.4,5.88,.63,8.82,.96,5.92,.68,11.85,1.32,17.76,2.1,4.67,.62,9.48,2.5,13.92,1.83,4.39-.67,8.93,2.92,13.05-.67,.25-.22,1.12,.4,1.71,.44,2.75,.22,5.52,.31,8.27,.57,1.58,.15,3.14,.8,4.7,.76,3.92-.09,7.84-.43,11.76-.7,.72-.05,1.53-.57,2.12-.36,5.24,1.89,10.45-.05,15.66,.01,4.62,.05,9.25,.06,13.87,.09,.37,0,.74,.02,1.1-.04,3.02-.54,6.03-1.27,9.07-1.62,5.44-.62,10.89-1.04,16.35-1.5,3.19-.27,6.85,.47,9.49-.87,5.61-2.84,11.68-1.7,17.4-3.21,5.09-1.35,10.51-1.41,15.73-2.35,3.75-.68,7.41-1.89,11.11-2.85,1.7-.44,3.42-.8,5.11-1.25,5.5-1.47,10.98-3.07,16.51-4.43,6.35-1.56,12.75-2.93,19.12-4.38,.35-.08,.79-.1,1.02-.32,4.1-3.95,10.14-3.6,14.58-6.46,3.97-2.55,8.44-2.67,12.52-4.24,4.35-1.68,8.25-4.5,12.39-6.76,2.15-1.17,4.76-1.78,6.51-3.36,3.94-3.55,10.22-3.64,12.94-9.05,.5-.99,3.02-1.86,4.06-1.44,1.33,.54,2.38,2.32,3.03,3.8,.74,1.68,.92,3.62,1.34,5.45,.4-.11,.79-.22,1.19-.33Zm-92.38,206.53c1.95,.37,3.96,1.22,5.84,1,3.9-.45,8.13-.7,11.49-2.45,3.65-1.89,7.1,.51,10.77-1,2.31-.95,4.87-.92,6.45-3.36,.18-.28,1.29,.04,2.83,.13,.16-.94,.57-2.62,.64-4.31,.02-.39-1.26-1.26-1.76-1.15-1.55,.37-3,1.12-4.49,1.69-3.98,1.53-7.89,3.27-11.96,4.52-4.14,1.27-8.44,2.01-12.65,3.05-2.36,.59-4.69,1.32-7.02,2-4.38,.73-8.75,1.46-13.13,2.19,2.44,.73,4.76,.86,7.07,.69,1.66-.13,3.33-.54,4.89-1.11,.51-.18,.71-1.24,1.05-1.9Zm-247.93-50.22c-.5-3.72-1.34-7.42-1.43-11.15-.22-9.25-.02-18.52-.22-27.78-.03-1.21-1.14-2.87-2.22-3.48-1.52-.85-3.48-.91-5.72-1.42,0,6.36-.04,12.64,.01,18.92,.05,6,.21,12,.32,18,.07,4.23,.05,8.45,.22,12.68,.16,4.09-1.43,9.04,4.93,10.32,1.26,.25,2.3,1.5,3.52,2.13,3.16,1.65,6.35,3.22,9.5,4.8-.41-5.06-.83-10.15-1.23-15.24-.33-4.16-.71-8.32-.95-12.49-.2-3.49-.33-6.98-.29-10.47,.06-6.19,.31-12.37,.39-18.56,.02-1.72,.21-3.71-.54-5.11-1.54-2.87-4.15-1.09-6.21-.94,.4,4.97,.89,9.8,1.16,14.63,.27,4.81,.56,9.64,.4,14.45-.12,3.53-.95,7.03-1.46,10.55l-.17,.14Zm20.52-33.98c-.44-.88-.89-1.76-1.11-2.19-3.35-.71-6.37-1.35-9.9-2.09,.33,3.4,.82,6.32,.87,9.25,.11,6.44,.25,12.9-.13,19.32-.14,2.27,.4,4.35,.39,6.52-.01,4-.25,8.01-.41,12.01-.15,3.48-.55,6.98-.41,10.45,.08,1.93,.75,5.32,1.62,5.48,3.96,.72,6.98,2.89,10.13,5.01,.35,.23,.82,.28,1.25,.39,1.36,.36,2.81,.51,4.05,1.1,3.22,1.53,6.35,3.26,9.23,4.75v-68.38c-3.51-.78-7.61-1.36-11.46-2.69-2.06-.71-3.12-.45-4.2,1.14l.09-.06Zm287.84-25.25c-.46-1.87-1.03-3.71-1.35-5.6-.93-5.54-2.1-11.08-2.53-16.67-.48-6.25-.25-12.56-.35-18.84-.1-6.05-.25-12.1-.33-18.16-.05-3.89,0-7.77,0-11.9-4.88,2.06-8.96,3.74-12.97,5.55-.55,.25-1.11,1.19-1.1,1.8,.05,4.7,0,9.42,.45,14.1,.76,8.04,2.12,16.02,2.71,24.07,.45,6.16,.09,12.37,.09,18.56-.5,.08-.99,.16-1.49,.24-.66-2.81-1.4-5.59-1.95-8.42-.39-2.02-.52-4.08-.78-6.13-.15-1.16-.41-2.32-.47-3.49-.06-1.32,.17-2.65,.06-3.96-.33-3.84-.91-7.66-1.13-11.5-.42-7.34-.66-14.69-1.01-22.83-8.99,3.1-17.17,5.93-25.15,8.68,0,4.42,0,8.9,0,13.39,0,5.45-.09,10.9,.02,16.35,.09,4.63,.59,9.26,.57,13.88-.02,4.7-.3,9.41-.77,14.08-.25,2.51-1.15,4.96-1.76,7.43,.03-2.09,.19-4.19,.08-6.28-.29-5.49-.84-10.97-1.02-16.46-.14-4.41,.2-8.84,.18-13.26-.03-5.48-.24-10.96-.31-16.43-.05-4.03-.01-8.07-.01-12.43-6.78,1.92-12.7,3.68-18.68,5.21-.97,.25-2.2-.52-4.26-1.07,8.61-2.82,16.03-5.26,23.73-7.79v-2.46c1.7,.35,3.89,1.39,4.47,.81,3.69-3.68,9.54-1.2,13.35-5.31,1.87-2.02,6.07-1.88,9.14-2.7v-6.57c-4.5,1.46-8.97,2.86-13.41,4.37-1.41,.48-2.72,1.27-4.07,1.91-1.15,.54-2.63,1.82-3.39,1.49-3.23-1.43-4.3,.42-5.05,2.75-.49-.6-1.06-1.65-1.32-1.58-3.28,.87-6.53,1.84-9.75,2.93-2.57,.87-5.03,2.07-7.62,2.9-2.39,.77-4.75-.43-7.56,1.22-3.22,1.89-7.87,1.29-11.87,1.95-2.38,.39-4.68,1.22-7.05,1.69-2.85,.57-5.91,.55-8.55,1.6-2.14,.86-4.23,.89-6.37,1.24-1.76,.29-3.67,1.57-5.19,1.18-7-1.79-13.34,2.34-20.43,1.66-6.25-.6-12.75,2.14-19.2,2.77-7.17,.7-14.42,1.03-21.61,.79-3.26-.11-6.4,1.13-9.84,.04-2.21-.7-5.02,.49-7.4,.82-1.06-.32-2.25-.97-3.45-.99-3.63-.06-7.26,.3-10.89,.18-5.17-.16-10.35-.47-15.51-.93-3.67-.33-7.29-1.16-10.95-1.51-2.14-.21-4.69,.84-6.4,0-3.5-1.73-7.48,1.53-10.76-1.56-.62-.58-2.79-.05-3.87,.59-.6,.36-.74,2.08-.54,3.08,1.33,6.78,2.9,13.52,4.18,20.31,.56,2.93,.57,5.97,.92,8.95,.88,7.55,1.82,15.09,2.71,22.64,.36,3.04,1.2,6.17,.83,9.13-.77,6.09,5.04,1.87,6.36,4.42,.05,.1,.18,.23,.28,.24,1.18,.07,2.36,.18,3.54,.16,1.02-.02,2.63-.65,2.97-.22,2.86,3.61,7.01,1.13,10.33,1.78,5.74,1.12,12.05-.55,17.97,1.59,.29,.11,.72-.23,1.08-.22,4.62,.09,9.23,.14,13.84,.32,3.25,.13,6.49,.54,9.74,.66,4.35,.16,8.71,0,13.05,.28,6.89,.45,13.74,1.01,20.67,.14,3.81-.47,7.73,.04,11.59-.17,1.73-.09,3.43-.84,4.31-1.07,2.74,.43,4.96,1.38,6.87,.95,3.71-.83,7.42-1.12,11.15-1.27,4.01-.16,8.28,.72,11.96-.41,3.88-1.19,7.54-1.06,11.37-1.08,1.28,0,2.57-.61,3.81-1.05,.52-.18,1.16-1.02,1.37-.9,3.93,2.26,7.38-.76,11.04-1.11,8.14-.77,16.19-2.45,23.83-3.69-.11-1.59-.2-2.97-.25-4.37,1.1,1.24,2.06,3.33,3.34,3.54,2.18,.36,4.59-.28,6.84-.79,5.37-1.23,10.66-2.77,16.05-3.9,3.25-.68,6.18-2.15,9.68-2.43,3.81-.3,7.53-2.44,11.15-4.08,.92-.42,1.34-1.94,2.01-2.93,1.47,1.82,3.16,2.13,5.22,.96,1.76-1,3.53-2.22,5.46-2.67,3.55-.84,7.03-1.65,10.49-2.93,2.65-.98,5.95-.19,9.86-.19-.67-1.64-1.4-3.52-2.19-5.37-.83-1.97-2.31-3.89-2.42-5.89-.23-4.29,.62-8.64,.33-12.92-.48-7.07-.32-14.06,.52-21.1,.42-3.52-1.53-7.7-.26-10.66,1.59-3.7-2.6-6.89,.25-10.05-2.64-2.81-1.2-6.05-1.12-9.22,.09-3.78-.33-7.58-.56-11.89-4.6,4.06-3.41,8.97-3.44,13.39-.07,10.71,.3,21.42,.38,32.12,.03,4.06-.23,8.12-.39,12.19-.25,6.52-.52,13.04-.79,19.56-.43,0-.86,.01-1.29,.02-2.88-11.4-.82-23.12-1.3-34.66-.47-11.26-.1-22.55-.1-33.83-.44-.24-.88-.47-1.32-.71-2.08,1.85-4.9,3.35-6.01,5.66-1,2.09-.03,5.07-.1,7.66-.24,8.38-.64,16.75-.83,25.13-.15,6.51,0,13.02-.1,19.52-.08,5.86-.31,11.72-.47,17.58-.56,0-1.13,0-1.69,0-3.6-22.73-.57-45.6-.45-68.79-2.87,1.55-5.52,2.98-8.18,4.41-.46-.15-.92-.3-1.38-.45,0,2.77-.11,5.54,.02,8.29,.38,8.31,.78,16.63,1.33,24.93,.24,3.65,1.14,7.27,1.27,10.92,.22,6.09,.14,12.19,.02,18.28-.07,3.61-.47,7.21-.72,10.81Zm-29.13,20.9c.93-.01,1.91,.17,2.77-.07,4.92-1.38,9.8-2.89,14.71-4.3,2.61-.75,5.25-1.4,8.28-2.19-.58,1.96-.93,3.15-1.01,3.43-1.41,.2-2.4,.12-3.18,.48-2.67,1.23-5.16,2.95-7.92,3.87-3.9,1.3-7.99,2.06-11.87,3.02-.28,21.85,1.49,43.42-1.91,64.84-3.72-21.23-3.48-42.5-.93-63.99-2.03,.41-4.12,.84-6.22,1.26-6.32,1.25-12.6,2.9-18.99,3.57-3.6,.38-3.68,2.14-3.54,4.62,.12,2.13,.26,4.28,.7,6.35,1.24,5.87,.48,11.87,1.52,17.8,1.11,6.32,1.13,12.84,1.5,19.28,.16,2.88,.02,5.79,0,8.68-.02,4.37-.05,8.75-.08,13.09-.55-2.58-1.31-5.13-1.61-7.73-.95-8.11-2.89-16.05-2.83-24.34,.06-8.57-.95-17.15-1.59-25.72-.26-3.54-.78-7.07-1.17-10.42-10.1,1.12-19.88,2.21-30.14,3.35,0,.9-.04,2.06,0,3.21,.29,7.64,.58,15.28,.91,22.92,.18,4.22,.42,8.43,.64,12.65,.19,3.66,.47,7.32,.57,10.98,.12,4.27,.21,8.54,.06,12.81-.09,2.59-.64,5.16-.98,7.74-.27-1.58-.56-3.15-.81-4.73-.79-5.01-1.92-10-2.27-15.04-.61-8.79-.98-17.62-1-26.43-.02-7.64,.58-15.28,.91-23.2-.89-.23-2.21-.96-3.41-.8-2.56,.34-5.03,1.5-7.58,1.68-3.38,.24-6.8-.27-10.2-.22-7.49,.12-14.97,.4-22.46,.6-.36,0-.72-.11-1.08-.09-4.83,.19-9.65,.53-14.48,.55-5.27,.02-10.55-.28-15.82-.4-6.85-.16-13.71-.09-20.54-.48-7.4-.43-14.78-1.3-22.17-1.93-6.02-.51-12.1-.6-18.04-1.54-3.4-.54-4.21,.37-3.68,3.34,.41,2.29,.95,4.53-.35,6.75-.27,.46-.3,1.26-.1,1.76,1.66,4.1,1.03,8.33,.96,12.56-.12,7.49-.05,14.98-.07,22.47,0,3.2,.04,6.41-.12,9.61-.06,1.21-.66,2.4-1.02,3.6l-1.24-.06c-.58-7-1.14-14-1.74-20.99-.58-6.72-1.46-13.43-1.75-20.16-.31-6.94-.07-13.9-.07-20.25-9.74-1.68-19.09-3.3-28.38-4.91-.5,2.62-1.25,4.75-1.26,6.88-.02,7.39,.28,14.78,.33,22.18,.04,6.21-.62,12.39-.03,18.63,.51,5.36,.29,10.8,.51,16.19,.11,2.71,.95,5.03,4.04,5.87,3.23,.88,6.39,1.98,9.6,2.93,5.08,1.52,10.15,3.12,15.29,4.41,1.54,.39,3.3-.15,3.86-.19,4.88,1.5,8.9,3.12,13.08,3.91,5.74,1.09,11.61,1.52,17.41,2.28,3.86,.51,7.69,1.19,11.56,1.62,3.66,.41,7.36,.54,11.03,.91,3.16,.32,6.33,1.26,9.45,1.1,5.23-.26,10.42-1.18,15.67-.31,.48,.08,.98-.05,1.48-.08,1.13-.07,2.26-.24,3.38-.19,1.09,.06,2.18,.56,3.26,.5,5.34-.29,10.66-.72,16-1.04,2.6-.16,5.89,.78,7.64-.48,2.53-1.82,4.47-.4,6.66-.54,.76-.05,1.47-.63,2.23-.77,1.42-.27,2.86-.42,4.29-.57,3.98-.41,7.95-.8,11.93-1.2,1.82-.18,3.69-.72,5.45-.46,2.85,.43,4.14-.29,3.64-3.28,.52,.93,1.04,1.86,1.73,3.1,2.28-.95,4.45-2.3,6.79-2.73,3.16-.59,6.45-.62,9.68-.65,5.39-.05,9.66-4.58,15.31-3.68,.77,.12,1.73-.99,2.6-1.53,5.35-.99,10.82-1.56,16.02-3.06,8.52-2.46,16.9-5.44,25.29-8.36,3.23-1.12,7.14-1.44,8.28-5.4,1.24,.42,2.55,1.36,3.59,1.11,2.43-.57,4.82-1.52,7.01-2.71,.99-.54,2.02-1.99,2.08-3.08,.18-3.17-.31-6.37-.18-9.55,.52-13.42,1.07-26.83,1.84-40.24,.2-3.4-.86-7.35,3.34-10.51-1.2,20.81-2.36,40.99-3.53,61.34,3.15-1.24,5.78-2.8,8.58-3.25,2.88-.46,3.47-1.65,3.17-4.18-.41-3.47-.83-6.96-.87-10.45-.09-6.68,.37-13.38,.08-20.05-.29-6.68-1.28-13.34-.37-20.04,.07-.55-.49-1.16-.5-1.74-.05-3.29-.02-6.58-.02-9.87,.38,.01,.76,.03,1.15,.04,.78,1.3,2.15,2.56,2.25,3.91,.36,5.22,.24,10.48,.46,15.71,.13,3.01,.81,6.01,.82,9.02,.02,4-.42,8.01-.55,12.02-.13,4-.19,8-.14,12,.04,3.28,.28,6.55,.43,9.83,.63,.03,1.26,.06,1.89,.09,3.68-12.11,2.87-24.88,4.01-37.32,1.15-12.55,1.28-25.2,1.87-38.08-1.39,.46-2.63,.75-2.61,.88,.48,3.73-2.22,2.82-4.33,3.37-3.78,.98-7.49,2.38-11.01,4.06-.77,.37-.64,2.62-.93,4.01-.15,0-.29,0-.44,.01-.06-.83-.12-1.67-.19-2.7-2.08,.11-4.09-.19-5.81,.38-3.77,1.24-7.35,2.97-11.26,3.94-5.2,1.29-10.21,3.28-15.4,4.6-2.89,.73-6.19,.21-7.79,3.61-.11-.49-.3-1.41-.31-1.41-3.91,.73-7.83,1.45-11.7,2.37-1.62,.38-3.1,1.43-4.73,1.76-3.15,.64-6.64-1.39-9.56,1.15-.55,.48-.91,1.19-1.36,1.79,.76,.37,1.61,1.15,2.28,1.02,1.76-.35,3.4-1.4,5.16-1.64,4.41-.59,8.91-.67,13.29-1.4,2.38-.39,4.61-1.69,6.9-2.59Zm-14.82,95.23c-5.17,1.64-10.33,3.22-15.42,4.98-.57,.2-1.07,1.47-1.08,2.24-.04,4.47,.19,8.93,.12,13.4-.11,6.79-.36,13.58-.6,20.37-.16,4.57-.42,9.14-.62,13.72-.04,.88,0,1.77,0,2.65-2.66-16.85-5.04-33.69-2.32-51.27-2.37,.93-4.83,1.94-7.31,2.86-1.1,.41-2.26,.71-3.41,.96-5.35,1.15-10.68,2.44-16.08,3.32-2.66,.43-5.45,.08-8.25,.08-.74,.59-1.68,1.96-2.83,2.15-2.67,.44-5.44,.22-8.15,.45-4.37,.38-8.73,.98-13.1,1.35-4.63,.39-9.27,.73-13.91,.9-3.87,.14-7.76,.12-11.63-.04-6.62-.27-13.24-.69-19.86-1.07-1.36-.08-2.72-.26-4.07-.45-4.7-.65-9.39-1.46-14.12-1.9-1.02-.09-3.06,1.11-3.09,1.77-.17,4.62,.23,9.27,.12,13.89-.07,3.07-.7,6.12-1.08,9.18-.34,.05-.69,.1-1.03,.14-.32-.97-.89-1.93-.91-2.91-.18-6.81-.2-13.62-.42-20.43-.03-.99-.68-2.66-1.35-2.83-5.65-1.48-11.37-2.69-17.96-4.17,.67,15.31,1.31,30.15,1.96,44.99l-1.56,.11c-3.51-14.99-3.15-30.37-3.06-45.49-2.36-.45-4.39-.79-6.4-1.23-6.9-1.51-13.75-3.26-20.7-4.41-1.41-.23-4.75-2.76-5.11,1.54-.07,.85,1.09,1.77,1.12,2.68,.21,5.67,.11,11.35,.42,17.01,.3,5.53,1.22,11.03,1.4,16.56,.25,7.86,.06,15.73,.06,23.59-.36-3.49-.37-7.04-.82-10.54-.87-6.73-2.17-13.41-2.95-20.14-.66-5.64-.86-11.33-1.23-17.01-.2-3.1-.51-6.21-.46-9.31,.11-6.01,.24-6.71-5.59-7.97-5.35-1.16-10.45-2.58-15.26-5.13-.14-.07-.43,.13-.58,.19,.4,6.29,.7,12.56,1.21,18.81,.69,8.42,1.62,16.82,2.32,25.24,.59,7.08,1.01,14.18,1.48,21.27,.11,1.7,.59,2.81,2.57,3.24,2.84,.6,5.55,1.84,8.39,2.48,5.62,1.26,11.3,2.26,16.94,3.43,1.74,.36,3.41,1.06,5.16,1.32,3.19,.46,6.49,.35,9.6,1.1,10.06,2.42,20.23,3.39,30.55,3.53,5.81,.08,11.6,.87,17.41,1.26,1.45,.1,2.93-.12,4.4-.2,2.17-.12,4.33-.32,6.5-.38,5.8-.17,11.59-.3,17.39-.41,2.61-.05,5.21,0,8.13,0,.63-.36,1.7-1.48,2.79-1.49,3.24-.04,6.53,.75,9.73,.45,3.05-.28,6.24,.54,9.23-1.93,1.5-1.23,4.85-.06,7.32-.32,1.73-.19,3.39-.97,5.09-1.48,.93-.3,2.14,.43,3.23,.28,5.31-.72,10.59-1.69,15.88-2.53,2.47-.39,5.03-.4,7.42-1.05,4.74-1.28,9.36-2.98,14.09-4.29,2.45-.68,5.17-.53,7.51-1.42,2.13-.8,5.2,.3,6.42-2.99,.22-.59,2.66-.19,3.98-.58,2.56-.76,5.1-2.56,7.57-2.44,3.17,.16,5.51,0,6.42-2.58,1.73-.08,2.99,0,4.2-.21,5.3-.94,3.98-5.13,3.85-8.46-.28-7.13-.98-14.24-1.26-21.36-.15-3.79,.13-7.6,.36-11.4,.42-6.93,.96-13.85,1.42-20.38-4.32,1.83-9,3.79-13.65,5.78-2.05,.88-4.5,.99-3.58,4.76,.35,1.44,.75,3.14,.95,4.69,.71,5.72,.93,11.51,1.1,17.28,.14,4.66-.09,9.33-.11,14-.03,5.04,0,10.08,0,15.12-.33,.04-.65,.09-.98,.13-1.01-7.95-2.02-15.91-3.18-25.05-2.05-3.38,.51-8.28-.02-12.95-.55-4.83-.47-9.72-.69-15.03ZM149.42,143.89c1.21,21,2.44,42.43,3.67,63.85-.31,.02-.61,.04-.92,.06-.83-4.66-.98-9.59-2.68-13.9-1.45-3.68-.94-7.45-1.77-11.12-1.59-6.96-.83-14.45-1.17-21.71-.12-2.63-.89-5.24-.83-7.85,.07-2.99,.83-5.97,1.02-8.96,.04-.55-1.1-1.55-1.84-1.72-4.12-.94-8.42-.9-12.46-2.51-.78-.31-3.22,1.1-3.19,1.63,.25,5.37,.79,10.72,1.38,16.07,.37,3.33,1.15,6.61,1.4,9.94,.4,5.39,.37,10.81,.83,16.19,.17,2,1.65,3.9,1.77,5.88,.27,4.81,.09,9.64,.09,15.6-.9-1.88-1.57-2.77-1.75-3.75-1.57-8.6-3.51-17.17-4.42-25.84-.88-8.37-.66-16.85-.91-25.28-.09-2.87-.85-5.98,0-8.54,.81-2.43-.14-3.21-1.66-3.75-3.02-1.07-6.16-1.77-9.6-2.72,1.31,19.52,2.59,38.62,3.87,57.71-.4,.04-.8,.08-1.2,.12-.31-1.83-.68-3.66-.93-5.5-1.62-12.32-3.43-24.62-4.73-36.97-.52-5,.27-10.13,.03-15.17-.05-1.15-1.69-2.54-2.93-3.24-1.66-.93-3.64-1.3-5.69-1.98,0,3.56-.09,7.48,.03,11.38,.11,3.68,.56,7.36,.66,11.04,.14,5.65-.19,11.33,.21,16.96,.52,7.45,1.62,14.82,.16,22.33-.49,2.54-.95,5.85,2.4,7.48,1.97,.96,3.91,2.08,5.99,2.67,6.29,1.78,12.64,3.34,18.96,4.98,.38-.7,.72-1.35,.71-1.32,1.42,1.05,2.54,2.13,3.85,2.82,4.33,2.27,9.41,1.14,13.95,3.05,2.89,1.22,6.38,.98,9.58,1.5,3.06,.5,6.08,1.35,9.15,1.68,3.11,.33,6.43-.38,9.36,.44,3.28,.92,3.19-.47,2.71-2.59-1.1-4.77-2.63-9.45-3.46-14.26-1.06-6.11-1.59-12.32-2.37-18.48-.31-2.41-.71-4.82-1.04-7.23-.77-5.5-1.77-10.98-2.18-16.51-.21-2.77-4.39-5.11-.21-8.64-8.62-1.4-16.59-2.69-23.87-3.87Zm-22.77,149.71v62.9c-1.54-4.63-2.23-9.26-2.82-13.9-.34-2.7-.7-5.42-.75-8.13-.1-5.52-.03-11.05,.02-16.58,.07-7.26,.24-14.51,.24-21.77,0-1.85,.19-4.38-.86-5.41-2.67-2.59-6.01-4.51-9.1-6.71-.42,.84-1.24,1.69-1.23,2.54,.05,10.45,.18,20.89,.37,31.34,.11,6.6,.44,13.2,.47,19.8,.01,2.96-.47,5.93-.73,8.89-3.16-16.89-2.78-33.78-2.42-50.65-.12-5.39,.46-11.13-1.22-16.11-1.75-5.19-5.67-9.65-8.64-14.43-.36,.18-.71,.36-1.07,.53,0,.97-.11,1.95,.02,2.9,.56,3.99,1.47,7.95,1.73,11.96,.26,3.98-.24,8.01-.17,12.01,.1,5.46,.49,10.92,.65,16.38,.2,6.88,.3,13.77,.42,20.65,.09,5.43,.13,10.86,.21,16.28,.03,2.27,.67,4.06,3.29,4.52,.59,.11,1.1,.77,1.62,1.22,1.66,1.43,3.11,3.24,5,4.25,3.94,2.12,8.1,3.86,12.19,5.71,4.37,1.98,8.61,4.85,13.18,5.58,3.99,.63,7.34,2.32,10.96,3.55,4.91,1.67,9.75,3.58,14.98,5.51-5.1-23.23-6.15-46.5-7.82-69.83-5.09-.86-9.09-6.12-15.48-4.51,.95,21.29,1.9,42.37,2.84,63.45-.31,.03-.61,.07-.92,.1-.54-1.96-1.34-3.88-1.59-5.87-.71-5.68-1.22-11.38-1.79-17.08-.51-5.15-1.29-10.29-1.39-15.44-.14-7.48,.29-14.98,.37-22.47,.06-5.27-1.88-7.89-6.9-9.79-1.04-.39-2.07-.8-3.65-1.41Zm281.4,10.54c.27,1.22,.75,2.35,.71,3.46-.2,6.75-.61,13.5-.76,20.26-.08,3.71,.35,7.42,.29,11.13-.11,6.95-.53,13.89-.59,20.84-.04,4.44,.05,4.17,4.53,2.77,6.85-2.14,12.62-6.58,19.55-8.61,3.23-.95,5.99-3.56,8.93-5.47,3.39-2.21,6.75-4.45,10.09-6.73,1.17-.8,3.12-1.68,3.21-2.67,.55-5.94,.93-11.92,.84-17.88-.11-6.72-1.01-13.43-1.16-20.16-.11-5.34,.33-10.69,.65-16.03,.16-2.72,.61-5.42,.99-8.67-7.3,4.76-14.5,9.83-22.06,14.26-8.15,4.77-16.65,8.95-25.22,13.5ZM101.02,208.46c.37,5.73,.76,11.19,1.07,16.64,.24,4.2,.32,8.41,.65,12.6,.08,1.02,.87,1.99,1.25,2.79-.3,1.55-.73,3.17-.9,4.82-.48,4.62-1.12,9.25-1.19,13.89-.07,4.61,3.96,6.32,7.37,9.06-.1-1.63-.11-2.74-.24-3.83-.29-2.36-.89-4.71-.9-7.07-.03-6,.22-12.01,.33-18.01,.07-3.64,.05-7.27,.14-10.91,.13-5.45,.37-10.9,.42-16.35,0-.48-.88-1.18-1.5-1.42-2.02-.79-4.1-1.41-6.49-2.21Zm207.33,116.07c-23.25,1.17-45.66-1.52-68.13-4.21-1.14,2.67,.73,3.38,2.65,3.64,6.19,.84,12.41,1.51,18.62,2.23,2.74,.32,5.48,.83,8.23,.88,6.46,.12,12.93,.09,19.39-.02,5.94-.1,11.87-.35,17.81-.66,.45-.02,.84-1.06,1.44-1.86Zm119.79-203.6c1.76-1.19,3.31-2.88,5.17-3.37,5.1-1.34,6.54-4.62,5.95-9.22-9.92,4.76-19.89,9.54-29.9,14.34,.5,1.65,1.02,3.39,1.7,5.65,2.44-1.36,4.71-3.69,6.95-3.65,4.91,.07,6.83-2.33,7.75-6.48,.03-.14,.38-.21,.84-.45,.4,.84,.8,1.67,1.53,3.19Zm-19.65,179.72c1.35-.75,2.32-1.35,3.34-1.85,5.65-2.75,11.34-5.43,16.93-8.28,.64-.33,.82-1.56,1.21-2.38-.33-.15-.67-.31-1-.46-4.74,3.51-11.98,2.03-16.08,7.74-3.86-1.05-4.93-.1-4.42,5.22Zm-77.69-72.79c8.78,1.66,17.4-.42,26.07-1.63-8.85-3.7-17.34,1.55-26.07,1.63Zm-92.14,93.36c-6.98-4.13-14.05-2.89-20.88-4.67,1.06,3.71,15.18,6.82,20.88,4.67Zm149.03-13.72c-6.28,1.42-12.73,2.26-18.48,5.29,6.58-.44,12.97-1.46,18.48-5.29Zm58.51-203.86c-5.17,3.73-5.62,4.7-3.98,8.43q6.74-5.86,3.98-8.43ZM124.23,285c.1-1.42,.45-2.81,.17-2.95-3.73-1.87-7.54-3.57-11.34-5.31-.27,.53-.54,1.06-.8,1.59,3.84,2.14,7.68,4.28,11.97,6.67Zm-17.49,71.52c.2-.31,.4-.61,.6-.92-1-.76-1.9-1.87-3.03-2.21-1.71-.52-3.59-.5-5.4-.71v3.13c2.73,.24,5.28,.47,7.83,.7Zm251.05-130.65q9.07-.65,10.24-2.13c-5.33-1.23-9.36-.4-10.24,2.13Zm92.83-121.56c.44,.08,.89,.16,1.33,.23,1.17-2.02,2.33-4.04,3.5-6.05-.2-.3-.39-.6-.59-.91-1.41,.79-3.27,1.27-4.1,2.46-.68,.98-.14,2.81-.14,4.26ZM169.96,306.45c-.07,.35-.14,.71-.21,1.06,3.39,1.04,6.77,2.09,10.16,3.13,.14-.5,.28-.99,.42-1.49-3.45-.9-6.91-1.8-10.36-2.7Z"/><path class="cls-1" d="M449.21,78.06c-.79-.3-1.63-.52-2.37-.92-6.25-3.33-12.29-7.13-18.77-9.93-5.68-2.46-11.64-4.21-18.03-4.8-5.99-.55-11.82-2.71-17.73-4.14-.79-.19-1.61-.37-2.42-.37-2.9-.01-5.76,.86-8.61-1.1-1.22-.84-3.51,.04-5.29-.17-2.04-.24-4.02-1.02-6.06-1.21-4.23-.4-8.49-.55-12.74-.86-1.13-.08-2.24-.52-3.37-.55-4.76-.12-9.54,.01-14.29-.26-2.91-.17-5.78-.91-8.67-1.39-.36-.06-.74-.09-1.11-.08-2.95,.13-5.89,.27-8.84,.4-5.17,.23-10.34,.53-15.51,.67-5.88,.16-11.82,.68-17.65,.14-5.85-.54-11.6,.18-17.37,.3-7.95,.17-16.01,.45-23.76,1.99-3.7,.74-7.58-.33-11.02,1.48-2.75,1.44-5.61,.27-8.38,.56-3.46,.37-6.86,1.25-10.31,1.82-1.87,.31-3.8,.3-5.66,.68-6.68,1.4-13.29,3.1-20,4.31-7.52,1.36-15.16,2.07-22.64,3.56-4.27,.85-8.3,2.87-12.52,4.08-5.79,1.65-11.72,2.84-17.48,4.59-3.61,1.1-6.93,3.15-10.54,4.28-8.03,2.51-15.48,6.23-22.87,10.14-1.09,.58-2.23,1.09-3.34,1.63-.23-.41-.46-.81-.68-1.22,5.03-3.52,9.69-7.87,15.18-10.37,9.52-4.32,19.69-7.16,29.34-11.23,7.75-3.27,15.97-4.5,23.93-6.84,1.81-.54,3.8-.48,5.63-.99,3.95-1.09,7.82-2.5,11.79-3.51,2.17-.55,4.49-.51,6.73-.81,2.22-.3,4.45-.64,6.65-1.07,7-1.36,13.95-3.04,20.99-4.09,5.48-.82,11.08-.71,16.6-1.32,3.79-.42,7.51-1.54,11.3-2.02,2.21-.28,4.53,.37,6.75,.15,4.43-.45,9.02-.62,13.25-1.5,4.71-.97,9.37-.49,14-1.21,3.44-.54,6.97-.62,10.46-.57,7.56,.1,15.12,.49,22.69,.63,3.47,.06,6.94-.3,10.41-.24,5.06,.08,10.12,.36,15.18,.58,.23,0,.47,.35,.66,.31,4.72-.99,9.11,.98,13.67,1.48,8.02,.86,16.08,1.49,24.09,2.47,5.03,.61,9.99,1.7,14.99,2.56,5.46,.94,11.07,1.34,16.33,2.91,6.47,1.94,12.66,4.82,18.96,7.34,2.62,1.05,5.5,1.79,7.71,3.41,3.95,2.91,7.47,6.38,11.18,9.61-.15,.23-.29,.46-.44,.69Z"/><path class="cls-1" d="M360.52,116.03c-8.65,1.66-17.29,3.36-25.96,4.95-5.46,1-10.92,2.03-16.43,2.71-10.67,1.31-21.36,2.37-32.05,3.55-6.94,.76-13.86,1.79-20.83,2.25-5.37,.35-10.79-.14-16.17,0-5.19,.14-10.38,.72-15.57,.89-2.6,.09-5.21-.48-7.82-.44-5.11,.07-10.22,.62-15.32,.5-6.5-.15-12.99-.69-19.48-1.2-7.02-.55-14.04-1.19-21.05-1.93-3.87-.41-7.74-.96-11.55-1.75-7.41-1.53-15.01-2.63-22.09-5.14-5.34-1.89-10.07-5.58-14.88-8.76-.98-.65-1.11-2.59-1.12-4.11,7.78,7.86,17.06,11.39,27.59,12.67,5.71,.69,11.29,2.4,16.97,3.46,2.66,.5,5.4,.6,8.11,.79,5.04,.35,10.1,.57,15.14,.98,4.79,.39,9.56,1.04,14.35,1.41,2.04,.15,4.11-.16,6.17-.22,7.25-.21,14.5-.49,21.74-.58,6.19-.07,12.39,.22,18.58,.1,6.71-.13,13.42-.49,20.13-.85,6.79-.36,13.6-.61,20.35-1.36,5.86-.65,11.63-2.13,17.48-2.88,4.32-.55,8.74-.32,13.09-.76,4.87-.5,9.7-1.43,14.56-2.07,8.66-1.14,17.34-2.21,26.01-3.31,.02,.37,.04,.74,.06,1.1Z"/><path class="cls-1" d="M121.69,379.99c13.21,2.73,27.29,.74,40.55,8.58-3.57,.62-6.27,1.31-9,1.43-1.02,.05-2.1-1.23-3.15-1.9,.73-.85,1.45-1.71,2.63-3.09-15.85-.65-31.6-1.3-47.41-1.95-.07-1.04-.14-2.21-.22-3.37,3.15-.6,6.15-1.17,9.16-1.74-6.51-1.38-13.05-.73-19.67-.2-6.68,.53-13.44,.12-20.15,.12,.84-5.82-4.94-.92-6.62-3.97-.52-2.74,.93-3.21,4.21-3.25,5.68-.08,11.33-1.4,17.01-1.66,5.08-.23,10.52,1.48,15.21,.18,7.39-2.05,14.35,.29,21.58,.2-5.54,2.84-11,5.71-17.61,5.45,3.46,2.27,8.1-2.49,11.03,2.5h5.03c.01-.24,.03-.48,.04-.72h-4.78c0-.44,.01-.88,.02-1.31h22.28c.12,.37,.24,.75,.37,1.12-2.12,.66-4.21,1.51-6.38,1.91-2.27,.43-4.63,.37-6.94,.63-2.41,.28-4.81,.68-7.21,1.03Z"/><path class="cls-1" d="M477.54,327.88c1.05-.77,2.1-1.54,3.45-2.54-3.08-.2-5.77-.38-8.63-.57-.04,.54-.11,1.31-.17,2.09,.27-.35,.55-.71,.82-1.06-1.17-.97-2.35-1.94-3.71-3.07,2.26-3.35,6.83-2.12,10.52-2.64,5.37-.76,10.91-.36,16.38-.43,2.64-.03,5.28,0,8,.81-5.57,.76-11.15,1.53-16.72,2.29,0,.17,0,.35,0,.52h20.1c.04,.47,.07,.94,.11,1.41-9.94,1.37-19.87,2.75-29.81,4.12-.12-.31-.23-.61-.35-.92Z"/><path class="cls-1" d="M378.51,389.24c-9.76,1.05-19.52,2.1-29.28,3.15-.04-.39-.07-.77-.11-1.16,9.74-1.66,19.49-3.07,29.35-3.53,.01,.51,.02,1.03,.04,1.54Z"/><path class="cls-1" d="M139.65,86.14c-2.83,1.66-5.89,3.04-8.44,5.06-3.2,2.53-5.99,5.58-8.96,8.4-.26-.22-.52-.43-.79-.65,.29-.87,.35-1.93,.91-2.57,4.61-5.32,10.23-9.2,16.92-11.49,.12,.42,.24,.83,.35,1.25Z"/><path class="cls-1" d="M486.44,345.31c-4.62,.8-9.24,1.6-13.85,2.4-.06-.35-.11-.69-.17-1.04,4.6-.79,9.19-1.57,13.79-2.36,.08,.33,.16,.67,.23,1Z"/><path class="cls-1" d="M121.46,98.95c.26,.22,.52,.43,.79,.65-.64,2.14-1.29,4.28-2.01,6.67-.38-.29-1.47-.81-1.42-1.15,.34-2.25-.7-5.19,2.65-6.16Z"/><path class="cls-1" d="M139.65,86.14c-.12-.42-.24-.83-.35-1.25,2.51-.8,5.03-1.59,7.54-2.39l.39,1.29c-2.53,.78-5.05,1.57-7.58,2.35Z"/><path class="cls-1" d="M345.12,148.1c1.66,.95,2.9,1.65,4.21,2.4-3.31,.8-1.88,3.15-1.69,5.67,.53,7.08,.52,14.2,.64,21.31,.09,5.07,.05,10.13,.06,15.2,0,3.3,0,6.61-.71,9.92-2.73-18.02-4.3-36.08-2.51-54.5Z"/><path class="cls-1" d="M238.99,356.58c0,1.69,.09,3.39-.03,5.07-.12,1.64-.44,3.27-1.14,4.9v-10.13c.39,.05,.77,.11,1.16,.16Z"/><path class="cls-1" d="M424.89,279.82c-2.97-3.78-2.21-8.01-2.2-12.2,.03-5.95-.26-11.91-.41-17.87-.05-1.9-.18-3.8-.1-5.69,.27-6.29,.62-12.57,.94-18.85,.07-1.41-.1-2.89,.3-4.2,.27-.88,1.34-1.51,2.47-1.96,0,20.46,2.02,40.64-1,60.77Z"/><path class="cls-1" d="M439.46,291.02c3.79,3.09,4.02,42.59,.38,49.29-1.28-16.25-2.15-32.51-.38-49.29Z"/><path class="cls-1" d="M426.29,349.71c-1.36-8.82-1.76-17.66,.05-26.54,1.92,8.81,.42,17.68-.05,26.54Z"/><path class="cls-1" d="M141.94,222.66c.69,.79,1.94,1.56,1.98,2.38,.4,7.18,.59,14.38,.82,21.57,.26,7.84,.51,15.68,.74,23.52,.05,1.78,0,3.57,0,5.73-3.82-1.58-2.87-5.15-3.05-7.38-.58-7-.1-14.09-.32-21.13-.24-7.52-.84-15.03-1.17-22.55-.03-.72,.71-1.47,1.09-2.21,0,0-.09,.06-.09,.06Z"/><path class="cls-1" d="M121.69,256.44c.56,3.79,1.11,7.59,1.67,11.38-.44,.05-.88,.1-1.32,.15-.17-3.8-.34-7.59-.52-11.39,0,0,.17-.14,.17-.14Z"/></g><g><path class="cls-2" d="M277.68,315.36s-6.73,37.06-3.98,64.89c2.75,27.83,3.59,39.32,3.59,39.32,0,0,46.64,35.23,181.71,28.6,0,0,127.82-4.28,177.01-33.16l-.75-96.89s16.5-49.18-175.75-45.61c0,0-106.55-.34-181.83,42.85Z"/><g><path class="cls-1" d="M606.22,420.52c2.65,2.26,4.85-.02,7.18-.76,3.16-1.01,6.25-2.23,9.44-3.16,1.34-.39,2.75-1.12,3.75-1.37,3.13-.77,6.59-.24,9.42-.22,1.14-5.5,2.47-11.96,3.8-18.43,3.05,7.89,.23,15.14-1.04,22.95-2.22-1.54-4.31-3.88-5.11,.67-.13,.73-2.15,1.23-3.35,1.66-4.29,1.53-8.62,2.98-12.92,4.49-.49,.17-.9,.76-1.38,.81-4.83,.46-9.48,1.3-13.34,4.63-.42,.36-1.77-.58-2.52-.36-3.96,1.18-7.86,2.55-11.8,3.82-1.53,.49-3.07,1.01-4.64,1.27-5.24,.86-10.52,1.55-15.76,2.45-1.03,.18-2.21,.76-2.87,1.54-2.44,2.89-5.46,2.06-8.54,1.82-1.73-.14-3.57,.2-5.25,.7-2.59,.78-5.19,2.95-7.57,2.67-6.43-.76-12.44,3.45-18.94,1.12-1.09-.39-2.76,1.23-4.23,1.47-1.85,.29-3.9,.53-5.64,.02-2.57-.75-4.14,1.63-6.95,1.23-4.33-.62-8.95,1.06-13.47,1.37-4.35,.3-8.76-.14-13.11,.19-3.29,.25-6.53,1.13-9.76,1.88-1.6,.37-2.81-3.11-4.53-.37-3.02-3.4-6.65-.67-9.97-.91-4.13-.29-8.3-.28-12.43-.1-2.39,.1-4.75,.79-7.13,1.25-.19,.04-.37,.42-.52,.4-3.37-.47-6.73-1.21-10.12-1.4-3.16-.17-6.19-2.27-9.61-.33-1.1,.62-3.1-.45-4.7-.55-1.84-.12-3.7-.03-5.98-.03-.86-.17-2.19-.54-3.55-.71-3.37-.42-6.74-.83-10.12-1.09-2.39-.18-4.81,0-7.2-.14-3.47-.21-6.94-.48-10.39-.87-5.1-.58-10.19-1.31-15.29-1.92-5.08-.6-10.19-.94-15.23-1.76-3.54-.58-6.97-1.85-10.48-2.69-2.08-.5-4.23-.67-6.32-1.13-6.73-1.51-13.39-3.48-20.19-4.53-7.4-1.14-13.22-5.84-20.1-7.89-5.88-1.75-10.69-5.22-15.82-8.19-.93-.54-1.74-2.66-1.44-3.72,.94-3.34,1.01-6.38-.42-9.64-.59-1.35-.4-3.39,.17-4.83,1.59-4.03,.46-7.85,.03-11.85-.46-4.31,.38-8.76,.44-13.14,.06-4.07-.4-8.15-.19-12.2,.2-3.9,1.22-7.76,1.45-11.66,.48-8.29,.58-16.6,1.09-24.88,.12-1.95,1.28-3.84,2.59-5.66,4.04,8.61,3.14,17.82,4.57,26.43,2.72,1.06,5.32,2.08,7.93,3.1,.79-1.3,1.51-2.48,2.23-3.66,.35-.11,.7-.21,1.04-.32-.95,5.85,2.52,6.49,6.61,7.25,5.09,.95,10.06,3.95,15,3.76,3.62-.15,6.35,4.6,10.06,1.31,.13-.12,1.07,.96,1.71,1.08,3.7,.65,7.41,1.23,11.13,1.74,2.93,.4,5.87,.64,8.81,.98,5.68,.65,11.36,1.26,17.03,1.97,4.56,.57,9.14,1.98,13.63,1.69,4.5-.28,9.06,2.41,13.49-.26,.45-.27,1.28,.13,1.93,.17,2.76,.19,5.52,.3,8.27,.56,1.58,.15,3.14,.78,4.7,.74,3.92-.1,7.84-.44,11.75-.71,.59-.04,1.25-.47,1.76-.32,5.49,1.65,10.91,.04,16.37-.13,4.5-.14,9.02,.15,13.53,.24,.37,0,.75,0,1.11-.07,3.02-.54,6.03-1.25,9.07-1.6,5.44-.63,10.89-1.06,16.35-1.52,3.19-.27,6.43-.2,9.57-.72,2.81-.47,5.48-1.9,8.29-2.29,4.02-.57,8.17-.29,12.17-.92,3.34-.53,6.51-2.08,9.85-2.75,3.73-.75,7.59-.88,11.35-1.54,2.11-.37,4.11-1.4,6.21-1.88,4.79-1.08,9.71-1.72,14.42-3.08,5-1.45,9.78-3.61,14.72-5.28,1.95-.66,4.09-.72,6.09-1.23,1.64-.42,3.21-1.1,4.81-1.66,1.57-.55,3.21-.98,4.71-1.67,4.32-2,8.49-4.34,12.9-6.08,2.93-1.16,6.32-1.18,9.26-2.32,3.53-1.37,6.8-3.4,10.19-5.13,.64-.33,1.41-.43,1.99-.84,2.19-1.51,4.27-3.18,6.49-4.64,1.16-.77,2.56-1.15,3.75-1.87,2.43-1.49,4.77-3.14,7.19-4.65,1.5-.94,3.29-2.64,4.57-2.34,1.28,.3,2.3,2.55,3.02,4.13,.72,1.56,.93,3.35,1.36,5.05,.35-.06,.7-.12,1.05-.18,.19-1.5,.37-3,.56-4.49,.31-.01,.63-.02,.94-.03,0,3.29,0,6.59,0,9.88-.01,3.09-.06,6.17-.07,9.26-.02,8.22-.04,16.45-.03,24.67,0,5.69,.3,11.38,.02,17.06-.26,5.3-.87,10.62-1.77,15.85-.66,3.81-2.06,7.5-3.13,11.24-.41,0-.81-.01-1.22-.02-.11-1.3-.19-2.6-.32-3.9-.17-1.68-.37-3.36-.56-5.04-.09-.74-.3-1.49-.27-2.23,.23-5.15,.58-10.29,.73-15.44,.06-1.92-.58-3.87-.48-5.78,.33-5.94,.88-11.87,1.28-17.81,.05-.7-.46-1.41-.54-2.14-.41-3.67-.83-7.34-1.13-11.02-.36-4.41-.62-8.83-.87-13.25-.02-.39,.42-.81,.65-1.21-.33-.16-.65-.32-.98-.49-.9,2.07-2.55,4.15-2.56,6.22-.05,10.9,.42,21.8,.5,32.7,.05,6.76-.23,13.53-.48,20.29-.22,5.88-.6,11.76-.94,18.16-.85-.73-1.93-1.24-1.91-1.7,.29-6.62-2.38-13.23,.03-19.88,.42-1.16-.31-2.69-.35-4.06-.24-10.01-.47-20.02-.63-30.03-.06-3.61,.08-7.22,.11-10.84,0-.76-.08-1.52-.13-2.38-6.52,2.05-8.55,5.64-7.85,11.85,.5,4.38,.56,8.89,.18,13.29-.85,9.77-.81,19.5-.27,29.29,.37,6.75,.07,13.54,.07,20.32-.42,.1-.84,.21-1.26,.31-.45-.38-1.26-.74-1.29-1.15-.47-7.62-.97-15.24-1.21-22.86-.21-6.54-.25-13.09-.09-19.63,.17-6.9,.68-13.8,1.02-20.7,.07-1.39,0-2.79,0-4.18-6.1,1.24-10.14,4.62-9.97,8.65,.27,6.69,.76,13.37,1.15,20.06,.21,3.67,.37,7.34,.62,11,.38,5.64,1,11.27,1.17,16.92,.13,4.4-.32,8.82-.38,13.23-.04,2.54,.19,5.08,.29,7.61-1.23-4.49-2.89-8.9-3.54-13.46-.7-4.85-.46-9.85-.59-14.78-.28-10.66-.51-21.31-.8-31.97-.1-3.86-.31-7.72-.46-11.48-4.58,1.88-8.48,3.41-12.3,5.12-.67,.3-1.46,1.3-1.45,1.98,0,4.7-.13,9.45,.42,14.1,.84,7.12,2.75,14.14,3.17,21.27,.42,7.1-.42,14.27-.7,21.41l-1.16,.25c-.66-2.79-1.44-5.56-1.95-8.38-.35-1.91-.33-3.89-.49-5.84-.12-1.47-.28-2.94-.4-4.41-.08-.98-.07-1.97-.18-2.95-.42-3.96-1.03-7.91-1.26-11.88-.43-7.34-.64-14.69-.98-22.85-8.98,3.09-17.17,5.91-25.17,8.67,0,4.4,0,8.89,0,13.38,0,5.45-.09,10.91,.02,16.35,.09,4.63,.59,9.26,.58,13.89-.02,4.7-.3,9.41-.77,14.09-.25,2.51-1.15,4.96-1.76,7.43,.03-2.09,.19-4.19,.08-6.28-.29-5.49-.84-10.97-1.02-16.46-.14-4.41,.2-8.84,.18-13.26-.03-5.48-.24-10.96-.31-16.43-.05-4.03-.01-8.07-.01-12.43-6.78,1.92-12.7,3.68-18.68,5.21-.97,.25-2.2-.52-4.26-1.07,8.61-2.83,16.03-5.26,23.73-7.79v-2.46c1.67,.34,3.88,1.39,4.46,.81,3.69-3.68,9.54-1.2,13.35-5.31,1.87-2.02,6.07-1.88,9.14-2.7v-7.06c-2.27,.93-4.37,1.87-6.53,2.64-2.27,.81-4.62,1.39-6.88,2.21-1.4,.51-2.72,1.27-4.07,1.91-1.15,.54-2.63,1.82-3.39,1.49-3.23-1.44-4.3,.42-5.05,2.75-.49-.6-1.05-1.65-1.32-1.58-3.28,.87-6.53,1.84-9.75,2.93-2.57,.87-5.03,2.07-7.62,2.9-2.39,.77-4.75-.43-7.56,1.22-3.22,1.89-7.87,1.29-11.87,1.95-2.38,.39-4.68,1.22-7.05,1.7-2.85,.57-5.91,.55-8.55,1.6-2.14,.85-4.23,.89-6.37,1.24-1.76,.29-3.67,1.57-5.19,1.18-7-1.79-13.34,2.34-20.43,1.66-6.25-.6-12.75,2.14-19.2,2.77-7.17,.7-14.42,1.03-21.61,.79-3.26-.11-6.4,1.13-9.84,.04-2.21-.7-5.02,.49-7.4,.82-1.06-.32-2.25-.97-3.45-.99-3.63-.06-7.26,.3-10.89,.18-5.17-.16-10.35-.47-15.51-.93-3.67-.33-7.29-1.16-10.95-1.51-2.14-.21-4.69,.84-6.4,0-3.5-1.73-7.48,1.52-10.76-1.55-.62-.58-2.79-.05-3.87,.59-.6,.36-.74,2.08-.54,3.08,1.33,6.78,2.9,13.52,4.18,20.31,.56,2.93,.57,5.97,.92,8.95,.88,7.55,1.82,15.09,2.71,22.64,.36,3.04,1.2,6.17,.83,9.13-.77,6.09,5.03,1.87,6.35,4.42,.05,.1,.18,.23,.28,.24,1.18,.07,2.36,.18,3.54,.16,1.02-.02,2.63-.65,2.97-.22,2.86,3.61,7.01,1.13,10.33,1.78,5.74,1.12,12.05-.55,17.97,1.59,.29,.11,.72-.23,1.08-.22,4.62,.09,9.23,.14,13.84,.32,3.25,.13,6.49,.54,9.74,.66,4.35,.16,8.71,0,13.05,.28,6.89,.45,13.74,1.01,20.67,.14,3.81-.47,7.73,.04,11.59-.17,1.73-.09,3.43-.84,4.31-1.07,2.78,.44,4.98,1.38,6.87,.95,3.71-.84,7.42-1.12,11.16-1.27,4.01-.16,8.28,.72,11.96-.41,3.88-1.19,7.54-1.06,11.37-1.08,1.28,0,2.57-.61,3.81-1.05,.52-.18,1.16-1.02,1.37-.9,3.93,2.26,7.38-.76,11.04-1.11,8.14-.77,16.2-2.45,23.83-3.69-.11-1.59-.2-2.96-.27-4.36,1.13,1.23,2.1,3.31,3.38,3.52,2.19,.36,4.63-.24,6.86-.83,4.58-1.22,9.04-2.89,13.64-4.01,3.9-.95,8-1.08,11.87-2.12,3.96-1.07,7.77-2.73,11.58-4.3,.89-.37,1.5-1.43,2.24-2.17Zm-277.21,9.76c-.32,.01-.63,.03-.95,.04-.63-3.54-.94-7.19-1.97-10.61-1.44-4.78-1.75-9.75-2.54-14.59-1.17-7.12-.77-14.5-1.03-21.77-.12-3.26-.31-6.53-.31-9.79,0-1.98,.52-3.97,.33-5.92-.09-.92-1.11-2.2-2-2.51-3.76-1.32-8.02-.49-11.68-2.57-.61-.35-1.75-.17-2.46,.17-.6,.29-1.34,1.17-1.31,1.75,.24,5.02,.54,10.05,1.01,15.05,.76,8.08,1.6,16.14,2.54,24.2,.26,2.27,.95,4.48,1.45,6.72,.15,.69,.41,1.38,.42,2.07,.04,4.75,.02,9.49,.02,14.91-.73-1.36-1.47-2.22-1.65-3.18-1.64-8.84-3.63-17.65-4.62-26.56-.86-7.74-.57-15.62-.78-23.43-.09-3.26-1-6.81,.02-9.68,.97-2.73-.24-3.45-1.8-4.01-2.91-1.04-5.99-1.63-9.4-2.51,1.3,19.41,2.59,38.5,3.87,57.6-.41,.03-.81,.06-1.22,.08-.32-1.88-.66-3.76-.94-5.65-1.27-8.46-2.93-16.9-3.66-25.41-.75-8.75-.46-17.58-.95-26.36-.07-1.21-1.89-2.6-3.21-3.38-1.6-.95-3.54-1.35-6.2-2.3,.45,5.1,.98,9.97,1.27,14.85,.18,2.94-.05,5.91-.03,8.86,.03,5.18-.28,10.39,.25,15.52,.78,7.57,1.82,15.05,.36,22.69-.49,2.56-.99,5.82,2.26,7.51,1.94,1.01,3.88,2.13,5.96,2.72,6.36,1.81,12.8,3.38,19.17,5.04,.37-.83,.62-1.41,1.17-2.66,.83,4.45,3.6,4.91,6.71,5.16,4.06,.33,8.74-.15,11.99,1.72,4.34,2.5,8.52,1.96,12.88,2.16,.69,.03,1.38,.1,2.06,.21,4.44,.72,8.88,1.51,13.34,2.1,.35,.05,1.21-1.22,1.26-1.92,.09-1.16-.22-2.38-.48-3.54-1.07-4.68-2.23-9.34-3.25-14.04-.3-1.36-.15-2.82-.37-4.2-1.02-6.32-2.19-12.61-3.14-18.95-1.03-6.92-1.84-13.87-2.87-20.78-.06-.42-1.24-.68-1.88-1.02,.64-1.15,1.27-2.3,2.13-3.85-8.38-1.35-16.34-2.64-23.45-3.78,1.22,21.11,2.45,42.47,3.68,63.82Zm272.97-91.07c1.04,2.08,1.5,3.01,1.96,3.92,9.75-3.63,11.32-5.4,11.13-12.21-9.8,4.72-19.71,9.48-29.8,14.34,.47,1.51,1.03,3.35,1.76,5.68,2.38-1.42,4.59-3.87,6.64-3.74,5.32,.35,7.21-2.46,8.31-7.99Zm15.74-4.38c7.49-6.02,7.51-6.08,4.14-8.54-2.95,1.96-5.67,4.02-4.14,8.54Zm8.87-8.02c.41,.12,.82,.25,1.23,.37,1.18-2.03,2.36-4.07,3.54-6.1-.17-.29-.34-.58-.51-.87-1.42,.74-3.29,1.17-4.12,2.33-.69,.97-.14,2.81-.14,4.27Z"/><path class="cls-1" d="M277.28,314.36c7-5.02,13.43-10.79,22.02-13.45,7.51-2.32,14.91-5.11,22.14-8.22,7.72-3.32,15.98-4.49,23.93-6.88,1.92-.58,4.04-.51,5.98-1.03,3.85-1.02,7.62-2.35,11.47-3.33,2.18-.56,4.46-.72,6.7-1.02,2.45-.33,4.92-.57,7.37-.96,6.04-.95,12.09-1.83,18.09-2.98,6.58-1.27,13.09-2.63,19.89-2.53,3.58,.05,7.15-1.41,10.76-1.83,3.6-.42,7.41,.17,10.84-.76,2.62-.71,5.15,.3,7.49-.5,6.23-2.14,12.82-.54,19.18-2.21,3.76-.99,8.07,.14,12.13,.23,4.02,.09,8.04,0,12.05,.14,4.46,.15,8.92,.6,13.38,.69,4.97,.1,9.94-.06,14.91-.09,2.52-.02,5.04,0,7.56,0,.28,.21,.76,.87,1.3,.94,6.78,.88,13.55,1.8,20.35,2.44,4.33,.41,8.7,.28,13.04,.58,1.7,.12,3.35,.86,5.06,1.13,3.42,.55,6.87,.87,10.27,1.47,1.94,.34,3.85,.95,5.7,1.64,3.93,1.47,8.11,1.39,12.13,3.47,6.18,3.2,13.24,4.7,19.93,6.92l-.15,1.5c-1.39,0-2.82,.23-4.15-.04-4.08-.84-8.13-1.86-12.18-2.85-4.36-1.07-8.74-2.1-13.07-3.29-6.59-1.82-13.22-3.15-20.1-3.04-1.04,.02-2.08-.78-3.15-.91-2-.24-4.04-.21-6.05-.39-1.7-.15-3.39-.47-5.09-.65-3.33-.36-6.67-.67-10.01-1.02-1.24-.13-2.48-.29-3.71-.47-6.08-.92-12.15-.87-18.29-.51-2.75,.16-5.55-1.32-8.38-1.62-1.47-.16-3.07,.95-4.58,.89-2.75-.12-5.48-.98-8.23-1.01-3.63-.03-7.26,.53-10.9,.67-3.62,.14-7.25,.06-10.87,.12-1.73,.03-3.47,.21-5.2,.2-3.92-.02-7.84-.22-11.75-.13-3.11,.07-6.22,.42-9.32,.71-2.19,.21-4.36,.64-6.55,.78-5.62,.34-11.25,.49-16.86,.91-.89,.07-1.7,1.12-1.85,1.23-3.11,0-5.81-.72-7.81,.16-3.54,1.54-6.98,.74-10.47,.96-3.09,.2-6.13,1.18-9.21,1.7-2.34,.4-4.75,.45-7.07,.95-6.2,1.32-12.32,3.01-18.55,4.15-7.51,1.37-15.15,2.07-22.63,3.57-4.39,.88-8.54,2.92-12.88,4.15-5.8,1.64-11.73,2.81-17.49,4.56-3.61,1.1-6.88,3.32-10.5,4.32-6.46,1.79-12.28,4.94-18.27,7.74-2.11,.99-4.08,2.29-6.15,3.38-.52,.28-1.18,.3-1.78,.45l-.39-1Z"/><path class="cls-1" d="M296.61,329.67c6.93,8.33,16.11,11.31,25.87,13.18,2.27,.43,4.46,1.32,6.73,1.74,4.24,.78,8.49,1.62,12.78,1.97,10.61,.86,21.24,1.59,31.87,2.1,6.09,.29,12.21-.04,18.32,.09,6.35,.14,12.69,.73,19.03,.68,5.9-.05,11.8-.73,17.7-1.04,6.1-.32,12.21-.51,18.31-.78,4.1-.18,8.22-.28,12.31-.62,3.1-.26,6.18-.81,9.26-1.28,4.73-.72,9.43-1.69,14.18-2.17,4.33-.43,8.73-.13,13.06-.56,4.77-.48,9.48-1.5,14.23-2.14,8.7-1.18,17.42-2.25,26.13-3.37,.06,.3,.13,.61,.19,.91-1.81,.4-3.61,.83-5.43,1.18-7.1,1.38-14.19,2.8-21.31,4.1-5.21,.95-10.51,1.52-15.67,2.67-10.7,2.37-21.6,2.55-32.43,3.53-6.95,.63-13.87,1.74-20.83,2.2-5.37,.35-10.79-.15-16.17,.04-5.44,.19-10.86,.86-16.3,1.08-2.23,.09-4.48-.69-6.72-.67-5.12,.03-10.24,.54-15.35,.44-6.5-.13-13-.57-19.48-1.08-7.02-.55-14.03-1.27-21.04-2.04-3.86-.43-7.74-.94-11.54-1.72-7.41-1.52-15-2.63-22.09-5.13-5.34-1.88-10.08-5.54-14.92-8.67-1.4-.91-2.82-2.7-.69-4.64Z"/><path class="cls-1" d="M297.37,321.51c.29-.87,.35-1.93,.91-2.57,4.61-5.32,10.23-9.2,16.92-11.49l.35,1.25c-2.83,1.66-5.89,3.04-8.44,5.06-3.2,2.53-5.99,5.58-8.96,8.4-.26-.22-.52-.43-.79-.65Z"/><path class="cls-1" d="M297.37,321.51c.26,.22,.52,.43,.79,.65-.64,2.14-1.29,4.28-2.01,6.67-.38-.29-1.47-.81-1.42-1.15,.34-2.25-.7-5.19,2.65-6.16Z"/><path class="cls-1" d="M315.55,308.7c-.12-.42-.24-.83-.35-1.25,2.53-.8,5.05-1.6,7.58-2.4,.12,.43,.24,.86,.36,1.3-2.53,.78-5.05,1.57-7.58,2.35Z"/><path class="cls-1" d="M521.02,370.65c1.66,.94,2.9,1.65,4.21,2.4-3.31,.8-1.88,3.15-1.69,5.67,.53,7.08,.52,14.2,.64,21.31,.09,5.07,.05,10.13,.06,15.2,0,3.3,0,6.61-.71,9.92-2.74-18.02-4.3-36.08-2.51-54.5Z"/></g></g></svg>