<?xml version="1.0" encoding="UTF-8"?><svg id="Layer_1" xmlns="http://www.w3.org/2000/svg" viewBox="0 0 539.2 475.91"><defs><style>.cls-1{fill:#323aa4;}.cls-2{fill:#c1e4fc;}</style></defs><g><path class="cls-2" d="M153.52,453.53l43.15-43.06,20.52,.16-15.42-27.36,4.65-5.62,30.17-14.04-6.13-26.55,14.68-10.21s15.96-54.64,11.87-116.17c-4.09-61.53,3.57-67.2,3.57-67.2l-13.85-15.21,11.8-10.5-27.49,10.5-21.53,5.28-27.57,1.56-65.87-8.08-3.32-2.25,7.84-2.94,15.39-1.01s43.31-1.54,99.14-21.97l15.25-4.09-1.93-9.96,9.7-6.64,4.85-7.66-1.79-6.64,4.34-5.87,2.94-32.26,4.09-1.11h4.77l1.96,4.09,1.96,28.94,4.77,4.09-1.19,14.04,12.29,5.45,2.01,5.79-3.06,7.83,22.21,5.66s89.11,26.43,116.43,21.96c0,0-21.57,12.72-73.53,11.08-51.96-1.64-76.09-17.21-76.09-17.21l12.04,9.96-9.1,16.31,1.4,11.65-.77,29.62s2.35,125.64,10.98,135.86c0,0,2.43,11.59,15.57,17.59l-5.49,26.04,31.11,13.53,2.59,6.89-15.57,26.84,21.96,1.5,42.89,39.19-8.43,2.2H153.52Z"/><path class="cls-2" d="M77.48,317.44s52.78,9.94,89.52-3.13l1.17,22.5s-51.74,22.09-89.7,4.62l-2.89-21.13,1.91-2.86Z"/><path class="cls-2" d="M382.13,315.53s57.02,11.23,87.49,2.04l1.36,2.16-2.55,21.54s-65.81,10.64-90.35-3.55l1.5-22.19h2.55Z"/></g><g><path class="cls-1" d="M469.39,311.52c-.71-.23-1.31-.42-2.52-.81,.59,1.81,1.03,3.16,1.48,4.5,.29-.08,.59-.17,.88-.25-.19-.9-.39-1.81-.58-2.71l.96-.71c.12,.45,.22,.91,.36,1.35,.66,2,.3,4.31,2.38,5.9,.52,.4-.09,2.3-.22,3.51-.36,3.43-.81,6.85-1.06,10.29-.14,2-.02,4.02,.08,6.02,.19,3.43-4.12,7.2-7.54,6.55,.05,.27,.11,.54,.16,.82-1.79,.45-3.57,.96-5.37,1.33-3.15,.64-6.3,1.29-9.47,1.74-1.03,.15-2.38-.8-3.2-.42-2.28,1.05-5,.15-7.1,1.78-.2,.15-.7,0-1.02-.12-5.63-2.1-11.45-.17-17.14-.85-1.19-.14-2.35-.59-3.51-.92-.27-.08-.5-.42-.75-.42-3.14-.03-6.28-.02-9.5-.02-.3-.33-.73-1.24-1.29-1.34-7.83-1.36-15.64-2.77-22.98-6.03-5-2.22-5.04-3.01-5.04-8.48,0-5.05,.44-10.01,1.07-14.98,.08-.62-.59-1.36-.46-1.95,.19-.84,1-2.32,1.18-2.26,2.71,.8,2.45-1.39,3.07-2.8,1.72-3.91,3.68-7.71,5.25-11.68,1.48-3.76,2.66-7.65,3.79-11.53,.2-.68-.45-1.61-.59-2.06,.57-.71,1.32-1.25,1.53-1.96,1.01-3.39,2.01-6.8,2.77-10.26,.91-4.12,1.41-8.33,2.41-12.43,.56-2.3,1.83-4.42,2.62-6.68,.75-2.14,1.3-4.35,1.94-6.52,.46-1.55,.91-3.11,1.37-4.66,.08-.26,.35-.55,.29-.74-1.08-3.06,2.06-4.68,2.42-7.17,.29-2.03-.78-4.76,.22-6.05,1.38-1.79,2.42-3.25,2.68-5.58,.25-2.23,1.78-4.33,1.98-6.56,.31-3.46,2.07-6.31,3.01-9.48,.17-.56-.44-1.36-.59-1.77,.76-1.11,2.15-2.2,2.1-3.22-.16-3.61,2.43-6.42,2.45-9.99,.01-1.63,1.52-3.2,2.02-4.89,.82-2.83,1.28-5.76,2.05-8.6,.67-2.47,1.51-4.9,2.34-7.33,1.2-3.49,2.51-6.95,3.64-10.46,.23-.72-.13-1.63-.21-2.35,.45-.36,1.27-.69,1.4-1.2,.52-2.1,.81-4.25,1.23-6.37,.14-.73,.43-1.43,.65-2.15,2.06-6.81,4.12-13.63,6.42-21.28-1.98,.57-2.95,.9-3.94,1.12-4.43,.98-8.84,2.24-13.33,2.81-5.12,.66-10.35,.52-15.49,1.04-6.18,.63-12.32,1.63-18.5,2.38-2.71,.33-5.44,.44-8.16,.67-3.36,.28-6.72,.66-10.08,.87-2.92,.18-5.96-.25-8.75,.42-2.07,.5-3.68,.25-5.66-.17-3.15-.66-6.48-.42-9.7-.85-4.31-.58-8.56-1.84-12.87-2.05-3.71-.17-6.72-2.31-10.03-2.83-6.13-.96-11.63-3.89-17.7-4.83-1.56-.24-3.01-1.22-5.03-2.08,.26,1,.23,1.6,.52,1.92,2.96,3.29,2.89,4.16-.17,7.02-.9,.84-1.15,2.52-2.12,3.1-3.12,1.87-3.79,5.81-6.85,7.7-.41,.25-.32,1.67-.13,2.47,.63,2.6,.95,5.42,2.25,7.66,1.69,2.94-.67,5.72,.45,8.51,.48,1.19,.8,2.54,.76,3.81-.13,4.29-.77,8.6-.58,12.87,.13,3.04-.77,6.04,.69,9.28,.95,2.1-.46,5.24-.76,7.92-.18,1.63-.42,3.29-.31,4.91,.21,3.12,.77,6.21,.96,9.32,.18,2.88,.11,5.78,.06,8.67-.07,3.32-.44,6.65-.29,9.95,.09,2,1.19,3.96,1.31,5.97,.14,2.24-.54,4.53-.44,6.78,.15,3.47,.76,6.92,.98,10.39,.13,2.08-.29,4.19-.16,6.26,.09,1.37,.72,2.71,1.1,4.06,.1,.37,.34,.78,.25,1.11-1.47,5.39-.41,10.61,.68,15.92,.5,2.44-.5,5.19,.02,7.61,1,4.57-.51,9.59,2.47,13.78-2.24,2.6,2.02,5.13,.1,7.79-.22,.31,.31,1.12,.43,1.71,1.06,5.32,2.13,10.63,4.47,15.6,.3,.64,.19,1.47,.62,1.54,2.55,1.77,5.18,3.45,7.62,5.36,1.34,1.06,2.35,1.94,3.64-.4,1.65,3.46,3.23,6.46,1.88,10.44-1.02,3-1.25,6.32-1.44,9.52-.12,2.06-2.61,3.95-.51,6.23,.09,.1-1.12,1.08-1.21,1.72-.39,2.58-.19,2.41,2.54,2.94,2.2,.42,4.25,1.59,6.36,2.43-.04,.27-.08,.53-.13,.8,.44-.32,.88-.64,1.21-.89,.79,.75,1.44,1.79,2.35,2.14,2.73,1.05,5.76,1.46,8.31,2.79,3.84,2.02,8.11,3.73,9.92,8.3,.43,1.09,1.15,2.07,2.11,2.76-.09,4.58-2.37,8.91-5.02,13.3-2.67,4.41-5.44,8.63-8.93,12.41-.47,.51-.65,1.62-.46,2.32,.13,.45,1.16,.91,1.8,.92,2.44,.02,4.89-.07,7.32-.28,1.04-.09,2.05-.55,3.07-.87,.32-.1,.68-.43,.94-.36,2.09,.57,4.84,.59,6.09,1.96,2.1,2.31,5,2.51,7.23,4.07,2.73,1.92,5.18,4.25,7.67,6.5,4.22,3.81,8.45,7.6,12.52,11.56,3.62,3.52,6.88,7.41,10.58,10.83,2.26,2.1,2.91,5.51,6.16,6.87,.8,.34,.74,2.74,.98,3.79-2.17,.2-3.56,.41-4.95,.45-4.8,.12-9.61,.2-14.41,.27-4.88,.07-9.77,0-14.64,.21-1.83,.08-3.71,1.24-5.43,.99-2.46-.36-5.04,.52-7.39-.72-.17-.09-.44-.24-.55-.18-2.62,1.5-5.3,.32-7.96,.24-1.46-.04-2.93-.03-4.39,0-1.82,.05-3.64,.19-5.47,.21-7.81,.09-15.64-.14-23.43,.36-3.37,.22-7,.37-10.13,.19-3.61-.21-7.15,.41-10.74,.19-5.88-.37-11.8,.1-17.71,.15-1.59,.02-3.17-.18-4.8-.13-1.58-.21-3.25-.85-4.71-.54-2.84,.6-5.42,.41-8.32-.07-4.04-.67-8.32,.13-12.5,.2-5.38,.09-10.76,.07-16.14,.11-3.35,.03-7.21,1.17-9.9-.13-3.01-1.46-5.78,1.4-8.32-.72-.24-.2-1.03,.42-1.57,.42-1.68,.02-3.35-.05-5.03-.13-.58-.03-1.17-.28-1.73-.22-2.86,.33-5.7,.8-8.57,1.08-.68,.07-1.4-.41-2.11-.62-.71-.21-1.43-.57-2.15-.59-5.84-.13-11.68-.26-17.52-.27-3.09,0-6.19,.38-9.28,.33-1.31-.02-2.61-.71-3.92-1.09,.04-.35,.09-.69,.13-1.04-.74,.52-1.47,1.05-2.4,1.71-1-1.61-1.37-2.51,.48-4.07,2.26-1.91,3.74-4.73,5.67-7.06,1.64-1.99,3.37-3.93,5.19-5.77,3.93-3.99,7.9-7.94,11.92-11.83,2.47-2.38,5.04-4.66,7.61-6.93,1.74-1.53,3.52-3.04,5.38-4.41,.6-.44,1.63-.26,2.28-.66,1.34-.81,3.44-.24,4.03-2.58,.17-.69,1.92-1.07,2.99-1.44,1.29-.46,2.63-.76,4.41-1.26,2.39,2.17,5.73,.74,8.95,.6,.56-.03,1.14,.26,1.7,.22,.66-.05,1.63-.11,1.88-.52,.36-.58,.54-1.75,.19-2.21-2.57-3.4-5.53-6.52-7.91-10.04-1.92-2.84-3.34-6.05-4.73-9.2-.83-1.89-1.2-3.98-1.74-5.99-.07-.28-.07-.7,.1-.9,1.39-1.67,2.79-3.33,4.24-4.94,2.22-2.46,4.67-4.54,7.98-5.51,2.82-.82,5.62-1.8,8.3-3,1.99-.89,3.77-2.25,5.7-3.03,2.14-.6,4.29-1.17,6.4-1.83,.26-.08,.54-.74,.48-1.06-.52-2.6-1.12-5.18-1.72-7.76-.04-.18-.28-.31-.31-.48-.68-4.39-1.77-8.78-1.87-13.19-.07-3.08,1.21-6.18,1.97-9.66,.84,1.49,1.52,2.7,1.83,3.24,3.31-2.06,6.6-3.88,9.6-6.08,1.03-.76,1.61-2.4,1.99-3.75,1.4-4.98,2.91-9.95,3.83-15.03,.92-5.07,.84-10.33,1.84-15.37,.67-3.4,1.01-6.67,.54-10.06-.42-2.98,.49-5.95,.74-8.84,.2-2.31,.78-4.74,.71-7.2-.03-1.1-.03-2.2,.06-3.29,.17-1.89,.51-3.76,.62-5.65,.26-4.38,.46-8.76,.62-13.14,.15-3.9,.08-7.81,.37-11.7,.16-2.14,1.21-4.24,1.2-6.35-.01-3.04-.87-6.07-.92-9.11-.05-3.29,.45-6.59,.65-9.9,.23-3.84,.5-7.68,.53-11.53,.01-1.36-.62-2.74-.75-3.28-.2-2.13-.95-4.02-.34-4.7,2.12-2.39,.72-4.91,.75-7.31,.03-2.71-.56-5.43-.59-8.14-.03-2.76,.32-5.52,.46-8.28,.1-2.07-.34-4.16,.64-6.2,.25-.53-.41-1.5-.51-1.79,.76-3.24,1.46-6.25,2.19-9.26,.19-.76,.72-1.48,.71-2.21-.02-.88-.27-1.86-.74-2.59-.87-1.37-1.96-2.6-2.96-3.89-.72-.93-1.39-1.9-2.15-2.78-1.77-2.05-3.92-3.88-5.22-6.19-.5-.89,.83-2.86,1.42-4.3,.15-.36,.67-.57,1.73-1.42-1.51-.2-2.33-.56-2.95-.34-5.76,1.99-11.44,4.21-17.22,6.11-4.53,1.49-9.11,3.07-13.79,3.8-7.25,1.13-14.6,1.68-21.93,2.25-7.37,.57-14.7,.15-22.04-.94-6.01-.89-12.12-1.02-18.18-1.57-5.05-.46-10.08-1.07-15.13-1.54-1.59-.15-3.22,.06-4.82-.08-1.04-.09-2.05-.52-3.05-.84-.34-.11-.69-.57-.95-.5-1.55,.41-2.74,.2-4.37-.44-1.35-.53-3.51-1.45-5.01-1.05-3.62,.98-6.24-1.73-10.26-1.68,2.53,8.8,5.06,17.59,7.59,26.38-.05,.07-.09,.13-.14,.2,.53,1.15,1.2,2.26,1.55,3.47,.39,1.31,.32,2.76,.74,4.05,.67,2.06,.1,4.86,2.7,5.55,.09,1.4-.05,2.72,.29,3.9,1.16,4.03,3.29,7.97,3.5,12.02,.18,3.65,3.09,6.22,2.68,9.87-.11,.93,.81,2.06,1.42,2.99,1.71,2.6-.08,6.36,3.15,8.64,.96,.68,.52,3.18,.97,4.78,.38,1.34,1.11,2.59,1.58,3.63,.3,1.62,.52,3.16,.88,4.67,.87,3.69,1.29,7.46,3.73,10.72,.82,1.1-.05,3.34,.37,4.92,.44,1.69,1.5,3.22,2.29,4.82,.23,.46,.8,1.1,.67,1.33-1.43,2.42,.32,3.99,1.31,5.84,.44,.83,.26,1.96,.5,2.92,.81,3.25,1.59,6.51,2.56,9.71,1.52,5.02,2.67,10.13,3.93,15.21,.85,3.45,1.77,6.89,2.9,10.26,.58,1.71,2.14,3.15,2.49,4.87,1.43,6.99,5.53,13.1,6.48,20.24,.19,1.4,1.08,2.72,1.69,4.17,2.05,.3,4.23-.22,2.66,3.84-1.06,2.75,.85,6.56,1.05,9.92,.21,3.52,.03,7.08-.13,10.61-.03,.6-.63,1.45-1.18,1.71-5.28,2.44-10.4,5.41-16.51,5.27-.35,0-.89,.38-1.02,.72-.46,1.16-.97,1.05-2.22,.98-2.44-.15-4.93,.57-7.38,1.05-.19,.04-.2,.96-.18,.86-3.72,.26-7.14,.44-10.56,.75-3.43,.31-6.83,.96-10.26,1.08-2.45,.08-4.92-.59-7.39-.65-.69-.01-1.4,.99-2.24,1.64-.77-.28-1.81-.9-2.88-.97-1.58-.1-3.07-.41-4.61-.69-4.48-.81-9.07-.98-13.59-1.59-2.19-.3-4.39-.85-6.48-1.6-5.94-2.13-8.29-5.65-6.97-12.45,.41-2.09,.1-4.45-.38-6.57-1.41-6.29-1.37-12.42,.45-18.67,2.43-8.32,4.41-16.78,6.69-25.14,.97-3.57,2.44-7.02,3.23-10.63,.5-2.29,.13-4.76,.21-7.15,.01-.4,.31-.78,.43-1.18,.61-1.91,1.85-3.9,1.65-5.72-.27-2.4,.63-4.59,.61-6.57-.03-3.01,2.56-5.32,1.28-8.73-.75-1.98,1.35-4.88,1.55-7.41,.35-4.4,1.27-8.62,2.52-12.82,.3-1.01,.02-2.17,.08-3.26,.16-3.05,.25-6.11,.56-9.15,.19-1.88,.6-3.77,1.16-5.58,1-3.22,1.65-6.44,.92-9.81-.09-.41-.14-.9,0-1.28,1.63-4.32,2.86-8.66,2.71-13.41-.11-3.52,.1-7.2,1.05-10.56,1.45-5.12,1.91-10.33,2.6-15.54,.36-2.76,1.44-5.43,1.82-8.18,.57-4.13,.81-8.32,1.2-12.48,.35-3.72-.66-6.84-3.67-9.28-1.52-1.23-1.3-5.44,.18-6.86,1.97-1.9,6.49-2.51,7.39-.56,2.45,5.3,7.05,3.31,10.74,3.38,5.64,.11,11.33-.39,16.92-1.16,5.34-.74,10.71-.31,16.1-1.91,5.88-1.74,12.33-1.48,18.45-2.56,4.86-.86,9.61-2.36,14.38-3.69,5.99-1.67,11.97-3.37,17.9-5.24,4.75-1.5,9.44-3.18,14.11-4.93,2.59-.97,5.07-2.22,7.82-3.45v1.68c6.86-1.79,13.67-3.57,20.9-5.45-.39-1.68-.82-3.61-1.28-5.53-.52-2.21-.98-4.56,.32-6.51,.82-1.23,2.4-2.67,3.71-2.74,3.27-.17,5.52-1.96,7.95-3.65,.4-.28,.98-.29,1.71-.49-.54-4.33-1.09-8.68-1.74-13.81,1.19-.45,3.15-.98,4.86-1.95,.81-.46,1.61-1.74,1.64-2.67,.15-5.04,.07-10.09,.03-15.13-.03-5.22,1.51-10.15,2.93-15.07,.32-1.1,1.83-2.45,2.94-2.61,2.1-.31,4.39-.11,6.45,.42,1.14,.29,2.49,1.52,2.88,2.64,1.03,2.9,1.91,5.94,2.24,8.99,.42,3.98,.27,8.03,.32,12.05,.04,3.06-.13,6.13,.07,9.18,.05,.77,1.01,1.97,1.75,2.14,5.96,1.36,5.15,1.72,3.89,7.47-.52,2.35-.98,4.94-.5,7.23,.53,2.58,3.6,3,5.63,4.21,1.37,.82,3.23,.81,4.58,1.65,3.63,2.25,4.27,5.84,2.37,11.66-.27,.83-.61,1.64-.95,2.54,4.1,1.01,8.02,1.97,11.94,2.94,2.5,.62,4.98,1.33,7.5,1.86,.91,.19,1.9-.05,2.84,0,1.21,.06,2.51-.03,3.59,.39,3.26,1.27,6.4,2.87,9.67,4.14,5.26,2.04,10.55,4.03,15.91,5.82,3.48,1.16,7.07,2.08,10.66,2.84,9.43,2,18.84,4.22,28.36,5.66,7.84,1.18,15.82,1.37,23.74,2,5.64,.44,11.28,.95,16.92,1.28,1.96,.11,3.74,.16,5.28-2.06,2.83-4.06,7.86-3.62,9.75,.68,.56,1.27,.35,3.85-.55,4.64-4.16,3.62-4.17,8.14-3.65,12.94,.34,3.15,.55,6.33,1.06,9.45,.39,2.4,1.3,4.72,1.7,7.13,.42,2.49,.36,5.06,.78,7.55,.52,3.07,2.04,6.14,1.86,9.13-.49,7.71,1.23,15.07,2.88,22.41,.69,3.05,.09,5.94,.55,8.84,.39,2.44,1.33,4.79,1.93,7.2,.19,.78,.03,1.64,.11,2.45,.52,5.76-.17,12.04,1.97,17.13,1.96,4.66,.06,9.73,2.99,13.85,.06,.08,.17,.22,.14,.25-2.51,3.27,2.17,5.82,.93,9.05-.25,.66,.75,1.7,.84,2.6,.23,2.3,.27,4.63,.39,6.94,.03,.5-.04,1.03,.12,1.48,.57,1.51,.99,2.89,1.04,4.67,.07,2.09,.15,4.39,.59,6.55,1.28,6.26,2.46,12.54,3.91,18.76,1.23,5.28,2.84,10.47,4.17,15.72,.3,1.16,.16,2.43,.23,3.81ZM235.28,120.7c-1.45,.68-2.9,1.36-4.36,2.04,.12,.35,.24,.69,.35,1.04,5.56-1.76,11.12-3.53,16.67-5.29-.05-.21-.1-.43-.15-.64h-3.73c.21-.39,.36-1.08,.63-1.13,7.52-1.47,14.16-5.83,22.28-5.84,4.31,0,8.62-.97,12.93,.29,1.08,.32,2.28,.32,3.29,.76,4.82,2.11,9.44,4.76,14.41,6.39,6.54,2.14,13.33,3.52,20.02,5.21,5.7,1.45,11.37,3.04,17.11,4.28,5.18,1.12,10.44,1.84,15.66,2.74-.02,.29-.03,.57-.05,.86-5.57-.45-11.13-.9-16.7-1.35-.01,.28-.02,.57-.04,.85,1.97,.27,3.94,.62,5.92,.79,5.51,.47,10.85,2.32,16.53,1.72,3.82-.41,7.72,.03,11.57-.25,4.1-.3,8.17-1.09,12.27-1.48,2.48-.23,5.03,.13,7.5-.19,4.58-.6,9.09-1.66,13.67-2.24,4.91-.62,9.88-.82,14.79-1.4,1.94-.23,3.79-1.12,5.72-1.45,2-.34,4.05-.37,6.08-.53l-.06-1.1c-4-.43-7.99-1.03-12-1.24-2.79-.14-5.62,.5-8.4,.35-2.67-.14-5.3-.93-7.97-1.27-6.13-.79-12.29-1.35-18.39-2.28-3.59-.54-7.07-1.75-10.66-2.39-4.2-.75-8.32-1.53-12.22-3.41-2.25-1.09-4.78-1.65-7.23-2.21-1.98-.45-4.24-.09-6.04-.87-6.58-2.86-13.49-4.6-20.31-6.66-5.03-1.51-10.03-3.09-15.05-4.64-.33-.1-.64-.36-.97-.4-6.81-.72-13.68-1.06-20.41-2.2-11.97-2.01-23.89-.84-35.7,.56-5.92,.7-12.07,.97-17.85,3.38-4.57,1.9-9.6,2.64-14.38,4.07-3.79,1.13-7.47,2.68-11.28,3.75-6.38,1.78-12.83,3.32-19.24,4.99-.66,.17-1.23,.63-1.88,.87-2.09,.76-4.15,1.65-6.3,2.17-2.1,.52-4.31,.59-6.45,.99-1.19,.23-2.3,.87-3.49,1.08-4.21,.76-8.43,1.49-12.66,2.11-5.27,.77-10.53,1.67-15.83,2.02-5.09,.34-10.22-.08-15.32,.14-2.38,.1-4.72,.95-7.09,1.45,.02,.35,.04,.7,.06,1.05,1.98,.37,3.96,.77,5.94,1.12,3.35,.6,6.68,1.41,10.05,1.7,5.66,.48,11.36,.49,17.03,.95,4.4,.36,8.77,1.08,13.15,1.69,2.06,.29,4.1,.75,6.17,.99,1.89,.22,3.8,.21,5.69,.39,4.92,.47,9.79,.54,14.59-.95,1.33-.41,3.64-.17,3.97-.91,1.44-3.23,4.61-2.25,6.87-3.07,1.86-.67,4.3-2.17,6.49-.07,.15,.14,1.01-.45,1.54-.7-.97-1.63,.2-1.36,1.24-1.62,4.4-1.09,8.73-2.45,13.14-3.5,2.9-.69,5.89-1.03,8.84-1.53Zm-67.15,328.25h0c-.23,.39-.42,1.12-.69,1.15-1.91,.2-3.84,.24-5.76,.36-.75,.05-1.49,.17-2.24,.27,.02,.43,.03,.85,.05,1.28,3.99,0,7.98,.17,11.96-.05,3.22-.18,6.42-.82,9.63-1.24,4.62-.61,9.23-1.27,13.85-1.78,4.26-.47,8.55-.76,12.82-1.13,.59-1.1,1.39-1.91,2.26-1.98,5.8-.53,11.61-1.09,17.43-1.27,8.14-.25,16.29-.08,24.43-.26,14.78-.33,29.56-.85,44.35-1.17,6.88-.15,13.77-.07,20.66,.04,2.28,.04,4.55,.64,6.83,.7,1.53,.04,3.07-.63,4.6-.57,2.97,.11,5.91,.33,8.9,.27,4.91-.1,9.84,.33,14.75,.7,4.67,.35,9.33,.93,14,1.37,2.81,.27,5.62,.47,8.43,.7,2.46,.2,4.93,.38,7.56,.58-1.97-5.47-7.08-3.93-10.56-5.87,1.85,.25,3.71,.51,5.52,.76-2.38-2.78-4.65-5.44-6.93-8.09-.19-.23-.38-.46-.6-.66-5.59-5.22-11.55-10.12-16.66-15.78-3.57-3.96-7.43-4.03-11.93-3.43-2.66,.36-5.76,1.43-7.95,.51-3.68-1.54-7.16,2.85-10.46-.31-3.09,1.28-6.21,.74-9.39,.38-1.09-.12-2.84,1.52-3.37,1.13-3.19-2.37-6.59-.13-9.89-.71-3.14-.56-6.61,.32-9.97-.09-1.18-.14-2.44,.4-3.64,.33-1.68-.1-3.33-.64-5.01-.7-3.64-.13-7.29-.09-10.94-.11-.5,0-.99-.05-1.48-.01-4.96,.35-9.92,.9-14.89,1.02-4.11,.1-8.22-.36-12.34-.45-1.46-.03-2.93,.45-4.38,.38-1.52-.07-3.05-.84-4.54-.74-2.07,.15-4.31-.25-6.06,0-3.71,.5-7.19-.05-10.77-.27-3.13-.19-6.28-.51-9.41-.36-3.49,.16-7.23-1.22-10.32,1.85-5.46,5.42-11.11,10.65-16.62,16.02-2.86,2.78-5.64,5.65-8.33,8.59-.57,.62-.59,1.74-.86,2.62-.18,.15-.36,.3-.54,.46-2.68,1.7-5.36,3.4-8.04,5.1,.11,.34,.23,.68,.34,1.01,2.07-.17,4.14-.34,6.21-.51Zm133.37-40.73c2.36-.06,4.72-.12,7.09-.18,2.25,2.32,4.73,2.56,7.21,.52-.89-.22-1.63-.41-2.37-.59,.09-.29,.17-.58,.26-.87,1.86,.51,3.72,1.02,5.68,1.56-.1-.35-.21-.7-.28-.95,1.24-.08,2.5-.15,3.71-.23,.04,.82,.07,1.66,.14,3.14,1.64-.86,3.31-1.2,4.02-2.21,2.93-4.16,5.74-8.43,8.27-12.85,1.81-3.17,3.09-6.65,4.65-9.96,1.77-3.75,1.33-4.76-2.68-6-.34-.11-.72-.24-.96-.48-3.5-3.52-8.41-3.36-12.7-4.74-2.82-.91-5.92-.9-8.74-1.79-2.55-.8-4.85-2.37-7.34-3.4-2.39-.98-3.38-2.92-3.75-5.17-.12-.74,.85-1.67,1.33-2.5,.19-.34,.57-.68,.56-1.01-.02-2.34,1.04-4.13,2.3-6.05,1.11-1.69,1.42-3.9,2.22-6.27q.89-.27,2.23-4.31c2.04-6.14,2.16-6.65-3-8.86-7.82-3.36-10.62-10.04-12.47-17.41-1.44-5.72-2.8-11.5-3.47-17.34-.45-3.92-2.46-7.52-1.72-11.73,.45-2.54,.21-5.64-.9-7.91-1.7-3.46-.9-7.05-1.29-10.47-.38-3.42-.08-7.32-.62-10.59-.79-4.79-.03-9.54-1-14.31-.99-4.86-.56-10.01-.74-15.03-.07-1.85-.09-3.7-.16-5.55-.04-1.05-.13-2.11-.24-3.96,.39-3.03,.47-6.83-1.05-9.72,.53-.98,.91-1.39,.96-1.84,.14-1.14,.33-2.32,.16-3.44-.59-3.79,.93-7.55-.68-11.52-.94-2.32,.48-5.55,.62-8.38,.2-4,.23-8,.26-12.01,.02-2.41-.13-4.83-.16-7.25-.05-3.8-.09-7.59-.09-11.39,0-2.9-3.11-5.18-1.65-8.37,0,0-.65-.24-.64-.31,.31-2.29-.1-5.33,1.21-6.67,1.97-2.02,4.68-3.43,6.5-5.78,.51-.66,.83-1.51,1.43-2.05,1.72-1.56,1.81-3.55,.06-5.06-3.28-2.84-6.09-6.24-10.06-8.26-2.63-1.34-5.13-2.84-7.93-3.97-3.32-1.35-5.69,.3-7.71,1.42-5.56,3.09-11.27,6.29-14.95,11.78-.59,.88-.49,2.95,.16,3.81,1.62,2.15,3.73,3.94,5.65,5.86,.98,.99,2.07,1.88,2.94,2.96,2.73,3.37-.28,7.02,.39,10.51,.04,.21-.35,.48-.44,.75-.61,1.76-1.68,3.53-1.7,5.31-.05,3.68,1.27,7.54,.55,11.02-1.07,5.17,.04,10.09,.14,15.12,.07,3.54,.39,7.07,.56,10.61,.02,.33-.41,.66-.45,1.01-.26,1.98-.92,4.04-.59,5.93,.6,3.39-.96,7.02,1.16,10.2-1.89,2.39-1.06,5.23-1.25,7.89-.07,.94,.24,1.91,.39,3-.19,.74-.66,1.75-.67,2.76-.05,3.85,.21,7.72,.05,11.56-.22,5.23-.72,10.44-1.11,15.66-.17,2.24,.09,4.63-.64,6.68-.73,2.06,1.93,4.13-.36,5.9,1.19,3.86-.83,7.59-.31,11.58,.47,3.6-1.2,7.47-1.81,11.24-.53,3.3-.95,6.62-1.32,9.94-.26,2.29-.08,4.66-.6,6.87-1.35,5.77-2.93,11.48-4.52,17.19-.65,2.31-1,5.08-2.51,6.67-2.6,2.76-6.11,4.64-9.01,7.15-1.4,1.21-4.09,1.02-4.2,3.58-.06,1.33-.1,2.85,.47,3.97,2.22,4.37,2.94,9.53,6.79,13.06,.28,.26,.09,.98,.3,1.39,.74,1.46,1.26,3.21,2.4,4.26,2.98,2.74,6.24,5.17,9.4,7.73-2.33-.77-4.5-1.85-6.35-3.32-2.15-1.7-3.14-1.25-3.97,1.22-.28,.83-1.34,1.58-2.21,2-2.23,1.06-4.58,1.88-6.84,2.89-.7,.31-1.23,1.21-1.92,1.32-3.62,.6-7.4,.57-10.85,1.64-4.17,1.3-8.12,3.38-12.06,5.32-2.36,1.16-2.78,3.22-1.59,5.61,.36,.72,.45,1.59,.82,2.3,1.51,2.88,3.01,5.76,4.66,8.56,.52,.88,1.67,1.4,2.17,2.28,.95,1.69,1.75,3.48,2.41,5.3,1.44,3.97,4.87,2.79,7.56,2.77,14.25-.1,28.5-.47,42.74-.65,6.29-.08,12.6-.17,18.88,.18,5.08,.29,10.4-1.18,15.19,1.73ZM105.08,181.13c-.37,1.59-.63,2.55-.8,3.53-.56,3.23-1.14,6.47-1.58,9.72-.11,.81,.58,1.75,.4,2.51-.52,2.12-1.54,4.13-1.93,6.27-.65,3.51-1.71,7.19-1.21,10.6,.6,4.1-.79,7.88-1.54,11.44-.86,4.08-.68,8.31-2,12.28-.18,.55-.42,1.18-.3,1.7,.37,1.61,.26,2.8-.67,4.46-.94,1.67-.21,4.27-.21,6.81-.14,.39-.63,1.25-.76,2.15-.3,2.24-.39,4.52-.67,6.76-.15,1.23-.65,2.35-.78,3.66-.39,3.94-1.33,7.85-2.29,11.71-2.31,9.27-4.72,18.52-7.16,27.75-.69,2.62-1.66,5.16-2.47,7.74-.14,.43-.13,.91-.2,1.36-.23,1.46-.47,2.92-.73,4.52,2.56,.58,5.95,1.66,9.42,2.04,5.48,.6,11,.9,16.51,1.02,4.78,.1,9.58-.12,14.36-.38,4.95-.27,9.89-.72,14.82-1.14,4.22-.36,8.44-.83,12.67-1.18,1.45-.12,2.91-.02,3.52-.02,2.11-.58,3.44-1.01,4.8-1.32,1.48-.34,2.99-.56,4.78-.89-3.65-9.49-7.17-18.64-10.69-27.8-.52-.71-.3-1.8-.57-2.73-.41-1.38-1.18-2.64-1.79-3.96-.67-1.45-1.88-2.91-1.89-4.37-.02-2.75-.85-4.79-3.14-6.25,.93-1.02,1.01-5.88-.25-6.85-2.22-1.69-2.1-3.96-2.31-6.26-.08-.84-.44-1.65-.7-2.47-.47-1.51-1.36-3.02-1.35-4.53,.01-3.11-.68-5.73-2.72-7.28-.2-2.63-.81-4.92-.41-7.02,.54-2.85-2.69-3.49-2.73-6.29-.05-3.6-1.81-7.16-2.77-10.76-.17-.64,.17-1.87-.09-1.97-2.89-1.24-1.74-3.9-2.25-5.96-.78-3.15-1.56-6.3-2.37-9.45-.87-3.37-2.79-6.46-2.6-10.13,.04-.69-.36-1.44-.69-2.09-.84-1.7-2.53-3.38-2.47-5.02,.08-2.67,0-4.93-1.82-7.07-.5-.58-.15-1.91-.15-2.89,0-.76,.39-1.84,.02-2.21-2.66-2.71-1.89-6.56-3.4-9.73-1.83-3.84-2.41-8.27-3.47-12.47-.14-.56,.13-1.21,.13-1.82,0-.99,0-2-.2-2.96-.04-.22-1.19-.49-1.22-.42-.44,.83-.99,1.7-1.08,2.6-.33,3.24-.39,6.51-.73,9.75-.83,7.83-1.79,15.65-2.63,23.47-.08,.74,.31,1.52,.37,1.82Zm298.63,87.81c-.7,1.04-1.06,1.88-1.69,2.45-2.23,2.04-.21,4.95-2.14,7.6-2.81,3.85-3.83,9.01-5.58,13.63-2.46,6.48-4.9,12.96-7.33,19.45-.76,2.04,.47,2.62,2.13,2.85,3.6,.51,7.2,1.03,10.81,1.5,3.19,.42,6.38,.9,9.59,1.12,5.2,.37,10.47,.17,15.6,.92,6.03,.89,12.1,.4,18.12,1.2,2.17,.29,4.49-.69,6.75-1.01,3.76-.53,7.54-.89,11.28-1.51,1.96-.33,3.84-1.06,5.37-1.5-.45-1.59-.72-2.43-.94-3.29-.87-3.3-1.76-6.6-2.57-9.92-2.06-8.44-4.2-16.86-6.07-25.34-.87-3.92-1.58-7.95-1.65-11.94-.06-3.31-.63-6.1-2.49-7.89,0-1.81,.14-3.11-.04-4.36-.17-1.14-.92-2.2-1.03-3.33-.41-4.31-.6-8.63-1.01-12.94-.1-1.02-.95-1.95-1.12-2.98-.21-1.31,.07-2.7-.14-4.02-.25-1.6-1.48-3.36-1.07-4.67,1.08-3.41-1.4-5.67-1.6-8.45,.43-.97,.72-2.01,.56-2.98-.76-4.55-1.65-9.08-2.48-13.62-.32-1.76-.69-3.52-.84-5.29-.09-1.04,.32-2.1,.33-3.16,.04-4.33-2.33-8.16-1.99-12.77,.32-4.34-1.4-8.81-2.07-13.24-.43-2.83-.68-5.7-.86-8.57-.18-2.86-.09-5.73-.25-8.59-.11-1.86-.45-3.71-.71-5.71-1.72,1.19-3.45,2.07-1.83,4.32,.18,.25-.25,.94-.39,1.42-.42,1.42-.89,2.82-1.25,4.26-.85,3.36-1.58,6.75-2.49,10.08-.42,1.55-1.35,2.97-1.71,4.53-.74,3.22-1.23,6.49-1.87,9.74-.46,2.33-1.01,4.64-1.59,7.3-.01,0-.62,.38-1.05,.89-2.63,3.11-.57,7.65-3.53,10.91-1.31,1.45-1.05,4.31-1.53,6.52-.82,3.79-1.6,7.6-2.53,11.36-.18,.75-1.16,1.28-1.41,2.03-.67,1.95-1.25,3.95-1.67,5.97-.57,2.76-.95,5.56-1.34,7.95-.79,1.11-1.68,1.93-2.01,2.93-.35,1.07-.02,2.34-.27,3.46-.51,2.25,.07,4.67-1.64,6.78-1.02,1.26-1.9,3.31-1.63,4.77,.43,2.25-.67,3.75-1.27,5.56-.41,1.25-.43,2.63-.76,3.92-.26,.98-.68,1.93-1.12,2.86-1.33,2.85-3.62,5.5-1.97,8.76ZM79.61,337.19c1.18-.44,2.19-1.18,3.15-1.11,2.41,.18,4.79,.82,7.2,1.11,5.92,.71,11.84,1.44,17.77,1.96,4.24,.37,8.5,.55,12.76,.56,4.09,0,8.17-.42,12.26-.49,4.86-.09,9.72-.02,14.58-.02,.04,.15,.07,.29,.11,.44-4.81,.76-9.62,1.53-14.25,2.26,.91,1.06,2.05,1.86,3.77,.45,.48-.39,1.47-.12,2.22-.19,3.22-.32,6.44-.64,9.66-1.01,2.01-.23,4.38,.55,5.66-1.89,3.74,1.68,6.32-1.87,9.65-2.21,1.01-.1,2.42-1.32,2.7-2.29,.39-1.38-.11-3.01-.2-4.53-.24-4.32-.46-8.65-.69-12.97-.34-.11-.68-.23-1.03-.34-.64,.69-1.28,1.38-1.92,2.07-.29-.15-1.02-.86-1.57-.74-3.03,.67-6.11,1.29-8.97,2.43-2.31,.92-4.94-.34-7.22,1.86-1.17,1.13-4.09,.47-6.22,.57-5.45,.26-10.91,.57-16.36,.71-3.86,.1-7.73,.05-11.6-.07-6.83-.22-13.66-.37-20.46-.88-4.25-.32-8.45-1.26-13.14-2,.65,5.02,1.38,10.65,2.13,16.36Zm317.76,1.91l-.03-.91c23,1.91,45.92,2.26,68.52-2.43,.47,.52,.98,1.1,1.66,1.86,.76-6.11,1.44-11.63,2.08-16.84-3.59,.67-7.25,1.64-10.97,1.98-10.8,1.01-21.66,.67-32.48,1.56-3.99,.33-8.09-.55-12.13-.98-4.91-.52-9.81-1.16-14.73-1.7-1.42-.16-2.95,.14-4.27-.28-4.82-1.53-9.58-3.28-14.36-4.95,0,4.53,0,8.74,0,12.94,0,2.23-.84,5,.18,6.53,.92,1.38,3.98,1.18,5.9,2.08,4.77,2.24,9.76,3.44,14.97,3.81,2.88,.2,5.76,.33,8.64,.48,.03-.28,.05-.57,.08-.85l-13.07-2.31ZM269.95,26.82c-.16,.72-.45,1.54-.51,2.38-.28,3.89-.63,7.77-.72,11.66-.11,4.65,.16,9.31,0,13.96-.08,2.15-.74,4.29-1.24,6.41-.28,1.17-.83,2-2.35,1.21-.29-.15-1.19,.88-1.8,1.37,2.07,1.69,1.29,4.14,1.7,6.28,.93,4.87-.04,6.65-4.02,9.14-1.82,1.13-3.76,1.47-5.62,2.23-5.67,2.3-6.55,6.59-2.4,11.12,.3,.32,.67,.88,.97,.86,3.05-.23,6.1-.53,9.14-.87,3.58-.4,7.18-1.4,10.71-1.19,6.66,.39,13.27,1.46,20.18,2.29,1.06-2.44,2.13-4.88,3.16-7.25-2.48-3.09-4.67-6.33-8.2-5-.85-.71-1.19-1.14-1.64-1.34-1.19-.53-3.14-.64-3.51-1.48-1.09-2.44-2.12-5.16-2.11-7.77,0-2.79,1.21-5.58,1.92-8.46-2.94,.19-6.03-3.43-5.81-6.28,.32-4.09,.71-8.17,.92-12.26,.13-2.37,.68-5.09-.25-7.03-.99-2.07-.87-3.76-.73-5.79,.12-1.73,.48-4.14-1.92-4.61-1.8-.35-3.77,.25-5.86,.45Zm34.82,421.01c.77,.16,1.54,.38,2.32,.46,4.02,.41,8.24,.14,12,1.35,4.48,1.43,8.85,.18,13.23,.77,2.84,.38,5.62,.25,8.56-.26,1.96-.34,4.44,.84,6.97,.54,3.16-.39,6.43,.09,9.66,.26,3.53,.19,7.05,.5,10.58,.65,.88,.04,1.77-.35,2.65-.53-.04-.25-.09-.5-.13-.75-21.76-3.51-43.64-4.82-65.84-2.47Zm-208.84-106.39c.02,.4,.04,.8,.06,1.19,2.59,.38,5.17,.82,7.77,1.13,2.67,.32,5.34,.59,8.02,.73,2.62,.14,5.24,.11,7.87,.12,2.57,.02,5.13,0,7.7,0,0-.45-.02-.9-.03-1.36-5.26,0-10.53,.24-15.78-.07-5.22-.3-10.41-1.15-15.62-1.77Zm358.32-.16c-8.21,.8-16.42,1.61-25.24,2.47,2.35,1.55,21.67-.32,25.24-2.47Zm-165,109.15c-.5-.62-.76-1.23-1.04-1.24-5.42-.17-10.83-.3-16.25-.33-.31,0-.63,.88-1.09,1.57h18.38ZM219.56,127.86c.12,.47,.25,.94,.37,1.41,3.71-1.08,7.43-2.15,11.14-3.23-.12-.43-.24-.85-.35-1.28-3.72,1.03-7.44,2.06-11.16,3.09Zm-.43,1.69c-.08-.43-.16-.85-.24-1.28-4.84,1.06-9.68,2.12-14.52,3.18,.07,.33,.15,.67,.22,1,4.85-.97,9.69-1.93,14.54-2.9Zm162.91,322.79c-1.02-2.28-9.27-2.74-10.98-.9,3.67,.3,7.2,.59,10.98,.9ZM78.65,313.93c.2-2.07,.26-4.27,.67-6.4,.39-2.01,1.15-3.95,1.76-5.93-.27-.07-.55-.15-.82-.22-.96,4.23-4.09,8.21-1.61,12.55Zm84.32,.38c.39-.19,.78-.39,1.17-.58-.9-2.45-1.8-4.89-2.69-7.34-.33,.13-.67,.25-1,.38,1.38,2.32,.02,5.63,2.52,7.54Zm140.68,135.65c.06-1.2,.1-2.05,.16-3.13h-8.05c2.68,1.97,6.36-1.11,7.89,3.13Zm73.14-1.59c-.01,.09-.03,.18-.04,.27,2.93,.24,5.85,.47,8.78,.71,.01-.33,.03-.65,.04-.98h-8.78Z"/><path class="cls-1" d="M170.15,442.9c2.16-.34,4.3-.82,6.47-1,2.82-.23,5.67-.26,8.5-.28,5.3-.04,10.59-.01,16.64-.01-.92,.67-1.23,1.1-1.57,1.12-5.3,.34-10.6,.7-15.9,.91-4.5,.18-9,.19-13.51,.23-.39,0-.78-.33-1.18-.5,.18-.15,.36-.3,.54-.46Z"/><path class="cls-1" d="M301.5,408.22c-.05-.46-.3-1.21-.13-1.32,1.19-.78,6.16,.08,7.22,1.15-2.36,.06-4.72,.12-7.09,.18Z"/><path class="cls-1" d="M273.82,264.38c-.34-2.8-.91-5.59-.99-8.39-.17-6.32-.11-12.65-.13-18.97-.01-4.51,0-9.02,.69-13.56,.18,2.4,.44,4.79,.52,7.19,.33,9.25,.61,18.5,.91,27.75,.04,1.34,.24,2.71,.1,4.03-.07,.67-.76,1.28-1.17,1.92l.07,.05Z"/><path class="cls-1" d="M271.76,317.35c.35-10.42,.61-20.84,1.9-31.64,.42,.94,1.23,1.89,1.2,2.81-.33,8.73-.79,17.46-1.26,26.19-.05,.92-.43,1.81-.66,2.72-.39-.03-.78-.06-1.17-.08Z"/><path class="cls-1" d="M273.07,198.7c-.23-2.78-.68-5.56-.66-8.33,.04-4.71,.4-9.42,.56-14.14,.05-1.37-.14-2.75-.22-4.13,.42-.01,.84-.03,1.27-.04,0,3.22,0,6.44,0,9.66,0,4.82,.05,9.64-.05,14.46-.02,.83-.64,1.66-.98,2.48l.08,.04Z"/><path class="cls-1" d="M272.63,222.6v-16.13c.67,.19,1.52,.32,1.51,.44-.11,5.24-.29,10.48-.46,15.72-.35,0-.7-.02-1.05-.02Z"/><path class="cls-1" d="M273.75,264.33c1.66,1.11,.93,2.82,.98,4.28,.09,2.79,.03,5.58,.03,8.37-.31,.02-.62,.03-.93,.05,0-4.22,0-8.43,0-12.65,0,0-.08-.05-.08-.05Z"/><path class="cls-1" d="M272.99,198.66c.48,1.95,1.06,3.89,1.37,5.86,.07,.44-.84,1.03-1.3,1.55-.22-.54-.66-1.1-.62-1.62,.13-1.92,.42-3.83,.64-5.75-.01,0-.09-.04-.09-.04Z"/><path class="cls-1" d="M271.34,401.8c2.3-.12,4.6-.24,6.9-.36,.01,.44,.03,.88,.04,1.32h-6.92c0-.32,0-.64-.01-.96Z"/><path class="cls-1" d="M178.54,449.31c-3.03,.34-6.06,.74-9.09,.95-.41,.03-.88-.86-1.32-1.32,0,0,0,0,0,0,3.28-.08,6.55-.16,9.83-.24,.19,.2,.39,.4,.58,.6Z"/><path class="cls-1" d="M178.54,449.31c-.19-.2-.39-.4-.58-.6l6.9-.84c.04,.48,.08,.96,.12,1.44h-6.44Z"/><path class="cls-1" d="M341.64,439.17h-7.91c.01-.35,.02-.71,.04-1.06,2.63,.17,5.26,.33,7.89,.5,0,.19-.01,.38-.02,.57Z"/><path class="cls-1" d="M244.19,117.77c-2.72,1.88-5.63,3.2-9.04,3.03,2.43-2.74,5.78-2.77,9.04-3.03Z"/></g></svg>