<?xml version="1.0" encoding="UTF-8"?><svg id="Layer_1" xmlns="http://www.w3.org/2000/svg" viewBox="0 0 676.09 475.91"><defs><style>.cls-1{fill:#323aa4;}.cls-2{fill:#c1e4fc;}</style></defs><path class="cls-2" d="M612.35,335.4c1.28-.26,2.46-.52,3.53-.8l-4.02-290.55L75.91,54.69l1.73,279.91-1.77,114.07s8.89,.73,26.09-2.58l10.94-108.02c25.54,1.36,63.11,2.66,106.49,3.69h0v99.52l28.12-1.5,3.97-97.34c28.08,.54,57.77,.96,87.66,1.21l.9,94.76h30.61l-3.58-94.58c28.96,.13,57.67,.07,84.84-.21l.89,3.61,4.09,58.34v32.84l32.68-1.38-4.86-93.88c38.25-.71,71.84-1.97,96.44-3.94,.91,13.4,5.42,72.21,15.41,92.86,0,0,24.55-2.72,24.75-2.95,.19-.21-7.79-82.04-8.93-93.72Z"/><g><path class="cls-1" d="M97.05,447.19c-.99,.5-2.22,1.1-3.55,1.77-.36-.79-.72-1.59-1.17-2.58,2.04-.59,3.99-1.14,6.3-1.81,1.35-10.06,2.77-20.71,4.21-31.43-.35-.04-.84-.09-1.9-.2,1.03-.61,1.64-.97,2.25-1.33-.31,0-.62,0-.94,0-.24-1.95-.91-3.97-.65-5.85,1.07-7.61,2.4-15.18,3.69-22.75,1.28-7.52,2.96-15,3.81-22.56,.59-5.28,.07-10.69,.08-16.04,0-2.04-1.04-3.19-2.95-3.41-2.38-.27-4.78-.3-7.17-.49-.63-.05-1.26-.23-1.85-.45-2.74-1.01-5.46-2.05-8.31-3.13h20.52c0-7.89-.08-15.59,.04-23.3,.06-3.71,.63-7.41,.72-11.12,.15-5.7,0-11.41,.16-17.1,.1-3.63,.66-7.24,.8-10.87,.4-9.96,.64-19.92,1.06-29.87,.14-3.26,.66-6.5,.9-9.76,.45-6.04,.83-12.09,1.22-18.13,.37-5.77,.68-11.55,1.1-17.32,.6-8.17,1.34-16.33,1.91-24.5,.69-9.88,1.24-19.77,1.9-29.65,.08-1.17,.48-2.33,1.3-3.55,.19,.65,.55,1.31,.54,1.95-.13,4.76-.24,9.53-.53,14.29-.52,8.57-1.29,17.12-1.72,25.7-.4,7.94-.42,15.91-.72,23.86-.17,4.4-.64,8.8-.82,13.2-.27,6.51-.3,13.03-.61,19.54-.27,5.67-.86,11.32-1.15,16.99-.37,7.42-.5,14.85-.87,22.27-.39,7.92-.99,15.84-1.35,23.76-.13,2.91,.34,5.84,.24,8.75-.11,3.61-.56,7.2-.79,10.81-.28,4.26-.49,8.52-.68,12.78-.01,.33,.4,.92,.7,.99,2.25,.49,4.52,1.19,6.8,1.25,6.37,.16,12.75-.16,19.12,.07,6.04,.22,12.07,.94,18.11,1.36,1.39,.1,2.81-.22,4.22-.21,7.6,.08,15.19,.13,22.78,.34,6.78,.2,13.56,.76,20.34,.85,3.62,.05,7.24-.62,10.87-.84,1.42-.09,2.86,.08,4.28,.28,3.1,.43,6.19,1.57,9.28-.15,.28-.16,.84,.12,1.26,.25,3.73,1.23,4.98-.23,4.77-4.21-.26-4.68,.68-9.44,.32-14.1-.34-4.49,1.4-8.75,.32-13.42-.84-3.62,.64-7.73,.77-11.63,.13-3.83-.27-7.68-.2-11.51,.1-5.8,.49-11.6,.6-17.4,.06-3.1-.36-6.21-.25-9.3,.13-3.69,.68-7.36,.89-11.05,.43-7.8,.78-15.6,1.12-23.4,.32-7.39,.57-14.78,.87-22.17,.25-6.16,.36-12.33,.84-18.47,.51-6.6,1.48-13.15,2.07-19.75,.64-7.29,1.27-14.59,1.54-21.9,.23-6.3-.1-12.62-.11-18.93,0-4.86,.13-9.73,.15-14.59,.02-3.59-.09-7.19-.05-10.78,.01-.94,.38-1.87,.71-3.41,3.48,6.42,2.94,12.8,3.01,19.03,.09,8.76-.04,17.52-.31,26.28-.18,5.76-.82,11.5-1.17,17.26-.5,8.38-.93,16.76-1.37,25.15-.43,8.15-.74,16.31-1.27,24.45-.6,9.18-1.54,18.33-2.05,27.51-.6,10.67-1.04,21.35-1.29,32.03-.16,6.94,.35,13.89,.21,20.82-.11,5.44-.89,10.86-1.14,16.3-.36,7.69-.47,15.39-.77,23.08-.12,3.18-.49,6.35-.68,9.53-.09,1.51-.02,3.03-.02,5.01,9.7,0,18.98-.03,28.26,.02,2.24,.01,4.49,.45,6.73,.47,4.51,.03,8.98-.54,13.46-1,2.41-.25,4.91,.65,7.38,.72,5.45,.16,10.9,.04,16.35,.19,4.46,.12,8.92,.64,13.38,.63,3.67,0,7.35-.41,11-.87,.71-.09,1.87-1.31,1.82-1.92-.69-7.52,1.33-15.09-.62-22.62-.46-1.76,.93-3.98,.54-5.79-1.12-5.19-.15-10.32-.22-15.47-.03-2.31-.83-4.62-.76-6.92,.23-7.69,.9-15.38,.99-23.07,.06-5.24-.58-10.48-.89-15.72-.06-1-.05-2-.06-3-.06-5.15-.2-10.3-.13-15.45,.02-1.58,.93-3.16,.87-4.72-.12-3.36-.6-6.7-.96-10.05-.03-.32-.39-.66-.33-.93,2.14-9.49-.01-18.99,.14-28.47,.11-7.12,.73-14.24,.8-21.36,.1-11.25-.12-22.51-.13-33.76,0-4.59,.21-9.18,.3-13.77,.08-4.43,0-8.87,.22-13.3,.25-4.9,.76-9.78,1.2-15.26-6.34,0-12.34,.03-18.34-.02-2.07-.02-4.22-.67-6.2-.29-5.67,1.08-11.41,.16-17.11,1.06-4.3,.68-8.8,0-13.21,.07-3.93,.05-7.86,.34-11.8,.41-4.54,.08-9.09-.03-13.63,.09-2.99,.08-5.98,.43-8.97,.6-3.95,.23-7.9,.5-11.86,.6-6.47,.16-12.95,.1-19.42,.3-9.58,.3-19.16,.69-28.73,1.15-5.05,.24-10.09,.72-15.14,1.05-3.9,.25-7.8,.43-11.7,.65-6.24,.34-12.48,.84-18.73,1-7.13,.17-14.26,.04-22.05,.04-5.72,41.4-7.32,83.03-12.92,124.21,.42-41.23,4.82-82.12,10.45-123.55-12.41,.46-24.52,.91-35.59,1.33-.41,4.87-.92,8.66-.98,12.45-.04,2.53,.7,5.07,.8,7.61,.08,2.01-.24,4.05-.45,6.06-.72,6.92-.5,13.81,.55,20.68,.11,.7-.38,1.47-.5,2.22-.89,5.55-.99,11.05,.97,16.5-2.19,1.25-2.77,4.87-1.21,8.22,.35,.75,.68,1.61,.66,2.41-.09,4.42-1.17,9.04-.19,13.18,.87,3.68-.44,6.22-1.24,9.32-.54,2.09,.4,4.56,.7,6.86,.05,.41,.41,.89,.28,1.21-1.4,3.66-.83,6.96,1.01,10.42,.52,.97-1.44,3.02-1.42,4.56,.1,5.81,.7,11.6,.81,17.41,.05,2.71-1.01,5.47-.76,8.13,.34,3.7,.23,6.95-1.06,10.69-1.3,3.76-.08,8.37-.11,12.61-.02,3.61-.26,7.21-.38,10.81-.32,9.47,.17,18.84,2.29,28.16,1.23,5.39,.1,11.52,2.13,16.46,1.64,3.99-.18,7.41,.85,10.89,.34,1.15,1.4,2.09,2.3,3.36-4.32,.36-3.61,3.91-3.88,6.78-.57,5.89-1.11,11.78-1.44,17.68-.35,6.31-.35,12.64-.68,18.95-.37,7.03-.97,14.04-1.43,21.07-.34,5.35-.56,10.71-.92,16.06-.38,5.6-.97,11.18-1.28,16.78-.21,3.69-.23,7.41,.02,11.09,.05,.74,1.6,1.73,2.6,1.97,1.4,.34,2.95,.09,4.43,.09,.01,.39,.02,.78,.03,1.17-3.21,.1-6.53,.7-9.57,.02-1-.22-1.8-3.71-1.81-5.71-.05-9.89,.09-19.78,.37-29.67,.16-5.65,.75-11.28,1.05-16.92,.07-1.28-.41-2.59-.37-3.87,.18-5.93,.53-11.87,.68-17.8,.27-10.31,.65-20.63,.58-30.94-.05-7.22-.87-14.44-1.17-21.66-.25-5.86-.13-11.74-.37-17.6-.28-6.64,.99-13.21,.6-19.84-.34-5.74-.33-11.55-1.32-17.18-.45-2.57,.41-4.65,.42-6.91,.01-3.94-.9-7.88-1.17-11.83-.13-1.91,.44-3.85,.46-5.78,.06-7.21,.07-14.42-.02-21.63-.02-1.51-.77-3.02-.75-4.53,.03-3.11-1.73-6.17,.11-9.4,.57-1-.25-2.8-.49-4.7,1.45-1.08,1.84-4.16,.38-6.64-.39-.66-.36-1.65-.32-2.48,.16-3.02,.42-6.03,.64-9.04,.1-1.41,.4-2.84,.25-4.22-.23-2.16-.77-4.28-1.25-6.78,2.37-2.38,2.53-6.24,1.86-9.48-.87-4.22,.12-8.22-.06-12.3-.1-2.2-.86-4.38-.87-6.56,0-2.15,.8-4.3,.84-6.46,.15-6.99-.02-13.98,.19-20.97,.15-5.04,.73-10.06,1.07-15.1,.05-.76-.18-1.53-.21-2.3-.11-2.46-1.43-4.93,.34-7.41,.46-.64,.01-1.92-.02-2.91-.07-1.95-.2-3.91-.18-5.86,.02-2.66,.24-5.31,.21-7.96-.06-5.47-.54-10.96-.21-16.4,.17-2.77,1.7-5.45,2.62-8.17,.59,.02,1.18,.04,1.77,.06,.71,2.64,1.67,5.25,2.07,7.94,.43,2.87,.35,5.81,.46,8.72,.02,.4-.14,.83-.27,1.22-.18,.53-.69,1.14-.56,1.56,1.55,5.11,.2,10.27,.35,15.39,.03,1.16-.07,2.35,.17,3.47,.41,1.97-.41,4.24,3.83,3.51,6.77-1.18,13.84-.52,20.76-.98,3-.2,5.92-.42,8.93-.09,2.53,.28,3.54-1,5.71-5.92,0,.99,.16,1.61-.03,2.11-1.1,2.95,.68,3.37,2.88,3.25,6.59-.36,13.18-.75,19.76-1.25,6.49-.49,12.95-1.31,19.45-1.65,6.08-.31,12.18-.08,18.26-.28,3-.1,5.97-.71,8.97-.99,2.27-.22,4.56-.33,6.84-.42,8.72-.37,17.45-.63,26.17-1.08,6.65-.35,13.29-1.07,19.94-1.34,4.23-.17,8.48,.38,12.71,.24,7.23-.24,14.44-.9,21.67-1.13,6.92-.23,13.85-.05,20.77-.22,5.63-.14,11.26-.68,16.89-.81,5.96-.14,11.92,.01,17.88,0,.76,0,1.6-.11,2.25-.45,2.82-1.47,5.37-.73,8.36-.1,3.8,.8,7.98-.04,11.98-.33,2.82-.21,5.39-.09,6.4,2.22,2.11,.14,3.66,.46,5.16,.3,2.25-.24,4.45-.83,6.68-1.25,2.18-.41,4.37-1.14,6.56-1.14,8.97-.01,17.93,.22,26.9,.32,7.22,.09,14.45,.46,21.65,.11,9.13-.45,18.23,.59,27.34,.1,1.95-.1,3.95,.42,5.85,.17,.75-.1,1.79-1.49,1.9-2.39,.42-3.42,.51-6.88,.73-10.33,.35-.02,.7-.05,1.05-.07,.31,3.24,.79,6.47,.87,9.72,.06,2.54,.65,3.37,3.52,3.26,10.55-.41,21.15,.03,31.66-.77,4.16-.32,8.22,.72,12.6-.53,4.36-1.24,9.47,.24,14.25,.38,1.37,.04,2.74-.6,4.12-.65,6.52-.23,13.04-.52,19.55-.49,7.17,.03,14.33,.45,21.49,.58,2.68,.05,5.37-.42,8.04-.34,2.6,.08,3.27-1.12,3.1-3.41-.09-1.16,.09-2.34,.14-3.51,.37-.05,.73-.1,1.1-.15,.42,2.29,.84,4.58,1.35,7.36h20.94c0-8.11,0-16.45,0-24.79,0-2.61-.07-5.23,.04-7.83,.11-2.43-1.25-3.18-3.32-3.19-4.58-.02-9.37-.85-13.69,.22-5.44,1.35-10.45-.76-15.64-.34-5.52,.44-11.02,1.09-16.55,1.44-1.9,.12-3.84-.48-5.77-.52-4.25-.09-8.51-.15-12.76,0-3.68,.13-7.35,.59-11.03,.84-1.42,.1-2.85-.08-4.26,.04-2.78,.23-5.56,.88-8.31,.76-1.4-.06-3.23,.14-4.03-.09-7.3-2.08-14.51,.07-21.73-.06-6.19-.11-12.39,.15-18.57,.46-1.95,.1-3.85,1.2-5.81,1.28-2.8,.12-5.62-.41-8.42-.39-4.04,.03-8.22-.26-12.05,.71-1.92,.49-3.03-.56-4.48-.43-2.38,.21-4.72,.77-7.1,1.09-.82,.11-1.95,.25-2.47-.18-2.27-1.9-3.57-.86-4.31,.53-4.69,0-9.01,0-13.34,0-1.8,0-3.61-.14-5.39,.05-6.53,.68-13.03,1.59-19.57,2.16-3.82,.33-7.69,.15-11.53,.25-8.12,.23-16.25,.39-24.36,.79-3.46,.17-6.9,.94-10.36,1.31-2.37,.25-4.76,.26-7.14,.44-3.55,.26-7.09,.55-10.64,.85-5.08,.42-10.23-.52-15.26,1.18-1.4,.48-3.21-.39-4.79-.26-5.01,.43-9.99,1.17-15,1.53-2.85,.21-5.75-.24-8.62-.11-5.28,.24-10.55,.76-15.82,1.05-5.97,.33-11.95,.45-17.92,.83-4.68,.3-9.34,.9-14.01,1.27-2.17,.17-4.37-.01-6.55,.16-7.47,.6-14.93,1.29-22.39,1.91-.61,.05-1.25-.19-2.05-1.09,1.41-.42,2.8-1.04,4.24-1.22,7.82-.94,15.65-1.81,23.48-2.62,9.07-.94,18.14-1.85,27.21-2.66,5.14-.46,10.4-.21,15.43-1.17,6.44-1.22,13-1.11,19.43-2.56,5.56-1.25,11.37-1.49,17.09-1.95,3.04-.24,6.13,.11,9.19,.04,4.05-.09,8.12-.18,12.15-.59,1.18-.12,2.24-1.35,3.79-2.35-4.2,0-7.8-.07-11.4,.01-7.4,.16-14.8,.35-22.19,.63-3.25,.13-6.49,.54-9.73,.78-5.16,.38-10.36,1.25-15.48,.94-5.55-.34-10.95,.32-16.43,.59-6.49,.32-13.01,.11-19.52,.26-10.31,.23-20.63,.45-30.93,.9-8.06,.35-16.09,1.26-24.14,1.51-8.43,.26-16.87-.11-25.3,.04-7.68,.14-15.36,.73-23.04,.92-5.87,.14-11.75-.08-17.63-.05-4.48,.02-8.97,.31-13.45,.25-3.82-.05-7.64-.41-11.45-.64-.03-.41-.05-.83-.08-1.24,2.26-.31,4.52-.8,6.79-.91,8.31-.38,16.62-.67,24.93-.92,11.21-.34,22.42-.62,33.64-.92,2.73-.07,5.46,.01,8.18-.18,5.74-.4,11.46-1.12,17.2-1.37,5.97-.26,11.97-.12,17.95-.16,6.59-.04,13.18,.13,19.76-.19,4.96-.24,9.87-1.34,14.83-1.61,5.42-.3,10.87,.1,16.29-.16,6.11-.29,12.19-1.03,18.29-1.43,3.38-.22,6.78-.11,10.16-.25,5.56-.23,11.12-.62,16.69-.79,3.43-.11,7.18,.93,10.24-.13,4.51-1.57,8.97,.51,13.32-.94,1.36-.45,2.96-.21,4.45-.19,4.27,.07,8.53,.27,12.8,.25,2.12,0,4.29-.15,6.34-.62,5.69-1.32,11.4-1.24,17.14-.61,.33,.04,.67,.03,1.01,0,5.17-.46,10.33-.94,15.5-1.38,2.16-.18,4.33-.38,6.5-.4,7.23-.08,14.47,.03,21.7-.15,5.84-.14,11.74-.18,17.49-1.08,3.26-.51,6.01,.81,9.02,.8,1.92,0,3.83-.47,5.76-.56,5.1-.23,10.21-.38,15.31-.55,1.56-.05,3.14,.05,4.69-.11,1.88-.2,3.73-.84,5.6-.84,1.81,0,3.69,.33,5.41,.89,3.9,1.27,7.42,.46,11.04-1.14,1.13-.5,2.81,.32,4.24,.37,3.27,.1,6.55,.12,9.82,.11,1.22,0,2.43-.19,3.65-.3,3.12-.26,6.25-.71,9.37-.73,2.28-.01,4.65,1.05,6.83,.72,4.74-.72,9.24,.4,13.85,.75,2.46,.19,5.01-1.35,7.56-1.63,2.86-.3,5.78-.15,8.67-.03,5.41,.22,10.81,.62,16.22,.8,1.09,.04,2.2-.74,3.32-.76,.95-.02,1.91,.65,2.89,.75,2.25,.23,4.52,.47,6.78,.39,1.91-.07,3.81-.8,5.72-.83,6.6-.12,13.2-.06,19.8-.07,2.93,0,5.86,0,9.68,0,.9,4.04,2.35,8.92,3.01,13.9,.97,7.39,1.41,14.86,2,22.3,.13,1.63-.29,3.31-.06,4.91,.26,1.84,.97,3.61,1.69,6.14-.34,2.43-1.17,5.93-1.24,9.44-.06,3.43,.92,6.87,.97,10.31,.09,5.38-.4,10.77-.3,16.15,.07,4.09,.68,8.17,1.05,12.25,.23,2.55,.36,4.87-.49,7.59-.9,2.85,.4,6.4,.78,9.64,.1,.83,.51,1.64,.49,2.45-.14,4.14-.56,8.28-.55,12.42,.02,6.94,.27,13.88,.45,20.82,.09,3.59,.25,7.18,.33,10.77,.08,3.27,.09,6.55,.16,9.82,.09,4.03,.22,8.06,.31,12.09,.04,1.85,.08,3.71,0,5.56-.35,7.29-.81,14.58-1.09,21.88-.12,3.2,.07,6.42,.13,9.62,.06,3.41,.3,6.82,.18,10.22-.34,9.83-.84,19.66-1.23,29.49-.41,10.54-.4,21.12-1.31,31.61-.45,5.2,.82,10.06,1,15.09,.32,8.82,.65,17.64,1.23,26.44,.34,5.16,1.17,10.3,1.81,15.44,.52,4.16,1.84,8.39,1.43,12.44-.52,5.04,1.15,9.69,1.16,14.54,0,4.14-.33,8.28-.39,12.42-.03,2.26,1.2,4.85-1.79,6.2-2.1,.95-4.42,1.52-6.37,2.7-4.71,2.85-10.06,.93-14.98,2.22-.52,.14-1.98-1.68-2.22-2.76-.14-.63,1.21-2.23,2.01-2.33,5.17-.6,10.37-.91,15.56-1.3,.63-.05,1.29-.19,1.9-.08,1.98,.36,2.55-.8,2.34-2.35-1.04-7.47-2.42-14.9-3.23-22.39-.59-5.38-.41-10.84-.71-16.25-.23-4.14-.69-8.26-1.08-12.64-2.76,1.34-3.78,.01-3.68-2.91,.05-1.49-.21-3-.21-4.5,0-3.7-.07-7.41,.23-11.09,.08-.91,1.5-1.71,2.49-2.78-.59-.14-1.39-.33-2.11-.5,.28-4.34,.56-8.66,.88-13.51-1.97,0-3.83,0-5.69,0-2.41,.02-4.82,.05-7.22,.07-3.2,.02-6.42-.09-9.61,.1-1.79,.1-3.23,.67-3.32,3.15-.16,4.17,.47,8.41-1.15,12.51-.4,1.01,.6,2.53,.8,3.83,.7,4.48,1.25,8.98,2,13.45,1.11,6.59,2.04,13.22,3.61,19.7,1.34,5.5,1.18,11.16,2.44,16.63,.48,2.09,.95,4.23,1.06,6.36,.13,2.74-.22,5.5-.15,8.25,.05,2.04,.46,4.07,.14,6.24-.74-2.22-1.54-4.43-2.21-6.67-.85-2.87-1.77-5.74-2.35-8.68-1.05-5.33-3.56-10.35-3.27-15.97,.05-.95-.53-1.92-.73-2.89-.39-1.97-.73-3.96-1.08-5.94-.6-3.43-1.26-6.85-1.75-10.3-.89-6.2-1.62-12.42-2.51-18.62-.46-3.22-1.11-6.41-2.46-9.85-.58,1.04-1.16,2.08-1.97,3.52-.12-1.27-.28-2.35-.3-3.44-.05-2.68,.17-5.39-.17-8.02-.11-.81-1.72-2.05-2.61-2.02-4.64,.14-9.26,.76-13.89,.97-4.84,.21-9.7,.12-14.54,.22-2.52,.05-5.05,.22-7.57,.38-2.41,.15-4.82,.47-7.24,.52-6.66,.14-13.38-.31-19.97,.42-5.76,.64-11.48,.25-17.21,.57-1.38,.08-2.83-.32-4.14-.03-.75,.16-1.84,1.26-1.83,1.92,.04,2.19,.44,4.38,.82,6.54,.69,3.92,1.9,7.81,2.14,11.75,.71,11.4,1.14,22.82,1.49,34.24,.16,5.41-.21,10.84-.17,16.26,.02,3.61,.34,7.21,.51,10.81,.07,1.64,.25,3.3,.09,4.93-.46,4.87-.33,5.19,3.96,6.78-9.34,3.67-41.41,4.64-44.06,.87,1.53-.28,2.84-.52,4.34-.8,0-3.27,.14-6.62-.03-9.96-.23-4.37-.89-8.71-1.04-13.08-.29-8.58,.42-17.28-.73-25.73-1.07-7.86,.55-15.68-1.14-23.52-1.1-5.11-.57-10.55-1-15.83-.15-1.87-.21-3.68-3.57-3.28-4.81,.57-9.78-.27-14.67-.17-4.47,.09-8.92,.72-13.39,.93-2,.1-4.04-.44-6.04-.34-4.76,.23-9.5,.81-14.25,.95-2.97,.08-5.95-.41-8.93-.6-4.18-.27-8.37-.72-12.55-.66-2.17,.03-4.32,.98-6.99,1.64,0,3.69-.06,7.43,.02,11.17,.07,3.22,.46,6.43,.43,9.64-.03,3.21-.61,6.43-.57,9.64,.07,4.93,.47,9.86,.73,14.79,.52,9.81,1.11,19.61,1.53,29.42,.19,4.46,.03,8.94,.03,13.22,1.36,.64,2.49,1.17,4.22,1.98-1.91,1.63-3.56,3.04-5.2,4.44v-.89c-2.96-.15-5.92-.5-8.87-.38-3.01,.12-6,.9-9.01,1.03-4.21,.19-8.43,.08-12.64,.05-2.85-.02-3.95-1.73-3.9-4.6,.08-4.18-.34-8.36-.47-12.54-.06-2.06,.06-4.12,.07-6.18,.02-5.6,.19-11.22-.03-16.81-.28-7.07-.98-14.12-1.29-21.19-.1-2.29,.68-4.62,.67-6.92-.01-3.01-.63-6.02-.57-9.03,.06-3.14,.68-6.27,.91-9.41,.05-.78-.6-1.58-.74-2.4-.19-1.11,.09-2.41-.39-3.34-.43-.83-1.58-1.75-2.47-1.8-3.44-.2-6.9,0-10.35-.09-5.25-.13-10.5-.44-15.76-.56-2.87-.06-5.74,.21-8.61,.19-5.85-.04-11.7-.15-17.56-.29-5.23-.13-10.45-.36-15.67-.51-3.23-.09-6.48-.34-9.67-.06-.88,.08-2.25,1.79-2.3,2.8-.37,8.49-.51,16.99-.66,25.49-.08,4.48,.14,8.97-.07,13.44-.3,6.32-.94,12.63-1.28,18.96-.18,3.3,.15,6.64-.03,9.94-.3,5.57-.82,11.12-1.27,16.68-.25,3.17-.54,6.34-.73,8.57-3.27-.07-5.66-.33-8.01-.14-5.11,.4-10.2,.95-15.28,1.6-3.34,.43-6.65,1.14-10.8,1.87,4.63-5.73,1.59-11.55,2.05-17.06,.57-6.77,.18-13.64,.09-20.46-.12-9.27-.6-18.55-.48-27.81,.11-8.21,.84-16.41,1.32-24.61,.11-1.81,.38-3.6,.46-5.41,.14-3.39-2.56-4.73-7.32-4.66-5.64,.08-11.29-.52-16.94-.73-1.95-.07-3.91,.25-5.86,.17-11.2-.49-22.39-1.11-33.59-1.57-5.93-.25-11.87-.13-17.8-.43-5.43-.28-10.83-.92-16.25-1.39-1.27-.11-2.55-.21-3.83-.25-1.6-.05-2.73,1.82-2.12,3.22,.48,1.1,1.11,2.35,1,3.46-1.39,13.12-2.81,26.24-4.41,39.34-.91,7.44-2.26,14.82-3.21,22.25-.85,6.68-1.29,13.41-2.16,20.09-.59,4.53-1.35,9.07-2.56,13.46-.58,2.11-2.3,3.93-3.7,5.72-.12,.15-1.8-.92-2.86-1.48Zm482.58-160.65c.23,.06,.47,.13,.7,.19,.24-.46,.69-.9,.7-1.37,.21-5.38,.47-10.76,.5-16.15,.04-5.63-.19-11.26-.23-16.89,0-1.51,.42-3.02,.41-4.53-.05-4.66-.4-9.32-.29-13.98,.1-4.22,.89-8.42,.98-12.64,.13-6.21-.17-12.42-.15-18.63,0-2.09,.66-4.18,.61-6.26-.12-5.95-.58-11.9-.62-17.86-.02-3.44,.64-6.89,.76-10.34,.12-3.61-.08-7.23-.06-10.85,.02-3.55,.13-7.1,.21-10.66,.21-9.21,.44-18.42,.65-27.63,.16-6.71,.34-13.41,.44-20.12,.07-4.66,.01-9.32,.01-13.77h-47.99c-.02,.32-.04,.64-.06,.95,2.87,.36,5.75,.72,8.62,1.08l-.15,1.44h-78.51c-.27,2.19-.65,4.09-.71,5.99-.23,7.33-.52,14.66-.47,22,.06,9.37,.35,18.74,.68,28.1,.21,6.14,.82,12.26,.98,18.4,.21,7.74,.14,15.49,.2,23.24,.02,3.2-.05,6.41,.1,9.61,.19,3.98,.7,7.95,.81,11.93,.12,4.32-.17,8.64-.08,12.96,.17,8.08,.53,16.16,.71,24.24,.15,6.64,.05,13.29,.29,19.93,.17,4.75,.98,9.48,1.03,14.22,.06,5.89-.48,11.78-.54,17.67-.08,7.79,.08,15.59,.11,23.38,.02,5.83,0,11.65,0,17.42,4.67,.39,9.72,1.85,14.5-.44,.56,.37,1.22,1.17,1.9,1.17,2.47,.03,4.95-.13,7.42-.35,3.64-.33,7.27-1.04,10.92-1.1,3.5-.05,7.07,1.08,10.5,.69,5.04-.57,10.03-1.05,15.12-.85,2.94,.12,5.91-.6,8.87-.64,4.92-.05,9.85,.41,14.75,.17,7.33-.35,14.65-1.11,22.24-1.71,.81-18.17,.83-36.82,3.26-55.3,.29,.01,.58,.03,.87,.04v7.19ZM440.81,88.27c.03,.16,.05,.33,.08,.49-1.22-.43-2.43-1.18-3.67-1.23-2.57-.1-5.17,.39-7.73,.26-8.75-.45-17.49,.4-26.27-.09-9.77-.55-19.59-.21-29.39-.06-.97,.01-2.68,1.32-2.75,2.13-.29,3.71-.15,7.46-.11,11.19,.03,3.4,.25,6.81,.16,10.21-.08,3.08-.81,6.18-.65,9.23,.3,5.58,.89,11.11,.43,16.73-.38,4.67-.2,9.4-.07,14.1,.17,6.13,.7,12.25,.75,18.38,.03,4.13-.59,8.25-.74,12.38-.07,1.9,.36,3.82,.39,5.74,.06,3.89-.05,7.77,0,11.66,.01,1.19,.51,2.4,.42,3.57-.17,2.22-1.44,4.71-.78,6.56,1.63,4.58-.13,9.16,.64,13.79,.42,2.55-.32,5.94-.09,9.01,.11,1.49-.56,3.01-.65,4.54-.12,2.23-.03,4.47-.03,7.47,1.35,.97-.38,3.21-.03,5,1.19,6.11-2.51,12.47,1.16,18.32-1.32,4.19-1.5,8.39-.25,12.64,.16,.56-.2,1.26-.27,1.9-.21,1.72-.57,3.44-.57,5.16,.03,7.39,.23,14.78,.24,22.17,0,3.55-.36,7.09-.43,10.64-.09,4.6,.2,9.23-.16,13.8-.34,4.35,1.54,6.69,5.89,6.28,2.91-.27,5.81-.86,8.73-.9,4.77-.06,9.54,.29,14.31,.31,2.44,.01,4.88-.44,7.32-.43,7.73,.03,15.46,.31,23.18,.24,3.87-.03,7.73-.77,11.6-.88,5.04-.15,10.09,.07,15.13,0,2.95-.04,5.89-.35,9.36-.57,0-4.95,.02-10.25,0-15.55-.04-6.61-.05-13.22-.2-19.83-.25-11.31-1.05-22.6-.62-33.93,.23-6.13-.32-12.29-.47-18.43-.04-1.55,.18-3.1,.15-4.65-.13-5.12-.35-10.23-.47-15.35-.1-4.12,0-8.25-.16-12.37-.18-4.78-.62-9.55-.77-14.33-.21-6.74-.24-13.5-.37-20.24-.16-8.39-.33-16.78-.51-25.17-.07-3.01-.21-6.01-.28-9.02-.13-5.95-.33-11.9-.32-17.84,0-4.63,.39-9.25,.43-13.88,.05-6.18-.07-12.36-.1-18.55-.02-3.5,0-7,0-10.62h-21.45Zm-99.27,201.79s-.44,.93-.59,1.89c-.82,5.44,.71,10.85,.17,16.32-.41,4.14-.5,8.35-.24,12.51,.41,6.72,1.15,13.42,1.95,20.1,.1,.86,1.47,2.24,2.23,2.22,5.1-.11,10.23-.25,15.25-1.02,1.9-.29,4.67-2,5.06-3.56,.87-3.45,1.11-7.33,.44-10.81-.74-3.87-1.23-7.48,.07-11.26,.28-.81-.21-1.88-.33-2.83-.15-1.3-.39-2.6-.39-3.89,.02-3.11,.3-6.23,.22-9.33-.16-6.43-.68-12.86-.71-19.29-.03-6.12,.38-12.24,.6-18.35,.14-3.99,.38-7.98,.33-11.97-.01-1.11-.91-2.21-1.02-2.45,0-2.44-.08-4.13,.02-5.8,.27-4.58,.83-9.15,.88-13.72,.05-4.75-.54-9.5-.53-14.25,.02-6.23,.4-12.46,.51-18.69,.02-1.26-.75-2.55-.67-3.8,.18-2.92,.89-5.82,.94-8.74,.12-6.69-.06-13.39-.03-20.08,.02-3.84,.97-7.87,.1-11.47-.94-3.92,.59-7.41,.35-11.11-.15-2.25,.39-4.54,.38-6.81-.03-7.91-.28-15.81-.21-23.72,.05-6.43,.52-12.86,.63-19.29,.04-2.47-1.82-3.46-4.35-2.87-2.25,.52-4.57,1.16-6.84,1.07-5.32-.2-10.62-.8-15.74-1.22,0,5.84-.08,11.14,.04,16.44,.05,2.39,.72,4.77,.72,7.15,0,6.26-.27,12.52-.29,18.77,0,2.17,.59,4.34,.55,6.5-.04,2.66-.67,5.31-.65,7.97,.02,3.29,1.2,6.74,.51,9.82-1.32,5.9,.4,11.65-.18,17.56-.88,8.86,0,17.88-.03,26.83-.03,5.78-.55,11.56-.52,17.34,.04,6.35,.55,12.7,.67,19.05,.07,3.62-.4,7.26-.34,10.88,.06,3.53,.52,7.06,.77,10.59,.09,1.25,.17,2.5,.1,3.74-.19,3.5-.34,7.02-.75,10.5-.38,3.19,1.57,6.11,.19,9.62-.94,2.38,.33,5.62,.71,9.47Zm243.51,44.5c3.75,0,7.16,.1,10.56-.03,4.03-.15,8.06-.85,12.06-.65,3.1,.16,3.39-1.33,3.28-3.57-.14-2.71-.49-5.41-.55-8.12-.13-5.56-.29-11.12-.15-16.68,.14-5.39,.6-10.77,1-16.15,.27-3.57,1.27-7.2,.87-10.68-.57-4.88,.29-9.72-.89-14.71-1.3-5.51-.58-11.49-.75-17.27-.06-1.9-.24-3.79-.21-5.69,.05-3.85,.29-7.69,.29-11.54,0-3.93-.19-7.86-.29-11.79-.09-3.5-.14-7-.27-10.5-.07-1.97-.35-3.94-.38-5.92-.03-2.22,.92-4.87,.01-6.57-1.58-2.97,.17-5.58-.13-8.37-.58-5.28,.18-10.69,.07-16.04-.15-7.32-.78-14.63-.87-21.95-.11-7.93,.27-15.87,.23-23.81-.03-6.45-.43-12.9-.53-19.35-.1-6.6-.02-13.2-.02-20.47-6.62,0-12.83,.09-19.03-.04-2.81-.06-3.06,1.56-2.96,3.64,.13,2.64,.37,5.27,.45,7.91,.17,5.91,.24,11.82,.4,17.72,.22,7.98,.65,15.95,.69,23.93,.03,7.52-.4,15.04-.49,22.56-.04,3.41,.39,6.83,.35,10.24-.05,4.57-.35,9.14-.56,13.71-.07,1.48-.27,2.96-.26,4.44,.03,7.3,.18,14.61,.16,21.91-.02,6.43-.26,12.87-.29,19.3-.01,2.47,.43,4.94,.38,7.4-.09,3.91-.51,7.8-.62,11.71-.05,1.96,.5,3.95,.38,5.9-.37,6.19-2.02,12.54-1.09,18.51,.87,5.6-2.23,11.28,.91,16.59-2.94,2.75-.14,5.91-.6,8.86-.5,3.19-.75,6.44-.81,9.67-.05,2.58,.58,5.18,.52,7.76-.15,5.89-.54,11.78-.85,18.15Zm-339.41,103.88c1.48-30.73,.96-61.29,5.44-92.4h-30.9c.45,31.93,.89,63.62,1.33,95.23,8.07-.95,15.91-1.87,24.13-2.84Zm241-2.52c-.53-2.43-1.29-4.3-1.29-6.16,0-6.83,.43-13.67,.32-20.5-.08-5.14-.98-10.27-1.07-15.41-.09-5.45,.63-10.91,.51-16.35-.21-10-.77-20-1.2-30-.1-2.31-1.84-3.53-3.99-2.94-.61,.17-1.31,.02-1.97,0-2.84-.1-5.58,.72-8.53,.46-3.7-.32-7.5,.92-11.26,.88-2.92-.04-3.61,.32-3.22,3.35,.57,4.47,1.12,8.96,1.52,13.45,.57,6.39,1.01,12.8,1.48,19.2,.48,6.61,1.16,13.22,1.29,19.84,.11,5.54-.53,11.1-.64,16.66-.13,6.17-.03,12.35-.03,18.64,9.59-.38,18.73-.74,28.08-1.1Zm-117.94-6.68l-.24-.03c-.13-1.18-.37-2.35-.39-3.53-.05-4,.12-8-.05-11.99-.19-4.57-.7-9.13-.99-13.7-.26-3.95-.4-7.91-.62-11.86-.3-5.48-.71-10.96-.9-16.44-.15-4.33,.03-8.66-.04-12.99-.05-3.17-1.09-6.62-.14-9.42,.9-2.64,.17-3.1-1.73-3.09-5.99,.06-11.98,.25-17.95,.7-.84,.06-2.21,1.89-2.21,2.9-.01,4.3,.63,8.6,.58,12.9-.05,4.57,.25,9.44-1.23,13.6-1.32,3.71-1.56,7.15-1.47,10.85,.12,4.54,.3,9.07,.33,13.61,.03,4.95-.12,9.9-.1,14.85,.02,3.84,.21,7.68,.26,11.53,.05,3.75,.01,7.5,.01,11.26,9.82-.94,19.24-1.84,28.79-2.75-.2-4.41-.39-8.8-.59-13.19-.27,0-.54-.02-.81-.02-.18,2.27-.36,4.53-.54,6.8Zm-291.06-61.02c.5,.05,1.01,.1,1.51,.15,.04-1.88-.06-3.77,.13-5.64,.72-7.04,1.63-14.07,2.21-21.13,.12-1.46-.84-3-1.3-4.51-.48,.08-.95,.17-1.43,.25-1.77,10.22-.7,20.58-1.13,30.87Zm500.96-66.09v31.83c.48,.01,.95,.02,1.43,.04,.32-10.02,.66-20.03,.91-30.05,0-.35-.9-.73-2.34-1.82Zm-238.43,54.03c3.3-2.52,.52-4.79,1.06-6.78,.16-.57-.74-1.43-1.15-2.16-.33,.14-.65,.28-.98,.42,.33,2.6,.65,5.2,1.07,8.51Zm3.41-306.43c3.21,.15,5.92,.27,9.15,.42-3.66-2.84-6.07-2.98-9.15-.42Zm235.59,251.41c.44,.02,.88,.04,1.31,.07,.15-2.85,.3-5.7,.45-8.56-.44-.02-.88-.05-1.32-.07-.15,2.85-.3,5.71-.44,8.56Z"/><path class="cls-1" d="M197.27,246.53c-5.87-.34-11.73-.69-17.45-1.02-4.01,9.44-7.86,18.52-11.72,27.61,.22,.15,.43,.29,.65,.44,.9-1.07,1.93-2.06,2.69-3.23,4.03-6.1,7.85-12.34,12.11-18.27,.92-1.28,2.26-3.91,5.04-2.31,2.57,1.48,1.96,3.7,1.06,5.57-2.52,5.26-4.08,10.88-7.67,15.76-2.91,3.95-4.3,9.03-6.31,13.63-.2,.45-.03,1.06,.71,2,1.48-2.05,2.94-4.13,4.46-6.15,3.24-4.32,6.46-8.66,9.79-12.91,1.68-2.15,4.15-3.86,5.24-6.24,1.09-2.37,.9-5.33,1.29-8.03,.04-.29,.19-.56,.87-.91,.37,2.09,.94,4.16,1.08,6.26,.57,8.8,1.21,17.61,1.43,26.42,.19,7.75-.09,15.52-.39,23.28-.03,.83-1.49,2.13-2.45,2.29-1.89,.33-3.91-.13-5.85,.04-.79,.07-1.8,.75-2.19,1.45-.77,1.37-1.18,2.95-1.87,4.81-.33-.6-.6-.91-.67-1.26-.37-1.68-.2-4.43-1.1-4.84-2.36-1.05-5.16-1.36-7.81-1.46-5.61-.21-11.24,.04-16.85-.23-.97-.05-2.26-1.57-2.73-2.69-4.1-9.89-4.24-20.27-3.92-30.79,.21-7.07-.42-14.17-.61-21.26-.1-3.71-.28-7.45,0-11.14,.12-1.52,1.05-3.04,3.41-2.85,8.91,.71,17.83,1.23,26.75,1.8,2.23,.14,4.53-.06,6.7,.38,2.27,.45,4.42,1.48,6.62,2.25-.1,.53-.2,1.06-.29,1.59Zm-16.38,42.01c-.21-.03-.41-.06-.62-.09-3.06,4.07-6.08,8.18-9.22,12.2-.87,1.11-2,2.14-3.23,2.81-.62,.34-1.82-.03-2.57-.42-.41-.22-.7-1.21-.59-1.77,1.48-7.77,5.84-14.3,9.25-21.25,2.97-6.06,5.82-12.18,8.73-18.27-1.6,.63-2.73,1.55-3.44,2.73-4.28,7.07-8.34,14.29-13.75,20.59-.85,.99-2.1,1.65-3.16,2.46-.43-.14-.86-.28-1.29-.42,0-1.98-.5-4.13,.09-5.92,2.44-7.43,4.18-15.14,8.82-21.75,1.39-1.98,1.75-4.68,2.58-7.06-4.89,3.36-8.7,7.46-15.15,7.85,.15,2.53,.33,5.44,.48,8.35,.14,2.71,.25,5.43,.39,8.14,.23,4.54,.31,9.09,.78,13.6,.49,4.69,1.66,9.31,1.93,14,.14,2.49,1.22,2.75,3.04,2.75,6.84,0,13.67,.05,20.5-.11,.87-.02,2.31-1.07,2.47-1.86,.61-2.88,.79-5.85,1.14-8.87-2.76,1.66-5.24,3.16-7.72,4.65-.43-.3-.85-.6-1.28-.9,.61-3.81,1.21-7.63,1.82-11.44Zm10.38,18.17c1.83,.3,4.33,.72,6.89,1.14-.64-12.31-1.26-24.26-1.89-36.21-.22-.08-.45-.16-.67-.25-3.36,6.47-6.71,12.93-10.42,20.09,1.83-.36,2.65-.34,3.27-.67,3.03-1.63,4.25-.18,4.1,2.64-.21,4.16-.79,8.3-1.29,13.26Zm-35.76-63.1c.36,2.87,.68,5.53,1.01,8.19,.3,.03,.6,.05,.9,.08,.86-1.33,1.72-2.66,2.57-3.97v7.64c.38,.17,.75,.34,1.13,.52,3.77-3.45,7.53-6.9,11.66-10.67-5.96-.61-11.19-1.15-17.27-1.78Z"/><path class="cls-1" d="M265.52,252.59c3.14,.32,6.28,.68,9.44,.96,6.99,.61,14,1.04,20.98,1.79,4.52,.49,9.27,.35,13.8,3.83-5.9,.7-11.09,.46-16.37-.32-5.17-.77-10.45-.82-15.41-1.17-2.44,6.28-4.93,12.69-7.42,19.1,.33,.16,.67,.32,1,.47,5.79-5.77,10.03-13.11,16.71-17.98,.46,.23,.93,.47,1.39,.7-.23,1.52-.26,3.1-.74,4.54-1.63,4.89-3.41,9.73-5.14,14.59,.28,.16,.56,.31,.85,.47,1.87-2.77,3.76-5.53,5.61-8.31,1.95-2.94,3.72-6.01,5.85-8.8,.94-1.23,2.78-1.78,3.97-.19,.56,.75,.61,2.2,.34,3.18-.77,2.76-1.77,5.47-2.8,8.15-1.46,3.79-3.06,7.53-4.55,11.32-.23,.58-.19,1.27-.34,2.33,4.25-4.01,6.45-9.95,13.47-10.18v-10.96c1.67,6.04,4.28,11.67,3.85,18.2-.4,6.07,1.04,12.25,1.19,18.39,.1,4.02-.5,8.08-1.1,12.08-.14,.94-1.42,2.25-2.36,2.44-2.67,.53-5.48,.95-8.17,.73-7.44-.62-14.84-1.77-22.29-2.31-1.8-.13-3.71,1.3-5.81,2.1-.99-5.14-2.2-10.25-2.9-15.42-.5-3.71-.14-7.54-.51-11.27-.21-2.15-1.2-4.21-1.71-6.34-.35-1.46-1.16-3.29-.62-4.39,2.44-4.9,.76-9.81,.61-14.72-.1-3.08-.07-6.16-.19-9.24-.05-1.12-.37-2.24-.63-3.75Zm42.62,50.77c-.37-.04-.74-.07-1.11-.11-1.66,2.68-3.31,5.36-4.97,8.04-.29-.16-.57-.33-.86-.49,.56-2.34,1.12-4.67,1.68-7.01-.28-.11-.55-.23-.83-.34-2.05,2.51-4.08,5.04-6.17,7.52-1.41,1.67-3.92,1.75-4.33,.06-.42-1.74-.79-3.85-.18-5.41,1.49-3.88,3.63-7.5,5.36-11.29,.99-2.17,1.68-4.48,2.5-6.73l-1.22-.58c-2.13,3.24-4.31,6.45-6.39,9.71-2.45,3.84-4.71,7.81-7.31,11.54-.51,.73-2.29,.99-3.37,.8-.94-.16-1.71-1.25-2.63-1.99,3.94-9.39,7.84-18.71,11.75-28.03-.23-.15-.46-.29-.69-.44-1.06,1.48-2.16,2.93-3.16,4.44-2.33,3.52-4.53,7.12-6.95,10.56-.52,.73-1.76,.95-2.66,1.41-.49-1.13-1.6-2.4-1.37-3.36,.88-3.63,2.2-7.15,3.33-10.71,.94-2.96,1.86-5.94,2.78-8.91-2.64,2.48-4.65,5.42-7.21,7.74-2.84,2.56-3.54,4.55-2.51,8.15,.89,3.11,1.36,6.38,1.67,9.61,.48,5.1,.67,10.22,.98,15.21,2.87,.33,5.27,.78,7.68,.85,5.04,.14,10.09,.02,15.13,.13,2.91,.06,5.81,.49,8.71,.47,.79,0,2.22-.97,2.26-1.58,.23-3.08,.11-6.18,.11-9.27Zm-8.9-3.67c.15,.34,.29,.69,.44,1.03,1.98-2.69,4.18-4.6,7.5-2.23-.39-5.41-.73-10.17-1.07-14.93l-.76,.08c-2.04,5.35-4.07,10.7-6.11,16.05Zm-23.7-42.65c-2.23-.37-4.45-.73-7.3-1.2,.56,3.68,1.07,7.04,1.57,10.4l.81-.12c1.66-3.08,3.33-6.15,4.92-9.09Z"/><path class="cls-1" d="M180.19,167.64c3.49-5.36,6.74-10.9,10.53-16.04,3.33-4.51,3.34-9.59,3.75-14.71,.23-2.93,.53-5.86,.8-8.79,.45,.03,.91,.05,1.36,.08v14.9c.4,.02,.8,.04,1.2,.06,.62-3.7,1.24-7.39,1.86-11.09,.2,.02,.39,.04,.59,.06-.41,16.51-.82,33.01-1.21,48.75-1.75,1.03-3.43,2.21-5.27,3.02-1.05,.46-2.36,.4-3.55,.41-3.73,.02-7.48,.09-11.2-.1-6.77-.34-13.58-.58-20-3.21,.11-.28,.15-.59,.24-.61,5.73-.98,11.44-2.2,17.22-2.79,4.21-.43,8.5,.03,12.76-.05,.67-.01,1.86-.75,1.91-1.25,.65-5.97,1.15-11.95,1.63-17.93,.03-.32-.43-.68-1.01-1.52-2.78,6.01-5.39,11.64-7.99,17.27-.27-.08-.54-.15-.81-.23,.63-2.02,1.26-4.05,1.89-6.07-.37-.17-.73-.34-1.1-.51-1.14,1.47-2.1,3.16-3.5,4.35-.93,.79-2.47,.85-3.74,1.23-.04-1.16-.37-2.41-.06-3.48,1.47-5.02,2.84-10.11,4.78-14.95,2.1-5.22,4.81-10.19,7.21-15.29,.3-.63,.29-1.4-.32-2.48-1.27,1.89-2.61,3.74-3.81,5.68-3.36,5.45-6.76,10.87-9.96,16.42-1.68,2.91-2.88,6.1-4.47,9.07-.32,.61-1.39,.81-2.12,1.21-.29-.82-1.01-1.79-.8-2.45,.7-2.18,1.67-4.29,2.66-6.37,2.37-5.02,4.82-10,7.21-15.01,.22-.47,.28-1.01-.24-1.85-2.19,3.74-3.93,7.85-6.69,11.12-2.59,3.07-3.23,8.05-8.48,9.92v13.49c-.51,.03-1.03,.07-1.54,.1-.57-3.8-1.4-7.58-1.64-11.4-.43-6.85-.62-13.72-.67-20.58-.05-6.27,.22-12.55,.38-18.82,0-.29,.32-.57,.44-.87,1.4-3.55,1.25-4.15-1.54-6.82,15.6-.87,30.94,.78,46.05,4.69,.02,.47,.03,.93,.05,1.4-2.23,.23-4.5,.84-6.68,.62-4.87-.5-9.69-1.61-14.56-2.02-1.3-.11-3.48,1.09-3.98,2.24-3.23,7.46-6.12,15.07-9.06,22.65-.18,.45,.15,1.1,.21,1.46,3.66-5.35,7.34-10.61,10.87-15.96,1.18-1.79,1.78-3.98,3.05-5.69,.74-1,2.27-1.43,3.44-2.12,0,1.78,.11,3.58-.08,5.34-.1,.87-.77,1.68-1.18,2.51,.32,.24,.65,.47,.97,.71,1.26-1.4,2.3-3.34,3.87-3.98,.93-.38,2.71,1.27,3.65,1.76-4.79,11.94-9.26,23.08-13.73,34.21l.42,.28Zm-18.7-29.08c.4,.07,.8,.15,1.2,.22,.49-.93,.93-1.9,1.49-2.79,1.32-2.08,2.48-5.65,4.09-5.88,4.35-.61,4.42-4.1,6.55-6.31-4.94-.68-9.33-1.28-13.33-1.83v16.57Zm10.9-4.95c-.33-.14-.66-.27-.99-.41-3.89,8.01-13.22,13.78-9.18,25.62,3.52-8.73,6.85-16.97,10.17-25.22Zm22.58,44.21h1.68v-7.61l-.99-.08c-.23,2.56-.46,5.12-.69,7.68Z"/><path class="cls-1" d="M309.73,157.01c-2.04,4.15-4.42,8.18-6.03,12.49-1.6,4.3-4.6,8.3-3.92,13.65,2.68-.28,5.15-.54,7.62-.8,.06,.42,.11,.84,.17,1.25-7.64,1.29-15.3,2.52-22.92,3.89-4.45,.8-8.83,1.94-13.28,2.68-2.95,.49-2.56-2.44-2.55-3.71,.1-7.14,.7-14.26,.87-21.4,.08-3.4-.29-6.84-.7-10.23-.12-.99-1.08-1.88-1.52-2.58,.14-5.73,.21-11.53,.48-17.31,.06-1.32,.8-2.62,1.23-3.92,.45,.11,.89,.22,1.34,.33v7.84c2.33-2.67,4.07-4.67,6.02-6.91-2.08-.91-3.68-1.6-5.28-2.3,.02-.27,.04-.55,.06-.82,3.46,0,6.93-.18,10.38,.04,7.62,.48,15.24,1.03,22.85,1.78,6.46,.63,8.37,3.47,9.12,10.03,.84,7.25,.8,14.45,.5,21.67-.19,4.61-1.01,9.19-1.55,13.78-.43,0-.86,0-1.29,.01-.27-6.61-.53-13.22-.8-19.84-.26,.12-.53,.24-.79,.36Zm-30.78,21.85c-2.62-.14-3.68-2.29-2.07-5.29,3.32-6.16,6.61-12.34,9.91-18.5-2.81,2.88-4.98,6.21-7.43,9.34-.86,1.1-2.3,2.22-3.6,2.41-2.26,.33-2.57,1.34-2.54,3.33,.06,3.54-.2,7.08-.36,10.62-.09,2-.25,3.99-.37,5.88,8.89-1.16,17.26-2.25,24.46-3.19,.26-4.37,.45-7.62,.64-10.88-3.92,2.63-4.16,9.01-10.52,10.09,.34-11.47,7.16-20,11.22-29.49l-.86-.42c-6.05,8.54-12.09,17.08-18.49,26.11Zm28.84-40.63c-1.37,7.89-6.04,13.39-8.8,19.71-2.7,6.17-6.65,11.92-7.83,18.72,3.08-3.97,5.75-8.11,8.49-12.2,3.23-4.83,6.72-9.5,9.7-14.47,2.99-4.99,1.72-10.4,.89-15.7-1.83-.14-3.4-.06-4.87-.41-2.42-.58-3.76,.41-4.78,2.48-1.25,2.52-2.75,4.91-3.99,7.44-.94,1.91-1.63,3.93-2.44,5.9,.22,.22,.45,.43,.67,.65,1.09-1.28,2.18-2.56,3.28-3.83,2.55-2.93,3.89-7.19,9.68-8.27Zm-28.46,19.17c.38,.21,.76,.42,1.15,.64,5.7-7.77,11.41-15.54,17.12-23.33-4.76-3.25-9.63-.96-10.62,4.17-.57,2.98-1.76,5.87-2.95,8.69-1.41,3.34-3.12,6.56-4.7,9.84Zm-4.85,3.19c2.88-6.98,5.66-13.73,8.45-20.49-.26-.12-.51-.25-.77-.37-2.32,3.14-4.56,6.34-6.97,9.41-2.49,3.17-2.95,7.7-.71,11.46Zm-.48-16.79c2.33-2.73,4.72-5.42,6.9-8.25,.31-.4-.13-1.84-.66-2.29-.4-.35-1.64-.15-2.25,.23-3.81,2.35-3.27,6.59-4,10.32Z"/><path class="cls-1" d="M319.8,208.31c-22.68,2.9-45.51,2.81-68.31,3.42,22.67-3.01,45.48-3.4,68.31-3.42Z"/><path class="cls-1" d="M183.13,209.61c3.36-.12,6.72-.28,10.09-.35,6.3-.13,12.6-.22,18.89-.29,.32,0,.64,.34,.96,.53l.07-.09c-1.86,.29-3.72,.76-5.59,.83-6.87,.28-13.75,.5-20.63,.56-1.25,.01-2.51-.84-3.77-1.29l-.03,.09Z"/><path class="cls-1" d="M183.16,209.51c-.57,.48-1.14,1.39-1.7,1.38-7.88-.07-15.77-.25-23.65-.42-.33,0-.65-.15-.98-.23l.06,.06c.12-.27,.25-.78,.37-.78,8.62,.01,17.23,.07,25.86,.11,0-.02,.04-.11,.04-.11Z"/><path class="cls-1" d="M121.28,111.77v20.44c-.26,0-.52,.01-.78,.02v-20.44h.78Z"/><path class="cls-1" d="M156.83,210.24h-16.9l.09-1.42c5.62,.49,11.24,.97,16.86,1.47,0,0-.05-.05-.05-.05Z"/><path class="cls-1" d="M201.31,65.64h-14.8c0-.1-.01-.21-.02-.31,4.92-.34,9.84-.68,14.76-1.02,.02,.45,.03,.89,.05,1.34Z"/><path class="cls-1" d="M213.07,209.5c4.18-.42,8.35-.84,12.53-1.27,.02,.39,.05,.78,.07,1.17-4.17,0-8.35,0-12.53,0,0,0-.08,.09-.08,.09Z"/><path class="cls-1" d="M92.89,54.69h-8.71c0-.29,0-.58,0-.88h8.71c0,.29,0,.58,0,.88Z"/><path class="cls-1" d="M121.02,134.33c.14,2.01,.29,4.02,.43,6.03l-1.25,.06v-6.03c.27-.02,.54-.04,.81-.07Z"/><path class="cls-1" d="M538.14,242.98c-1.8,.3-3.6,.66-5.42,.89-2.78,.34-5.87-.19-5.96,4.33-.04,1.77-1.7,3.52-2.68,5.26-2.03,3.6-4.14,7.16-6.12,10.79-.45,.83-.53,1.86-.07,3.15,1.25-1.95,2.36-4.01,3.78-5.82,2.88-3.67,5.82-7.29,8.98-10.72,.67-.73,2.34-.55,3.54-.79,.07,1.16,.58,2.54,.14,3.45-2.28,4.73-4.8,9.34-7.72,14.92,1.34-.59,2.02-.82,2.62-1.18,1.18-.69,2.29-1.98,3.5-2.07,2.99-.23,3.76,3.02,1.77,6.96-1.73,3.43-3.43,6.87-4.65,10.81,.74-.64,1.48-1.3,2.23-1.93,1.52-1.28,3.06-2.54,4.59-3.8,1.07,1.42,2.15,2.83,3.22,4.25,.18,.24,.35,.49,.61,.87-.62,.1-1.44,.09-1.48,.25-.75,3.4-1.39,6.82-2.11,10.22-.32,1.49-.78,2.95-1.15,4.43-.52,2.07-.26,3.83,2.2,4.31,1.6,.31,3.25,.35,5.6,.59-4.35,1.16-8.14,3.33-11.54,2.83-8.28-1.22-16.2,1.84-24.34,1-1.94-.2-3.94,.14-5.91,.08-6.38-.19-7.9-2.2-7.19-8.57,.31-2.83-.05-5.73-.08-8.59-.08-7.05-.14-14.09-.22-21.14,0-.77,.17-1.82-.25-2.25-2.76-2.85-1.11-5.74-.4-8.72,.83-3.5,4.3-6.82,1.02-10.77-.03-.03,1.16-1.52,1.9-1.65,2.99-.51,6.02-.8,9.05-1.07,5.12-.45,10.23-.99,15.36-1.17,5.65-.2,11.32-.05,16.97-.05,.07,.31,.14,.62,.21,.93Zm-25.17,22.53c-.33-.14-.66-.29-1-.43-1.34,1.99-2.43,4.23-4.08,5.92-3.72,3.82-4.84,9.78-10.17,12.28-.36,.17-.48,1.19-.45,1.8,.27,5.05,.82,10.11,.83,15.16,0,3.4,1.75,3.94,4.42,3.75,3.74-.27,7.47-.78,11.21-.76,2.43,0,3.32-1.16,4.04-3.11,1.95-5.24,3.92-10.47,6.05-15.64,1.09-2.65,2.53-5.16,3.81-7.73-.54-.44-1.08-.87-1.62-1.31-.47,1-.8,2.11-1.43,2.99-3.26,4.54-6.72,8.94-9.87,13.55-1.48,2.17-3.1,2.45-6.33,1.42,3.17-6.21,6.19-12.12,9.21-18.03-.84,.01-1.43,.28-1.74,.73-2.63,3.97-5.13,8.03-7.86,11.93-.98,1.4-2.37,2.59-3.78,3.57-.65,.46-1.8,.21-2.72,.28,.03-.83-.17-1.75,.12-2.47,1.98-4.82,4.04-9.61,6.11-14.39,.5-1.16,1.05-2.31,1.66-3.42,1.15-2.05,2.38-4.07,3.57-6.1Zm-7.09,1.64c2.14-2.55,4.23-4.81,6.07-7.27,2.91-3.89,5.7-7.87,8.42-11.89,.32-.47,.15-1.84-.26-2.12-1.77-1.22-6.22,.72-6.89,2.83-.63,2-1.08,4.08-1.98,5.95-1.7,3.54-3.71,6.92-5.48,10.43-.26,.52,.07,1.33,.13,2.07Zm28.07,19.9c-.44-.16-.89-.32-1.33-.48-3.05,4.87-6.11,9.73-9.72,15.49,3.09-.19,5.21-.24,7.3-.51,.46-.06,1.07-.85,1.19-1.39,.91-4.36,1.72-8.73,2.56-13.1Zm-35.96-14.21c2.42-5.21,4.52-9.72,6.62-14.24l-.97-.45c-3.47,3.88-8.55,7-5.65,14.69Zm3.81-26.02c-.13,2.56-.24,4.88-.4,8.04,2.33-3.01,4.07-5.26,6.21-8.04h-5.81Z"/><path class="cls-1" d="M531.35,182.79c4.74-.46,8.77-.73,12.75-1.33,.77-.11,1.85-1.42,1.93-2.25,.67-6.85,1.06-13.73,1.67-20.59,.77-8.69,1.69-17.37,2.47-26.06,.13-1.48-.1-2.98-.17-4.48,.57,0,1.14-.02,1.71-.03,.21,9.02-.13,18.02-1.23,27.02-1.1,9.07-2.06,18.15-3.13,27.66-5.07,.97-10.04,1.92-15.01,2.85-.54,.1-1.34-.2-1.63,.08-2.98,2.96-7.04,.94-10.01,2.07-4.35,1.67-8.44,.38-12.61,.83-1.5,.16-3.1-.57-5.11-.99,.46-5.12,.76-10.28,1.44-15.38,.59-4.43,1.65-8.8,2.41-13.21,1.28-7.39,2.49-14.79,3.74-22.18,.31-1.86,.02-4.35,1.11-5.39,1.09-1.04,3.56-.74,5.44-.86,9.4-.6,18.79-1.16,28.19-1.73,.04,.48,.08,.96,.12,1.44-5.72,.7-11.45,1.41-17.22,2.11,3.93,3.54,.72,6.62-1.04,9.88-.9,1.67-1.71,3.39-2.5,5.11-2.23,4.85-4.45,9.7-6.63,14.57-.21,.47-.17,1.06,.14,1.9,7.83-7.81,13.49-17.74,23.3-23.85,.81,.82,1.5,1.51,2.33,2.34-3.6,5.52-7.09,10.89-10.59,16.25,.24,.22,.48,.43,.71,.65,2.76-2.33,5.52-4.66,8.74-7.39,.87,1.22,1.58,2.22,2.81,3.94-4.52,8.62-9.32,17.78-14.14,26.99Zm-10.52-49.37c-.02,.96,.26,2.04-.1,2.86-2.18,5.03-4.5,10-6.78,14.99,.35,.16,.69,.33,1.04,.49,4.09-6.4,8.19-12.8,12.28-19.2-.16-.34-.33-.69-.49-1.03-1.96,.65-3.92,1.3-5.9,1.93-.76-.2-1.52-.4-2.28-.58-4.23-1.04-6.06,.35-6.13,4.57-.03,2.01-.28,4.01-.29,6.02,0,.57,.48,1.15,.54,1.3,2.77-3.88,5.44-7.61,8.11-11.35Zm-13.97,45.05c.29,1.35,.89,2.47,.66,3.37-.95,3.61,.53,5.39,4.5,4.82,4.68-.68,9.35-1.47,13.97-2.43,.88-.18,1.79-1.25,2.28-2.13,1.55-2.75,2.85-5.63,4.35-8.41,2.4-4.45,4.88-8.86,7.8-14.16-1.61,.43-2.5,.39-2.82,.8-5.62,7.15-11.24,14.3-16.69,21.57-1.96,2.61-3.32,3.17-6.39,1.14,4.64-7.85,9.31-15.75,13.97-23.65l-.88-.53c-1.02,1.07-2.12,2.08-3.06,3.22-2.97,3.6-6.33,6.98-8.69,10.95-2.44,4.1-4.23,5.82-9,5.44Zm2.35-5.02c2.14-4.86,4.07-9.23,6.26-14.19-5.68,3.36-7.6,7.76-6.26,14.19Z"/><path class="cls-1" d="M488.69,205.6c5.95-.56,11.9-1.05,17.84-1.71,7.16-.79,14.31-1.69,21.45-2.61,5.47-.71,10.9-1.71,16.38-2.24,6.98-.68,14-1.03,21-1.49,.29-.02,.59,.26,.92,.41-7.22,3.75-74.5,11.19-77.6,7.65Z"/><path class="cls-1" d="M543.72,243.65c2.22,17.96,3.49,35.93-.58,54.12-.27-1.59-.76-3.19-.76-4.78-.02-12.37,.06-24.75,.1-37.12,.01-4.08,0-8.15,0-12.23,.41,0,.82,0,1.24,.01Z"/><path class="cls-1" d="M434.8,249c.74-.42,1.49-.85,2.69-1.54-.61,21.48,3.54,42.8-4.21,63.47-.12-1.19-.23-2.38-.38-3.88-10.72,1.26-21.38,2.51-32.04,3.76-.12-.32-.23-.65-.35-.97,2.31-.85,4.57-2.12,6.95-2.46,4.57-.65,9.26-.54,13.81-1.29,1.16-.19,2.36-2.27,2.89-3.71,.71-1.92,.79-4.07,1.14-6.13-1.8,2.33-3.76,4.86-6.05,7.82-1.15-1.56-2.03-2.75-2.85-3.86,3.26-6.64,6.49-13.19,9.66-19.78,.1-.2-.42-.7-.93-1.5-2.18,3.03-4.24,5.8-6.2,8.64-3.29,4.75-6.51,9.55-9.78,14.31-.43,.62-.88,1.25-1.42,1.77-.64,.62-1.38,1.13-2.08,1.69-.61-.95-1.76-1.92-1.73-2.85,.06-1.83,.56-3.72,1.27-5.43,1.77-4.29,3.26-8.81,5.78-12.64,3.09-4.7,3.64-10.51,7.25-14.88,.36-.43,.28-1.22-.11-2.11-1.47,2.04-3,4.03-4.38,6.12-2.66,4.03-5.14,8.18-7.89,12.14-1.52,2.19-3.43,4.1-5.17,6.13-.36-.17-.72-.35-1.08-.52v7.56c-.17,0-.33-.02-.5-.03-.38-1.22-.77-2.44-1.15-3.66-.24,.05-.48,.09-.72,.14,0,4.99,.08,9.97-.07,14.95-.03,.9-.95,1.78-1.47,2.67-.5-.6-1.38-1.16-1.45-1.8-1.02-10.27-.78-20.54,.07-30.81,.24-2.88,0-5.8,.06-8.7,.13-5.99,.37-11.98,.39-17.97,0-.92-.93-1.84-1.53-2.96,.53-.91,1.45-2.48,2.34-4.01,.18,.74,.41,1.73,.59,2.48,1.43-.26,2.65-.43,3.85-.71,1.65-.38,3.43-.54,4.88-1.32,3.84-2.06,7.94-1.32,11.91-1.26,4.21,.07,8.41,.72,12.59,1.25,.77,.1,1.46,.81,2.19,1.24-1.32,.49-2.61,1.28-3.97,1.43-5.95,.64-11.92,1.04-17.87,1.66-1.31,.14-3.33,1.59-3.71,1.19-2.64-2.8-5.54,1.26-8.11-.5-.11-.08-1.44,.98-1.39,1.42,.41,3.45,1.01,6.88,1.55,10.29,2.08-3.44,4.11-6.78,6.13-10.12,.4,.22,.8,.43,1.2,.65-1.34,3.1-2.68,6.2-4.03,9.3,6.17-8.78,8.56-10.67,13.73-9.37-3.16,7.91-6.3,15.75-9.43,23.59,3.43-3.59,6.82-7.1,8.87-11.27,2.33-4.73,6.36-7.96,9.2-12.18,.28-.42,2.78-.11,2.87,.24,.43,1.58,.83,3.43,.38,4.92-.8,2.67-2.23,5.15-3.39,7.72-1.47,3.27-2.82,6.59-4.41,9.81-1.57,3.19-3.36,6.26-5.05,9.39,.22,.22,.43,.44,.65,.66,.79-.52,1.79-.88,2.33-1.6,2.4-3.21,4.86-6.4,6.92-9.83,1.99-3.3,6.11-5.47,9.04-3.75,.12-2.47,.19-4.68,.36-6.89,.42-5.39,.89-10.78,1.33-16.17Zm-9.8,56.73c1.86,0,3.58-.25,5.19,.06,2.67,.52,3.14-1.04,3.16-2.98,.05-6.48,.04-12.97-.05-19.45-.04-3.06-.32-6.12-.53-10-2.67,5.78-4.93,10.69-7.41,16.07,1.7-.49,2.84-.82,3.92-1.13,2.36,1.61,2.04,3.52,1.02,5.68-1.76,3.72-3.38,7.5-5.29,11.76Zm-25.51-23.98c1.2-2.32,2.92-5.17,4.18-8.22,1.24-3,2.02-6.2,3.17-9.88-4.7,5.82-11.16,10.27-7.35,18.09Z"/><path class="cls-1" d="M431.5,152.61c-1.33,1.83-2.7,3.62-3.98,5.48-3.4,4.98-6.67,10.05-10.19,14.95-.7,.97-2.23,1.47-3.48,1.84-.31,.09-1.54-1.25-1.46-1.8,.24-1.69,.74-3.4,1.46-4.94,1.43-3.08,3.15-6.02,4.6-9.1,.4-.85,.26-1.95-.21-3.25-4.56,6.28-9.13,12.57-13.98,19.24-1.18-.28-2.72-.64-4.64-1.09,1.32-3.46,2.47-6.49,3.78-9.9-.77,.27-1.3,.43-1.79,.64-1.17,.5-2.32,1.02-3.48,1.53-.19-1.26-.73-2.59-.52-3.78,1.43-8.09,6.29-14.82,9.16-22.36,.7-1.85,1.88-3.52,2.25-5.68-2.98,4.11-6.02,8.18-8.92,12.35-1.33,1.91-2.08,4.37-5.25,3.83-.26-.04-1.14,1.5-1.14,2.31,.03,6.7,.26,13.4,.29,20.09,0,1.5-.54,3-1.44,4.67-.39-1.96-1.08-3.9-1.13-5.87-.2-7.51-.15-15.02-.3-22.53-.13-6.7-.35-13.41-.67-20.1-.04-.93-.92-1.82-1.75-3.36,5.02-1.02,10.16-2.22,15.36-3.08,3.75-.62,7.57-1.02,11.37-1.11,4.78-.11,9.58,.04,14.34,.38,1.89,.14,3.76,1.01,5.55,1.76,.58,.24,1.24,1.14,1.26,1.77,.39,10.22,.88,20.45,.9,30.68,0,4.67-.97,9.34-1.51,14-.32,.01-.64,.02-.97,.04-.15-.67-.3-1.34-.4-1.78-.9-.14-1.83-.29-2.99-.47-.5,.81-1.24,2.01-1.98,3.2-.36-.18-.73-.36-1.09-.53,1.32-5.9,2.65-11.8,3.97-17.71-.34-.11-.68-.22-1.02-.33Zm-28.28,2.89c.36,.17,.72,.34,1.08,.51,3-4.62,5.97-9.25,9.01-13.84,2.85-4.3,5.66-8.63,8.71-12.78,.83-1.13,2.49-1.65,4.67-3.01-.26,7.49-5.19,11.76-7.76,17.02-2.63,5.36-5.81,10.45-8.74,15.66,.31,.19,.61,.38,.92,.56,2.41-3.13,4.94-6.18,7.19-9.41,3.97-5.69,7.62-11.61,11.71-17.22,1.75-2.41,4.59-4.09,3.87-8.19-4.85,0-9.92-.08-14.98,.09-.77,.03-1.8,1.09-2.2,1.91-2.55,5.23-4.94,10.53-7.4,15.8-2.01,4.3-4.04,8.59-6.06,12.89Zm-9.53-22.12c-.28,1.14-.85,2.38-.81,3.59,.04,.95,1.1,1.83,1.24,2.81,.22,1.56,.06,3.18,.06,5.66,3.11-6.8,5.84-12.75,8.44-18.43-1.65,0-3.52-.15-5.36,.04-1.61,.17-4.41,.48-4.52,1.13-.3,1.67,.58,3.55,.95,5.2Zm5.24,10.33c4.18-5.85,8.37-11.71,12.55-17.56-.25-.26-.5-.53-.75-.79-1.84,.86-4.19,1.27-5.44,2.66-3.92,4.37-5.4,9.94-6.37,15.69Zm25.57,10.62c.26,.15,.52,.29,.79,.44,1.9-2.5,3.35-5.62,5.79-7.36,3.75-2.67,2.09-5.55,1.76-9.49-3.07,6.04-5.7,11.22-8.34,16.41Z"/><path class="cls-1" d="M448.16,206.22c-23.02,3.54-46.19,4.8-70,5.52,2.32-2.3,66.72-7.35,70-5.52Z"/><path class="cls-1" d="M393.8,182.77c2.28-2.36,33.02-5.01,41.88-3.75-13.8,2.83-27.71,4.61-41.88,3.75Z"/></g></svg>