<?xml version="1.0" encoding="UTF-8"?><svg xmlns="http://www.w3.org/2000/svg" viewBox="0 0 539.2 475.91"><defs><style>.cls-1{fill:#323aa4;}.cls-2{fill:#c1e4fc;}</style></defs><g id="Layer_3"><path class="cls-2" d="M39.32,81.91s96.05,118.94,104.03,134.07l-24.39,87.23,8.11,78.53,2.43,6.7,35.1,33.89s11.87-9.45,13.53-28.34l19.15,15.06s7.15,19.28,7.15,19.91,22.38,14.04,22.38,14.04h12.34l10.21,5.87,13.79,12.51,14.81-5.87,41.08-34.72s10.11-30.64,16.37-34.21l-2.68-12.77,11.74-17.87-19.91-58.98-117.4-152.68-56.17-82.04-17.64-29.91c6.92,10.67-86.09,34.5-94.02,49.56Z"/></g><g id="Layer_1"><g><path class="cls-1" d="M311.1,174.24c.45-.52,.87-1.08,1.37-1.55,1.85-1.7,2.5-4.27,5.09-5.61,1.67-.86,2.32-3.57,3.59-5.33,1.57-2.19,2.92-4.46,3.73-7.06,.12-.4,1.09-.45,1.46-.86,1.12-1.21,2.19-2.47,3.17-3.79,1.55-2.1,2.94-4.39,4.05-6.66,1.34-2.72,4.59-3.77,5.17-7.17,.31-1.84,2.24-3.4,3.52-5.2-.16-.24-.49-.73-.86-1.29,1.21-.97,2.56-1.82,3.58-2.96,.84-.94,1.26-2.24,1.92-3.36,1.38-2.34,2.28-5.4,4.31-6.82,2.87-2.01,2.87-5.65,5.64-7.62,1.37-.97,1.77-3.26,2.68-4.92,.56-1.02,1.1-2.14,1.92-2.93,2.91-2.81,5-6.05,6.44-9.88,.68-1.81,2.51-3.18,3.75-4.8,.32-.42,.26-1.12,.51-1.61,.55-1.07,1.12-2.14,1.8-3.12,1.52-2.18,3.26-4.16,3.77-6.98,.25-1.42,1.45-2.69,2.33-3.96,2-2.91,4.2-5.59,5.39-9.12,.53-1.57,1.51-3.54,2.92-5.02,1.56-1.65,2.65-3.74,4.07-5.54,2.04-2.59,4.19-5.08,6.56-7.4-.03,4.69-.3,5.39-4.55,12.12,1.49-.49,2.68-.52,3.18-1.12,1.55-1.89,2.84-3.99,4.22-5.99-.16-.04-.58-.14-.49-.11,2.02-2.88,4.05-5.82,6.14-8.7,.52-.71,1.29-1.23,1.89-1.89,.54-.59,.99-1.26,1.5-1.89,.29-.36,.56-.76,.93-1.02,.5-.35,1.31-.45,1.59-.9,1.5-2.4,1.46-2.43,4.26-1.31-.62,.31-1.04,.52-1.45,.73,1.37,1.93,4.98,1.85,7.11-.22,2.97,2.51,2.59,5.87,1.86,8.85-.92,1.39-1.84,2.77-3.04,4.6,1.25,.21,2.01,.59,2.47,.37,1.03-.51,1.91-1.43,2.05,.69,0,.09,1.75,.31,2.55,.05,1.35-.43,2.58-1.19,4.16-1.96,.67,1.8,1.29,3.47,1.98,5.3,3.31-1.57,5.26-4.22,7.06-7.02,2.2-3.44,6.2-4.4,9.79-2.46,.73,.4,1.75,.26,2.86,.4-.39,3.13,.23,6.65-2.9,9.28-1.06,.89,.25,2.46,2.99,3.24-.7,.92-1.32,1.72-1.99,2.61,.59,2.47-.72,5.59-2.84,6.25,.47,.79,.95,1.55,1.38,2.34,.42,.77,.79,1.57,1.44,2.85,.69-2.94,2.71-2.73,4.33-2.22,1.68,.53,3.06,1.94,4.69,2.68,1.31,.59,2.82,.75,4.23,1.1-.05-.49-.33-1.26-.12-1.44,1.05-.89,2.16-2.06,3.39-2.26,.89-.14,2.38,.86,2.93,1.76,1.56,2.59,4.54,4.71,3.47,8.36-.4,1.38-1.27,2.62-1.65,4-.24,.88,.03,1.91,.07,2.87,.68-.04,1.37-.08,2.46-.15-.15,1.11-.4,2.41-.49,3.73-.12,1.86-.04,3.74-.21,5.59-.22,2.39-.67,4.76-.88,7.14-.06,.63,.36,1.29,1.14,1.74-.13,.56-.26,1.12-.38,1.68,1.29-.05,3.25,.4,3.72-.24,1-1.37,2.03-1.59,3.52-1.85,.97-.17,1.74-1.5,2.49-2.2,1.34-.24,2.76-.5,4.48-.81,.65,1.06,1.47,1.81,3-.07,.87-1.08,2.64-1.44,4.64-2.44-2.26,3.42-4.07,6.13-6.15,9.28,2.1-.23,3.86-.12,5.33-.71,.64-.25,.7-1.94,1.12-3.25,.36,.07,1.19,.24,2.65,.54,.79-.76,1.99-2.02,3.3-3.15,.48-.41,1.32-.88,1.78-.72,.57,.2,1.28,1.02,1.3,1.59,.04,1.37-.55,3.24-.38,4.05,.82,4.01-3.75,5.6-3.6,9.27,.05,1.17-1.86,2.41-3.4,4.24,3.79-1.36,5.59,2.25,8.67,2.17-2.13,1.75-3.36,3.87-3.59,6.71-.08,1.01-1.28,1.94-2,2.89-1.47,1.96-2.94,3.93-4.45,5.86-.48,.62-1.19,1.08-1.57,1.73-.71,1.22-3.5,1.24-2.2,3.69,.05,.09-.75,.54-1.04,.91-1.48,1.89-2.89,3.83-4.39,5.7-.61,.76-1.51,1.29-2.06,2.08-.38,.55-.21,1.45-.55,2.03-1.22,2.04-2.57,4-3.85,6-.59,.93-1.16,1.88-1.71,2.82-.71,1.21-1.6,2.36-2.04,3.66-.45,1.32-.46,2.8-.71,4.5,.33,0-.17-.12-.26,.02-.82,1.27-1.54,2.6-2.36,3.87-.32,.5-.7,1.07-1.2,1.31-4.2,2.05-5.38,6.47-7.9,9.84-1.31,1.75-3.28,3.01-5.16,4.67-.04,.08-.14,.75-.53,1.15-2.11,2.15-4.31,4.21-6.42,6.35-1.17,1.19-2.05,2.74-3.38,3.69-1.6,1.15-1.2,2-.19,2.93-2.34,.97-5.28,.71-6.29,3.9-.19,.6-1.06,.97-1.59,1.48-1.74,1.69-3.68,3.22-5.09,5.15-.79,1.08-1.34,1.78-2.72,1.98-.68,.1-1.25,1-1.88,1.54,.35,.2,.71,.39,.68,.38-3.49,3.47-7.08,7.03-10.87,10.8,.01,.09,.1,.69,.13,.92-1.71,.72-3.19,1.34-4.67,1.96,.08,.22,.16,.45,.24,.67h1.66c-1.26,1.04-2.21,1.85-3.19,2.62-.59,.47-1.66,.77-1.78,1.32-.5,2.17-1.97,3.03-3.9,3.2-2.79,.24-3.52,3.06-3.69,4.44-.3,2.46-2.07,2.88-3.34,3.94-1.24,1.03-2.83,1.64-4.32,2.47,.47,.74,.78,1.21,1.14,1.77-3.05-.47-5.31,.52-6.42,3.28-.86,2.13-2.26,3.23-4.17,4.46-3.21,2.07-6.54,4.23-8.81,7.51-.32,.46-1.01,.63-1.42,1.04-.58,.57-2.5,.25-1.4,2.1,.11,.18-1.11,1.61-1.83,1.73-1.75,.29-2.7,1.43-3.89,2.51-1.54,1.39-3.37,2.46-5.06,3.66,.43,.85,.76,1.53,.96,1.92-1.53,1.03-3.08,1.85-4.34,2.99-1.03,.93-4.36,.11-2.7,3.26-.96,.31-1.9,.73-2.88,.89-1.63,.27-3.9-.61-3.41,2.67,.1,.65-1.61,1.57-2.35,2.24-.3,.83-.37,2.12-.94,2.4-1.9,.94-3.9,2.12-6.19,.85-.55,.46,1.52,2.28-1.32,1.9-1.96-.26-4.22,1.59-6.33,2.54-1.61,.72-3.21,1.46-4.78,2.27-1.64,.84-3.3,1.68-4.79,2.74-.41,.29-.46,1.47-.27,2.13,.77,2.71,1.56,5.42,2.6,8.03,.89,2.24,2.28,4.29,3.19,6.53,.8,1.97,1.17,4.12,1.88,6.13,1,2.81,2.27,5.52,3.2,8.34,1.54,4.7,2.94,9.45,4.33,14.19,.79,2.69,1.87,5.39,1.99,8.12,.08,1.7-1.31,3.52-2.2,5.2-.73,1.38-2.81,1.92-1.88,4.31,.57,1.45-3.56,5.44-5.69,6-2.03-3.09-1.33-7.04,.78-10.37,1.6-2.53,3-5.69,3.02-8.57,.02-2.62-1.97-5.25-3.01-7.9-.92-2.35-1.84-4.71-2.61-7.12-1.91-5.93-3.77-11.88-5.57-17.85-.95-3.15-1.7-6.37-2.59-9.54-.74-2.62-1.58-5.18-4.87-5.67-.52-.08-1.4-.58-1.41-.91-.15-4.31-3.86-6.26-6.09-9.09-4.34-5.5-9.04-10.71-13.6-16.04-.81-.95-1.69-1.86-2.47-2.83-1.02-1.28-1-2.45,.53-3.37-1.76-2.31-3.54-4.64-5.31-6.96-1.38-1.81-2.81-3.59-4.12-5.45-2.44-3.44-4.69-7.03-7.24-10.38-3.39-4.46-7.01-8.74-10.52-13.11-3.24-4.04-6.41-8.14-9.7-12.14-.75-.92-2.32-1.36-2.71-2.34-.88-2.24-2.93-3.37-4.19-5.19-1.09-1.58-2.02-3.27-3.18-4.8-3.03-4.01-6.13-7.98-9.24-11.93-1.85-2.35-3.85-4.58-5.66-6.95-2.36-3.1-4.56-6.32-6.92-9.42-2.46-3.23-5.06-6.36-7.54-9.58-.64-.83-1-1.87-1.62-2.71-3.38-4.54-6.78-9.05-10.21-13.55-2.35-3.09-4.84-6.08-7.12-9.22-1.37-1.88-2.33-4.06-3.7-5.94-2.69-3.7-5.6-7.23-8.29-10.93-1.85-2.54-3.43-5.26-5.2-7.86-2.72-4.02-5.54-7.98-8.25-12.01-1.89-2.8-3.62-5.71-5.49-8.52-3.19-4.82-6.58-9.51-9.59-14.43-2.72-4.45-4.97-9.19-7.55-13.73-1.71-3.01-3.75-5.83-5.46-8.85-2.46-4.35-4.86-8.74-7.09-13.21-1.24-2.48-1.91-5.24-3.12-7.74-.81-1.68-2.22-3.07-3.18-4.7-2.41-4.11-4.72-8.27-7.05-12.42-.04-.07,.15-.28,.52-.9,2.18,3.02,4.32,5.81,6.25,8.74,2.81,4.26,5.41,8.65,8.22,12.91,2.59,3.93,5.27,7.81,8.05,11.6,3.14,4.28,6.49,8.4,9.68,12.64,2.45,3.26,4.39,7.04,7.3,9.8,2.58,2.44,2.62,6.23,5.46,8.29,3.14,2.28,3.87,6.27,6.36,9.06,1.92,2.16,3.35,4.75,5.11,7.06,.38,.49,1.24,.62,1.6,.79,.86,2.07,1.71,4.11,2.65,6.35,.42-.55,.78-1.01,1.36-1.77,2.77,4.69,4.83,9.75,8.27,13.54,3.51,3.87,5.14,8.81,8.75,12.53,3.76,3.87,4.77,9.98,9.12,12.45,1.4,2.6,2.02,5.52,3.71,6.41,1.86,.98,1.05,2.4,1.92,3.46,.49-.04,1.06-.08,1.59-.11,.51,1.68-.27,4.25,2.6,3.96,.24,.84,.33,1.69,.7,2.4,2.05,3.94,4.08,7.89,6.31,11.73,1,1.72,2.5,3.13,3.66,4.77,.99,1.41,1.75,2.98,2.74,4.4,1.29,1.85,2.65,3.66,4.08,5.41,2.24,2.74,4.67,5.32,6.8,8.14,1.64,2.18,2.81,4.7,4.41,6.92,2.59,3.58,5.38,7.02,8.03,10.55,.89,1.18,1.62,2.48,2.3,3.53,2.07-1.63,3.83-2.75,5.22-4.22,.71-.75,.74-2.14,1.2-3.67-.12,.1,.27-.3,.72-.59,.75-.48,2.06-.75,2.23-1.35,.7-2.54,3.08-2.44,4.71-3.53,1.78-1.19,3.18-2.97,4.72-4.51,1.12-1.12,2.91-2.15,3.16-3.46,.74-3.84,4.36-4.92,6.39-7.48,2.39-3.02,5.35-5.58,7.76-8.57,2.1-2.61,3.77-5.56,5.67-8.33,.75-1.1,1.63-2.11,2.44-3.16-.06-.08-.12-.15-.18-.23ZM178.02,106.12c-1.19-2.07-2.25-4.23-3.61-6.18-.83-1.18-2.13-2.04-3.21-3.04,.02-.32,.16-.72,.03-.95-1.96-3.34-3.87-6.71-5.97-9.96-1.09-1.69-2.53-3.15-3.82-4.71-1.3-2.46-2.6-4.92-3.9-7.38-.24,.14-.47,.29-.71,.43,1.05,2.62,2.03,5.28,4.7,6.86,.37,.97,.6,2.01,1.12,2.88,1.41,2.33,2.91,4.61,4.43,6.87,1.35,2,2.77,3.94,4.16,5.91,1.83,3.02,3.65,6.05,5.53,9.04,.16,.26,.73,.26,1.11,.39-1.14,2.28,1.13,3.03,2.02,4.33,2.29,3.36,4.75,6.61,7.13,9.91,.22-.89,.11-1.62-.26-2.18-1.58-2.32-3.23-4.6-4.87-6.88-1.28-1.79-2.59-3.55-3.88-5.33Zm48.34,68.29c2.63,3.45,5.31,6.97,7.99,10.48-.91-4.28-6.36-10.69-7.99-10.48Zm-34.1-47.78c-.2,.16-.4,.33-.6,.49q4.88,6.79,5.95,6.41c-1.8-2.32-3.57-4.61-5.35-6.9Zm282.26-19.23c1.49-1.03,2.73-1.89,4.05-2.8-2.73-1.23-3.83-.56-4.05,2.8Zm-272.89,33.98c-.09-2.94-2.1-5.87-4.5-6.63,1.5,2.21,2.89,4.26,4.5,6.63Zm8.4,10.5c1.67,4.37,2.13,4.76,4.83,4.22-1.55-1.36-2.96-2.59-4.83-4.22Z"/><path class="cls-1" d="M223.66,328.83c2.47,1.35,4.82,2.42,6.94,3.84,3.7,2.48,7.37,5.03,10.83,7.84,1.43,1.16,2.52,2.95,3.26,4.66,.37,.85-.34,2.21-.66,3.31-.63,2.12-1.36,4.2-1.98,6.32-.1,.33,.4,.93,.25,1.15-1.93,2.79,.66,3.45,2.15,4.51,2.31,1.64,4.53,3.76,7.13,4.58,3.8,1.2,3.34,4.43,4.38,6.96,.63,1.53,.38,2.93-.6,4.48-.81,1.29-.93,3.1-1.08,4.71-.32,3.56-.42,7.14-.68,10.7-.17,2.35-.55,4.68-.61,7.03-.03,1.3,.4,2.61,.77,3.88,.06,.83,.14,1.66,.17,2.5,.01,.33,.03,.77-.16,.99-1.93,2.35-.94,5.09-1.31,7.63-.36,2.51-.12,5.03-.58,7.51-.31,1.72-.18,3.51-.3,5.27-.04,.5-.24,1-.45,1.46-.16,.35-.73,.79-.65,.94,2.12,3.91-.63,7.58-.69,11.41-.08,5.91,1.51,9.87,7.28,11.75,.42,.14,.77,.66,1.05,1.08,1.66,2.54,4.29,4.16,6.88,4.91,3.17,.93,5.36-2.16,7.67-3.91,2.41-1.83,4.58-3.92,7.3-5.39,1.77-.96,3.13-2.67,4.74-3.96,.37-.3,1.12-.11,1.5-.4,2.43-1.86,4.74-3.89,7.23-5.66,1.31-.94,2.92-1.47,4.46-2.22-.82-4.37-1.45-8.58-2.45-12.71-.7-2.91-1.94-5.69-2.84-8.55-.63-2-1.07-4.05-1.62-6.07-.57-2.09-.73-4.47-1.87-6.18-1.29-1.94-.67-4.06-1.5-5.95-.4-.92-.34-2.1-.88-2.9-2.14-3.17-2.8-6.81-3.76-10.4-.79-2.98-2.12-5.81-3.19-8.72-1.02-2.78-2.18-5.54-2.92-8.4-.23-.9,.53-2.22,1.18-3.1,.25-.35,1.93-.26,2.09,.06,.45,.91,.39,2.06,.66,3.09,.29,1.1,.67,2.19,1.11,3.24,1.38,3.31,2.93,6.56,4.16,9.92,.7,1.93,.88,4.05,1.36,6.07,.11,.45,.49,.84,.66,1.29,1.18,3.18,2.21,6.43,3.56,9.54,.81,1.87,2.22,3.47,3.15,5.3,.65,1.27,1.13,2.68,1.38,4.08,.89,5.04,2.58,9.79,4.37,14.56,.91,2.43,1.92,5.26,.54,8.12-.4,.83-.06,2.02-.06,3.72,2.03-1.8,3.35-3.1,4.8-4.22,2.1-1.61,4.35-3.04,6.46-4.64,1.33-1.02,3.29-1.92,1.07-4.08-.59-.57-.81-1.95-.61-2.83,.7-3.08-.56-5.62-1.53-8.39-.66-1.9-.16-4.19-.26-6.3-.06-1.16-.27-2.33-.47-3.48-.43-2.48-.94-4.94-1.35-7.43-.58-3.55-1.06-7.11-1.67-10.65-.41-2.4-.96-4.78-1.47-7.16-.72-3.37-1.58-6.71-2.15-10.1-.51-3.03-.62-6.12-1.07-9.16-.32-2.21-.93-4.37-1.37-6.56-.11-.54-.1-1.11-.17-1.92,2.46,.6,2.64,2.6,3.03,4.15,2.12,8.28,4.2,16.58,6.08,24.91,.84,3.73,1.03,7.6,1.78,11.36,.78,3.92,1.93,7.76,2.83,11.66,.2,.89,.03,1.86,.03,2.49,1.23,6.1,2.42,12,3.64,18.07,.68-.28,1.43-.59,2.4-.99-.18,3.47-1.37,6.13-4.39,7.96-.86,.52-1.33,1.69-2.32,3.03-.82,.6-2.27,1.54-3.56,2.66-1.05,.91-1.91,2.04-2.67,3.24-2.37,.78-4.68,.98-6.44,3.95-1.55,2.63-5.1,4.06-7.73,6.08-1.8,1.38-3.48,2.9-5.29,4.28-.76,.58-1.8,.82-2.52,1.44-.73,.63-1.22,1.53-1.81,2.32l.48,.63c-.65-.25-1.29-.5-1.96-.77,0,.14,0,.27-.02,.39-.06,.63-.11,1.79-.18,1.8-2.62,.05-3.2,2.99-5.37,3.73-1.09,.38-1.91,1.52-2.89,2.26-.33,.25-.78,.35-1.18,.5-2.77,1.06-5.55,2.11-8.19,2.59-1.35-.35-2.7-.71-4.06-1.06-.16-.04-.36-.07-.48-.18-2.32-2.12-4.47-4.45-6.98-6.31-2.5-1.85-3.47-5.47-7-6-1.14-.17-2.75-.48-3.42,.11-2.66,2.32-5.24,2.88-8.48,1.23-.95-.49-2.47,.29-3.67,.11-2.55-.39-5.37-.47-7.51-1.68-5.16-2.93-10.06-6.34-14.93-9.74-2.45-1.71-5.11-3.5-6.78-5.88-1.66-2.37-3.85-4.31-5.07-7.19-1.57-3.72-1.75-7.39-1.87-11.21-.04-1.4-.28-2.36-2.06-3.19-2.92-1.36-5.3-3.83-8.09-5.55-.77-.47-1.21-2.25-2.71-1.22-.73-1.1-1.47-2.19-2.46-3.68-1.05,2.81-2,5.31-2.92,7.82-1.83,4.96-4.79,9.25-8.15,13.25-2.14,2.55-5.98,2.23-8.26-.27-2.6-2.85-5.01-5.99-8.03-8.31-1.89-1.46-3.5-2.77-4.27-5.01-4.31-.66-4.14-6.44-8.37-7.3-.57-.12-.86-1.34-1.41-1.93-2.29-2.48-4.57-4.98-6.97-7.36-1.88-1.86-3.92-3.55-6.19-5.58-.44,1.15-.76,1.97-1.08,2.8-2.23-4.42-.91-9.29-1.36-13.96-.25-2.66,.09-5.36-.13-8.03-.17-2.11-1.52-2.65-3.47-1.91-1.77,.67-3.61,1.14-5.4,1.73-.71,.23-1.85,.4-2.01,.85-.68,2.08-2.54,1.21-3.71,1.43-2.17,.41-4.47,.12-6.79,.12-.32-.45-.68-1.51-1.36-1.8-3.56-1.5-6.21-4.09-8.82-6.8-.44-.46-1.21-.62-2.05-1.02,0-.1,.25-.91-.04-1.26-2.09-2.5-4.3-4.9-6.52-7.39v-3.64c.93-.69,3.58-1.65,3.86-3.07,.67-3.39,5.01-3.1,5.48-6.37,.08-.52,1.59-.71,2.19-1.31,3.13-3.11,7.16-5.84,8.96-9.61,1.65-3.44,5.6-4.62,6.44-8.39,.17-.77,1.41-1.25,1.92-2.02,.42-.64,.49-1.51,.58-1.82,1.47-1.74,2.8-3.25,4.05-4.82,.21-.27,.3-.86,.16-1.16-1.22-2.58-.41-4.92,.43-7.43,.48-1.42,.25-3.2-.03-4.75-.59-3.3-1.02-6.2,2.38-8.65,1.53-1.1,2.06-3.71,2.83-5.71,.73-1.91,1.1-3.95,1.79-5.88,1.23-3.43,2.67-6.79,3.82-10.24,.53-1.58,.58-3.33,.53-5.05,1.1-.89,2.59-1.7,1.21-3.92-.23-.37,.54-1.31,.74-2.02,1.16-4.03,2.35-8.06,3.4-12.13,.26-1,.04-2.11,.04-2.81,.6-.75,1.34-1.26,1.45-1.89,.37-2.02-.11-4.47,.89-6.03,1.64-2.57,.22-5.55,1.95-8.06,.93-1.35,.75-3.46,1.06-5.22,.22-1.28,.99-2.84,.53-3.79-1.53-3.1-3.37-6.08-5.35-8.93-2.95-4.27-6.13-8.37-9.16-12.58-2.52-3.5-4.9-7.1-7.47-10.56-3.43-4.64-7-9.17-10.49-13.77-2.22-2.93-4.37-5.91-6.57-8.84-2.53-3.38-5.22-6.64-7.6-10.12-3.94-5.75-8.23-11.2-12.77-16.47-1.55-1.8-2.62-3.99-4.06-5.9-2.55-3.4-5.25-6.69-7.8-10.09-1.27-1.7-2.26-3.62-3.54-5.31-3.48-4.57-7.12-9.01-10.57-13.6-2.24-2.98-4.13-6.22-6.4-9.17-2.37-3.07-5.01-5.93-7.71-9.1,1.52-1.21,2.21,.13,2.97,1.08,2.67,3.35,5.32,6.71,7.99,10.06,.24,.31,.58,.54,1.37,.59-.18-.66-.35-1.33-.76-2.83,1.51,1.59,2.48,2.79,3.64,3.78,1.86,1.58,2.58,4.37,5.69,4.77,1.02,.13,1.76,2.21,2.69,3.35,2.05,2.47,4.26,4.81,6.18,7.38,2.35,3.16,4.39,6.54,6.7,9.73,1.73,2.39,4.32,4.37,5.37,6.99,1.08,2.71,3.72,3.89,4.74,6.77,1.11,3.13,4.2,5.53,6.29,8.35,2.51,3.39,4.74,7,7.35,10.32,2.45,3.11,5.28,5.93,7.85,8.96,.67,.79,1.2,1.82,1.47,2.82,.61,2.26,1.95,3.62,3.92,4.95,1.53,1.04,2.15,3.39,3.24,5.12,.29,.46,.81,.78,1.22,1.17,.26,.25,.54,.49,.75,.78,.38,.53,.7,1.1,1.07,1.63,.26,.38,.58,.72,.84,1.1,.63,.94,1.27,1.87,1.84,2.84,.44,.76,.7,1.63,1.19,2.35,2.04,3.04,4.23,5.99,6.19,9.08,3.52,5.54,6.91,11.16,10.57,17.08,.37-.9,.65-1.61,.93-2.31,.94,2.75,1.96,5.42,2.72,8.17,.2,.73-.46,1.67-.62,2.53-.67,3.54-1.37,7.08-1.92,10.65-.26,1.7,.02,3.5-.38,5.14-.57,2.34-1.54,4.58-2.34,6.87-.11,.32-.28,.63-.32,.95-.4,3.3-.49,6.68-1.31,9.87-.29,1.11-1.17,2.27-1.42,3.59-.36,1.89-.21,4.61-1.38,5.46-1.8,1.31-1.03,3-1.75,4.36-.51,.94-.25,2.27-.48,3.4-.14,.68-.62,1.29-.85,1.97-.66,1.92-1.34,3.84-1.86,5.8-.12,.44,.39,1.04,.63,1.6-1.4,.95-2.96,4.95-2.52,6.72,.06,.25,.04,.62-.11,.8-1.13,1.35-1.19,2.87-1.37,4.58-.2,1.85-1.81,3.49-2.43,5.35-.99,2.98-2.18,6.03-2.36,9.11-.2,3.3,.68,6.66,1.06,10.01,.39,3.55,.71,7.11,1.14,10.66,.1,.79,.52,1.54,1.04,2.97-.69,1.51,1.43,12.41,3.25,13.78-.3,.5-.98,1.24-.84,1.44,.83,1.27,.25,2.48,.27,3.75,.05,2.46,.9,4.9,1.3,7.37,.24,1.52,.51,3.11,.31,4.61-.46,3.54,1.03,6.97-.09,10.69-.64,2.13,1.05,4.91,1.43,7.44,.31,2.02-.17,4.24,.44,6.12,.61,1.86,1.91,3.66,3.34,5.05,4.65,4.5,9.3,9.04,14.34,13.08,3.03,2.43,5.19,5.34,7.41,8.4,1.41,1.95,3.55,3.37,5.37,5.02,.12,.11,.32,.14,.45,.25,.87,.8-.29,3.64,2,2.68,2-.84,3.87-2.53,5.2-4.3,2.62-3.5,4.84-7.3,7.16-11.01,.53-.85,1.02-1.81,1.16-2.77,.08-.55-.45-1.58-.93-1.76-1.77-.65-3.66-1.51-5.47-1.43-3.97,.18-7.3-3.01-11.05-2.29-3.38,.65-5.09-2.22-7.91-2.63-1.1-.16-2.49-2.3-2.71-3.7-.75-4.78-1.17-9.62-1.43-14.45-.11-1.99,.52-4.02,.75-6.03,.07-.64-.08-1.31-.17-1.96-.08-.55-.43-1.15-.29-1.63,.47-1.63,1.19-3.19,1.62-4.83,.15-.56-.32-1.28-.47-1.93-.09-.38-.32-.95-.15-1.15,2.08-2.48,1.58-5.72,2.61-8.46,.84-2.25,.5-4.46,.86-6.6,.61-3.68,2.45-7.14,3.47-10.77,1.23-4.35,2.12-8.78,3.22-13.17,.25-.99,.77-1.9,1.09-2.87,.86-2.59,1.61-5.22,2.52-7.79,1.1-3.11,2.82-3.82,6.27-2.78,4.52,1.37,9.11,2.59,13.17,5.13,1.68-1.36,2.45,.86,3.85,1.03,2.42,.28,3.63-.59,3.52-3.12-.04-.91,.48-1.84,.76-2.76,.69-2.27,1.35-4.55,2.12-6.79,.76-2.21,4.09-3.8,6.51-3.62,2.67,.2,5.37-.16,8.04,.05,2.23,.18,4.42,.9,6.65,1.23,1.79,.27,3.61,.34,5.42,.46,1.59,.11,4.23,2.91,4.36,4.49,.28,3.38,.75,6.75,.97,10.14,.19,2.93,.11,5.87,.25,8.81,.04,.8,.46,1.57,.67,2.37,.53,2.03-1.17,4.26,.54,6.22,.05,.05-.59,.7-1.23,1.45Zm-1.82,76.91c-.15-.08-.29-.16-.44-.24,.33,.68,.89,1.34,.93,2.04,.08,1.49-.1,2.99-.18,4.48-.03,.46-.04,.93-.12,1.38-.22,1.2-.48,2.39-.76,3.76,.11-.01-.28,.04-1.25,.16,1.03,.43,1.47,.62,1.26,.53,0,2.35,.06,4.42-.02,6.49-.09,2.36-.3,4.72-.44,7.08-.08,1.24-.16,2.48-.18,3.72,0,.53,.04,1.43,.28,1.51,.5,.17,1.3,.09,1.7-.23,.74-.6,1.27-1.45,1.91-2.19,1.27-1.48,.59-3.15,.62-4.8,.12-5.73,.4-11.46,.74-17.18,.15-2.58,1.34-5.02,.92-7.73-.14-.89,.96-1.91,1.07-2.92,.16-1.5-.08-3.03-.11-4.55-.04-1.63-.29-3.32,0-4.89,.77-4.21,1.86-8.36,2.67-12.56,.91-4.75,1.61-9.54,2.5-14.29,.45-2.39,1.24-4.74,.08-7.28-1.12,1.02-2.04,1.78-2.86,2.64-.47,.49-.97,1.1-1.11,1.74-.4,1.95-.56,3.95-.95,5.91-.59,2.94-1.36,5.83-1.92,8.78-.26,1.36-.03,2.81-.3,4.17-.89,4.51-1.98,8.98-2.83,13.49-.33,1.75-.15,3.58-.33,5.36-.2,1.89-.56,3.76-.85,5.63Zm-41.92-68.73c0,1.2,.25,2.49-.04,3.64-1.29,5.04-2.8,10.02-4.1,15.06-.44,1.71-.37,3.55-.78,5.27-.52,2.15-1.52,4.2-1.93,6.36-.48,2.51-.46,5.11-.79,7.65-.58,4.4-1.27,8.79-1.95,13.44,3.24-.3,4.18-2.09,4.61-4.35,.89-4.75,.82-9.62,2.86-14.23,1.31-2.97,1.46-6.45,2.13-9.7,.36-1.74,.76-3.47,1.06-5.21,.66-3.82,1.09-7.7,1.97-11.47,.66-2.79,2.06-5.4,2.84-8.17,1.11-3.94,1.93-7.96,2.93-11.93,.44-1.73,1.09-3.4,1.53-5.13,.42-1.66,.68-3.36,1.01-5.05-.24-.15-.47-.3-.71-.45-1.39,1.01-2.78,2.01-4.33,3.14-1.85,6.99-3.8,14.34-5.71,21.56-.07-.06-.39-.31-.58-.45Zm16.66,47.95c.21,.59,.68,1.23,.62,1.82-.29,3.22-.86,6.42-.98,9.65-.04,1.09,.72,2.96,1.48,3.17,1.74,.49,2.65-1.04,2.81-2.65,.21-2.13,.2-4.28,.29-6.42,.02-.59-.04-1.22,.12-1.77,.57-2,2.08-4.18,1.66-5.92-.78-3.25,.54-6.07,.84-9.03,.44-4.38,1.69-8.68,2.67-13,1.07-4.71,2.24-9.39,3.32-14.1,.78-3.37,1.9-6.58,3.42-9.73,.93-1.93,3.42-3.58,1.81-6.99-2.23,2.1-4.65,3.69-6.08,5.92-1.35,2.11-1.66,4.88-2.43,7.37-1.1,3.57-2.3,7.11-3.29,10.71-1.14,4.15-2.2,8.33-3.09,12.54-.67,3.15-1.09,6.35-1.47,9.55-.32,2.71-.38,5.45-.67,8.17-.03,.31-.77,.54-1.02,.71Z"/><path class="cls-1" d="M327.56,405.3c-.33,.06-.82,.15-1.37,.26,.08,1.74,.44,3.58-2.04,4-.31,.05-.59,.58-.81,.94-.86,1.38-2.15,2.82-3.53,1.47-.91-.89-2.42-2.43-.76-4.56,2.58-3.32,4.56-7.1,6.98-10.56,1.57-2.25,3.47-4.26,5.22-6.38,.1-.12,.28-.25,.28-.37,.02-2.45,.18-4.9-.03-7.33-.2-2.36-.64-4.72-1.26-7-.7-2.55-.11-5.51-2.34-7.61-.31-.29-.55-.87-.5-1.28,.36-2.76-.45-5.14-1.63-7.65-1.1-2.32-1.23-5.08-1.86-7.64-.69-2.85-1.44-5.68-2.21-8.51-.73-2.68-1.54-5.34-2.29-8.01-.96-3.43-1.98-6.84-2.81-10.3-.32-1.34-.22-2.78-.31-4.18,.22-.07,.43-.14,.65-.22,1.12,2.79,2.25,5.57,3.36,8.36,1.3,3.28,2.62,6.55,3.84,9.85,1.52,4.11,2.96,8.25,4.42,12.39,.52,1.46,1.04,2.93,1.48,4.42,.89,3.01,1.87,6.01,2.56,9.07,.89,3.93,1.49,7.93,2.28,11.88,.67,3.3,1.39,6.6,2.18,9.87,.42,1.72-.97,5.14-2.64,6.31-.45,.31-.8,.87-1.01,1.39-.5,1.23-1.62,2.39-1.9,3.34-.74,2.52-2.6,3.99-3.92,5.95-.3,.44-.04,1.26-.04,2.11Z"/></g></g></svg>