<?xml version="1.0" encoding="UTF-8"?><svg id="Layer_1" xmlns="http://www.w3.org/2000/svg" viewBox="0 0 380.52 475.91"><defs><style>.cls-1{fill:#323aa4;}.cls-2{fill:#c1e4fc;}</style></defs><path class="cls-2" d="M359.01,109.19l-1.15-1.91,7.02-5.87-5.62-9.45,1.28-4.4,.64-4.09-3.06-5.36,.13-2.3,3.06-5.11-4.08-2.43,1.66-4.98-7.79-5.6s-15.25-39.82-58.4-47.59c0,0-59.74-5.34-86.81,56.83l-3.45,15.74s-57.7,18.6-62.81,74.39,49.06,85.62,49.06,85.62l4.94,8.29,7.49,6.88,11.23,13.43,4.26,5.91,7.15,3.06,7.53,2.55,5.81-.77,13.92,.13,7.92,4.04,6.14,.81,4.4-.81,2.99,3.62,1.08,3.02,.23,2.47,4.88-1.53,.11,.11-1.07,.19-3.09,5.06-3.05,6.98-2.59,8.72c-1.23,.39-2.01,.77-2.01,.77-16.12,11.94-16.25,24.95-16.25,24.95l5.79-1.34,1.79-3.98,6.3-9.18,4.17-5.27s.19-.02,.48-.04l.63,6.81,2.72,3.57,5.62,2.81-1.33,3.11-11.58,11.21s-3.33,.18-5.24,.02l2.52-1.78s2.04-9.07-11.87-5.94l-4.98,4.17-5.45-.99-2.55-8.19s-16.42-15.48-18.08-33.42l-24.99-10.03-20.68,15.58v-8.23l-1.79,.13-1.92,2.55-3.06-8.43h-5.11l-2.94-.77s-18.81-22.96-50.13-22.02c0,0-55.4,1.19-69.11,42.55-13.7,41.36-11.77,47.49-11.77,47.49l-4.23,6.94v8.45l1.36,3.86,2.87,6.99,1.34,6.85s4.69,28.94,16.16,41.72,47.8,41.36,100.56,24.84c0,0,25.64-14.18,34.14-30.11,0,0,12.61-12.33,19.28-10.75s26.23-10.51,26.23-10.51c0,0,8.7-28.34,13.02-36.5l1.03-1.64s.08-.11,.12-.15c.07-.08,.1-.15,.11-.21l1.82-2.92v-6.61l-.64-1.25,2.34-.54,3.66-2.18-1.44-2.06,6.2-1.28,.61-.43,2.69,1.14c6.51,3.99,8.52,.64,12.78-1,4.26-1.64,10.99-12.47,10.99-12.47l5.99-9.19s.39-3.04-.17-6.65l1.55,4.22,2.3-5.78,5.11-11.57,2.98-9.19s1.23-5.28,.93-6.38-5.02-5.19-5.02-5.19l-2.78,.49-4.9-5.69v-1.55l2.13-1.15v-4.47l5.59-4.02,14.81-11.57,12.49-7.82s5.81-17.46,4.7-20.27-4.7-17.33-4.7-17.33l-25.94-16.37s-58.89,25.11-75.66,22.64-49.53-13.87-48.94-56.34l7.74-27.74,11.74-17.02,15.59-12.26,18.62-2.38,4.43-1.02,4.29-9.02,2.35-13.28-2.35-7.66,4.91-10.13,8.17-12.09,15.32-10.55,22.47-3.23,20.09,3.23,14.3,9.19,8.17,10.38,10.9,25.79-.34,10.43-4.08,24.98-7.66,19.91-12.94,21.79-5.11,7.53-1.02,3.7,1.05,.69s1.01,8.07,25.38,.24v-12.55s13.27-.77,18.12-5.49l-3.7-3.32,4.72-4.47,1.53-3.32-.35-3.09-1.57-1.88,3.96-4.98,1.4-1.15-2.17-14.68,6.06-3.19,4.02-8.3-2.75-2.81-1.92-1.02ZM167.33,380.13c-.38,.07-.6,.1-.6,.1l-11.25,34.7-16.19,15.59-26,5.27-16.77-1.9-20-10.78-18.04-25.53,2.08-19.4-4.29-12.62,.77-6.1,1.69-15.69,5.28-17.01,9.87-12.73,13.79-8.95,19.74-4.76h14.13l17.75,5.65,12.48,11.48,10.03,23.14,6.81,32.07-1.19,4.41,.49-.11-.57,3.19Zm110.87-46.21l.49-5.58-1.83-1.11-3.1-3.49v-3.32c.69-.04,1.2-.06,1.27-.04,.26,.09,2.81,.34,2.81,.34l2.21,8.85-1.85,4.35Zm12.83-31.77l-1.61,7.64-4.08,9.11-1.36,2.5c-.64-1.69-1.58-3.33-2.94-4.68-1.51-1.5-3.28-2.22-5.04-2.52l1.26-5.19,3.21-5.09,4.88-2.26,1.19-.89,2.41-.92,.03-.2,2.07-.51v3Z"/><g><path class="cls-1" d="M275.83,311.69c.49-1.54,.85-3.15,1.51-4.61,1.41-3.11,2.99-6.15,5.04-9.16,.24,1.16,.48,2.32,.77,3.7,1.52,.26,2.73-.34,3.89-1.88,2.74-3.64,3.28-7.45,.3-9.76-2.18-1.7-2.78-3.8-3.55-6.07,1.01-.27,2.03-.55,3.14-.84-.13-1.92-.73-2.87-2.64-1.99-3.53,1.63-7.01,3.37-10.59,4.88-1.34,.56-2.11,.69-.78,2.22,.62,.72,.47,2.1,.68,3.2q-1.93-.05-2.86-3.06c-1.75-.09-3.38-.15-5.02-.26-2.25-.15-4.53-.14-6.73-.56-1.05-.2-1.87-1.43-2.93-1.85-4.74-1.88-9.6-3.19-14.81-2.8-2.15,.16-4.34-.17-6.5-.04-1.1,.06-2.26,1.11-3.23,.91-6.28-1.26-12.88-1.95-17.17-7.7-3.06-4.11-6.06-8.26-9.22-12.28-1.97-2.5-4.11-4.88-6.34-7.14-1.03-1.04-2.41-1.78-3.74-2.45-3.04-1.56-3.69-4.8-5.37-7.31-.8-1.2-1.56-2.58-2.69-3.37-2.92-2.05-6.28-3.54-9.03-5.78-3.42-2.79-6.46-6.07-9.58-9.22-3.68-3.71-7.34-7.44-10.86-11.29-1.78-1.94-3.27-4.15-4.87-6.26-1.54-2.03-3.07-4.06-4.55-6.13-.87-1.22-1.72-2.46-2.43-3.77-1.15-2.12-2.19-4.3-3.27-6.46-.2-.39-.45-.78-.55-1.2-1.39-5.58-3.1-11.12-4.02-16.78-.6-3.71,0-7.61-.06-11.42-.06-4.14-.41-8.27-.35-12.4,.02-1.59,.81-3.18,1.29-4.76,1.49-4.96,3.34-9.86,4.32-14.92,.34-1.74,.71-2.86,1.92-4,.5-.47,.37-1.54,.71-2.25,.4-.84,.97-1.61,1.52-2.37,.88-1.22,1.98-2.32,2.69-3.63,2.38-4.37,5.78-7.9,8.91-11.7,3.78-4.59,8.19-8.4,12.87-11.91,2.67-2,5.9-3.23,8.73-5.05,5.42-3.49,11.51-5.66,17.07-8.85,.56-.32,.92-1.25,1.09-1.96,.34-1.41,.34-2.89,.72-4.28,.93-3.41,1.59-6.98,3.09-10.14,2.45-5.16,5.42-10.08,8.31-15.02,1.36-2.32,2.82-4.66,4.62-6.64,3.55-3.9,7.31-7.62,11.09-11.3,2.04-1.99,4.25-3.8,6.47-5.59,2.35-1.9,4.71-3.84,7.24-5.48,3.08-1.99,6.21-4.03,9.57-5.45,6.15-2.59,12.05-5.93,18.88-6.72,5.12-.59,10.19-1.71,15.32-2.16,2.5-.22,5.09,.72,7.65,.85,5.9,.28,11.44,2.07,16.74,4.34,4.61,1.98,8.83,4.86,13.24,7.32,1.22,.68,2.62,1.11,3.7,1.96,2.38,1.88,4.73,3.85,6.88,5.99,2.98,2.97,5.84,6.08,8.62,9.24,1.09,1.24,1.94,2.71,2.74,4.17,2.34,4.27,4.55,8.61,6.96,12.84,.39,.68,1.56,.92,2.4,1.38-1.33,1.13-.26,1.72,.92,2.42,1.76,1.04,3.57,2.07,5.12,3.39,1.68,1.44,1.65,3.25,.29,5.03,4.26,2.5,4.5,4.94,.72,8.74-.84,.84-1,1.15,.09,2.23,1.59,1.58,2.77,3.71,3.68,5.8,1.59,3.63-2.5,4.72-3.33,7.26,1.85,2.64,3.91,5.37,5.68,8.28,.39,.64,.07,2.15-.46,2.85-1.42,1.91-3.14,3.6-5.15,5.84,.45,.17,.81,.27,1.13,.44,3.9,2.11,4.04,3.72,2.25,8.02-1.18,2.84-3.19,4.67-5.19,6.66-.3,.3-.66,.59-1.05,.73-2.64,.99-3.21,2.26-2.54,5.06,.81,3.4,1.44,6.84,2.25,10.8-1.21,1.01-2.95,2.24-4.41,3.75-.86,.89-1.95,1.91-.61,3.58,.94,1.17,1.2,2.89,1.82,4.51-1.47,.12-.28,3.79-3.05,2.64-.79,1.04-1.56,2.04-2.48,3.25,.8,1,1.79,2.26,2.78,3.5-4.23,3.85-12.28,6.48-18.25,5.97v12.63c-2.17,1.2-4.49,3.16-7.12,3.8-5.76,1.41-11.66,3.08-17.55,.1-4.22-2.13-6.08-6.13-2.58-10.22,2.55-2.98,4.64-6.41,6.61-9.83,1.77-3.08,3.02-6.46,4.63-9.64,.46-.91,1.64-1.45,2.09-2.35,2.27-4.53,4.66-9.02,6.52-13.72,2.02-5.08,3.58-10.34,5.21-15.57,2.11-6.76,3.45-13.69,3.86-20.75,.23-3.94,.37-7.96-.14-11.85-.39-3.04-1.89-5.92-2.81-8.91-.35-1.15-.45-2.38-.67-3.56-.23-.04-.85,.01-.95-.2-1.99-3.91-3.47-8.17-5.99-11.69-2.67-3.73-6.22-6.87-9.58-10.06-4.45-4.22-9.8-6.97-15.63-8.81-1.8-.57-3.63-1.01-5.44-1.54-6.52-1.9-13.13-2.16-19.83-1.22-1.07,.15-2.27-.46-3.3-.22-4.48,1.04-9.11,1.65-12.83,4.85-1.1,.94-2.83,1.1-4.1,1.9-5.13,3.23-9.8,6.94-12.52,12.61-1.69,3.51-3.68,6.88-5.34,10.41-1.09,2.33-2.17,4.48-.88,7.49,1.83,4.3,1.1,9.02-.18,13.46-1.42,4.97-2.48,10.13-5.92,14.28-.08,.1,.07,.53,.06,.53-2.02,.37-4.03,.88-6.07,1.03-4.88,.36-9.82,.2-14.63,.95-2.17,.34-4.1,2.33-6.11,3.63-2.54,1.64-5.35,3.01-7.5,5.07-3.75,3.61-7.02,7.7-9.33,12.46-1.02,2.1-2.41,4.04-3.3,6.19-1.22,2.94-2.24,5.97-3.16,9.02-1.31,4.35-2.45,8.75-3.86,13.84-.4-1.28-.6-1.92-.82-2.61-.19,.11-.39,.16-.41,.24-.96,5.25-2.36,10.47-2.74,15.77-.41,5.67,1.37,11.2,3.99,16.18,1.42,2.69,2.8,5.55,4.84,7.9,1.79,2.06,3.81,3.91,5.64,5.93,1.49,1.64,2.76,3.49,4.3,5.08,3.93,4.06,8.57,7.3,13.72,9.43,2.23,.92,4.79,2.03,7.77,1.28,2.27-.57,4.94,.25,7.39,.67,.53,.09,.91,1.11,1.69,2.14,3.37-.49,7.64-.87,11.78-1.79,4.35-.96,8.95-.99,13.01-3.31,1.1-.63,2.65-.42,3.92-.81,2.97-.93,5.84-2.51,8.86-2.82,2.09-.21,3.67-1.36,5.63-1.7,2.13-.37,4.19-1.38,6.19-2.29,5.35-2.45,10.64-5.01,15.97-7.5,1.78-.83,3.56-1.76,5.44-2.25,2.28-.59,4.32-.28,6.53,1.29,3.43,2.44,7.57,3.87,11.12,6.17,2.66,1.73,4.83,4.22,7.3,6.27,1.1,.91,2.62,1.35,3.57,2.37,1.44,1.54,2.63,3.34,3.74,5.15,.35,.57-.06,1.57,.18,2.27,1.84,5.46,3.22,11.06,2.06,16.76-.76,3.77-2.89,7.27-3.72,11.03-.96,4.34-4.32,5.97-7.44,8.07-4.34,2.92-8.79,5.71-12.93,8.89-3.71,2.84-7.05,6.16-10.61,9.21-.55,.47-1.38,.62-2.3,1.02,.87,2.01,.73,3.98-1.47,5.63-.42,.31-.19,2.16,.32,2.88,.73,1.03,2.01,1.66,3.42,2.75,4.2-.89,7.05,1.62,8.16,6.64,1.32,5.94-1.11,10.99-3.24,15.9-2.66,6.13-6.48,11.75-9.82,17.58-.06,.11-.32,.11-.48,.17,0,0,.09,.08,.09,.08-.38-1.96-.59-3.97-1.18-5.87-.9-2.9-2.07-5.71-3.12-8.56,1.06,.52,2.12,1.05,3.26,1.62,2.4-2.81,5.3-12.34,5.4-17.74-2.54,.9-5.28,1.74-7.89,2.87-.78,.34-1.26,1.46-1.8,2.27-1.34,2.01-2.64,4.04-3.95,6.07l-.22-.12Zm-53.07-205.43c2.43,.65,3.98-.48,5.42-2.23,3.52-4.27,2.86-9.76,4.26-14.62,.88-3.05-.1-6.75-.73-10.06-.19-.99-1.91-2.13-3.12-2.42-4.25-1.01-8.59-1.58-12.86-2.5-3.41-.74-4.5-.24-6.49,2.55-3.09,4.35-6.66,8.09-12.13,9.7-2.61,.77-4.91,2.61-7.36,3.95-1.91,1.05-3.82,2.12-5.76,3.11-2.32,1.18-4.89,1.99-6.97,3.49-3.29,2.37-6.32,5.13-9.37,7.83-2.79,2.46-5.79,4.78-8.1,7.64-4.05,5.02-8.79,9.64-10.61,16.21-.58,2.07-1.92,3.92-2.93,5.87-.66,1.27-1.54,2.46-2.01,3.79-.6,1.73-.89,3.56-1.3,5.35-.5,2.21-1.3,4.41-1.42,6.65-.29,5.18-.43,10.39-.27,15.58,.12,3.63,.44,7.35,1.41,10.82,1.27,4.57,3.06,9.03,5.01,13.36,2.67,5.92,6.04,11.55,8.52,17.54,3.36,8.13,10.49,13.2,15.46,20,1.89,2.59,4.65,4.64,7.28,6.57,3.02,2.22,5.24,5.51,9.21,6.55,1.33,.35,2.5,1.89,3.39,3.13,1.31,1.82,2.01,4.12,3.49,5.76,4.37,4.85,9.11,9.38,13.47,14.24,2.23,2.49,4.13,5.33,5.87,8.2,1.88,3.09,4.32,5.24,7.78,6.32,1.66,.52,3.63,.86,4.8,1.98,1.9,1.82,4.14,1.57,5.99,1.16,5.79-1.27,11.57-1.43,17.33-.44,2.91,.5,6.18,1.21,8.35,2.98,2.16,1.76,4.28,1.28,6.42,1.82,2.01,.51,2.56-1.29,3.81-1.94,3.09-1.6,6.47-2.61,9.73-3.87,3.44-1.33,7.07-2.32,10.26-4.09,2.46-1.37,4.3-3.81,6.53-5.63,5.4-4.43,10.74-8.88,17.13-12,4.07-1.98,8.73-3.89,9.17-9.64,.12-1.51,.96-2.95,1.14-4.47,.33-2.84,.71-5.74,.52-8.57-.19-2.8-1.12-5.54-1.63-8.33-.73-4.01-1.54-7.84-5.45-10.26-3.04-1.89-5.74-4.33-8.71-6.33-4.12-2.77-8.32-5.42-12.58-7.97-.75-.45-2.05-.47-2.9-.16-1.5,.56-2.79,1.62-4.25,2.31-4.52,2.15-9.08,4.2-13.61,6.33-2.95,1.39-5.78,3.14-8.84,4.22-4.79,1.69-9.71,3.01-14.61,4.37-4.14,1.16-8.28,2.31-12.48,3.19-3.17,.67-6.44,.9-9.66,1.33-2.53,.34-5.04,.75-7.58,.98-1.4,.12-2.84,.01-4.25-.14-2.35-.25-4.7-.51-7.02-.97-1.67-.33-3.34-.85-4.9-1.53-2.86-1.26-5.63-2.72-8.44-4.09-.8-.39-1.59-.79-2.39-1.18-.63-.31-1.41-.46-1.86-.94-1.36-1.43-2.51-3.07-3.91-4.46-2.61-2.6-5.61-4.85-7.92-7.68-2.34-2.86-4.07-6.23-6.02-9.41-2.73-4.46-4.45-9.36-5.54-14.42-.71-3.26-1.29-6.78-.81-10.02,.93-6.23,2.55-12.37,4.09-18.5,.76-3.01,1.73-6.01,3.04-8.81,1.71-3.65,4.01-7.01,5.78-10.63,2.56-5.25,6.05-9.77,10.46-13.51,2.66-2.26,5.72-4.05,8.54-6.13,3.25-2.4,6.51-4.72,10.74-4.98,1.81-.11,3.64-.07,5.41-.36,2.35-.38,4.65-1.02,6.98-1.55Zm-18.78-28.84c.34,.19,.68,.39,1.02,.58,1.47-1.58,2.8-3.32,4.45-4.68,1.08-.89,2.63-1.71,3.96-1.69,3.04,.05,6.11,.43,9.09,1.07,3,.64,5.89,1.78,8.86,2.6,.4,.11,1.27-.23,1.4-.56,.54-1.4,.7-2.97,1.33-4.31,1.51-3.22,2.75-6.72,4.95-9.4,2.4-2.93,4.38-6.32,7.86-8.43,3.18-1.92,5.75-4.92,9.02-6.62,3.62-1.88,7.69-2.94,11.63-4.14,4.47-1.36,9.05-2.08,13.78-1.57,2.89,.32,5.83,.61,8.73,.45,4.08-.24,8.05,.36,11.71,1.84,4.32,1.75,8.58,3.89,12.42,6.51,2.73,1.85,4.94,4.61,7.03,7.25,2.45,3.09,4.48,6.52,6.76,9.75,3.92,5.53,6.25,11.78,8.07,18.2,.79,2.78,.75,5.8,1.24,8.68,.67,3.94,2.59,7.96-1.06,11.5-.15,.15-.11,.51-.14,.77-.2,1.9-.24,3.83-.6,5.69-1.1,5.73-2.1,11.5-3.59,17.14-.94,3.56-2.71,6.9-4.02,10.36-.35,.93-.16,2.1-.61,2.94-1.8,3.36-3.71,6.66-5.66,9.93-3.5,5.89-7.04,11.76-10.61,17.62-1.61,2.64-3.41,5.16-4.94,7.85-.36,.63-.22,2.26,.19,2.47,2.44,1.27,4.99,2.35,7.58,3.25,.55,.19,1.45-.87,2.19-.88,1.37-.02,2.76,.56,4.1,.42,1.58-.16,3.1-.91,4.67-1.25,2.33-.51,4.7-.9,6.84-1.3-.29-4.85-.56-9.27-.84-13.9,6.78,.05,12.61-.83,18.03-4.54-.72-.4-1.08-.63-1.46-.81-3.57-1.7-3.74-2.91-.61-5.27,.81-.61,1.82-.96,2.73-1.45,1.85-1.01,1.59-2.74,.51-3.73-1.51-1.37-1.43-2.83-1.35-4.51,.15-3.2,3.27-3.7,4.89-5.55,.49-.56,.88-1.55,.74-2.24-.66-3.39-1.83-6.71-2.12-10.12-.11-1.26-.68-3.63,2.05-4.4,3.94-1.11,6.39-4.2,7.87-7.86,.38-.93-.5-2.38-.8-3.59-1.88,.49-2.71-1.22-3.76-2.1-.66-.55-1.04-2.62-.58-3.12,1.3-1.41,2.99-2.57,4.73-3.45,1.98-1,2.68-2.05,1.21-3.96-1.01-1.31-1.89-2.72-2.98-3.94-1.87-2.08-2.52-5.89-.58-7.64,1.94-1.74,.6-2.83-.14-4.01-1.33-2.12-2.89-4.09-4.26-5.99,.84-.79,1.6-1.36,2.19-2.08,3.77-4.65,3.62-3.09-1.35-5.91,.68-1.84,1.38-3.74,2.09-5.65-1.56-.94-3.06-1.98-4.68-2.78-2.38-1.18-3.77-3.07-4.97-5.38-2.35-4.53-4.75-9.08-7.57-13.33-4.45-6.71-10.21-12.29-16.85-16.77-4.51-3.05-9.44-5.48-14.25-8.06-2.29-1.23-4.66-2.5-7.15-3.14-4.52-1.17-9.17-1.86-13.75-2.81-.41-.09-.71-.68-1.05-1.04,0,0,.1-.13,.15-.2l-.23-.02c-.77,.81-1.71,1.52-2.56,1.43-5.86-.61-11.49,.34-17.02,2.2-3.61,1.21-7.34,2.11-10.83,3.59-4.63,1.97-9.28,4.04-13.56,6.66-4.38,2.68-8.43,5.96-12.43,9.21-3.14,2.55-6.45,5.1-8.86,8.27-3.4,4.47-6.16,9.46-8.98,14.35-1.56,2.7-2.73,5.63-3.97,8.5-1.12,2.6-2.09,5.28-3.15,7.91-.7,1.74-1.45,3.46-2.17,5.2Zm82.46,248.66c.54-1.17,.93-2.11,1.39-3.01,1.67-3.32,3.79-6.49,4.93-9.98,1.38-4.25,1.97-8.76,2.84-13.16,.22-1.1,2.23-1.73,.8-3.27-1.01-1.08-1.81-2.41-2.93-3.34-.83-.69-2.04-.91-3.18-1.38,.44,2.58-1.05,5.46,2.1,6.85,.09,.04,.13,.29,.12,.43-.19,3.14,.19,6.47-.75,9.38-1.18,3.63-3.18,7.09-5.32,10.29-1.65,2.47-1.79,4.53,0,7.19Z"/><path class="cls-1" d="M275.83,311.69l.22,.12c.15,.69,.31,1.39,.35,1.59,1.06,.69,1.82,1.19,2.57,1.69h-3.6c-.31,1.03-.61,2.05-1.01,3.39,.75,.08,1.5,.06,2.19,.25,.69,.2,1.52,.44,1.95,.95,3.16,3.67,3.96,7.82,1.95,12.29-1.1,2.46-2.41,4.84-3.8,7.15-2.6,4.36-6.18,7.87-10.75,10-1.88,.88-4.43,.89-6.55,.55-2.68-.43-6.21,.81-7.34,3.2,1.1,.61,2.18,1.22,3.27,1.83l.1-.07c-1.18,.16-2.35,.37-3.53,.48-1.64,.15-3.28,.22-5.12,.33,.41,1.27,.7,2.16,1.11,3.44-1.72,.44-3.36,.85-4.89,1.24,0,2.64,.07,5.45-.05,8.24-.03,.74-.64,1.47-.97,2.2-1.61,3.49-3.25,6.97-4.8,10.48-1.36,3.09-2.72,6.18-3.9,9.34-1.72,4.61-3.88,9.17-4.72,13.94-.64,3.62-3.1,5.28-5.12,7.46-4.11,4.41-9.48,6.96-15.07,8.83-3.19,1.07-6.57,3.08-10,1.59-3.23-1.4-5.13,.84-7.22,2.05-5.88,3.4-9.75,8.98-14.17,13.96-1.42,1.6-3.29,2.79-4.91,4.23-2.7,2.4-5.66,4.6-7.98,7.33-4.06,4.76-9.33,7.96-14.48,11.06-5.17,3.11-11.31,4.25-17.36,4.95-5.02,.58-10.06,1.02-15.11,1.25-3.15,.14-6.38-.62-9.48-.24-3.15,.38-5.75-.87-8.6-1.45-1.94-.4-4.14,.37-6.06-.09-3.25-.78-6.37-2.11-9.55-3.2-2.37-.81-4.84-1.4-7.09-2.45-3.57-1.67-7-3.62-10.46-5.52-2.39-1.31-4.88-2.53-7.04-4.17-3.03-2.31-5.86-4.9-8.64-7.51-4.93-4.65-8.88-10.13-12.19-15.99-3.56-6.31-7.21-12.62-7.78-20.19-.26-3.52-1.47-6.95-1.94-10.47-.28-2.06,.06-4.19,.12-6.29,0,0-.05,.06-.05,.06,.71,.38,1.84,.6,2.05,1.17,.68,1.84,.96,3.82,1.49,5.72,1.5,5.3,2.93,10.62,4.64,15.85,1.14,3.48,2.73,6.8,4.07,10.22,1.9,4.85,3.96,9.63,7.53,13.54,2.09,2.29,4.27,4.5,6.52,6.64,1.52,1.45,3.13,2.83,4.86,4.01,2.91,1.99,5.87,3.96,8.96,5.65,3.47,1.9,7.06,3.6,10.71,5.13,1.8,.76,3.88,.83,5.78,1.39,4.61,1.36,9.15,3.02,13.81,4.16,2.92,.71,6.01,.87,9.04,.95,2.78,.08,5.58-.3,8.37-.44,4.44-.21,8.89-.43,13.34-.56,5.4-.15,10.52-1.4,15.44-3.57,.97-.42,2.04-.63,2.95-1.14,2.52-1.42,5.02-2.89,7.45-4.47,1.16-.75,2.13-1.79,3.18-2.71,5.02-4.39,10.19-8.61,15.01-13.22,3.94-3.77,7.33-8.12,11.23-11.95,1.92-1.88,4.39-3.21,6.7-4.66,.85-.54,1.92-.85,2.93-1,2.32-.34,4.82-.1,6.98-.85,5.89-2.05,11.78-4.21,17.41-6.88,3.19-1.51,5.86-4,6.76-7.93,.99-4.37,2.19-8.71,3.66-12.94,1.06-3.07,2.73-5.93,4.11-8.88,1.21-2.58,2.3-5.22,3.61-7.75,1.35-2.61,2.93-5.1,4.36-7.67,.2-.35,.23-.88,.16-1.29-.71-4.04-1.55-8.07-2.15-12.12-.59-3.99-.94-8-.1-12.03,.11-.51-.37-1.29-.8-1.74-1.13-1.17-2.59-2.07-3.55-3.36-4.48-6.02-9.31-11.7-12.28-18.85-1.77-4.26-3.24-8.53-4.56-12.91-.26-.87-.74-1.93-1.44-2.37-1.73-1.1-3.64-1.94-5.52-2.79-4.02-1.82-7.99-3.78-12.12-5.29-1.65-.6-4.23-.95-5.44-.09-5.03,3.56-9.69,7.64-14.51,11.5-1.98,1.58-4.02,3.1-6.03,4.64-.24-.16-.47-.31-.71-.47,.49-2.99,.99-5.99,1.48-8.98-.28-.1-.56-.19-.83-.29-.99,1.16-1.98,2.31-3.2,3.74-4.07-2.32-.84-7.62-4.02-10.39-.34,.2-.7,.45-1.08,.64-2.33,1.13-4.25,1.43-6.21-1.1-2.53-3.27-5.15-6.59-9.05-8.49-1.43-.7-2.94-1.4-4.12-2.44-4.09-3.62-9.21-5.28-14.06-7.34-3.27-1.39-6.45-3.25-10.41-2.72-2.12,.29-4.44-1.1-6.59-.88-7.9,.8-15.76,1.93-23.63,3.01-2.3,.31-4.66,.6-6.82,1.37-4.16,1.48-8.3,3.12-12.27,5.04-3.67,1.77-7.54,3.51-10.59,6.12-7.9,6.75-14.54,14.68-18.81,24.25-3.02,6.76-5.68,13.7-8.15,20.68-1.65,4.65-2.68,9.52-3.99,14.3-.44-.17-.89-.35-1.33-.52,.81-3.52,1.33-7.13,2.47-10.53,2.36-7.01,5.42-13.81,7.49-20.9,1.71-5.85,5.16-10.66,8.37-15.49,2.98-4.5,7.22-8.25,11.3-11.89,3.31-2.96,6.87-6.16,10.92-7.69,7.06-2.67,13.95-6.25,21.76-6.67,1-.05,1.95-.77,2.96-.94,4.94-.83,9.9-1.59,14.86-2.32,.44-.06,.93,.28,1.85-.07-.61-.12-1.22-.24-1.83-.36,.16-.17,.32-.33,.48-.5,1.7,0,3.45-.27,5.08,.05,4.4,.88,8.83,1.78,13.1,3.13,3.39,1.08,6.57,2.84,9.84,4.31,2.4,1.08,4.88,2.01,7.17,3.29,3.43,1.92,7.01,3.6,9.74,6.67,2.14,2.4,4.74,4.39,6.97,6.42,2.03-.04,5.06-.99,6.61,.12,1.63,1.17,1.84,4.31,2.74,6.78,1.36-.37,2.68-3.07,4.55-1.19,2.04,2.04,.26,4.55,.17,6.99,.55,0,1.23,.21,1.5-.03,1.75-1.59,3.21-3.6,5.16-4.88,3.49-2.29,6.39-5.29,10.04-7.48,2.06-1.23,3.49-.71,5.07-.63,2.14,.11,4.34,.77,6.34,1.6,5.02,2.09,9.98,4.33,14.86,6.71,.99,.48,1.77,1.75,2.25,2.83,2.37,5.25,4.53,10.6,6.95,15.83,.79,1.71,2.13,3.16,3.69,4.68-.29-1.11-.58-2.22-.87-3.32,.14-.07,.27-.13,.41-.2,.92,1.67,1.75,3.4,2.76,5.01,2.54,4.06,5.02,8.16,7.82,12.04,.97,1.35,1.82,2.24,.77,3.86-.29,.44-.13,1.17-.19,1.83,2.43,.61,4.14,.09,5.6-1.93,.69-.95,2.15-1.34,3.26-1.99,2.02-.41,4.04-.83,6.32-1.29,.74-1.92,1.35-4.53,2.68-6.71,1.53-2.52,3.56-4.8,5.61-6.94,2.64-2.75,3.12-4.09,1.46-7.69-3.37,3.74-6.79,7.05-9.63,10.81-2.49,3.31-4.33,7.11-6.46,10.69,.57-2.03,.87-4.19,1.77-6.06,1.12-2.29,2.79-4.3,4.14-6.49,2.59-4.19,6.05-7.64,10.11-10.21,1.93-1.22,1.39-2.9,2.08-4.26,1.48-2.9,2.21-6.16,3.49-9.17,.51-1.2,1.67-2.12,2.62-3.28-1.7-1.12-2.72-2.87-1.71-4.91,1.4-2.82,3.59-3.36,7.11-1.43,1.62,.89,3.41,2.49,2.4,5.2-.44-.24-.79-.34-1.02-.56-.54-.51-1.3-1.61-1.48-1.52-1.13,.58-3.22-.86-3.44,1.91-.12,1.52-1.38,3.01-2.32,4.38-1.22,1.79-1.6,3.88-2.46,5.78-2.58,5.71-2.38,11.65-1.72,17.63,.12,1.14,1.16,2.17,1.68,3.29,.24,.51,.23,1.14,.29,1.43,2.42-1.32,3.39,1.66,5.21,1.85q.79-1.77-.59-2.71c-4.25-2.91-4.92-6.23-3.06-12.64,.48-1.64,1.48-3.13,2.24-4.69Zm-18.81,27.12c5.34,1.05,6.56,4.46,6.91,8.56,.25,.08,.5,.16,.75,.24,3.96-4.29,7.93-8.58,12.18-13.18-6.73-1.13-8.05-5.99-9.37-11.41-3.45,5.2-6.89,10.39-10.48,15.79Zm4.45,9.03c.77-4.13,.17-6.02-3.38-7.05-2.49-.72-4.99,.52-7.25,2.08-2.72,1.87-5.17,5.16-9.62,2.22,.17,2.6,.34,4.52,.4,6.46,.06,2.01,.01,4.03,.01,6.36,1.36-.24,2.64-.46,3.91-.68-.22-.87-.45-1.74-.78-3.07,1.46-.11,2.93-.21,4.38-.32-.9-6.92,4.12-9.35,12.32-6Zm16.72-21.09c.15-2.44-1.05-3.87-3.05-4.76-.3-.13-.78-.18-1.01-.03-.23,.15-.44,.75-.32,.92,1.12,1.57,1.66,3.83,4.38,3.87Z"/><path class="cls-1" d="M28.52,346.12c.44,.17,.89,.35,1.33,.52-.4,3.76-.8,7.51-1.26,11.74,5.4-1.45,9.67-4.59,15.14-3.65,5.45,.94,8.85,4.59,12.79,7.98,.17-.65,.46-1.23,.47-1.82,.1-4.02,.37-8.05,.14-12.05-.36-6.42,1.84-12.25,3.81-18.13,.28-.84,1.61-1.33,2.46-1.97-.81,2.83-1.56,5.67-2.42,8.48-1.49,4.87-1.87,9.84-1.72,14.92,.07,2.42-.78,4.84-.9,7.28-.13,2.59-.21,5.26,.26,7.78,.72,3.87,2.58,7.61,2.77,11.47,.27,5.31-.51,10.69-.94,16.03-.21,2.68-.22,5.14,1.58,7.49,1.92,2.49,3.25,5.42,5.09,7.98,1.99,2.76,4.16,5.43,6.47,7.93,1.71,1.85,3.95,3.2,5.64,5.07,3.25,3.6,7.61,5.28,11.83,7.12,2.45,1.07,5.55,.9,7.73,2.28,3.72,2.35,7.74,1.5,11.49,1.61,3.65,.1,7.52,.37,11.27-1.15,4.53-1.84,9.35-3,14.09-4.3,6.99-1.92,11.02-7.33,14.86-12.77,3.06-4.32,5.47-9.08,7.35-14.08,1.18-3.14,3.08-6.1,3.75-9.33,1-4.84,1.31-9.83,1.72-14.78,.53-6.36,1.08-12.73,1.2-19.11,.06-3.22-.74-6.47-1.29-9.68-.26-1.51-.78-2.97-1.25-4.44-1.15-3.56-1.89-7.35-3.65-10.58-1.93-3.56-3.29-7.34-5.86-10.72-5.13-6.75-9.42-14.13-17.95-17.16-4.65-1.66-9.3-3.66-14.12-4.44-5.98-.97-12.14-1.31-18.17,.3-4.02,1.08-8.33,1.53-12.02,3.3-6.03,2.89-12.15,5.67-17.09,10.59-3.38,3.37-6.38,6.76-8.13,11.22-.27,.7-1.1,1.18-1.68,1.76-1.34-.55-1.06-1.34-.39-2.26,1.07-1.46,2.35-2.83,3.08-4.45,1.97-4.38,5.51-7.32,9.05-10.23,1.31-1.08,3.96-1.22,4.48-2.44,.9-2.08,2.88-2.53,4.17-3.15,4.26-2.06,8.92-3.28,13.39-4.93,9.49-3.51,19.09-2.98,28.67-.62,2.96,.73,5.69,2.52,8.66,3.08,3.07,.58,5.15,2.76,7.91,3.8,3.34,1.25,5.17,4.36,7.28,7.11,3.84,5.02,7.82,9.92,10.18,15.89,1.14,2.88,2.48,5.69,3.63,8.57,.84,2.1,1.48,4.28,2.24,6.42,.69,1.93,1.7,3.79,2.08,5.77,.5,2.59,.52,5.27,.76,7.91,.15,1.63-.28,4.05,.62,4.73,1.87,1.43,1.4,3.1,1.5,4.72,.17,3.01,.21,6.03,.09,9.04-.12,3.03-.14,6.14-.85,9.05-1.72,7.08-3.75,14.1-5.78,21.1-.88,3.03-2.06,5.97-3.1,8.95-.31-.1-.63-.2-.94-.3,.15-.91,.31-1.82,.54-3.2-.9,.82-1.61,1.25-2.01,1.87-3.61,5.65-9.03,9.47-13.92,13.81-1.2,1.06-2.6,2.12-4.1,2.57-3.79,1.15-7.65,2.13-11.54,2.83-3.5,.62-6.88,1.71-10.39,2.35-3.82,.7-7.37-.02-11.03-.06-2.29-.03-4.57-.43-6.85-.63-1.76-.15-3.63,.1-5.25-.43-2.45-.8-4.79-2.03-7.08-3.25-6.22-3.33-11.92-7.29-16.81-12.54-5.99-6.42-10-14-13.91-21.69-.15-.29-.23-.66-.2-.98,.45-4.94,.89-9.89,1.42-14.83,.53-4.93-.25-9.52-2.95-13.76-.53-.83-.64-1.93-.8-2.45-1.26-1.42-2.34-2.7-3.49-3.91-.89-.94-1.74-2.33-2.82-2.58-5.04-1.18-10.04-2.4-15.28-.21-3.45,1.44-6.24,3.08-7.09,6.94-.2,.92-.12,1.95-.48,2.79-2.07,4.87-1.1,9.9,1.24,13.9,1.44,2.45,1.64,4.12,1.07,6.43l.05-.06c-.25-.03-.67,.01-.72-.1-1.7-4.14-3.94-8.18-4.87-12.49-1.14-5.24-.76-10.54,3.01-15.15,.99-1.21,.74-3.44,1.03-5.21,.57-3.46,1.12-6.92,1.69-10.38Z"/><path class="cls-1" d="M268.17,353.62c-1.99,2.96-4.67,4.11-8.03,3.46-1.3-.25-2.65-.35-3.88-.79-.43-.15-.59-1.09-.87-1.67,0,0-.1,.07-.1,.07,3.19,1.09,6.39,1.71,9.62,.15,1.11-.54,2.18-1.14,3.27-1.71,0,.16,0,.32-.01,.49Z"/><path class="cls-1" d="M280.45,339.62c-1.8,3.12-2.83,6.81-6.43,8.56,0,0,.06,.09,.06,.09,1.44-2.5,2.83-5.04,4.37-7.48,.43-.67,1.33-1.05,2.02-1.56,0,.13-.01,.26-.02,.39Z"/><path class="cls-1" d="M280.45,339.62c0-.13,.01-.26,.02-.39,.12-.75,.05-1.59,.39-2.21,.68-1.26,1.54-2.42,2.41-3.57,.62-.82,1.37-1.54,2.07-2.31l-.09-.08c-.09,.72,.04,1.58-.32,2.13-1.41,2.2-2.97,4.3-4.48,6.43Z"/><path class="cls-1" d="M268.17,353.62c0-.16,0-.32,.01-.49,1.97-1.62,3.94-3.24,5.91-4.86,0,0-.06-.09-.06-.09-1.09,2.74-3.21,4.37-5.85,5.44Z"/><path class="cls-1" d="M228.68,89.72c0,2.05,.19,3.36-.03,4.6-.96,5.31-7.21,9.59-12.71,9.15-2.65-.21-4.88-.87-7.15-2.35-4.55-2.96-5.54-9.62-1.74-13.86,2.22-2.48,4.7-4.38,7.87-5.8,4.57-2.05,9.86-.88,12.06,4.45,.62,1.5,1.32,2.97,1.69,3.82Zm-21.21,3.4c.68,1.68,.94,3.82,2.14,5.02,3.89,3.86,11.92,3.13,15.14-1.81,2.22-3.41,3.07-5.74-1-10.87-3.07-3.87-7.31-3.17-10.43-1.11-.67,.45-.93,1.8-1.58,1.97-3.6,.94-3.42,3.91-4.28,6.8Z"/><path class="cls-1" d="M179.66,116.26c-1.37,2.42-2.69,4.86-4.12,7.24-.62,1.03-1.71,1.83-2.14,2.92-1.08,2.75-3.7,4.44-4.49,7.47-.69,2.67-2.58,5.01-3.47,7.65-1.54,4.56-2.87,9.2-4.03,13.87-1.29,5.19-2.04,10.45-1.24,15.85,.59,3.98,.57,8.06,1.35,11.99,.6,3.02,1.82,5.96,3.13,8.77,2.23,4.75,4.74,9.37,6.98,14.28-1.1-1.23-2.32-2.37-3.27-3.7-5.35-7.51-7.93-16.24-10.29-24.95-.9-3.32-.29-7.1-.13-10.65,.26-5.77,1.16-11.45,2.88-17,.88-2.83,2.24-5.54,3.13-8.22,1.16-3.51,2.84-6.76,4.27-10.08,1.32-3.07,3.61-5.76,5.66-8.47,1.82-2.4,3.89-4.6,5.86-6.89l-.08-.08Z"/><path class="cls-1" d="M277.03,261.52c.08,.57,.16,1.15,.24,1.72-4.53,.77-8.44-.6-11.44-3.56-3.12-3.09-3.41-7.38-2.58-11.48,.93-4.63,3.73-8.71,9.22-9.34,3.22-.37,6.14,2.08,6.17,5.89-.86-1.08-1.37-2.04-2.15-2.67-3.32-2.66-6.98-1.46-8.8,2.48-.98,2.13-1.66,3.97-1.34,6.48,.81,6.25,2.49,8.09,8.63,8.11,.75,0,1.51,0,2.26,0,.05,.22,.11,.44,.16,.67-1.7,.49-3.41,.98-5.11,1.47-.02,.08-.04,.16-.06,.24h4.8Z"/><path class="cls-1" d="M287.28,247.77c-1.31,.8-2.55,1.72-3.93,2.38-2.4,1.15-5.31,1.21-6.77,4.18-.94,1.91-3.39,1.62-4.98-.23-2.33-2.72-1.59-6.33,1.5-7.06,.62-.15,1.36,.34,2.02,.27,2.71-.28,5.4-.74,8.11-.97,1.23-.11,2.49,.17,3.74,.28,.1,.39,.2,.77,.3,1.16Z"/><path class="cls-1" d="M241.72,246.7c-.61,3.34-2.51,5.13-5.71,4.45-.97-.21-2.11-1.89-2.27-3.02-.15-1.07,.69-3.15,1.42-3.32,2.44-.55,4.85,.09,6.56,1.89Z"/><path class="cls-1" d="M265.07,231.04c-.33,.88-.61,1.78-1.01,2.63-1.48,3.13-3.3,6.14-4.43,9.39-1.7,4.89-.72,9.81,.98,14.79-2.42-2.78-3.65-8.27-3.2-11.62,.8-5.96,3.68-10.89,7.05-15.65,.2,.15,.4,.31,.61,.46Z"/><path class="cls-1" d="M162.59,130.59c-1.61,4.54-3.59,8.99-4.71,13.64-1.1,4.55-1.31,9.31-1.94,14.18-1.79-5.98,1.69-23.3,6.65-27.83Z"/><path class="cls-1" d="M243.83,260.77c.29,2.36-1.1,3.78-3,4-1.46,.17-3.04-.77-4.63-1.24,1.99-5.05,3.76-5.53,7.63-2.76Z"/><path class="cls-1" d="M265.07,231.04c-.2-.15-.4-.31-.61-.46,3.06-3.31,6.12-6.62,9.17-9.92,.28,.26,.56,.52,.83,.78-3.13,3.2-6.27,6.4-9.4,9.61Z"/><path class="cls-1" d="M277.03,261.53c1.54-.6,3.07-1.21,4.8-1.88,.17,2.11-1.91,2.16-3.07,2.91-.25,.16-1.14-.66-1.73-1.04,0,0,0,0,0,0Z"/><path class="cls-1" d="M179.75,116.34c1.67-1.8,3.33-3.6,5-5.4,.21,.2,.42,.4,.63,.61-1.59,1.74-3.18,3.48-4.81,5.18-.07,.07-.59-.29-.9-.46,0,0,.08,.08,.08,.08Z"/><path class="cls-1" d="M325,52.68c-13.63-14.7-30.36-20.05-50.2-16.8,.49-.39,.96-1.08,1.49-1.14,4.73-.49,9.48-1.28,14.22-1.2,7.16,.12,13.79,2.88,20.09,5.95,3.76,1.83,6.88,4.98,10.28,7.54,1.3,.98,2.65,1.92,3.82,3.04,.47,.45,.52,1.34,.76,2.03-.15,.19-.3,.38-.45,.57Z"/><path class="cls-1" d="M325,52.68c.15-.19,.3-.38,.45-.57,1.34,1.22,3,2.23,3.95,3.71,1.44,2.26,2.39,4.83,3.2,7.48-2.53-3.54-5.07-7.08-7.6-10.62Z"/><path class="cls-1" d="M203.84,388.22c-4.43,4.46-9.26,5.76-11.46,3.33-2.12-2.34-1.3-7.91,1.55-10.01,3.56-2.63,6.88-2.14,9.66,2.48,2.65-3.09,5.4-6.24,10.01-4.08,1.2,.57,2,1.99,3.28,3.32v-4.96c2.14-.37,4.86-.85,7.25-1.26,.42,4.22,.78,7.77,1.12,11.32,.07,.77-.13,1.66,.19,2.3,1.45,2.87-1.12,2.78-2.47,3.22-2.1,.68-4.47-.64-4.78-2.46-.41-2.41-.67-4.85-1.21-7.38,0,3.79-2,6.46-5.28,7.33-2.88,.76-6.29,.87-7.86-3.17Zm-10.87-.92c.02,1.78,1.81,3.88,3.27,3.85,2.52-.06,6.09-2.76,6.06-4.58-.04-2.09-2.14-4.99-3.54-4.89-3.01,.2-5.81,2.93-5.78,5.62Zm18.13-7.06c-1.99,1.33-3.46,2.11-4.67,3.19-1.15,1.02-1.32,2.63-1.53,4.1-.04,.27,.43,.68,.75,.91,3.02,2.26,4.12,2.25,7.47-.1,1.4-.98,2.29-2.47,1.53-3.99-.74-1.48-2.19-2.6-3.54-4.12Z"/><path class="cls-1" d="M95.42,293.59c-1.97,.36-3.95,.71-5.92,1.07-5.27,.97-9.59,3.89-13.43,7.3-4.02,3.58-7.84,7.5-11.15,11.73-2.82,3.61-4.99,7.79-7.1,11.89-1.83,3.56-3.24,7.35-4.71,11.09-.72,1.83-1.15,3.77-1.71,5.66-.72,2.43-1.44,4.86-2.75,7.29-.18-.42-.57-.87-.5-1.25,.91-5.2,1.78-10.4,2.9-15.55,.38-1.73,1.32-3.38,2.2-4.94,1.38-2.43,2.94-4.76,4.41-7.14,1.69-2.74,3.1-5.69,5.11-8.17,3.58-4.42,7.19-8.91,11.38-12.71,5.05-4.58,11.35-7.03,18.2-7.74,1-.1,2.05,.3,3.07,.47,0,.33-.01,.66-.02,.99Z"/><path class="cls-1" d="M30.22,372.09c-.05-4.23,.47-4.77,4.56-5.76,.94-.23,1.6-1.55,2.55-1.83,6.66-2,12.82-1.83,15.32,7.05,1.44,5.13,.27,9.46-3.64,12.19-2.52,1.76-6.53,2.37-9.66,1.95-2.16-.29-4.35-2.96-5.83-5.06-1.73-2.46-2.71-5.45-4.02-8.22,.24-.11,.48-.22,.72-.33Zm11.91,10.68c5.09,.43,8.33-4.36,8.22-8.09-.16-5.47-3.4-9.05-7.62-9.14-4.94-.1-10.76,4.69-10.54,8.53,.22,3.65,6.01,8.72,9.94,8.7Z"/><path class="cls-1" d="M205.19,335.57c.45,.96,1.01,1.87,1.32,2.87,.62,2.02,1.08,4.09,1.65,6.12,.1,.37,.28,.87,.58,1.02,2.08,1.05,2.66,2.57,1.74,4.73-.95,2.21-2.72,3.29-4.97,3.56-1.07,.13-2.26,0-3.29-.34-2.67-.89-3.41-3.36-1.53-5.43,2.15-2.37,3.09-4.92,2.71-8.15-.16-1.39,.52-2.87,.82-4.32,.32-.02,.65-.04,.97-.07Z"/><path class="cls-1" d="M213.79,345.99c-1.4-1.18-2.62-2.21-3.84-3.24,1.13-.28,2.34-.99,3.01-.65,1.09,.57,2.5,1.77,2.58,2.8,.66,8.44-3.28,15.44-13.64,14.44-4.28-.41-6.83-3.1-7.23-7.31-.25-2.65,1.96-6.74,5.27-8.92-.85,1.99-1.23,3.51-2.07,4.7-1.9,2.71-1.06,4.99,.83,7.13,1.45,1.63,5.48,1.91,8,1.13,5.11-1.58,6.59-5.53,7.09-10.1Z"/><path class="cls-1" d="M178.35,338.95c.62,1.48,1.44,2.91,1.83,4.44,.65,2.56,.75,5.29,1.62,7.76,.91,2.61,2.36,5.05,3.74,7.47,1.14,2,2.5,3.89,3.83,5.78,.51,.72,1.1,1.44,1.81,1.94,1.84,1.29,3.77,2.46,5.66,3.67-.15,.32-.31,.64-.46,.97-1.29-.56-2.89-.8-3.82-1.73-3.05-3.06-7.02-5.28-8.71-9.62-1.11-2.86-2.89-5.49-3.75-8.41-1.12-3.75-1.62-7.69-2.39-11.55,.21-.24,.43-.48,.64-.72Z"/><path class="cls-1" d="M106.57,442.07c1.54-.36,3.15-1.18,4.62-.99,4.19,.56,8.25-.18,12.25-.95,5.5-1.07,10.89-2.72,16.31-4.17,.61-.17,1.13-.71,2.35-1.52-.94,2.7-3.14,3.36-4.68,3.83-5.13,1.55-10.38,2.78-15.65,3.79-2.81,.54-5.75,.44-8.63,.51-2.08,.05-4.16-.11-6.24-.17-.12-.1-.23-.21-.32-.32Z"/><path class="cls-1" d="M106.57,442.07c.1,.12,.21,.23,.32,.32-.45,.22-.89,.64-1.34,.64-6.1-.05-11.93-1.6-17.71-3.36-.82-.25-1.52-.88-2.02-1.89,1.36,.34,2.74,.62,4.07,1.03,3.16,.96,6.26,2.11,9.46,2.92,1.19,.3,2.57-.26,3.85-.22,1.13,.03,2.24,.36,3.36,.56Z"/><path class="cls-1" d="M68.73,297.32c-.21-2.11,2.91-5.57,5.38-6.15,.62-.15,1.18-.72,1.69-1.18,2.35-2.14,5.16-3.24,8.1-4.04,.14,.23,.27,.46,.41,.69-.56,.34-1.08,.8-1.69,1-5.37,1.77-9.26,5.79-13.71,8.95-.15,.11-.12,.45-.18,.69v.04Z"/><path class="cls-1" d="M194.39,403.98c1.44,1.61,2.25,2.51,3.05,3.42-1.06,.8-2.04,1.76-3.22,2.29-.27,.12-1.75-1.26-1.7-1.88,.08-1.05,.93-2.04,1.86-3.83Z"/><path class="cls-1" d="M178.35,338.95c-.21,.24-.43,.48-.64,.72-.3-3.64-.62-7.28-.88-10.93-.02-.24,.44-.51,.67-.76l-.09,.05c.24,0,.7,0,.7,.02,.1,3.64,.17,7.27,.24,10.91Z"/><path class="cls-1" d="M68.73,297.28c-2.57,2.19-5.14,4.38-7.7,6.58-.16-.17-.32-.35-.48-.52,2.1-2.19,4.16-4.43,6.35-6.53,.23-.22,1.2,.32,1.82,.51,0,0,0-.03,0-.03Z"/><path class="cls-1" d="M148.25,432.27c-1.75,1.18-3.49,2.35-5.24,3.53-.2-.34-.39-.68-.59-1.03,1.86-1.02,2.9-3.71,5.89-2.45l-.06-.05Z"/><path class="cls-1" d="M177.51,327.98c-1.81-1.66-.2-3.48-.21-5.22,0-.47,.43-.94,1.23-1.33-.37,2.19-.73,4.39-1.11,6.59,0,0,.08-.04,.08-.04Z"/><path class="cls-1" d="M148.32,432.32c.1-.53,.01-1.34,.32-1.53,1.27-.79,2.66-1.39,4.01-2.06,.14,.19,.28,.39,.42,.58-1.61,.98-3.21,1.97-4.82,2.95,0,0,.06,.05,.06,.05Z"/><path class="cls-1" d="M221.53,89.32c-2.43-.7-4.82-1.87-6.93,.2-2.11,2.08,.64,3.82,.32,5.8-2.37,.16-3.6-1.51-3.81-3.6-.21-2.16,1.1-3.54,3.34-4.3,3.97-1.35,5.52-1.12,7.08,1.9Z"/><path class="cls-1" d="M207.9,386.06c1.88,.08,3.7,.66,4.35-2.03,.13,.73,.5,2.04,.37,2.1-1.42,.57-2.88,2.21-4.71-.07Z"/><path class="cls-1" d="M45.66,371.67c-6.42-1.99-8.15,.44-8.94,4.7-.2-1.25-.86-2.67-.5-3.73,.73-2.12,2.45-3.51,4.84-3.61,1.84-.08,3.56,.27,4.6,2.64Z"/></g></svg>