<?xml version="1.0" encoding="UTF-8"?><svg id="Layer_1" xmlns="http://www.w3.org/2000/svg" viewBox="0 0 343.53 475.91"><defs><style>.cls-1{fill:#323aa4;}.cls-2{fill:#c1e4fc;}</style></defs><path class="cls-2" d="M243.7,302.64l-2.43-3.87,1.21-2.55,6.32-5.2v-4.09s122.3-79.39,25.92-212.24c0,0-70.67-73.64-174.16-17.97,0,0-99.73,74.31-36.03,183.24,0,0,76.18,97.56,156.91,58.27l.9,4.42,4.09,1.49,7.15-3.23s3.66,2.64,3.74,3.4,6.38-1.66,6.38-1.66Z"/><path class="cls-2" d="M143.7,38.48s-8.34-5.88-13.28-3.2c-4.94,2.68-25.21,14.81-25.21,14.81l-1.29,4.86,3.29,2.94,36.49-19.41Z"/><g><path class="cls-1" d="M131.03,462.23c-.23,.56-.43,1.04-.42,1.01-4.22-1.07-8.38-2.07-12.52-3.17-3.07-.82-6.18-1.59-9.16-2.69-4.64-1.7-9.38-3.31-13.74-5.6-6.43-3.37-13.2-6.17-18.81-11.04-1.86-1.61-4.6-2.17-6.62-3.64-1.98-1.44-3.58-3.41-5.29-5.2-.7-.73-1.25-1.61-1.54-2.87,1.01,.75,2.02,1.51,3.01,2.24,.11-2.27,.32-4.44,.29-6.61-.07-5.16,1.8-9.78,3.59-14.47,1.09-2.86,1.85-5.87,2.42-8.88,.66-3.51,2.57-6.17,4.86-8.72,1.58-1.76,2.91-3.75,4.55-5.44,1.41-1.44,3-2.77,4.71-3.84,3.55-2.22,6.8-4.63,8.51-8.66,.18-.42,1.07-.51,1.58-.83,.65-.41,1.85-1.09,1.78-1.33-.68-2.18,1.38-3.4,1.63-5.16,.55-3.95,1.31-7.92,1.27-11.87-.03-3.28,.03-6.59-.12-9.89-.37-8.34-3.66-15.83-5.79-23.65-.71-2.6-2.9-4.75-3.98-7.29-1.18-2.81-2.37-5.68-4.57-7.68-2.08-1.89-4.84-3.02-7.24-4.59-2.33-1.53-4.69-3.06-6.83-4.84-5.4-4.51-10.82-9-15.94-13.82-2.3-2.17-3.84-5.12-5.84-7.63-1.68-2.1-3.62-4-5.26-6.13-1.71-2.22-3.29-4.56-4.75-6.96-1.95-3.22-3.74-6.53-5.53-9.84-.49-.89-.69-1.94-1.12-2.87-2.67-5.82-5.56-11.55-8-17.47-1.89-4.59-3.47-9.34-4.71-14.15-1.29-4.99-2.25-10.11-2.89-15.23-.95-7.65-1.46-15.35-2.22-23.02-.41-4.11-1.22-8.2-1.33-12.31-.13-4.86,.16-9.75,.51-14.6,.4-5.56,.88-11.14,1.68-16.66,.53-3.66,1.75-7.21,2.54-10.83,.47-2.14,.61-4.35,1.07-6.49,.71-3.35,1.55-6.67,2.41-9.98,.06-.23,.7-.3,.39-.63,.47-1.93,.66-3.97,1.46-5.75,2.49-5.59,5.15-11.11,7.88-16.59,1.03-2.06,2.46-3.92,3.67-5.9,1.68-2.75,3.26-5.57,5-8.28,1.38-2.15,3.21-4.06,4.36-6.32,1.72-3.4,4.69-5.69,6.95-8.6,2.08-2.68,4.69-4.95,7-7.46,3.18-3.46,6.23-7.05,9.48-10.45,2.1-2.19,4.42-4.2,6.73-6.17,3.08-2.63,6.19-5.24,9.43-7.67,1.92-1.44,4.18-2.41,6.17-3.77,4.21-2.89,9.26-4.21,13.24-7.76,2.36-2.11,6.15-2.67,9.36-3.73,.48-.16,1.61,.59,1.94,1.19,2.28,4.26,4.46,8.57,6.6,12.9,.76,1.54,1.91,3.22,1.8,4.77-.09,1.25-1.8,2.38-2.78,3.57-.11,.14-.17,.32-.25,.48,2.24,3.53,3.34,3.84,7.07,1.8,3.9-2.13,7.51-2.52,11.23,.68,2.3,1.98,5.32,1.94,8.16,.93,4.47-1.59,9.04-2.45,13.8-2.58,2.67-.08,5.32-.9,7.98-.95,3.91-.08,7.83,.3,11.75,.36,2.37,.03,4.75-.27,7.12-.23,1.28,.02,2.55,.48,3.84,.71,4.05,.75,8.12,1.41,12.16,2.25,2.79,.58,5.54,1.38,8.3,2.1,1.18,.3,2.36,.61,3.53,.95,.43,.12,.93,.59,1.24,.47,3.32-1.31,5.05,2.05,7.75,2.58,1.32,.26,2.52,1.1,3.82,1.49,3.68,1.1,6.75,3.48,10.07,4.99,2.88,1.31,5.26,3.38,8.18,4.55,2.24,.9,4.14,2.62,6.21,3.96,1.74,1.13,3.57,2.13,5.23,3.36,2.07,1.54,3.85,3.54,6.05,4.85,3.88,2.32,6.21,6.2,9.57,9.06,2.64,2.24,5.16,4.85,7.13,7.95,1.93,3.05,4.84,5.48,7.09,8.35,1.73,2.21,3.14,4.67,4.62,7.06,1.28,2.07,2.58,4.13,3.65,6.31,1.63,3.33,3.08,6.76,4.6,10.14,1.27,2.81,2.98,5.53,3.62,8.48,.37,1.69,.77,3.18,1.49,4.77,1.5,3.35,2.63,6.88,3.72,10.39,.59,1.9,1.06,3.91,1.1,5.88,.09,5.13,2.17,10,1.54,15.29-.34,2.91,.25,6.11,1.17,8.93,.81,2.5-.4,4.68-.04,7.07,.62,4.06-1.34,8.07-.52,12.26,.28,1.42-1.01,3.08-1,4.63,.03,4.22-2.44,7.85-2.78,11.82-.41,4.87-2.91,8.96-3.84,13.48-.85,4.09-3.61,7.33-3.93,11.63-.15,2.05-2.36,3.91-3.54,5.92-3.31,5.6-6.54,11.24-9.9,16.82-.51,.85-1.66,1.32-2.23,2.15-.96,1.41-1.68,2.98-2.52,4.48-.31,.54-.54,1.28-1.02,1.55-3.75,2.14-5.94,5.59-8.44,8.96-2.1,2.81-5.48,4.66-8.24,6.99-1.62,1.37-3.09,2.91-4.7,4.29-1.39,1.19-2.82,2.36-4.36,3.33-1.84,1.16-3.84,2.05-5.72,3.14-.45,.26-1.08,1.05-.97,1.3,1.37,2.98-3.11,3.17-2.63,5.66-3.02-.13-3.11,3.58-5.54,4.23-.25,.07-.46,.29-.58,.38,.07,.38,.06,.58,.15,.72,1.24,1.99,2.08,3.78,5.12,1.56,1.79-1.3,3.22,1.41,4.25,3.01,1.47,2.28,2.22,4.94,3.38,7.37,.95,1.99,.53,4.91-.04,7.24-.25,1.04-2.28,1.82-3.64,2.39-3.71,1.55-7.41,3.19-11.26,4.29-5.2,1.49-10.54,2.5-15.82,3.75-1.21,.29-2.44,.58-3.56,1.09-4.19,1.89-8.36,3.81-12.49,5.83-3.57,1.74-7,3.79-10.62,5.4-5.88,2.62-10.94,6.45-15.92,10.39-4.58,3.62-8.96,7.49-13.4,11.29-5.91,5.05-11.82,10.1-17.67,15.21-1.45,1.26-2.69,2.75-4.64,4.77,3.47-.56,6.14-1.05,8.83-1.4,2.38-.31,4.78-.52,7.18-.68,6.88-.46,13.76-1.17,20.64-1.24,8.32-.08,16.65,.41,24.98,.63,3.27,.08,6.54,.11,9.8,.08,1.1,0,2.21-.46,3.29-.38,3.95,.33,7.98,.45,11.82,1.31,4.33,.97,8.49,2.72,12.75,4.03,4.52,1.39,9.31,2.16,13.55,4.13,6.92,3.22,14.13,6.07,19.97,11.31,1.77,1.59,3.87,2.79,5.74,4.27,.57,.46,.87,1.27,1.34,2,.23-.16,.52-.36,.8-.55,.97,2.5,4.73,5.76,6.59,5.72,1.5,3.7,3.4,7.27,4.35,11.09,.79,3.18,.97,6.52,.8,9.98-.22,4.28-2.58,7.35-4.64,10.12-2.49,3.33-6.61,5.52-10.24,7.88-3.16,2.06-6.6,3.69-9.93,5.5-.61,.33-1.21,.77-1.87,.95-5.05,1.37-10.07,2.9-15.19,3.97-6.45,1.36-12.97,2.35-19.46,3.49-5.28,.93-10.56,1.88-15.84,2.76-3.98,.66-7.97,1.26-11.97,1.8-1.19,.16-2.42,.01-3.63,0-2.69-.03-5.38-.1-8.07-.1-2.26,0-4.53,.12-6.79,.07-3.9-.08-7.82-.56-11.7-.29-3.73,.26-7.14-.75-10.68-1.39-3.41-.62-6.93-.65-10.38-1.07-1.66-.2-3.27-.82-4.92-1.05-3.91-.55-7.82-1.04-11.75-1.44-2.71-.28-5.45-.3-8.15-.6-.67-.08-1.26-.8-1.99-1.3Zm79.66-162.61c-4.1,.3-8.21,.78-12.32,.86-6.33,.12-12.69,.24-19-.16-4.93-.31-9.8-1.48-14.71-2.12-1.82-.24-3.69-.04-5.53-.04-.01,.25-.02,.51-.04,.76,3.65,.61,7.28,1.49,10.95,1.79,9.92,.81,19.86,1.61,29.8,1.92,3.53,.11,7.39-.11,10.46-2.62,.2,.15,.45,.48,.59,.43,4.58-1.29,9.17-2.55,13.7-3.99,1.07-.34,1.95-1.3,2.92-1.97-.16-.22-.33-.44-.49-.66-5.45,1.94-10.89,3.88-16.34,5.81Zm23.69,1.27c-1.54,1.11-2.98,2.41-4.63,3.3-3.44,1.86-5.09,1.42-8.06-1.41-.58-.55-1.7-.82-2.53-.75-3.96,.32-7.33,3.35-11.57,2.54-.38-.07-.86,.32-1.29,.51-.96,.41-2.05,1.35-2.87,1.16-3.24-.77-6.19,.68-9.3,.83-3.29,.16-6.55,.8-9.84,1-2.49,.15-5-.06-7.5-.1-3.99-.07-8.02,.13-11.98-.27-4.01-.4-8.01-1.24-11.94-2.16-5.16-1.2-10.52-2.1-15.33-4.18-5.53-2.4-11.41-3.96-16.67-7.06-4.13-2.43-8.55-4.37-12.66-6.83-4-2.39-7.79-5.13-11.62-7.8-1.41-.98-2.75-2.09-3.99-3.28-2.42-2.32-4.74-4.73-7.12-7.1-3.8-3.77-7.8-7.34-10.99-11.69-1.83-2.49-3.89-4.8-5.84-7.2-2.33-2.86-4.99-5.52-6.91-8.63-2.35-3.79-4.18-7.9-6.06-11.96-2.04-4.4-4.01-8.84-5.74-13.36-.99-2.58-1.44-5.36-2.18-8.04-.18-.63-.7-1.17-.83-1.8-.82-3.99-1.56-8-2.34-12-.43-2.22-1.14-4.42-1.31-6.67-.44-6.04-.69-12.09-.96-18.14-.15-3.45-.43-6.93-.18-10.36,.23-3.2,1.07-6.35,1.66-9.52,.83-4.47,1.67-8.94,2.52-13.4,.38-2,.6-4.06,1.23-5.97,.94-2.83,1.81-5.8,3.41-8.26,1.35-2.07,.31-4.99,3.03-6.61,1.07-.64,1.11-3.04,1.57-4.64,0-.02-.54-.19-.48-.17,.58-.98,1.16-1.85,1.61-2.77,.9-1.83,1.6-3.76,2.63-5.51,.86-1.46,2.17-2.65,3.12-4.06,3.48-5.18,6.75-10.52,10.41-15.58,2.14-2.95,4.79-5.55,7.36-8.17,2.08-2.11,4.35-4.04,6.58-6,.99-.88,2.16-1.56,3.12-2.47,3.36-3.14,6.67-6.35,10.01-9.51,.14-.13,.53,.01,.67-.12,.73-.65,2.14-1.57,2.01-1.99-1.11-3.54,1.37-4.83,3.6-6.42,2.55-1.81,5.01-3.73,7.51-5.61-1.34-1.65-2.41-2.97-3.43-4.22-4.04,3.35-9.41,4.49-13.39,8.15-4.08,3.75-8.81,6.79-13.08,10.35-2.65,2.21-4.98,4.81-7.43,7.26-3.86,3.86-7.95,7.53-11.46,11.69-2.79,3.32-4.78,7.31-7.25,10.91-5.22,7.6-9.11,15.77-11.55,24.69-1.37,5.02-3.5,9.86-4.6,14.93-1.5,6.91-3.57,13.73-3.54,20.94,.03,5.99-.39,11.99-.6,17.99-.06,1.63,0,3.26-.15,4.87-.16,1.81-.73,3.61-.69,5.4,.05,2.6,.25,5.24,.81,7.77,1.16,5.24,2.62,10.41,3.91,15.63,.19,.77,.24,1.62,.16,2.41-.07,.8-.76,1.73-.52,2.34,2.75,6.98,4.37,14.36,7.79,21.13,2.77,5.48,4.78,11.35,7.14,17.04,1.12,2.7,2.93,5,4.08,7.79,1.6,3.87,4.88,7.05,7.51,10.48,1.51,1.97,2.98,4.04,4.81,5.67,2.01,1.79,4.51,3.01,6.63,4.68,4.49,3.54,8.82,7.28,13.33,10.8,4.67,3.64,9.44,7.14,14.23,10.62,3.49,2.54,6.91,5.23,10.66,7.32,3.51,1.96,7.4,3.25,11.15,4.76,4.65,1.88,9.29,3.82,14.02,5.45,2.52,.87,5.28,1.07,7.88,1.75,4.05,1.06,8.02,2.49,12.11,3.36,4.21,.9,8.5,1.59,12.79,1.9,5.58,.4,11.2,.49,16.8,.42,3.51-.04,7.05-1.07,10.52-.85,3.9,.24,7.51-.73,11-1.86,6.94-2.26,13.66-5.18,20.54-7.64,2.07-.74,1.27-2.94,1-3.04-1.95-.71-.63-1.78-.51-2.7,.09-.4,.18-.79,.25-1.08,.79,1.23,1.3,2.94,2.35,3.41,1.17,.52,3.01,.27,4.27-.29,1.72-.77-.15-1.61-.38-2.42-.47-1.7-1.12-3.34,.74-4.76,1.27-.97,2.32-2.23,3.47-3.37-.22-.28-.45-.56-.67-.84-7.08,3.2-14.16,6.4-21.15,9.57,2.06,2.98,4.35,2.46,6.74,.76,.63-.45,1.28-1,2-1.15,.74-.16,1.57,.11,2.37,.19ZM78.97,226.53l-.06-.05c1.58,1.49,2.98,3.28,4.79,4.39,2.99,1.84,2.94,4.95,3.89,7.67l.05-.06c-.18,.65-.63,1.35-.51,1.94,.92,4.44,2.59,8.57,5.88,11.81,3.02,2.98,6.18,5.82,9.17,8.62-.37,.04-1.09,.12-2.17,.23,1.52,3.11,2.48,6.15,5.55,7.84,2.94,1.61,5.73,3.49,8.7,5.03,4.84,2.51,9.79,4.82,14.68,7.24,1.78,.88,3.74,.88,5.51,2.48,1.67,1.51,4.84,1.28,7.26,2.07,4.37,1.42,8.63,3.2,13.04,4.5,6.88,2.02,13.8,3.98,20.8,5.54,3.5,.79,7.21,.88,10.83,.88,4.6,0,9.21-.26,13.8-.69,4.63-.44,9.26-1.09,13.84-1.9,5.25-.93,10.45-2.12,15.66-3.24,1.41-.3,2.79-.76,4.13-1.13-.78-1.35-1.57-1.32-15.12,.86,.3-.53,.46-1.19,.74-1.26,1.29-.29,2.63-.36,3.94-.58,5.6-.97,11.18-1.99,16.79-2.91,.77-.13,1.6,.18,2.83,.34,.47-.18,1.52-.63,2.6-1,6.48-2.17,11-7.38,16.69-10.77,.07-.04,.11-.15,.17-.21,2.99-2.82,6.01-5.6,8.96-8.46,1.83-1.78,3.63-3.61,5.29-5.55,2.06-2.41,3.98-4.95,5.94-7.45,1.86-2.37,4.33-4.53,5.35-7.23,.84-2.21,2.27-3.66,3.47-5.43,.37-.55,.26-1.44,.4-2.39,2.04-1.12,2.86-3.4,3.6-5.76,.55-1.75,1.01-3.56,1.8-5.2,1.29-2.69,3.2-5.14,4.17-7.93,1.6-4.63,2.74-9.43,3.94-14.19,.98-3.89,1.84-7.81,2.61-11.74,.32-1.63,.25-3.34,.41-5.01,.25-2.6,1.82-5.13,.45-7.83-.02-.04,.14-.14,.15-.21,.29-3.55,.81-7.11,.78-10.66-.03-4.33-.49-8.65-.84-12.97-.17-2.05-.38-4.12-.77-6.14-1.02-5.33-2.65-10.51-3.48-15.9-.48-3.12-2.54-5.96-3.65-9.01-.77-2.1-.89-4.46-1.75-6.51-1.38-3.26-3.32-6.29-4.68-9.56-1.56-3.78-4.58-6.58-6.26-10.34-1.42-3.19-4.1-5.83-6.28-8.67-1.35-1.76-2.79-3.46-4.24-5.15-.73-.85-1.59-1.59-2.38-2.39-.34-.35-.74-.66-1.01-1.06-1.87-2.83-4.04-5.34-6.74-7.47-1.9-1.5-3.58-3.16-5.71-4.51-3.5-2.21-4.29-2.97-7.25-1.03-4.14,2.72-7.78,2.33-11.33-.95-.62-.58-1.48-.91-2.28-1.39-1.51,1.83-2.76,3.54-4.21,5.05-3.23,3.36-5.13,3.32-8.61,.43-1.26-1.05-2.89-1.71-4.45-2.32-.26-.1-1.44,1.04-1.41,1.56,.1,1.78,3.12,4.32,4.83,4.73,1.99,.48,3.95,1.16,5.85,1.95,1.57,.65,3.03,1.56,4.59,2.39,.88-2.58,1.37-4.5,2.17-6.28,1.1-2.43,2.92-2.85,5.07-1.36,1.17,.81,2.4,1.6,3.4,2.6,.75,.75,1.18,1.82,1.76,2.75-.07,.24-.14,.47-.21,.71-1.42-1.39-2.84-2.78-4.27-4.17-1.88-1.84-4.12-1.3-5.18,1.25-.68,1.63-1.34,3.28-2.16,5.27-1.38-.33-2.75-.59-4.07-1-2.17-.68-4.37-1.29-6.43-2.24-2.25-1.03-4.63-2.1-6.39-3.75-.98-.91-1.18-3.09-1.04-4.63,.1-1.06,.72-2.99,2.88-1.82,2.21,1.19,4.45,2.38,6.79,3.25,1.17,.44,3.21,.75,3.8,.12,1.74-1.86,3.53-3.47,5.76-4.74,1.65-.94,2.82-.81,4.39,.14,1.69,1.03,3.59,2.05,5.49,2.25,1.39,.15,2.97-.94,4.38-1.65,.84-.43,2.12-1.18,2.12-1.8,0-.84-.95-1.74-1.63-2.5-.39-.43-1.08-.59-1.58-.94-2.85-1.95-5.61-4.06-8.57-5.83-1.19-.71-2.57-1.83-4.19,.28-2.26,2.95-5.26,5.22-9.54,4.61,1.6-.91,3.53-1.22,4.98-2.22,1.77-1.22,3.13-3.03,4.83-4.75-1.01-.49-1.85-.95-2.74-1.3-1.72-.68-3.75-.93-5.16-2.01-5-3.82-11.17-4.87-16.79-7.01-5.77-2.2-12.19-2.71-18.33-3.97-1.07-.22-2.11-.58-3.18-.73-3.38-.49-6.65,.35-9.87,1.17-.78,.2-1.94,1.25-1.9,1.85,.07,1.16,.56,2.78,1.42,3.3,2.22,1.35,4.72,2.27,7.16,3.25,2.36,.95,4.78,1.77,7.18,2.64,2.22,.81,4.44,1.62,6.66,2.43-.09,.35-.17,.69-.26,1.04-3.76-.85-7.6-1.44-11.24-2.63-3.73-1.22-6.42-4.68-10.55-5.25-1.98-.27-2.55-1.87-2.38-3.49,.18-1.68,.89-3.3,1.37-4.96-.49-.19-1.11-.67-1.7-.64-3.18,.19-6.44,1.1-9.5,.64-4.93-.75-9.55,1.41-14.38,.84-.18-.02-.38,.38-.61,.43-3.66,.94-4.87,4.5-7.3,6.75-2.04,1.9-4.15,3.93-6.61,5.12-2.81,1.37-4.73,3.07-5.65,6.06-.57,1.85-1.28,3.46-4.01,2.56-3.92-1.3-3.85-1.02-6.28,2.55-.82,1.21-.39,3.55-3.2,3.41-2.62-.13-4.34,1.62-4.8,4.4-.57,3.44-2.6,5.47-6.07,6.21-.88,.19-1.62,1.06-2.76,1.85,2.98,.58,5.4,5.07,4.43,7.31-.04,.09-.34,.08-.52,.11-.18-.17-.36-.33-.54-.5-.57-1.82-1.13-3.63-1.59-5.1-1.48,.23-2.67,.42-4.13,.65,.29-1.45,.47-2.36,.66-3.35q-7.29,1.38-8.72-1.29c1.3,.61,2.06,1.31,2.73,1.23,3.46-.44,7-.77,8.89-4.5,.51-1.01,1.56-1.75,2.37-2.61,.22,.19,.43,.39,.65,.58-.89,1.18-1.77,2.37-2.66,3.55,4.12,.56,5.47-1.6,5.9-4.93,.13-1.02,.6-2.18,1.3-2.9,.85-.88,2.18-2,3.17-1.88,1.76,.21,2.39-.79,2.75-1.86,.26-.79,1.33-1.35,.5-2.78-.82-1.41,1.79-2.9,4.29-2.46,5.14,.91,5.65,.52,7.87-4.02,.72-1.47,2.06-3.17,3.49-3.63,3.01-.97,5.15-2.84,7.12-5.06,1.18-1.32,2.19-2.8,3.27-4.2-4.5,.61-8.46,1.75-12.43,2.88-2.93,.84-5.9,1.59-8.79,2.55-1.13,.37-2.1,1.21-3.14,1.86-1.16,.72-2.27,1.56-3.48,2.18-.98,.5-2.17,.61-3.14,1.13-1.55,.83-2.96,1.92-4.49,2.8-3.66,2.12-7.35,4.18-11.03,6.26-1.14,.64-2.42,1.12-3.42,1.93-5.36,4.36-11.03,8.35-15.55,13.7-1.05,1.25-3.08,1.83-3.8,3.18-1.95,3.67-5.96,5.78-7.08,10.14-.39,1.52-2.77,2.41-3.77,3.9-2.52,3.71-4.9,7.53-7.09,11.44-2.68,4.79-5.24,9.65-7.61,14.6-1.17,2.45-1.78,5.17-2.68,7.75-.54,1.52-1.16,3.02-1.74,4.53-4.48,17.62-3.76,35.27-.54,53.14,3.25,18.03,10.12,34.48,18.85,50.59,3.79-1.54,7.57-3.07,11.52-4.67-.9-1.2-1.61-2.14-2.28-3.1-.02-.02,.43-.37,.66-.56Zm27.39,84.83c-.21,.28-.43,.55-.64,.83,.06,.25,.06,.55,.19,.76,4.77,7.18,9.59,14.33,14.31,21.55,2.42,3.71,5.06,7.36,6.86,11.37,1.67,3.73,2.36,7.91,3.55,12.11,14.14-7.51,27.96-14.86,41.8-22.22-.67-.11-1.49-.29-2.32-.35-5.58-.44-11.25-.39-16.7-1.44-4.66-.89-9.15-2.88-13.59-4.69-3.56-1.46-6.96-3.32-10.37-5.12-3.51-1.85-6.96-3.84-10.43-5.77-4.22-2.34-8.44-4.69-12.67-7.03Zm-6.74-47.74c-.72-.77-1.25-1.3-1.74-1.86-2.23-2.57-4.3-5.29-6.7-7.67-3.02-3-4.61-6.62-5.41-10.66-.46-2.35-.74-4.74-1.17-7.1-.61-3.41-2.5-4.66-5.63-3.61-2.87,.96-5.69,2.08-8.53,3.14,1.52,5.58,13.18,20.43,15.34,19.07-.11-.46-.24-.99-.44-1.78,2.33,2.17,4.46,4.18,6.62,6.17,3.5,3.22,5.92,4.62,7.66,4.31Zm52.92,31.33c-16-6.01-31.08-13.43-45.48-22.28,2.44,4.81,5.33,8.02,7.88,9.22,2.87,1.35,5.74,2.68,8.61,4.04,4.41,2.09,8.67,4.6,13.26,6.16,4.58,1.56,9.48,2.18,14.25,3.16,.46,.09,.99-.19,1.49-.3ZM105.46,53.73c2.53-1.35,5.04-2.74,7.58-4.05,4.89-2.51,9.73-5.14,14.74-7.41,2.78-1.26,5.85-1.87,8.79-2.77,1.39-.43,2.79-.87,4.18-1.31-.02-.3-.04-.6-.06-.9-1.87-.54-3.94-1.88-5.58-1.47-4.5,1.12-9,2.59-13.14,4.65-4.42,2.19-8.64,4.96-12.53,8-1.58,1.23-5.22,1.46-3.98,5.25ZM50.39,197.76c-.27-.06-.53-.11-.8-.17-.18,.58-.61,1.23-.49,1.74,.58,2.55,1.31,5.07,1.99,7.6,.33,1.23,.57,2.48,1,3.67,1.55,4.26,3.08,8.53,4.77,12.72,1.13,2.8,2.54,5.49,4.12,8.87,.57-1.25,1-1.73,.89-1.99-4.37-10.62-9.18-21.08-11.48-32.45Zm36.19,60.9c4.92,7.04,10.65,12.85,18.33,16.42-1.42-4.36-4.13-7.42-7.93-9.67-3.55-2.11-6.94-4.48-10.4-6.74Zm-10.65-9.42l-.87,.69c2.02,2.41,4.04,4.82,6.06,7.23,.31-.27,.63-.54,.94-.81-2.04-2.37-4.08-4.74-6.13-7.12Zm-27.39-52.02c.41-.1,.82-.21,1.24-.31-.53-2.31-1.07-4.61-1.6-6.92l-1.21,.29,1.58,6.94Z"/><path class="cls-1" d="M250.1,77.61c3.15,.12,2.64,2.86,4.11,5.13-1.58-.13-2.4-.2-3.22-.27h.03c.23-.48,.78-1.09,.65-1.37-.46-.99-1.16-1.86-1.77-2.78,.07-.24,.14-.47,.21-.71Z"/><path class="cls-1" d="M107.2,86.42c.88-3,3.33-.9,4.95-1.52,.18,.17,.36,.33,.54,.5-.33,.33-.61,.86-1,.96-1.44,.37-2.91,.59-4.37,.87-.04-.27-.08-.54-.12-.81Z"/><path class="cls-1" d="M93.73,160.42c.69,1.83,1.37,3.67,2.06,5.5,.15,.39,.25,.82,.49,1.14,1.46,1.88,2.99,3.71,4.44,5.59,.68,.88,1.25,1.84,2.17,3.22-.22,2.46,.87,3.74,3.93,4.73,3.32,1.08,6.53,2.47,9.79,3.74,2.62,1.02,4.57-.65,6.5-1.83,6.27-3.84,12.16-8.2,17.63-13.16,3.45-3.13,7.88-1.44,10.37,2.14,.98,1.4,1.43,1.41,2.65,.64,2.82-1.79,5.71-3.06,9.2-1.69,2.93,1.15,4.17,3.26,3.45,6.48-.4,1.78,1.59,4.63,3.47,5.06,2.65,.61,5.27,1.35,7.93,1.9,1.73,.36,3.08,1.28,3.36,2.93,.67,3.97,3.88,5.6,6.55,7.83,2.78,2.33,5.81,4.59,7.83,7.51,1.43,2.05,1.68,5.12,1.85,7.78,.13,2.11-.57,4.3-1.05,6.42-.96,4.23,.94,7.07,5.22,8.11,2.89,.7,5.79,1.69,7.6,4.27,2.36,3.36,4.47,6.9,6.8,10.28,.49,.71,1.53,1.01,2.23,1.61,2.72,2.3,6.11,4.03,6.86,8.06,.12,.62,.84,1.13,1.11,1.46,4.56-2.12,9.02-4.08,13.38-6.25,4.64-2.31,8.37-6.02,9.66-10.85,1.18-4.43,3.69-7.99,5.38-12.02,1.51-3.61,3.55-7.31,2.51-11.53-.44-1.79-1.02-3.55-1.62-5.3-1.25-3.65-.37-6.91,1.43-10.19,1.49-2.72,2.88-5.59,3.65-8.57,.38-1.49-.27-3.75-1.28-4.97-1.46-1.76-3.77-2.8-5.54-4.36-.65-.57-.78-1.72-1.14-2.61,.26-.12,.53-.23,.79-.35,.37,.42,.74,.83,1.1,1.25-.75-6.95-2.93-13.39-6.69-19.31,.27-.19,.54-.39,.81-.58,1.25,1.67,2.95,3.16,3.66,5.03,1.97,5.21,3.39,10.62,5.33,15.84,.6,1.62,2.19,2.86,3.33,4.28,2.87,3.56,1.6,7.18,.22,10.84-1.38,3.64-2.65,7.31-3.91,10.99-.15,.43,.04,1.01,.17,1.5,.76,2.81,1.77,5.57,2.29,8.42,.59,3.26-.94,6.04-2.65,8.72-1.04,1.63-1.88,3.39-2.71,5.15-1.48,3.13-3.59,5.98-3.88,9.66-.08,1.09-1.33,2.1-2.07,3.12-2.97,4.13-6.24,7.71-11.46,9.25-2.62,.77-4.86,2.79-7.35,4.1-1.37,.72-2.89,1.14-4.87,1.89-.77-1.88-1.29-3.85-2.32-5.51-1.03-1.66-2.3-3.52-3.94-4.38-4.64-2.44-7.07-6.48-9.23-10.92-1.45-2.98-4.11-4.47-7.18-5.53-1.9-.66-3.65-1.81-5.39-2.86-2.18-1.31-2.39-3.51-2.23-5.73,.22-2.95,.71-5.89,.88-8.84,.13-2.2-.24-4.26-1.95-6.04-1.86-1.94-3.25-4.31-5.07-6.3-.86-.94-2.17-1.78-3.39-2.01-2.63-.49-3.96-2.51-4.46-4.46-1.43-5.51-6.23-5.39-10.15-6.42-2.42-.64-4.83-2.2-5.23-4.55-.33-1.93-.83-3.89-1.59-5.69-1.16-2.76-3.46-2.11-5.57-1.36-.98,.35-1.8,1.15-2.76,1.61-2.37,1.15-5.06,.18-6.41-2.25-1.51-2.72-3.69-3.34-6.12-1.4-2.55,2.02-4.66,4.63-7.31,6.48-3.89,2.73-8.28,4.76-12.11,7.56-3.21,2.34-6.41,2.46-9.42,.6-3.88-2.39-9.05-2.08-12.12-6-.48-.61-1.04-1.18-1.37-1.87-1.22-2.52-2.35-5.08-3.82-8.27-.47,1.29-.67,1.86-.87,2.41-.86-.3-2.24-10.06-1.75-11.27l-.08,.08Z"/><path class="cls-1" d="M175.36,71.73c-2.31,2.57-5.33,3.39-8.92,3.7-.16-2.54-.3-4.91-.46-7.47-.86,.47-1.55,.85-2.27,1.24-.03,.08-.14,.22-.11,.31,.47,1.29,1.65,3.45,1.34,3.69-1.66,1.29-3.63,2.7-5.61,2.89-2.13,.21-5.46,1.6-6.15-2.57-.06-.37-1.58-.49-2.64-.79,.11,1.83,1.21,4.09-2.66,4,.97,.99,1.65,1.41,1.91,2.02,.27,.63,.32,1.5,.09,2.13-.1,.29-1.26,.52-1.69,.3-2.1-1.07-4.11-2.31-6.46-3.66-1.27,.3-3.11,.91-5,1.12-.88,.1-1.86-.54-2.77-.91-.88-.35-1.71-1.05-2.59-1.11-1.66-.11-3.34,.14-5.42,.26,.95,1.17,1.85,2.27,2.82,3.45-2.68,.88-5.33,1.74-7.97,2.61-.3-3.57,2.68-3.01,4.79-3.58-1.9-1.96-1.74-3.92-.47-5.1,2.88,.07,4.93,.09,6.97,.18,.47,.02,1.09,.08,1.36,.38,2.41,2.61,5.02,2.82,7.95,.89,.36-.24,1.29-.18,1.56,.11,1.76,1.93,3.14,1.1,4.9-1.18-1.61-.29-2.99-.57-4.38-.77-1.36-.19-2.74-.3-4.12-.45,2.88-.24,5.77-.48,8.66-.72,0-.27,.01-.53,.02-.8-2.41-.82-4.89-1.47-7.22-2.48-2.89-1.26-5.05-.1-7.3,1.79,2.03,.78,3.97,1.53,5.92,2.29-1.45,.74-6.08,.14-6.82-1.2-.38-.68-.08-2.51,.46-2.79,2.43-1.29,4.88-2.46,7.94-1.79,2.59,.57,5.22,.63,6.8,3.23,.17,.27,.83,.33,1.26,.33,2.59-.02,4.86,.42,5.87,3.28,.09,.24,1.1,.35,1.59,.21,2.16-.61,4.28-1.34,5.98-1.89-.46-2.15-.76-3.56-1.19-5.62q-3.12-2.82,1.29-5.49c-2.03-.96-2.21-2.6-1.01-4.06,2.3-2.8,4.16-6.11,8.25-6.96,2.1-.44,2.82,.56,3.45,2.11,0,0-.13,.22-.13,.22-1.22-.26-2.86-1.14-3.58-.66-2.23,1.49-4.2,3.43-6.07,5.38-.44,.45-.38,1.76-.07,2.46,.46,1.03,1.36,1.86,2.19,2.92-1.86,.42-3.15,.72-4.88,1.11,1.22,1.02,2.19,1.84,3.06,2.57,1.09-.7,1.96-1.33,2.89-1.85,1.04-.57,2.95-.88,3.08-1.57,.61-3.23,3.71-2.45,5.38-4.08,.14,.64,.21,.99,.28,1.35-.61,.14-1.32,.13-1.81,.44-.77,.5-1.47,1.16-2.08,1.85-.51,.58-.74,1.4-1.27,1.94-.81,.82-2.4,1.39-2.55,2.25-.37,2.17-.12,4.46-.12,6.8,2.84-.83,5.28-1.55,7.72-2.26Z"/><path class="cls-1" d="M116.47,84.79c.5,.21,1.43,.47,1.42,.63-.13,1.23-.21,3.35-.74,3.49-1.86,.48-1.31,1.53-1.39,2.74-.13,1.88-.25,3.97-1.14,5.54-1.04,1.85-1.71,4.57-5.1,4.01-1.59-.26-3.35,.58-5.04,.92,.02,.23,.04,.46,.07,.69,1.05,0,2.11,.12,3.14-.02,3.1-.43,6.29-.66,8.84-2.81,5.27-4.44,9.81-9.56,13.71-15.24,1.25-1.82,2.55-.7,3.51,.11,3.79,3.17,7.44,6.51,11.22,9.7,.44,.37,1.34,.19,2.02,.26,0,.14,.01,.29,.02,.43-1.16,.13-2.75,.82-3.42,.31-3.64-2.82-7.12-5.88-10.53-8.99-1.12-1.03-1.54-.99-2.46,.23-3.32,4.4-6.41,9.09-10.35,12.89-3.06,2.95-7.25,4.78-11.81,4.67-2.16-.05-2.73,.94-2.98,2.88-.35,2.73-1.03,5.41-1.65,8.1-.1,.43-.57,.77-.87,1.15-.15-.51-.5-1.06-.42-1.53,.54-2.9,1.23-5.77,1.76-8.67,.17-.92,.03-1.91,.03-2.94-1.13,.31-2.16,.59-3.21,.88-1.76-1.46-1.3-3.11-.5-4.91,.56-1.27,.7-2.74,1.28-4.01,.7-1.51,1.7-2.89,2.53-4.35,.46-.8,.81-1.68,1.29-2.47,.44-.73,1-1.39,1.51-2.08,.04,.27,.08,.54,.12,.81,0,2.28-.3,4.29-2.84,5.39-.6,.26-.61,1.9-.9,2.91-.61,2.19-1.23,4.38-1.67,5.96,2.54-.58,5.63-1.22,8.68-2.02,.65-.17,1.45-.77,1.7-1.37,1.26-3.12,2.83-6.19,1.88-9.77-.19-.71,.08-1.55,.58-1.97,.57-.52,1.14-1.04,1.71-1.56Z"/><path class="cls-1" d="M201.54,89.71c-2.68,1.72-4.16-1.03-6.15-1.75-1.29-.46-2.45-1.49-3.45-2.49-.71-.71-1.58-1.93-1.4-2.69,.22-.98,1.29-2.19,2.24-2.47,1.08-.32,2.45,.23,3.66,.51,.52,.12,.98,.53,1.47,.8,2.11,1.19,4.17,2.45,6.33,3.55,5.02,2.55,10.08,5.03,15.12,7.52,.86,.42,1.85,.63,2.63,1.16,5.72,3.91,11.43,7.82,14.77,14.25,.47,.9,1.72,1.4,2.61,2.09,0,0-.06-.03-.06-.03,.61,1.84,2.04,1.61,3.4,1.21,.87-.25,1.66-.81,2.66-1.32-1.27,2.85-4.77,3.46-10.62,2.05,0,0-.09,.06-.09,.06,.6-.52,1.2-1.05,1.55-1.35-3.69-9.11-11.81-13.04-19.72-17.16-3.8-1.98-7.81-3.57-11.6-5.58-3.94-2.09-7.74-4.46-12-6.94-.2,2.19-.37,3.29,1.55,4.16,2.5,1.14,4.69,2.96,7.01,4.48l.11-.07Z"/><path class="cls-1" d="M255.83,136.85c-.36,1.83-.42,3.79-1.15,5.46-1.12,2.58-.43,6.57-5.6,7.13-.26-2.92-.35-5.74-.83-8.48-.3-1.7-.98-3.45-1.96-4.85-.3-.43-2.69-.19-3.2,.46-3.06,3.92-7.03,3.03-10.99,2.49-.24-.03-.48-.06-.91-.11-.29,4.64,2.84,7.5,5.34,10.45,2.68,3.17,6.8,4.11,10.8,5.02-4.55,.93-8.21-.38-11.69-3.2-3.04-2.46-4.15-5.95-5.89-9.08-.96-1.72-1.46-3.94,.09-4.93,3.79,.31,6.86,.8,9.91,.68,1.01-.04,1.83-1.87,2.96-2.43,1.21-.61,3.13-1.37,3.93-.84,1.25,.83,2.26,2.6,2.58,4.13,.5,2.39,.3,4.93,.51,7.39,.03,.35,.75,.64,1.71,1.4,1.22-3.85,2.33-7.36,3.44-10.88,.32,.06,.63,.12,.95,.18Z"/><path class="cls-1" d="M93.81,160.34c-.58-.12-1.5-.07-1.68-.41-.81-1.49-1.54-3.06-2.02-4.68-.17-.57,.29-1.59,.8-2.05,1.38-1.26,1.55-2.66,1.18-4.38-.49-2.25-.78-4.55-1.14-6.82-.59-3.66,.97-6.59,3.44-9.02,2.53-2.5,3.31-5.53,3.94-8.9,.52-2.78,1.42-5.83,4.87-7.43,0,.75,.22,1.6-.03,1.77-3.93,2.69-2.66,7.51-4.6,10.99-.69,1.23-.97,3.07-2,3.66-2.87,1.64-3.52,4.38-3.6,7.04-.1,3.36,.29,6.82,1.06,10.09,.63,2.67,.63,3.45-1.98,4.33,.56,1.96,1.12,3.93,1.68,5.88,0,0,.09-.09,.09-.09Z"/><path class="cls-1" d="M276,204.16c2.04-.72,2.55-2.76,2.13-5.28-.5-3-.79-6.13-.5-9.14,.37-3.95,1.49-7.82,2.06-11.76,.19-1.29-.32-2.69-.58-4.49-1.52,2.33-2.75,4.38-4.18,6.28-.43,.57-1.44,.68-2.19,1.01,1.65-2.89,3.44-5.72,4.89-8.71,.47-.98,.07-2.38,.07-3.81,.14,.08,.78,.22,.98,.6,2.23,4.09,4.27,8.37,2.55,13.1-2.3,6.3-2.16,12.66-1.4,19.14,.36,3.07-1.05,4.1-3.84,3.06Z"/><path class="cls-1" d="M210.19,290.25c-2.2,.39-4.4,1.06-6.61,1.11-4.43,.1-8.88-.05-13.31-.27-4.2-.21-8.39-.53-12.56-1.03-2.42-.29-4.79-1.02-7.18-1.55-1.82-.4-3.65-.8-5.47-1.2,.08-.15,.18-.27,.3-.38,2.95,.22,5.91,.34,8.84,.7,3.7,.45,7.35,1.39,11.06,1.58,7.99,.41,16.01,.47,24.01,.7,.3,0,.59,.25,.88,.38,0,0,.04-.04,.04-.04Z"/><path class="cls-1" d="M147.02,282.22c-1.26-.15-2.62-.04-3.76-.49-6.87-2.7-13.78-5.35-20.5-8.38-4.49-2.03-8.71-4.66-13.03-7.06-.23-.13-.31-.54-.14-1.25,4.28,2.26,8.5,4.64,12.87,6.73,5.09,2.44,10.13,5.28,15.52,6.61,2.53,.62,4.73,2.69,7.59,2.19,.38-.07,.91,.74,1.38,1.14,.03,.17,.05,.34,.08,.52Z"/><path class="cls-1" d="M250.99,82.47c.45,.29,.9,.58,1.45,.94-2.6,1.38-1.69,3.64-1.19,5.46,1.18,4.29,.76,5.62-2.99,7.84-1.84,1.09-3.83,2.14-5.19,3.7-.88,1-.99,2.88-1.01,4.37-.04,2.33-.87,4.08-2.76,5.37,0,0,.06,.03,.06,.04-.1-.48-.38-1.02-.27-1.45,.56-2.22,1.42-4.37,1.79-6.61,.35-2.14,1.95-3.2,3.27-4.43,1.69-1.56,3.94-2.57,5.43-4.28,.79-.9,1.05-3.01,.56-4.15-1.13-2.61-.98-4.74,.88-6.81,0,0-.03,.02-.03,.02Z"/><path class="cls-1" d="M78.97,226.53c-2.08-2.71-4.39-5.27-6.17-8.16-2.31-3.75-4.27-7.72-6.21-11.69-1.04-2.13-1.71-4.45-2.07-6.91,.92,1.59,1.97,3.11,2.72,4.77,3.38,7.47,7.18,14.68,12.13,21.25,.05,.07-.3,.45-.46,.68,0,0,.06,.05,.06,.05Z"/><path class="cls-1" d="M175.83,60.63c.9-2.53,2.92-1.08,4.37-1.05,1.61,.02,2.85-.02,3.37-1.77,.04-.14-.08-.34-.17-.7-4.16,.7-7.55-.78-10.2-4.04,0,0,.13-.22,.13-.22,1.8,.81,3.56,1.72,5.4,2.4,.88,.32,1.92,.24,2.89,.28,1.1,.04,2.21,0,3.27,0,.91,4.95-.17,6.05-4.87,5.37-1.38-.2-2.78-.19-4.17-.28Z"/><path class="cls-1" d="M178.03,84.29c.91-1.38,1.81-2.78,2.74-4.14,1.3-1.91,2.86-2.27,5.12-1.41,.91,.35,2.73-.41,3.45-1.25,.5-.59,.16-2.98-.35-3.18-3.15-1.26-2.45-3.14-1.29-5.3,.16-.29,.09-.7,.12-1.05,.22,.01,.43,.02,.65,.03v4.02c.67,1.02,1.92,2.2,2.23,3.6,.26,1.16-.27,2.82-1.04,3.8-.9,1.13-2.34,1.62-4.01,.74-2.01-1.06-3.44-.24-4.44,1.79-.72,1.46-1.81,2.75-2.74,4.11-.03,.04-.22,.03-.25-.02-.1-.14-.16-.31-.24-.46,.02-.42,.04-.85,.06-1.27Z"/><path class="cls-1" d="M87.59,238.54c1.48,1.06,3.11,1.98,4.42,3.22,3,2.84,5.85,5.83,8.74,8.78,1.5,1.53,2.94,3.12,4.41,4.69-.18,.22-.36,.44-.54,.67-.81-.55-1.75-.97-2.42-1.66-4.71-4.85-9.38-9.74-14.03-14.65-.27-.28-.35-.74-.52-1.12,0,0-.05,.06-.05,.06Z"/><path class="cls-1" d="M255.68,104.43c2.15,1.81,2.59,4.48,1.81,6.69-.98,2.76,.35,5.02,.45,7.51,.1,2.4,.38,4.79,.5,7.19,0,.18-.63,.39-1.47,.88,.2-1.68,.59-2.89,.43-4.02-.35-2.35-1.07-4.64-1.48-6.98-.21-1.17-.08-2.4-.09-3.61-.02-1.76-.03-3.51-.05-5.27,0-.82-.02-1.64-.02-2.47,0,0-.07,.07-.07,.07Z"/><path class="cls-1" d="M178.03,84.29c-.02,.42-.04,.85-.06,1.27-3.87,2.61-8.15,1.65-12.23,1.07-2.13-.31-2.79,.18-3.03,2.03-.18,0-.35,.01-.53,.02-1.09-2.67-.25-3.96,2.34-3.67,2.03,.22,4.07,.41,6.1,.54,2.26,.14,4.39-.32,6.38-1.47,.23-.13,.68,.13,1.03,.21Z"/><path class="cls-1" d="M188.47,67.99c-.22-.01-.43-.02-.65-.03-.84,.13-1.68,.26-2.83,.43-1.11-1.31-2.39-.96-5.55,1.32-1.21,.87-2.06,2.89-4.17,2.08-.96-2.07,1.37-1.75,2.05-2.52,1.28-1.45,3.21-2.31,4.83-3.47,1.99-1.43,6.01-.26,6.8,2.03,0,.02-.14,.1-.22,.13-.08,.03-.18,.02-.27,.03Z"/><path class="cls-1" d="M162.18,88.68c.18,0,.35-.01,.53-.02-.15,2-.29,3.99-.5,6.84-2.38-.89-4.24-1.86-6.22-2.24-1.17-.22-2.51,.48-3.77,.77-1.74,.4-3.47,.81-5.21,1.22,0-.14-.01-.29-.02-.43,1.94-.95,3.79-2.35,5.83-2.72,1.92-.35,4.25-.08,6.02,.73,2.72,1.25,2.85-.07,2.94-2.07,.03-.7,.26-1.39,.4-2.09Z"/><path class="cls-1" d="M147.02,282.22c-.03-.17-.05-.34-.08-.52,2.66,.55,5.34,1.05,7.98,1.67,2.86,.66,5.71,1.38,8.52,2.2,.71,.21,1.28,.89,1.91,1.35-.12,.11-.23,.24-.3,.38-1.39-.22-2.81-.31-4.16-.68-4.28-1.16-8.55-2.4-12.8-3.65-.4-.12-.72-.5-1.07-.75Z"/><path class="cls-1" d="M100.25,73.53c2.95-.24,3.32-1.66,3.32-3.71,0-1.58,.47-3.24,1.08-4.73,.83-2.02,4.31-2.09,5.98-.11,1.11,1.32,1.96,2.87,2.92,4.32-.15,.19-.3,.39-.44,.58-1.22-1.15-2.46-2.27-3.64-3.45-.51-.51-.92-1.67-1.29-1.64-.83,.07-2.09,.53-2.33,1.16-.72,1.89-1.22,3.92-1.47,5.93-.22,1.78-1.48,2.66-4.12,1.65Z"/><path class="cls-1" d="M221.67,104.95c-.98-.14-2.26,.06-2.9-.48-2.44-2.11-4.69-4.44-6.96-6.74-.33-.33-.35-.96-.52-1.45l-.09,.07c.58-.13,1.48-.58,1.7-.35,2.94,2.96,5.79,6.02,8.66,9.05l.1-.1Z"/><path class="cls-1" d="M234.74,112.1c-3.47,.81-6.03-1.45-8.89-2.68-1.07-.46-1.95-1.33-3.02-1.8-1.31-.57-1.71-1.37-1.17-2.67,0,0-.1,.1-.1,.1,.52,.04,1.13-.1,1.53,.14,2.35,1.4,4.65,2.91,6.98,4.34,1.5,.92,3.04,1.76,4.57,2.64l.09-.06Z"/><path class="cls-1" d="M205.85,54.66c4.17-1.44,8.33-2.89,12.52-4.28,.07-.02,.37,.67,.75,1.37-5.02-.55-8.25,4.3-12.94,3.96-.11-.35-.22-.7-.33-1.05Z"/><path class="cls-1" d="M55.7,171.44c-.4-1.83-1.03-3.65-1.15-5.51-.26-3.98-.26-7.98-.33-11.98,0-.35,.33-.7,1.01-.99,0,2.1-.13,4.22,.03,6.31,.27,3.49,.75,6.96,1.07,10.45,.05,.56-.33,1.17-.51,1.75l-.11-.04Z"/><path class="cls-1" d="M219.32,51.69c.8,.05,1.93-.22,2.34,.2,2.26,2.35,4.35,4.87,6.34,7.15-1.75,.11-2.79-1.72-4.18-2.95-1.42-1.26-2.88-2.48-4.32-3.72-.06-.23-.12-.46-.18-.69Z"/><path class="cls-1" d="M272.82,180.69c.18,4.12,.35,8.23,.53,12.35-.4-.18-1.17-.36-1.16-.53,.13-3.87-1.57-7.77,.17-11.6,.05-.12,.3-.15,.46-.22Z"/><path class="cls-1" d="M211.3,96.28c-1.89-1.06-3.76-2.16-5.67-3.18-1.01-.54-2.17-.84-3.08-1.49-.52-.37-.68-1.25-1.01-1.9,0,0-.11,.07-.11,.07,2.13,.91,4.35,1.66,6.35,2.79,1.47,.84,3.61,1.33,3.43,3.78,0,0,.09-.07,.09-.07Z"/><path class="cls-1" d="M273.32,194.1c.08,1.56,.06,3.14,.25,4.68,.23,1.84-.89,4.47,2.48,4.68,.03,0,.02,.49,.04,.75-3.4,.29-3.68,.3-3.79-3.4-.06-2.2-1.17-4.78,1.02-6.72Z"/><path class="cls-1" d="M210.15,290.28c2.66-.44,5.33-.89,8.29-1.38-.17,.84-.22,1.59-.33,1.6-2.64,.22-5.29,.36-7.94,.51,0-.25,.01-.51,.02-.76,0,0-.04,.04-.04,.04Z"/><path class="cls-1" d="M255.68,104.43s.07-.07,.07-.07c-1.04-.48-1.77-.7-2.64,.62-.58,.88-2.12,1.12-3.4,1.17,1.59-1.45,3.19-2.9,5.14-4.67,.37,1.3,.6,2.13,.83,2.95Z"/><path class="cls-1" d="M55.7,171.44l.11,.04c1.3,2.98,2.75,5.94,1.74,9.35l.08-.06c-1.54-2.92-1.99-6.08-1.93-9.33Z"/><path class="cls-1" d="M108.91,258.33c2.18,1.25,4.01,2.19,5.71,3.32,.45,.3,.51,1.16,.76,1.77-.53-.08-1.19,.02-1.58-.26-1.35-.96-2.64-2.02-3.87-3.13-.41-.36-.59-.97-1.01-1.7Z"/><path class="cls-1" d="M57.56,180.83c.86,2.03,1.75,4.06,2.58,6.11,.27,.67,.41,1.38,.35,2.18-2.26-2.29-2.41-5.38-2.86-8.35,0,0-.08,.06-.08,.06Z"/><path class="cls-1" d="M61.25,190.21c.29,2.09,2.51,3.8,.73,6.31-.53-2.04-1.05-4.08-1.58-6.12,.28-.06,.56-.12,.84-.19Z"/></g></svg>