<?xml version="1.0" encoding="UTF-8"?><svg id="Layer_1" xmlns="http://www.w3.org/2000/svg" viewBox="0 0 539.2 475.91"><defs><style>.cls-1{fill:#323aa4;}.cls-2{fill:#c1e4fc;}</style></defs><g><path class="cls-2" d="M336.56,401.14c.4,.01,.75,.03,1.07,.04-.32-.01-.67-.02-1.07-.04Z"/><path class="cls-2" d="M45.08,241.52s-.02,.04-.04,.1c.01-.03,.03-.07,.04-.1Z"/><path class="cls-2" d="M338.79,401.22c.82,.03,.88,.03,0,0h0Z"/><path class="cls-2" d="M298.31,399.77c-.86-.03-1.75-.06-2.64-.09h0c.86,.03,1.74,.06,2.64,.09Z"/><path class="cls-2" d="M337.62,401.18c.21,0,.41,.01,.59,.02-.18,0-.37-.01-.59-.02Z"/><path class="cls-2" d="M45.04,241.62c-.08,.22-.16,.43-.25,.65,.12-.31,.2-.53,.25-.65Z"/><path class="cls-2" d="M338.22,401.2c.23,0,.42,.01,.58,.02-.16,0-.36-.01-.58-.02Z"/><path class="cls-2" d="M39.27,256.73c-.15,.39-.29,.76-.43,1.12,.14-.37,.28-.75,.43-1.12Z"/><path class="cls-2" d="M40.01,254.81c-.25,.64-.49,1.28-.73,1.92,.23-.61,.48-1.25,.73-1.92Z"/><path class="cls-2" d="M40.35,253.9c-.12,.31-.23,.62-.35,.91,.12-.3,.23-.61,.35-.91Z"/><path class="cls-2" d="M336.04,401.12c.18,0,.35,.01,.52,.02-.16,0-.34-.01-.52-.02Z"/><path class="cls-2" d="M42.01,249.55c-.43,1.13-.84,2.2-1.22,3.21,.42-1.1,.83-2.18,1.22-3.21Z"/><path class="cls-2" d="M44.28,243.62c-.05,.13-.1,.27-.15,.4,.05-.14,.1-.27,.15-.4Z"/><path class="cls-2" d="M44.8,242.27c-.13,.35-.31,.8-.52,1.35,.17-.44,.34-.89,.52-1.35Z"/><path class="cls-2" d="M44.13,244.02c-.55,1.43-1.29,3.38-2.11,5.53,.65-1.7,1.35-3.54,2.11-5.53Z"/><path class="cls-2" d="M40.79,252.76c-.14,.38-.29,.76-.44,1.14,.14-.37,.29-.75,.44-1.14Z"/><path class="cls-2" d="M309.23,400.16c2.52,.09,4.86,.17,7.03,.25-2.31-.08-4.68-.17-7.03-.25Z"/><path class="cls-2" d="M307.24,400.09c.66,.02,1.32,.05,1.99,.07-.65-.02-1.31-.05-1.99-.07Z"/><path class="cls-2" d="M316.25,400.41c2.79,.1,5.5,.2,8.04,.29-2.36-.08-5.03-.18-8.04-.29Z"/><path class="cls-2" d="M305.74,400.04c.51,.02,1.01,.04,1.5,.05-.5-.02-1-.04-1.5-.05Z"/><path class="cls-2" d="M298.31,399.77c2.53,.09,4.92,.18,7.19,.26-2.47-.09-4.9-.18-7.19-.26Z"/><path class="cls-2" d="M325.95,400.76c.41,.01,.81,.03,1.21,.04-.39-.01-.79-.03-1.21-.04Z"/><path class="cls-2" d="M305.5,400.03c.08,0,.16,0,.24,0-.08,0-.16,0-.24,0Z"/><path class="cls-2" d="M327.15,400.8s.1,0,.15,0c-.05,0-.1,0-.15,0Z"/><path class="cls-2" d="M330.62,400.93c.43,.02,.85,.03,1.26,.05-.4-.01-.82-.03-1.26-.05Z"/><path class="cls-2" d="M335.26,401.09c.28,0,.53,.02,.78,.03-.25,0-.51-.02-.78-.03Z"/><path class="cls-2" d="M331.98,400.98c1.22,.04,2.32,.08,3.28,.12-.92-.03-2.02-.07-3.28-.12Z"/><path class="cls-2" d="M331.88,400.97s.07,0,.1,0c-.03,0-.07,0-.1,0Z"/><path class="cls-2" d="M328.67,400.86c.69,.02,1.34,.05,1.96,.07-.63-.02-1.28-.05-1.96-.07Z"/><path class="cls-2" d="M327.3,400.81c.46,.02,.92,.03,1.36,.05-.44-.02-.89-.03-1.36-.05Z"/><path class="cls-2" d="M324.29,400.7c.57,.02,1.12,.04,1.66,.06-.54-.02-1.09-.04-1.66-.06Z"/><path class="cls-2" d="M36.37,264.33c-.3,.8-.56,1.48-.77,2.01,.19-.5,.44-1.16,.77-2.01Z"/><path class="cls-2" d="M35.6,266.34c-.16,.41-.27,.71-.35,.91,.08-.21,.2-.52,.35-.91Z"/><path class="cls-2" d="M35.26,267.25s-.02,.05-.03,.07c0-.02,.02-.05,.03-.07Z"/><path class="cls-2" d="M38.84,257.85c-.15,.39-.3,.78-.45,1.17,.14-.38,.29-.76,.45-1.17Z"/><path class="cls-2" d="M35.23,267.32c-.14,.36-.13,.33,0,0h0Z"/><path class="cls-2" d="M441.41,184.63s-44.32-116.75-170.05-116.92l.22-.99c-30.81-1.1-82.3,25.24-82.3,25.24-66.93,40.53-86.07,109.82-90.25,126.76,0,0-31.55-35.84-53.95,22.8,0,0-4.56,65.11,56.74,72.22,1.18,.14,2.31,.27,3.4,.39-2.07-.24-3.4-.39-3.4-.39l30.66,4.54s20.16,76.27,149.48,80.91c.05,0,.09,0,.14,0-.09,0-.14,0-.14,0,0,0,5.08,.77,13.71,.49-.58-.02-1.15-.04-1.71-.06,.57,.02,1.15,.04,1.71,.06,29.49-.96,100.53-14.28,152.55-113.27,0,0,50.41,2.99,54.85-53.26,0,0-3.13-67.34-61.66-48.51ZM107.56,314.4c.62,.07,1.23,.14,1.82,.21-.63-.07-1.24-.14-1.82-.21Zm2.08,.24c.63,.07,1.23,.14,1.83,.21-.62-.07-1.24-.14-1.83-.21Zm3.49,.41c.4,.05,.8,.09,1.18,.14-.39-.05-.79-.09-1.18-.14Zm2.84,.33c1.67,.19,3.14,.36,4.45,.52-1.42-.17-2.93-.34-4.45-.52Zm4.95,.57c.69,.08,1.31,.15,1.9,.22-.61-.07-1.24-.14-1.9-.22Zm2.85,.33c.64,.07,1.23,.14,1.75,.2-.54-.06-1.13-.13-1.75-.2Zm2.73,.32c.47,.05,.88,.1,1.21,.14-.35-.04-.76-.09-1.21-.14Zm1.43,.17c.16,.02,.3,.03,.42,.05-.13-.01-.27-.03-.42-.05Zm.85,.1c.07,0,.12,.01,.16,.02-.04,0-.1-.01-.16-.02Zm154.45,82.37c3.42,.12,6.65,.24,9.71,.35-4.43-.16-7.93-.28-9.71-.35Zm-1.01-.04c.07,0,.14,0,.22,0-.08,0-.15,0-.22,0Zm166.13-113.08c-.04,.07-.07,.14-.1,.18,.03-.06,.06-.12,.1-.18Zm12.23-23.26c-.97,1.85-1.93,3.68-2.86,5.44,.99-1.89,1.95-3.71,2.86-5.44Zm-4.14,7.88c-1.86,3.53-3.54,6.74-4.89,9.31,1.73-3.29,3.36-6.39,4.89-9.31Zm-5.9,11.23c-.07,.14-.15,.28-.22,.41,.07-.14,.15-.28,.22-.41Zm-1.29,2.45c-.06,.11-.11,.21-.16,.31,.05-.1,.11-.21,.16-.31Zm-.7,1.32c-.03,.06-.06,.12-.09,.17,.03-.06,.06-.11,.09-.17Zm29.34-55.84c.25-.48,.24-.45,0,0h0Zm-15.86,30.19c.22-.43,.45-.86,.67-1.27-.22,.43-.45,.85-.67,1.27Zm.83-1.58c.3-.57,.59-1.13,.88-1.68-.29,.56-.59,1.12-.88,1.68Zm1.52-2.9c.25-.48,.5-.95,.74-1.41-.25,.47-.49,.94-.74,1.41Zm2.71-5.15c.21-.4,.41-.79,.62-1.17-.2,.39-.41,.78-.62,1.17Zm3.63-6.91c.07-.14,.14-.28,.22-.41-.07,.14-.14,.27-.22,.41Zm.86-1.63c.2-.38,.39-.74,.58-1.1-.19,.36-.38,.73-.58,1.1Zm2.84-5.41c.53-1,.99-1.89,1.4-2.66-.42,.8-.89,1.69-1.4,2.66Zm1.44-2.75c.26-.5,.5-.95,.71-1.36-.22,.41-.46,.87-.71,1.36Zm1.1-2.09c.24-.45,.44-.83,.59-1.13-.16,.31-.36,.69-.59,1.13Z"/><path class="cls-2" d="M37.61,261.09c-.04,.11-.08,.22-.13,.33,.04-.11,.08-.22,.13-.33Z"/><path class="cls-2" d="M36.49,264.01c-.04,.11-.08,.22-.12,.32,.04-.1,.08-.21,.12-.32Z"/><path class="cls-2" d="M38.4,259.02c-.28,.74-.55,1.44-.79,2.08,.25-.66,.52-1.36,.79-2.08Z"/><path class="cls-2" d="M37.48,261.43c-.18,.47-.34,.9-.5,1.31,.16-.42,.33-.85,.5-1.31Z"/><path class="cls-2" d="M36.98,262.73c-.17,.45-.33,.88-.49,1.28,.15-.39,.31-.82,.49-1.28Z"/><path class="cls-2" d="M281.17,67.06c.25,0,.48,.02,.7,.02-.23,0-.46-.02-.7-.02Z"/><path class="cls-2" d="M283.56,67.15c.22,0,.41,.01,.58,.02-.18,0-.37-.01-.58-.02Z"/><path class="cls-2" d="M282.15,67.1c.42,.01,.79,.03,1.11,.04-.34-.01-.71-.03-1.11-.04Z"/><path class="cls-2" d="M281.87,67.09c.1,0,.19,0,.28,.01-.09,0-.18,0-.28-.01Z"/><path class="cls-2" d="M283.26,67.14c.1,0,.2,0,.29,.01-.09,0-.19,0-.29-.01Z"/><path class="cls-2" d="M284.99,67.2c.07,0,.13,0,.17,0-.05,0-.1,0-.17,0Z"/><path class="cls-2" d="M285.17,67.2c.13,0,.14,0,0,0h0Z"/><path class="cls-2" d="M284.48,67.18c.19,0,.35,.01,.47,.02-.12,0-.28-.01-.47-.02Z"/><path class="cls-2" d="M284.95,67.2s.03,0,.05,0c-.01,0-.03,0-.05,0Z"/><path class="cls-2" d="M284.14,67.17c.12,0,.23,0,.34,.01-.1,0-.22,0-.34-.01Z"/><path class="cls-2" d="M272.19,66.74c.13,0,.26,0,.39,.01-.14,0-.27,0-.39-.01Z"/><path class="cls-2" d="M272.57,66.75c.28,.01,.62,.02,.99,.04-.32-.01-.65-.02-.99-.04Z"/><path class="cls-2" d="M271.58,66.72c.15,0,.29,.01,.44,.02-.28-.01-.44-.02-.44-.02Z"/><path class="cls-2" d="M272.02,66.73c.05,0,.1,0,.16,0-.05,0-.11,0-.16,0Z"/><path class="cls-2" d="M280.83,67.05c.11,0,.23,0,.34,.01-.11,0-.22,0-.34-.01Z"/><path class="cls-2" d="M273.57,66.79c1.71,.06,3.21,.11,4.5,.16-1.66-.06-3.28-.12-4.5-.16Z"/><path class="cls-2" d="M278.06,66.95c.34,.01,.67,.02,1.01,.04-.32-.01-.66-.02-1.01-.04Z"/><path class="cls-2" d="M280.56,67.04c.09,0,.18,0,.27,0-.09,0-.18,0-.27,0Z"/><path class="cls-2" d="M279.99,67.02c.19,0,.38,.01,.57,.02-.18,0-.37-.01-.57-.02Z"/><path class="cls-2" d="M279.07,66.99c.32,.01,.63,.02,.92,.03-.3-.01-.61-.02-.92-.03Z"/></g><g><path class="cls-1" d="M347.81,395.96c-1.24,0-2.59-.33-3.7,.06-4.23,1.47-8.33,3.35-12.59,4.72-2.35,.76-4.95,.69-7.39,1.2-3.98,.83-8.33,1.08-11.79,2.93-4.63,2.48-9.29,1.17-13.88,1.83-3.08,.44-6.09,1.51-9.17,1.85-1.59,.17-3.28-.93-4.93-.95-4.92-.05-9.9,.66-14.75,.13-5.27-.58-10.78,.87-15.88-2.05-1.31-.75-3.78,.85-5.61,.6-3.14-.44-6.18-1.57-9.29-2.27-2.98-.66-6.85-.18-8.81-1.92-3.03-2.68-6.64-2.05-9.74-3.51-5.02-2.36-10.06-4.68-15.01-7.17-5.43-2.72-10.62-5.98-16.19-8.32-5.8-2.44-10.24-6.68-15.22-10.18-4.06-2.85-7.22-7.25-11.56-9.35-4.04-1.96-5.83-5.91-9.47-7.95-2.07-1.16-4.23-2.46-5.75-4.21-2.08-2.4-3.62-5.28-5.34-7.98-1.62-2.53-5.68-3.4-5.08-7.44-4.63-1.83-4.9-7.63-8.24-9.8-3.24-2.11-3.46-5.19-5.04-7.51-4.69,.69-9.14,1.64-13.62,1.91-4.83,.29-9.49-.31-14.4-1.51-7.7-1.87-14.12-5.47-20.73-9.36-3.91-2.3-7.19-4.76-9.83-8.56-1.87-2.69-5.06-4.46-8-6.93-.19-1.18-.52-2.55-1.63-4.34-4.56-7.27-8.33-15.16-9-24.03-.37-4.92-1.31-9.88-.99-14.76,.4-6.08,1.77-11.98,4.08-17.86,2.07-5.28,4.72-9.91,8.3-13.98,6.94-7.89,15.46-12.37,26.46-11.59,5.82,.41,9.8,3.74,14.66,7.44,.83-4.18,1.56-7.98,2.34-11.76,.47-2.3,.88-4.62,1.54-6.87,2.02-6.94,3.96-13.91,6.3-20.75,1.58-4.63,3.74-9.06,5.73-13.54,.29-.65,1.12-1.03,1.62-1.61,1.75-2.04,4.55-3.39,3.96-6.93-.13-.81,1.27-1.84,1.89-2.81,2.59-4.07,5.04-8.25,7.78-12.21,1.35-1.95,3.23-3.53,4.85-5.29,5.29-5.75,10.67-11.39,16.74-16.37,5.05-4.14,9.72-8.75,14.66-13.03,1.67-1.44,3.6-2.63,5.52-3.74,9.01-5.21,17.99-10.49,27.14-15.45,4.99-2.7,10.16-5.2,15.5-7.07,6.31-2.21,12.86-3.75,19.36-5.39,6.19-1.56,12.38-3.29,18.68-4.2,6.38-.92,12.89-.92,19.34-1.35,1.26-.09,2.52-.46,3.77-.46,4.81-.02,9.63-.12,14.43,.14,4.22,.23,8.44,.74,12.61,1.42,6.42,1.05,12.92,1.95,19.16,3.7,4.54,1.27,8.72,3.82,13.08,5.75,5.3,2.34,10.66,4.53,15.91,6.98,9.03,4.2,18.08,8.37,26.93,12.92,3.5,1.8,6.58,4.45,9.7,6.91,5.75,4.53,11.58,9,17.01,13.91,3.14,2.84,5.53,6.5,8.3,9.76,2.91,3.43,5.97,6.73,8.75,10.26,1.68,2.14,2.97,4.59,4.39,6.94,2.26,3.73,4.61,7.41,6.67,11.25,1.98,3.7,3.6,7.59,5.46,11.35,1.18,2.38,2.7,4.6,3.7,7.04,.39,.96-.2,2.33-.32,3.28,1.16,1.84,2.27,3.6,3.41,5.39,5.38-1.01,10.54-3.48,16.83-3.4,7.07,.08,13.35,1.81,19.23,4.72,9.69,4.78,16.53,12.42,20.17,22.93,3.08,8.89,5.5,17.86,5.09,27.27-.23,5.45-.96,10.98-2.35,16.24-1.53,5.83-3.73,11.56-6.32,17.01-1.33,2.79-3.99,5.05-6.34,7.24-8.41,7.84-17.64,14.18-29.5,15.63-3.67,.45-7.33,1.28-10.86,2.36-2.27,.7-4.63,1.13-5.49,4.53-1.17,4.64-3.45,9.03-5.54,13.39-2.6,5.43-5.46,10.73-8.3,16.05-.47,.87-1.61,1.39-2.04,2.27-2.97,6.12-8.11,10.61-12.04,16-3.24,4.44-6.77,8.79-10.81,12.48-4.64,4.24-10.71,7.06-14.81,11.69-4.35,4.9-10.37,6.53-15.23,10.25-4.73,3.61-9.76,6.87-14.88,9.91-2.16,1.28-4.95,1.47-7.36,2.38-2.15,.82-4.17,1.96-6.25,2.96,.02,.27,.05,.53,.07,.8Zm-184.23-39.55c1.82,.51,4.3,.56,4.6,1.4,2.03,5.65,8.24,6.23,11.81,10.15,3.5,3.85,8.93,5.98,13.6,8.71,4.66,2.71,9.32,5.48,14.2,7.74,4.97,2.31,10.19,4.07,15.32,6.03,3.78,1.44,7.54,2.94,11.39,4.18,2.38,.77,4.88,1.32,7.37,1.57,2.47,.25,5.04-.31,7.48,.06,4.14,.63,8.21,1.71,12.31,2.58,2.7,.57,5.39,1.41,8.12,1.59,4.45,.29,8.93,.15,13.4,.18,1.29,0,3.4,.45,3.72-.11,1.68-2.97,3.86-.74,5.76-.89,2.2-.17,4.45-.04,6.61-.39,6.2-1.02,12.39-2.17,18.56-3.38,2.33-.46,4.62-1.15,6.91-1.84,.83-.25,1.66-1.22,2.36-1.1,5.66,.99,9.97-2.44,14.69-4.38,5.75-2.35,11.41-4.93,17.03-7.61,4.76-2.26,9.51-4.6,14.04-7.28,3.11-1.84,5.71-4.53,8.77-6.49,3.22-2.06,7.02-3.32,8.48-7.39,.11-.3,.63-.46,.97-.66,2.49-1.44,5.19-2.59,7.4-4.37,2.63-2.11,3.22-6.49,7.63-6.78,.49-.03,.85-1.44,1.35-2.16,.69-.97,1.37-1.98,2.21-2.81,1.42-1.4,3.63-2.39,4.32-4.04,1.42-3.41,3.72-5.99,5.96-8.79,2.86-3.57,5.41-7.48,7.56-11.53,3.66-6.9,6.98-13.97,10.26-21.06,.79-1.71,.22-4.46,1.38-5.52,3.15-2.88,1.43-7.24,3.78-10.19,.09-.11-.24-.5-.19-.72,.97-4.54,2.01-9.06,2.95-13.61,.89-4.33,2.01-8.64,2.44-13.02,.39-4,.17-8.09-.1-12.12-.34-4.98-1.9-10.04-1.32-14.87,.82-6.8-1.54-13.03-1.94-19.56-.2-3.23-3.03-6.06-2.3-9.72,.05-.23-1.37-.75-2.11-1.13-.05-2.35-1.03-4.34-1.63-6.44-1.35-4.69-2.38-9.47-3.82-14.13-.68-2.2-2-4.2-3.01-6.3-1.92-4.01-3.85-8.02-5.72-12.06-.84-1.82-1.27-3.88-2.36-5.51-2.09-3.11-5.74-5.69-6.54-9.02-1.25-5.22-5.96-7.55-7.96-12.25-2.03-4.77-6.97-8.46-11.04-12.18-5.66-5.16-11.46-10.24-17.66-14.73-5.72-4.14-12.04-7.46-18.12-11.1-.22-.13-.67,.13-1.05,.21,.2,.76,.38,1.41,.75,2.8-1.85-.9-3.23-1.31-4.3-2.13-8.96-6.84-19.55-10.55-29.55-15.37-3.72-1.79-7.87-2.76-11.9-3.81-6.15-1.6-12.32-3.25-18.58-4.27-4.53-.74-9.22-.61-13.85-.68-6.01-.09-12.06-.42-18.01,.13-7.46,.69-14.93,1.8-22.25,3.4-8.52,1.86-17.03,4.02-25.26,6.86-6.7,2.31-13.07,5.65-19.43,8.85-6.63,3.33-13.07,7.03-19.58,10.58-.33,.18-.58,.51-.89,.75-4.79,3.78-9.67,7.47-14.37,11.37-5.01,4.16-10.04,8.33-14.72,12.86-3.92,3.79-7.39,8.06-10.97,12.19-1.32,1.52-2.49,3.2-3.57,4.91-3.15,4.94-5.39,10.82-9.54,14.66-4.37,4.04-3.24,10.55-7.99,13.89-.12,.08,.06,.51,0,.75-1.45,4.87-2.77,9.79-4.42,14.58-1.21,3.5-3.71,6.75-4.14,10.29-.77,6.39-3.22,12.39-2.87,19.12,.4,7.57-1.62,15.24-1.51,22.86,.1,6.65,1.59,13.3,2.66,19.91,.43,2.67,1.39,5.26,2.1,7.88,1.32,4.87,2.65,9.74,3.93,14.62,.49,1.85,.53,3.88,1.31,5.58,2.48,5.44,5.19,10.77,7.86,16.12,1.47,2.94,2.8,5.98,4.61,8.7,2.02,3.05,4.64,5.71,6.74,8.71,1.95,2.78,3.25,6.08,5.42,8.65,6.22,7.38,12.74,14.52,19.15,21.75,.4,.46,.9,1.23,1.32,1.21,3.63-.16,3.89,2.33,3.98,5.11Zm-64.48-100.44c0-1.37,.14-3.08-.03-4.77-.36-3.67-1.15-7.32-1.24-10.98-.12-5.04,.51-10.11,.3-15.14-.11-2.74-.45-6.3-2.16-7.98-4.16-4.05-9.21-7.31-15.58-6.4-2.77,.4-5.67,.91-8.14,2.13-3.48,1.72-7.35,3.54-9.71,6.42-3.75,4.58-6.95,9.48-8.99,15.5-2.89,8.51-4.18,16.95-3.84,25.71,.11,2.94,1.46,5.83,2.27,8.73,.8,2.87,1.34,5.86,2.5,8.58,3.51,8.25,8.68,15.35,15.14,21.61,9.38,9.09,21.1,13.31,33.42,15.77,5.77,1.15,11.96,.2,19.32,.2-3.1-4.35-6.08-7.59-7.94-11.37-2.47-5.02-4.18-10.42-5.99-15.74-1.71-5.05-2.62-10.43-4.84-15.23-1.92-4.15-2.84-8.16-2.71-12.64,.04-1.29-1.03-2.6-1.8-4.4Zm360.65-72.95c-3.16,.73-7.53,1.55-11.77,2.85-.99,.3-2.26,2.36-2.07,3.36,.74,3.91,2.16,7.69,3.06,11.58,2.06,8.92,4.38,17.8,5.77,26.83,.88,5.7,.64,11.65,.27,17.44-.51,7.87-1.47,15.73-2.56,23.54-.7,5-2.02,9.91-2.95,14.89-.27,1.45-.77,3.65-.06,4.3,.91,.84,3.28,1.13,4.43,.53,5.68-2.98,11.54-5.84,16.65-9.66,7.31-5.48,14.12-11.48,19.29-19.37,3.91-5.97,6.04-12.49,8.45-18.97,.81-2.18,1.07-4.73,.92-7.07-.41-6.21-.54-12.54-1.99-18.54-1.3-5.38-3.42-10.95-6.63-15.38-2.82-3.88-6.54-7.32-11.14-10.01-5.87-3.43-11.92-4.83-19.67-6.33Zm9.91,100.63c11.51-2.33,28.12-19.52,29.33-32.55-4.18,5.93-7.97,12.51-12.95,18.04-4.92,5.46-11.03,9.85-16.38,14.5Z"/><path class="cls-1" d="M312.18,280.85c4.7,3.69,9.36,7.44,14.12,11.06,9.91,7.53,20.64,13.49,32.96,16.02,8.12,1.67,15.2-1.03,20.45-7.08,5.89-6.79,11.01-14.25,16.47-21.42,1.64-2.15,3.12-4.47,5.02-6.37,.83-.83,2.51-.81,3.81-1.18,.2,1.58,.97,3.34,.51,4.7-3.1,9.37-9.28,17.05-15.3,24.5-5.01,6.2-11.87,11.41-19.86,13.19-7.61,1.69-15.6,1.03-22.88-2.45-6.23-2.98-12.32-6.27-18.33-9.67-1.96-1.11-3.57-2.92-5.18-4.57-3.79-3.85-7.57-7.71-11.16-11.74-.93-1.05-1.13-2.75-1.66-4.15,.34-.28,.69-.55,1.03-.83Zm86.05,3.31c-.28-.18-.57-.36-.85-.54-2.11,2.95-4.23,5.9-6.34,8.85,.35,.23,.7,.46,1.05,.69,2.05-3,4.09-6,6.14-9Z"/><path class="cls-1" d="M179.51,302.75c.88-.2,1.45-.34,3.05-.71-10.25-4.15-19.98-7.81-26.03-16.96,3.43,1.94,6.8,4.01,10.31,5.78,5.32,2.69,10.63,5.46,16.16,7.66,8.08,3.21,16.62,4.19,25.3,4.09,9.73-.1,18.4-2.33,24.38-10.94,2.98-4.29,6.29-8.38,9.74-12.31,.83-.95,2.81-.89,4.25-1.3-.24,1.35-.04,3.05-.79,4-5.34,6.77-10.36,13.91-16.48,19.92-7.85,7.72-17.53,10.33-28.81,8.39-7.55-1.29-14.31-3.77-21.08-7.63Z"/><path class="cls-1" d="M97.61,291.3c-11.1-1.65-16.66-9.51-18.48-18.77-.87-4.44-1.6-8.74,.22-13.05,.6-1.41,1.34-2.8,2.22-4.05,1.81-2.56,3.85-3.67,6.56-.9,.63,.64,1.95,.6,3.01,.89,.99-8.9-1.52-13.59-9.25-17.26-6.34-3-13.77-4.39-18.98,1.22-.62-3.61,2.41-4.84,4.3-5.58,10.13-3.96,26.32,2.56,28.18,14.47,.68,4.36-.49,8.61-4.06,10.4-.95,.48-2.99,.35-3.61-.34-1.85-2.04-3.33-.97-3.92,.56-.94,2.47-1.73,5.24-1.61,7.84,.48,10.84,8.47,17.19,15.41,24.55Z"/><path class="cls-1" d="M481.65,215c-.1-3.73-1.89-6.2-5.44-6.07-4.09,.15-7.54,2.68-9.26,6.07-1.84,3.63-3.59,7.92-.94,12.1,.53,.84,1.82,1.37,2.86,1.67,3.24,.95,6.75,1.24,9.74,2.67,3.7,1.76,4.38,5.58,3.83,9.32-1.34,9.11-7.03,15.72-13.22,21.96-.41,.42-1.61,.05-2.81,.05,2.78-3.97,5.16-7.78,7.97-11.24,2.84-3.49,4.71-7.06,4.44-11.73-.24-4.23-3.23-6.92-7.5-6.56-2.75,.23-5.57,1.47-8.12-1.47-3-3.45-3.13-7.48-2.42-11.2,1.19-6.26,3.83-11.9,10.39-14.79,3.63-1.6,9.79-.38,11.36,3.21,.73,1.67,.47,3.78,.66,5.68-.51,.11-1.03,.22-1.54,.33Z"/></g></svg>